<?xml version="1.0" encoding="us-ascii" standalone="no"?><svg xmlns="http://www.w3.org/2000/svg" xmlns:xlink="http://www.w3.org/1999/xlink" contentStyleType="text/css" height="1550px" preserveAspectRatio="none" style="width:3013px;height:1550px;background:#FFFFFF;" version="1.1" viewBox="0 0 3013 1550" width="3013px" zoomAndPan="magnify"><defs/><g><!--cluster drone--><g id="cluster_drone"><rect fill="none" height="1537" rx="2.5" ry="2.5" style="stroke:#000000;stroke-width:1.5;" width="3000" x="7" y="7"/><text fill="#000000" font-family="sans-serif" font-size="16" font-weight="bold" lengthAdjust="spacing" textLength="45" x="1484.5" y="29.6094">drone</text></g><!--cluster commands--><g id="cluster_commands"><rect fill="none" height="539" rx="2.5" ry="2.5" style="stroke:#000000;stroke-width:1.5;" width="745" x="31" y="648"/><text fill="#000000" font-family="sans-serif" font-size="16" font-weight="bold" lengthAdjust="spacing" textLength="85" x="361" y="670.6094">commands</text></g><!--cluster battery--><g id="cluster_battery"><rect fill="none" height="411" rx="2.5" ry="2.5" style="stroke:#000000;stroke-width:1.5;" width="316" x="813" y="699.5"/><text fill="#000000" font-family="sans-serif" font-size="16" font-weight="bold" lengthAdjust="spacing" textLength="53" x="944.5" y="722.1094">battery</text></g><!--cluster direction--><g id="cluster_direction"><rect fill="none" height="808" rx="2.5" ry="2.5" style="stroke:#000000;stroke-width:1.5;" width="939" x="1153" y="712"/><text fill="#000000" font-family="sans-serif" font-size="16" font-weight="bold" lengthAdjust="spacing" textLength="67" x="1589" y="734.6094">direction</text></g><!--cluster direction_states--><g id="cluster_direction_states"><rect fill="none" height="115" rx="2.5" ry="2.5" style="stroke:#000000;stroke-width:1.5;" width="891" x="1177" y="1381"/><text fill="#000000" font-family="sans-serif" font-size="16" font-weight="bold" lengthAdjust="spacing" textLength="122" x="1561.5" y="1403.6094">direction_states</text></g><!--cluster drone_observers--><g id="cluster_drone_observers"><rect fill="none" height="115" rx="2.5" ry="2.5" style="stroke:#000000;stroke-width:1.5;" width="867" x="2116" y="712"/><text fill="#000000" font-family="sans-serif" font-size="16" font-weight="bold" lengthAdjust="spacing" textLength="131" x="2484" y="734.6094">drone_observers</text></g><!--class FlightManager--><g id="elem_FlightManager"><rect codeLine="20" fill="#F1F1F1" height="256.4844" id="FlightManager" rx="2.5" ry="2.5" style="stroke:#181818;stroke-width:0.5;" width="360" x="1919" y="54"/><ellipse cx="2045.25" cy="71.8047" fill="#ADD1B2" rx="11" ry="11" style="stroke:#181818;stroke-width:1.0;"/><path d="M2048.0156,67.6797 Q2048.1719,67.4609 2048.3594,67.3516 Q2048.5469,67.2422 2048.7656,67.2422 Q2049.1406,67.2422 2049.375,67.5078 Q2049.6094,67.7578 2049.6094,68.3672 L2049.6094,69.8203 Q2049.6094,70.4297 2049.375,70.6953 Q2049.1406,70.9609 2048.7656,70.9609 Q2048.4219,70.9609 2048.2188,70.7578 Q2048.0156,70.5703 2047.9063,70.0547 Q2047.8594,69.6953 2047.6719,69.5078 Q2047.3438,69.1328 2046.7344,68.9141 Q2046.125,68.6953 2045.5,68.6953 Q2044.7344,68.6953 2044.0938,69.0234 Q2043.4688,69.3516 2042.9688,70.1016 Q2042.4844,70.8516 2042.4844,71.8828 L2042.4844,72.9766 Q2042.4844,74.2109 2043.375,75.0391 Q2044.2656,75.8516 2045.8594,75.8516 Q2046.7969,75.8516 2047.4531,75.6016 Q2047.8438,75.4453 2048.2656,75.0078 Q2048.5313,74.7422 2048.6719,74.6641 Q2048.8281,74.5859 2049.0313,74.5859 Q2049.3594,74.5859 2049.6094,74.8516 Q2049.875,75.1016 2049.875,75.4453 Q2049.875,75.7891 2049.5313,76.1953 Q2049.0313,76.7734 2048.2344,77.1016 Q2047.1563,77.5547 2045.8594,77.5547 Q2044.3438,77.5547 2043.1406,76.9297 Q2042.1563,76.4297 2041.4688,75.3672 Q2040.7813,74.2891 2040.7813,73.0078 L2040.7813,71.8516 Q2040.7813,70.5234 2041.3906,69.3828 Q2042.0156,68.2266 2043.1094,67.6172 Q2044.2031,66.9922 2045.4375,66.9922 Q2046.1719,66.9922 2046.8125,67.1641 Q2047.4688,67.3203 2048.0156,67.6797 Z " fill="#000000"/><text fill="#000000" font-family="sans-serif" font-size="14" lengthAdjust="spacing" textLength="91" x="2069.75" y="77.5332">FlightManager</text><line style="stroke:#181818;stroke-width:0.5;" x1="1920" x2="2278" y1="89.6094" y2="89.6094"/><rect fill="none" height="6" style="stroke:#C82930;stroke-width:1.0;" width="6" x="1927" y="104.9141"/><text fill="#000000" font-family="sans-serif" font-size="14" lengthAdjust="spacing" textLength="193" x="1943" y="112.1426">PreviousResult previousResult</text><rect fill="none" height="6" style="stroke:#C82930;stroke-width:1.0;" width="6" x="1927" y="130.5234"/><text fill="#000000" font-family="sans-serif" font-size="14" lengthAdjust="spacing" textLength="233" x="1943" y="137.752">AlgorithmManager algorithmManager</text><rect fill="none" height="6" style="stroke:#C82930;stroke-width:1.0;" width="6" x="1927" y="156.1328"/><text fill="#000000" font-family="sans-serif" font-size="14" lengthAdjust="spacing" textLength="158" x="1943" y="163.3613">POIManager poiManager</text><line style="stroke:#181818;stroke-width:0.5;" x1="1920" x2="2278" y1="174.4375" y2="174.4375"/><ellipse cx="1930" cy="192.7422" fill="#84BE84" rx="3" ry="3" style="stroke:#038048;stroke-width:1.0;"/><text fill="#000000" font-family="sans-serif" font-size="14" lengthAdjust="spacing" textLength="293" x="1943" y="196.9707">initialize(String direction, int batteryLevel): void</text><ellipse cx="1930" cy="218.3516" fill="#84BE84" rx="3" ry="3" style="stroke:#038048;stroke-width:1.0;"/><text fill="#000000" font-family="sans-serif" font-size="14" lengthAdjust="spacing" textLength="129" x="1943" y="222.5801">getDecision(): String</text><ellipse cx="1930" cy="243.9609" fill="#84BE84" rx="3" ry="3" style="stroke:#038048;stroke-width:1.0;"/><text fill="#000000" font-family="sans-serif" font-size="14" lengthAdjust="spacing" textLength="295" x="1943" y="248.1895">acknowledgeResults(JSONObject results): void</text><ellipse cx="1930" cy="269.5703" fill="#84BE84" rx="3" ry="3" style="stroke:#038048;stroke-width:1.0;"/><text fill="#000000" font-family="sans-serif" font-size="14" lengthAdjust="spacing" textLength="149" x="1943" y="273.7988">getFinalReport(): String</text><rect fill="#F24D5C" height="6" style="stroke:#C82930;stroke-width:1.0;" width="6" x="1927" y="292.1797"/><text fill="#000000" font-family="sans-serif" font-size="14" lengthAdjust="spacing" textLength="326" x="1943" y="299.4082">addStatusObserver(StatusObserver observer): void</text></g><!--class DroneStatus--><g id="elem_DroneStatus"><rect codeLine="31" fill="#F1F1F1" height="77.2188" id="DroneStatus" rx="2.5" ry="2.5" style="stroke:#181818;stroke-width:0.5;" width="287" x="1188.5" y="452.5"/><ellipse cx="1284.25" cy="470.3047" fill="#ADD1B2" rx="11" ry="11" style="stroke:#181818;stroke-width:1.0;"/><path d="M1287.0156,466.1797 Q1287.1719,465.9609 1287.3594,465.8516 Q1287.5469,465.7422 1287.7656,465.7422 Q1288.1406,465.7422 1288.375,466.0078 Q1288.6094,466.2578 1288.6094,466.8672 L1288.6094,468.3203 Q1288.6094,468.9297 1288.375,469.1953 Q1288.1406,469.4609 1287.7656,469.4609 Q1287.4219,469.4609 1287.2188,469.2578 Q1287.0156,469.0703 1286.9063,468.5547 Q1286.8594,468.1953 1286.6719,468.0078 Q1286.3438,467.6328 1285.7344,467.4141 Q1285.125,467.1953 1284.5,467.1953 Q1283.7344,467.1953 1283.0938,467.5234 Q1282.4688,467.8516 1281.9688,468.6016 Q1281.4844,469.3516 1281.4844,470.3828 L1281.4844,471.4766 Q1281.4844,472.7109 1282.375,473.5391 Q1283.2656,474.3516 1284.8594,474.3516 Q1285.7969,474.3516 1286.4531,474.1016 Q1286.8438,473.9453 1287.2656,473.5078 Q1287.5313,473.2422 1287.6719,473.1641 Q1287.8281,473.0859 1288.0313,473.0859 Q1288.3594,473.0859 1288.6094,473.3516 Q1288.875,473.6016 1288.875,473.9453 Q1288.875,474.2891 1288.5313,474.6953 Q1288.0313,475.2734 1287.2344,475.6016 Q1286.1563,476.0547 1284.8594,476.0547 Q1283.3438,476.0547 1282.1406,475.4297 Q1281.1563,474.9297 1280.4688,473.8672 Q1279.7813,472.7891 1279.7813,471.5078 L1279.7813,470.3516 Q1279.7813,469.0234 1280.3906,467.8828 Q1281.0156,466.7266 1282.1094,466.1172 Q1283.2031,465.4922 1284.4375,465.4922 Q1285.1719,465.4922 1285.8125,465.6641 Q1286.4688,465.8203 1287.0156,466.1797 Z " fill="#000000"/><text fill="#000000" font-family="sans-serif" font-size="14" lengthAdjust="spacing" textLength="79" x="1308.75" y="476.0332">DroneStatus</text><line style="stroke:#181818;stroke-width:0.5;" x1="1189.5" x2="1474.5" y1="488.1094" y2="488.1094"/><rect fill="none" height="6" style="stroke:#C82930;stroke-width:1.0;" width="6" x="1196.5" y="503.4141"/><text fill="#000000" font-family="sans-serif" font-size="14" lengthAdjust="spacing" textLength="253" x="1212.5" y="510.6426">CoordinateManager coordinateManager</text><line style="stroke:#181818;stroke-width:0.5;" x1="1189.5" x2="1474.5" y1="521.7188" y2="521.7188"/></g><!--class PreviousResult--><g id="elem_PreviousResult"><rect codeLine="35" fill="#F1F1F1" height="256.4844" id="PreviousResult" rx="2.5" ry="2.5" style="stroke:#181818;stroke-width:0.5;" width="450" x="1619" y="363"/><ellipse cx="1788.25" cy="380.8047" fill="#ADD1B2" rx="11" ry="11" style="stroke:#181818;stroke-width:1.0;"/><path d="M1791.0156,376.6797 Q1791.1719,376.4609 1791.3594,376.3516 Q1791.5469,376.2422 1791.7656,376.2422 Q1792.1406,376.2422 1792.375,376.5078 Q1792.6094,376.7578 1792.6094,377.3672 L1792.6094,378.8203 Q1792.6094,379.4297 1792.375,379.6953 Q1792.1406,379.9609 1791.7656,379.9609 Q1791.4219,379.9609 1791.2188,379.7578 Q1791.0156,379.5703 1790.9063,379.0547 Q1790.8594,378.6953 1790.6719,378.5078 Q1790.3438,378.1328 1789.7344,377.9141 Q1789.125,377.6953 1788.5,377.6953 Q1787.7344,377.6953 1787.0938,378.0234 Q1786.4688,378.3516 1785.9688,379.1016 Q1785.4844,379.8516 1785.4844,380.8828 L1785.4844,381.9766 Q1785.4844,383.2109 1786.375,384.0391 Q1787.2656,384.8516 1788.8594,384.8516 Q1789.7969,384.8516 1790.4531,384.6016 Q1790.8438,384.4453 1791.2656,384.0078 Q1791.5313,383.7422 1791.6719,383.6641 Q1791.8281,383.5859 1792.0313,383.5859 Q1792.3594,383.5859 1792.6094,383.8516 Q1792.875,384.1016 1792.875,384.4453 Q1792.875,384.7891 1792.5313,385.1953 Q1792.0313,385.7734 1791.2344,386.1016 Q1790.1563,386.5547 1788.8594,386.5547 Q1787.3438,386.5547 1786.1406,385.9297 Q1785.1563,385.4297 1784.4688,384.3672 Q1783.7813,383.2891 1783.7813,382.0078 L1783.7813,380.8516 Q1783.7813,379.5234 1784.3906,378.3828 Q1785.0156,377.2266 1786.1094,376.6172 Q1787.2031,375.9922 1788.4375,375.9922 Q1789.1719,375.9922 1789.8125,376.1641 Q1790.4688,376.3203 1791.0156,376.6797 Z " fill="#000000"/><text fill="#000000" font-family="sans-serif" font-size="14" lengthAdjust="spacing" textLength="95" x="1812.75" y="386.5332">PreviousResult</text><line style="stroke:#181818;stroke-width:0.5;" x1="1620" x2="2068" y1="398.6094" y2="398.6094"/><rect fill="none" height="6" style="stroke:#C82930;stroke-width:1.0;" width="6" x="1627" y="413.9141"/><text fill="#000000" font-family="sans-serif" font-size="14" lengthAdjust="spacing" textLength="45" x="1643" y="421.1426">int cost</text><rect fill="none" height="6" style="stroke:#C82930;stroke-width:1.0;" width="6" x="1627" y="439.5234"/><text fill="#000000" font-family="sans-serif" font-size="14" lengthAdjust="spacing" textLength="79" x="1643" y="446.752">String status</text><rect fill="none" height="6" style="stroke:#C82930;stroke-width:1.0;" width="6" x="1627" y="465.1328"/><text fill="#000000" font-family="sans-serif" font-size="14" lengthAdjust="spacing" textLength="118" x="1643" y="472.3613">JSONObject extras</text><line style="stroke:#181818;stroke-width:0.5;" x1="1620" x2="2068" y1="483.4375" y2="483.4375"/><ellipse cx="1630" cy="501.7422" fill="#84BE84" rx="3" ry="3" style="stroke:#038048;stroke-width:1.0;"/><text fill="#000000" font-family="sans-serif" font-size="14" lengthAdjust="spacing" textLength="416" x="1643" y="505.9707">setPreviousResult(int cost, String status, JSONObject extras): void</text><ellipse cx="1630" cy="527.3516" fill="#84BE84" rx="3" ry="3" style="stroke:#038048;stroke-width:1.0;"/><text fill="#000000" font-family="sans-serif" font-size="14" lengthAdjust="spacing" textLength="239" x="1643" y="531.5801">getFound(String foundType): boolean</text><rect fill="#F24D5C" height="6" style="stroke:#C82930;stroke-width:1.0;" width="6" x="1627" y="549.9609"/><text fill="#000000" font-family="sans-serif" font-size="14" lengthAdjust="spacing" textLength="153" x="1643" y="557.1895">getExtras(): JSONObject</text><ellipse cx="1630" cy="578.5703" fill="#84BE84" rx="3" ry="3" style="stroke:#038048;stroke-width:1.0;"/><text fill="#000000" font-family="sans-serif" font-size="14" lengthAdjust="spacing" textLength="142" x="1643" y="582.7988">retrieveSites(): String[]</text><ellipse cx="1630" cy="604.1797" fill="#84BE84" rx="3" ry="3" style="stroke:#038048;stroke-width:1.0;"/><text fill="#000000" font-family="sans-serif" font-size="14" lengthAdjust="spacing" textLength="156" x="1643" y="608.4082">retrieveCreeks(): String[]</text></g><!--class StatusObserver--><g id="elem_StatusObserver"><rect codeLine="46" fill="#F1F1F1" height="77.2188" id="StatusObserver" rx="2.5" ry="2.5" style="stroke:#181818;stroke-width:0.5;" width="431" x="2139.5" y="452.5"/><ellipse cx="2297.75" cy="470.3047" fill="#B4A7E5" rx="11" ry="11" style="stroke:#181818;stroke-width:1.0;"/><path d="M2298.7031,466.9453 L2298.7031,473.6016 L2300.4219,473.6016 Q2301.0313,473.6016 2301.2969,473.8359 Q2301.5625,474.0703 2301.5625,474.4609 Q2301.5625,474.8359 2301.2969,475.0703 Q2301.0313,475.3047 2300.4219,475.3047 L2295.2813,475.3047 Q2294.6719,475.3047 2294.4063,475.0703 Q2294.1406,474.8359 2294.1406,474.4453 Q2294.1406,474.0703 2294.4063,473.8359 Q2294.6719,473.6016 2295.2813,473.6016 L2297,473.6016 L2297,466.9453 L2295.2813,466.9453 Q2294.6719,466.9453 2294.4063,466.7109 Q2294.1406,466.4766 2294.1406,466.0859 Q2294.1406,465.7109 2294.4063,465.4766 Q2294.6719,465.2422 2295.2813,465.2422 L2300.4219,465.2422 Q2301.0313,465.2422 2301.2969,465.4766 Q2301.5625,465.7109 2301.5625,466.0859 Q2301.5625,466.4766 2301.2969,466.7109 Q2301.0313,466.9453 2300.4219,466.9453 L2298.7031,466.9453 Z " fill="#000000"/><text fill="#000000" font-family="sans-serif" font-size="14" font-style="italic" lengthAdjust="spacing" textLength="98" x="2322.25" y="476.0332">StatusObserver</text><line style="stroke:#181818;stroke-width:0.5;" x1="2140.5" x2="2569.5" y1="488.1094" y2="488.1094"/><line style="stroke:#181818;stroke-width:0.5;" x1="2140.5" x2="2569.5" y1="496.1094" y2="496.1094"/><ellipse cx="2150.5" cy="514.4141" fill="#84BE84" rx="3" ry="3" style="stroke:#038048;stroke-width:1.0;"/><text fill="#000000" font-family="sans-serif" font-size="14" lengthAdjust="spacing" textLength="397" x="2163.5" y="518.6426">updateStatus(DroneStatus, PreviousResult, POIManager): void</text></g><!--class Builder--><g id="elem_Builder"><rect codeLine="152" fill="#F1F1F1" height="282.0938" id="Builder" rx="2.5" ry="2.5" style="stroke:#181818;stroke-width:0.5;" width="350" x="2641" y="350"/><ellipse cx="2785.75" cy="367.8047" fill="#ADD1B2" rx="11" ry="11" style="stroke:#181818;stroke-width:1.0;"/><path d="M2788.5156,363.6797 Q2788.6719,363.4609 2788.8594,363.3516 Q2789.0469,363.2422 2789.2656,363.2422 Q2789.6406,363.2422 2789.875,363.5078 Q2790.1094,363.7578 2790.1094,364.3672 L2790.1094,365.8203 Q2790.1094,366.4297 2789.875,366.6953 Q2789.6406,366.9609 2789.2656,366.9609 Q2788.9219,366.9609 2788.7188,366.7578 Q2788.5156,366.5703 2788.4063,366.0547 Q2788.3594,365.6953 2788.1719,365.5078 Q2787.8438,365.1328 2787.2344,364.9141 Q2786.625,364.6953 2786,364.6953 Q2785.2344,364.6953 2784.5938,365.0234 Q2783.9688,365.3516 2783.4688,366.1016 Q2782.9844,366.8516 2782.9844,367.8828 L2782.9844,368.9766 Q2782.9844,370.2109 2783.875,371.0391 Q2784.7656,371.8516 2786.3594,371.8516 Q2787.2969,371.8516 2787.9531,371.6016 Q2788.3438,371.4453 2788.7656,371.0078 Q2789.0313,370.7422 2789.1719,370.6641 Q2789.3281,370.5859 2789.5313,370.5859 Q2789.8594,370.5859 2790.1094,370.8516 Q2790.375,371.1016 2790.375,371.4453 Q2790.375,371.7891 2790.0313,372.1953 Q2789.5313,372.7734 2788.7344,373.1016 Q2787.6563,373.5547 2786.3594,373.5547 Q2784.8438,373.5547 2783.6406,372.9297 Q2782.6563,372.4297 2781.9688,371.3672 Q2781.2813,370.2891 2781.2813,369.0078 L2781.2813,367.8516 Q2781.2813,366.5234 2781.8906,365.3828 Q2782.5156,364.2266 2783.6094,363.6172 Q2784.7031,362.9922 2785.9375,362.9922 Q2786.6719,362.9922 2787.3125,363.1641 Q2787.9688,363.3203 2788.5156,363.6797 Z " fill="#000000"/><text fill="#000000" font-family="sans-serif" font-size="14" lengthAdjust="spacing" textLength="44" x="2810.25" y="373.5332">Builder</text><line style="stroke:#181818;stroke-width:0.5;" x1="2642" x2="2990" y1="385.6094" y2="385.6094"/><rect fill="none" height="6" style="stroke:#C82930;stroke-width:1.0;" width="6" x="2649" y="400.9141"/><text fill="#000000" font-family="sans-serif" font-size="14" lengthAdjust="spacing" textLength="193" x="2665" y="408.1426">PreviousResult previousResult</text><rect fill="none" height="6" style="stroke:#C82930;stroke-width:1.0;" width="6" x="2649" y="426.5234"/><text fill="#000000" font-family="sans-serif" font-size="14" lengthAdjust="spacing" textLength="233" x="2665" y="433.752">AlgorithmManager algorithmManager</text><rect fill="none" height="6" style="stroke:#C82930;stroke-width:1.0;" width="6" x="2649" y="452.1328"/><text fill="#000000" font-family="sans-serif" font-size="14" lengthAdjust="spacing" textLength="160" x="2665" y="459.3613">DroneStatus droneStatus</text><rect fill="none" height="6" style="stroke:#C82930;stroke-width:1.0;" width="6" x="2649" y="477.7422"/><text fill="#000000" font-family="sans-serif" font-size="14" lengthAdjust="spacing" textLength="158" x="2665" y="484.9707">POIManager poiManager</text><line style="stroke:#181818;stroke-width:0.5;" x1="2642" x2="2990" y1="496.0469" y2="496.0469"/><ellipse cx="2652" cy="514.3516" fill="#84BE84" rx="3" ry="3" style="stroke:#038048;stroke-width:1.0;"/><text fill="#000000" font-family="sans-serif" font-size="14" lengthAdjust="spacing" textLength="283" x="2665" y="518.5801">withPreviousResults(PreviousResult): Builder</text><ellipse cx="2652" cy="539.9609" fill="#84BE84" rx="3" ry="3" style="stroke:#038048;stroke-width:1.0;"/><text fill="#000000" font-family="sans-serif" font-size="14" lengthAdjust="spacing" textLength="316" x="2665" y="544.1895">withAlgorithmManager(AlgorithmManager): Builder</text><ellipse cx="2652" cy="565.5703" fill="#84BE84" rx="3" ry="3" style="stroke:#038048;stroke-width:1.0;"/><text fill="#000000" font-family="sans-serif" font-size="14" lengthAdjust="spacing" textLength="244" x="2665" y="569.7988">withDroneStatus(DroneStatus): Builder</text><ellipse cx="2652" cy="591.1797" fill="#84BE84" rx="3" ry="3" style="stroke:#038048;stroke-width:1.0;"/><text fill="#000000" font-family="sans-serif" font-size="14" lengthAdjust="spacing" textLength="244" x="2665" y="595.4082">withPOIManager(POIManager): Builder</text><ellipse cx="2652" cy="616.7891" fill="#84BE84" rx="3" ry="3" style="stroke:#038048;stroke-width:1.0;"/><text fill="#000000" font-family="sans-serif" font-size="14" lengthAdjust="spacing" textLength="139" x="2665" y="621.0176">build(): FlightManager</text></g><!--class CommandCenter--><g id="elem_CommandCenter"><rect codeLine="51" fill="#F1F1F1" height="179.6563" id="CommandCenter" rx="2.5" ry="2.5" style="stroke:#181818;stroke-width:0.5;" width="341" x="418.5" y="695"/><ellipse cx="527.25" cy="712.8047" fill="#ADD1B2" rx="11" ry="11" style="stroke:#181818;stroke-width:1.0;"/><path d="M530.0156,708.6797 Q530.1719,708.4609 530.3594,708.3516 Q530.5469,708.2422 530.7656,708.2422 Q531.1406,708.2422 531.375,708.5078 Q531.6094,708.7578 531.6094,709.3672 L531.6094,710.8203 Q531.6094,711.4297 531.375,711.6953 Q531.1406,711.9609 530.7656,711.9609 Q530.4219,711.9609 530.2188,711.7578 Q530.0156,711.5703 529.9063,711.0547 Q529.8594,710.6953 529.6719,710.5078 Q529.3438,710.1328 528.7344,709.9141 Q528.125,709.6953 527.5,709.6953 Q526.7344,709.6953 526.0938,710.0234 Q525.4688,710.3516 524.9688,711.1016 Q524.4844,711.8516 524.4844,712.8828 L524.4844,713.9766 Q524.4844,715.2109 525.375,716.0391 Q526.2656,716.8516 527.8594,716.8516 Q528.7969,716.8516 529.4531,716.6016 Q529.8438,716.4453 530.2656,716.0078 Q530.5313,715.7422 530.6719,715.6641 Q530.8281,715.5859 531.0313,715.5859 Q531.3594,715.5859 531.6094,715.8516 Q531.875,716.1016 531.875,716.4453 Q531.875,716.7891 531.5313,717.1953 Q531.0313,717.7734 530.2344,718.1016 Q529.1563,718.5547 527.8594,718.5547 Q526.3438,718.5547 525.1406,717.9297 Q524.1563,717.4297 523.4688,716.3672 Q522.7813,715.2891 522.7813,714.0078 L522.7813,712.8516 Q522.7813,711.5234 523.3906,710.3828 Q524.0156,709.2266 525.1094,708.6172 Q526.2031,707.9922 527.4375,707.9922 Q528.1719,707.9922 528.8125,708.1641 Q529.4688,708.3203 530.0156,708.6797 Z " fill="#000000"/><text fill="#000000" font-family="sans-serif" font-size="14" lengthAdjust="spacing" textLength="107" x="551.75" y="718.5332">CommandCenter</text><line style="stroke:#181818;stroke-width:0.5;" x1="419.5" x2="758.5" y1="730.6094" y2="730.6094"/><line style="stroke:#181818;stroke-width:0.5;" x1="419.5" x2="758.5" y1="738.6094" y2="738.6094"/><ellipse cx="429.5" cy="756.9141" fill="#84BE84" rx="3" ry="3" style="stroke:#038048;stroke-width:1.0;"/><text fill="#000000" font-family="sans-serif" font-size="14" lengthAdjust="spacing" textLength="117" x="442.5" y="761.1426">CommandCenter()</text><ellipse cx="429.5" cy="782.5234" fill="#84BE84" rx="3" ry="3" style="stroke:#038048;stroke-width:1.0;"/><text fill="#000000" font-family="sans-serif" font-size="14" lengthAdjust="spacing" textLength="307" x="442.5" y="786.752">makeAction(String action, String heading): String</text><ellipse cx="429.5" cy="808.1328" fill="#84BE84" rx="3" ry="3" style="stroke:#038048;stroke-width:1.0;"/><text fill="#000000" font-family="sans-serif" font-size="14" lengthAdjust="spacing" textLength="207" x="442.5" y="812.3613">makeAction(String action): String</text><ellipse cx="429.5" cy="833.7422" fill="#84BE84" rx="3" ry="3" style="stroke:#038048;stroke-width:1.0;"/><text fill="#000000" font-family="sans-serif" font-size="14" lengthAdjust="spacing" textLength="240" x="442.5" y="837.9707">wasPrevAction(String action): boolean</text><ellipse cx="429.5" cy="859.3516" fill="#84BE84" rx="3" ry="3" style="stroke:#038048;stroke-width:1.0;"/><text fill="#000000" font-family="sans-serif" font-size="14" lengthAdjust="spacing" textLength="266" x="442.5" y="863.5801">wasPrevHeading(String heading): boolean</text></g><!--class FlightCommands--><g id="elem_FlightCommands"><rect codeLine="59" fill="#F1F1F1" height="256.4844" id="FlightCommands" rx="2.5" ry="2.5" style="stroke:#181818;stroke-width:0.5;" width="327" x="47.5" y="915"/><ellipse cx="149.75" cy="932.8047" fill="#ADD1B2" rx="11" ry="11" style="stroke:#181818;stroke-width:1.0;"/><path d="M152.5156,928.6797 Q152.6719,928.4609 152.8594,928.3516 Q153.0469,928.2422 153.2656,928.2422 Q153.6406,928.2422 153.875,928.5078 Q154.1094,928.7578 154.1094,929.3672 L154.1094,930.8203 Q154.1094,931.4297 153.875,931.6953 Q153.6406,931.9609 153.2656,931.9609 Q152.9219,931.9609 152.7188,931.7578 Q152.5156,931.5703 152.4063,931.0547 Q152.3594,930.6953 152.1719,930.5078 Q151.8438,930.1328 151.2344,929.9141 Q150.625,929.6953 150,929.6953 Q149.2344,929.6953 148.5938,930.0234 Q147.9688,930.3516 147.4688,931.1016 Q146.9844,931.8516 146.9844,932.8828 L146.9844,933.9766 Q146.9844,935.2109 147.875,936.0391 Q148.7656,936.8516 150.3594,936.8516 Q151.2969,936.8516 151.9531,936.6016 Q152.3438,936.4453 152.7656,936.0078 Q153.0313,935.7422 153.1719,935.6641 Q153.3281,935.5859 153.5313,935.5859 Q153.8594,935.5859 154.1094,935.8516 Q154.375,936.1016 154.375,936.4453 Q154.375,936.7891 154.0313,937.1953 Q153.5313,937.7734 152.7344,938.1016 Q151.6563,938.5547 150.3594,938.5547 Q148.8438,938.5547 147.6406,937.9297 Q146.6563,937.4297 145.9688,936.3672 Q145.2813,935.2891 145.2813,934.0078 L145.2813,932.8516 Q145.2813,931.5234 145.8906,930.3828 Q146.5156,929.2266 147.6094,928.6172 Q148.7031,927.9922 149.9375,927.9922 Q150.6719,927.9922 151.3125,928.1641 Q151.9688,928.3203 152.5156,928.6797 Z " fill="#000000"/><text fill="#000000" font-family="sans-serif" font-size="14" lengthAdjust="spacing" textLength="106" x="174.25" y="938.5332">FlightCommands</text><line style="stroke:#181818;stroke-width:0.5;" x1="48.5" x2="373.5" y1="950.6094" y2="950.6094"/><rect fill="none" height="6" style="stroke:#C82930;stroke-width:1.0;" width="6" x="55.5" y="965.9141"/><text fill="#000000" font-family="sans-serif" font-size="14" lengthAdjust="spacing" textLength="79" x="71.5" y="973.1426">String action</text><line style="stroke:#181818;stroke-width:0.5;" x1="48.5" x2="373.5" y1="984.2188" y2="984.2188"/><ellipse cx="58.5" cy="1002.5234" fill="#84BE84" rx="3" ry="3" style="stroke:#038048;stroke-width:1.0;"/><text fill="#000000" font-family="sans-serif" font-size="14" lengthAdjust="spacing" textLength="293" x="71.5" y="1006.752">getAction(String action, String heading): String</text><ellipse cx="58.5" cy="1028.1328" fill="#84BE84" rx="3" ry="3" style="stroke:#038048;stroke-width:1.0;"/><text fill="#000000" font-family="sans-serif" font-size="14" lengthAdjust="spacing" textLength="193" x="71.5" y="1032.3613">getAction(String action): String</text><rect fill="#F24D5C" height="6" style="stroke:#C82930;stroke-width:1.0;" width="6" x="55.5" y="1050.7422"/><text fill="#000000" font-family="sans-serif" font-size="14" lengthAdjust="spacing" textLength="69" x="71.5" y="1057.9707">fly(): String</text><rect fill="#F24D5C" height="6" style="stroke:#C82930;stroke-width:1.0;" width="6" x="55.5" y="1076.3516"/><text fill="#000000" font-family="sans-serif" font-size="14" lengthAdjust="spacing" textLength="163" x="71.5" y="1083.5801">heading(String dir): String</text><rect fill="#F24D5C" height="6" style="stroke:#C82930;stroke-width:1.0;" width="6" x="55.5" y="1101.9609"/><text fill="#000000" font-family="sans-serif" font-size="14" lengthAdjust="spacing" textLength="143" x="71.5" y="1109.1895">echo(String dir): String</text><rect fill="#F24D5C" height="6" style="stroke:#C82930;stroke-width:1.0;" width="6" x="55.5" y="1127.5703"/><text fill="#000000" font-family="sans-serif" font-size="14" lengthAdjust="spacing" textLength="85" x="71.5" y="1134.7988">scan(): String</text><rect fill="#F24D5C" height="6" style="stroke:#C82930;stroke-width:1.0;" width="6" x="55.5" y="1153.1797"/><text fill="#000000" font-family="sans-serif" font-size="14" lengthAdjust="spacing" textLength="82" x="71.5" y="1160.4082">stop(): String</text></g><!--class PreviousDecision--><g id="elem_PreviousDecision"><rect codeLine="70" fill="#F1F1F1" height="256.4844" id="PreviousDecision" rx="2.5" ry="2.5" style="stroke:#181818;stroke-width:0.5;" width="315" x="444.5" y="915"/><ellipse cx="539.25" cy="932.8047" fill="#ADD1B2" rx="11" ry="11" style="stroke:#181818;stroke-width:1.0;"/><path d="M542.0156,928.6797 Q542.1719,928.4609 542.3594,928.3516 Q542.5469,928.2422 542.7656,928.2422 Q543.1406,928.2422 543.375,928.5078 Q543.6094,928.7578 543.6094,929.3672 L543.6094,930.8203 Q543.6094,931.4297 543.375,931.6953 Q543.1406,931.9609 542.7656,931.9609 Q542.4219,931.9609 542.2188,931.7578 Q542.0156,931.5703 541.9063,931.0547 Q541.8594,930.6953 541.6719,930.5078 Q541.3438,930.1328 540.7344,929.9141 Q540.125,929.6953 539.5,929.6953 Q538.7344,929.6953 538.0938,930.0234 Q537.4688,930.3516 536.9688,931.1016 Q536.4844,931.8516 536.4844,932.8828 L536.4844,933.9766 Q536.4844,935.2109 537.375,936.0391 Q538.2656,936.8516 539.8594,936.8516 Q540.7969,936.8516 541.4531,936.6016 Q541.8438,936.4453 542.2656,936.0078 Q542.5313,935.7422 542.6719,935.6641 Q542.8281,935.5859 543.0313,935.5859 Q543.3594,935.5859 543.6094,935.8516 Q543.875,936.1016 543.875,936.4453 Q543.875,936.7891 543.5313,937.1953 Q543.0313,937.7734 542.2344,938.1016 Q541.1563,938.5547 539.8594,938.5547 Q538.3438,938.5547 537.1406,937.9297 Q536.1563,937.4297 535.4688,936.3672 Q534.7813,935.2891 534.7813,934.0078 L534.7813,932.8516 Q534.7813,931.5234 535.3906,930.3828 Q536.0156,929.2266 537.1094,928.6172 Q538.2031,927.9922 539.4375,927.9922 Q540.1719,927.9922 540.8125,928.1641 Q541.4688,928.3203 542.0156,928.6797 Z " fill="#000000"/><text fill="#000000" font-family="sans-serif" font-size="14" lengthAdjust="spacing" textLength="109" x="563.75" y="938.5332">PreviousDecision</text><line style="stroke:#181818;stroke-width:0.5;" x1="445.5" x2="758.5" y1="950.6094" y2="950.6094"/><rect fill="none" height="6" style="stroke:#C82930;stroke-width:1.0;" width="6" x="452.5" y="965.9141"/><text fill="#000000" font-family="sans-serif" font-size="14" lengthAdjust="spacing" textLength="108" x="468.5" y="973.1426">String prevAction</text><rect fill="none" height="6" style="stroke:#C82930;stroke-width:1.0;" width="6" x="452.5" y="991.5234"/><text fill="#000000" font-family="sans-serif" font-size="14" lengthAdjust="spacing" textLength="121" x="468.5" y="998.752">String prevHeading</text><rect fill="none" height="6" style="stroke:#C82930;stroke-width:1.0;" width="6" x="452.5" y="1017.1328"/><text fill="#000000" font-family="sans-serif" font-size="14" lengthAdjust="spacing" textLength="108" x="468.5" y="1024.3613">String prevUTurn</text><line style="stroke:#181818;stroke-width:0.5;" x1="445.5" x2="758.5" y1="1035.4375" y2="1035.4375"/><ellipse cx="455.5" cy="1053.7422" fill="#84BE84" rx="3" ry="3" style="stroke:#038048;stroke-width:1.0;"/><text fill="#000000" font-family="sans-serif" font-size="14" lengthAdjust="spacing" textLength="181" x="468.5" y="1057.9707">setAction(String action): void</text><ellipse cx="455.5" cy="1079.3516" fill="#84BE84" rx="3" ry="3" style="stroke:#038048;stroke-width:1.0;"/><text fill="#000000" font-family="sans-serif" font-size="14" lengthAdjust="spacing" textLength="281" x="468.5" y="1083.5801">setAction(String action, String heading): void</text><ellipse cx="455.5" cy="1104.9609" fill="#84BE84" rx="3" ry="3" style="stroke:#038048;stroke-width:1.0;"/><text fill="#000000" font-family="sans-serif" font-size="14" lengthAdjust="spacing" textLength="253" x="468.5" y="1109.1895">setPrevUTurn(String turnDirection): void</text><ellipse cx="455.5" cy="1130.5703" fill="#84BE84" rx="3" ry="3" style="stroke:#038048;stroke-width:1.0;"/><text fill="#000000" font-family="sans-serif" font-size="14" lengthAdjust="spacing" textLength="143" x="468.5" y="1134.7988">getPrevUTurn(): String</text><ellipse cx="455.5" cy="1156.1797" fill="#84BE84" rx="3" ry="3" style="stroke:#038048;stroke-width:1.0;"/><text fill="#000000" font-family="sans-serif" font-size="14" lengthAdjust="spacing" textLength="171" x="468.5" y="1160.4082">getOppositeUTurn(): String</text></g><!--class BatteryManager--><g id="elem_BatteryManager"><rect codeLine="86" fill="#F1F1F1" height="77.2188" id="BatteryManager" rx="2.5" ry="2.5" style="stroke:#181818;stroke-width:0.5;" width="264" x="844" y="746.5"/><ellipse cx="916.75" cy="764.3047" fill="#B4A7E5" rx="11" ry="11" style="stroke:#181818;stroke-width:1.0;"/><path d="M917.7031,760.9453 L917.7031,767.6016 L919.4219,767.6016 Q920.0313,767.6016 920.2969,767.8359 Q920.5625,768.0703 920.5625,768.4609 Q920.5625,768.8359 920.2969,769.0703 Q920.0313,769.3047 919.4219,769.3047 L914.2813,769.3047 Q913.6719,769.3047 913.4063,769.0703 Q913.1406,768.8359 913.1406,768.4453 Q913.1406,768.0703 913.4063,767.8359 Q913.6719,767.6016 914.2813,767.6016 L916,767.6016 L916,760.9453 L914.2813,760.9453 Q913.6719,760.9453 913.4063,760.7109 Q913.1406,760.4766 913.1406,760.0859 Q913.1406,759.7109 913.4063,759.4766 Q913.6719,759.2422 914.2813,759.2422 L919.4219,759.2422 Q920.0313,759.2422 920.2969,759.4766 Q920.5625,759.7109 920.5625,760.0859 Q920.5625,760.4766 920.2969,760.7109 Q920.0313,760.9453 919.4219,760.9453 L917.7031,760.9453 Z " fill="#000000"/><text fill="#000000" font-family="sans-serif" font-size="14" font-style="italic" lengthAdjust="spacing" textLength="102" x="941.25" y="770.0332">BatteryManager</text><line style="stroke:#181818;stroke-width:0.5;" x1="845" x2="1107" y1="782.1094" y2="782.1094"/><line style="stroke:#181818;stroke-width:0.5;" x1="845" x2="1107" y1="790.1094" y2="790.1094"/><ellipse cx="855" cy="808.4141" fill="#84BE84" rx="3" ry="3" style="stroke:#038048;stroke-width:1.0;"/><text fill="#000000" font-family="sans-serif" font-size="14" lengthAdjust="spacing" textLength="230" x="868" y="812.6426">decreaseBatteryBy(int amount): void</text></g><!--class SimpleBatteryManager--><g id="elem_SimpleBatteryManager"><rect codeLine="90" fill="#F1F1F1" height="102.8281" id="SimpleBatteryManager" rx="2.5" ry="2.5" style="stroke:#181818;stroke-width:0.5;" width="283" x="829.5" y="991.5"/><ellipse cx="891.25" cy="1009.3047" fill="#ADD1B2" rx="11" ry="11" style="stroke:#181818;stroke-width:1.0;"/><path d="M894.0156,1005.1797 Q894.1719,1004.9609 894.3594,1004.8516 Q894.5469,1004.7422 894.7656,1004.7422 Q895.1406,1004.7422 895.375,1005.0078 Q895.6094,1005.2578 895.6094,1005.8672 L895.6094,1007.3203 Q895.6094,1007.9297 895.375,1008.1953 Q895.1406,1008.4609 894.7656,1008.4609 Q894.4219,1008.4609 894.2188,1008.2578 Q894.0156,1008.0703 893.9063,1007.5547 Q893.8594,1007.1953 893.6719,1007.0078 Q893.3438,1006.6328 892.7344,1006.4141 Q892.125,1006.1953 891.5,1006.1953 Q890.7344,1006.1953 890.0938,1006.5234 Q889.4688,1006.8516 888.9688,1007.6016 Q888.4844,1008.3516 888.4844,1009.3828 L888.4844,1010.4766 Q888.4844,1011.7109 889.375,1012.5391 Q890.2656,1013.3516 891.8594,1013.3516 Q892.7969,1013.3516 893.4531,1013.1016 Q893.8438,1012.9453 894.2656,1012.5078 Q894.5313,1012.2422 894.6719,1012.1641 Q894.8281,1012.0859 895.0313,1012.0859 Q895.3594,1012.0859 895.6094,1012.3516 Q895.875,1012.6016 895.875,1012.9453 Q895.875,1013.2891 895.5313,1013.6953 Q895.0313,1014.2734 894.2344,1014.6016 Q893.1563,1015.0547 891.8594,1015.0547 Q890.3438,1015.0547 889.1406,1014.4297 Q888.1563,1013.9297 887.4688,1012.8672 Q886.7813,1011.7891 886.7813,1010.5078 L886.7813,1009.3516 Q886.7813,1008.0234 887.3906,1006.8828 Q888.0156,1005.7266 889.1094,1005.1172 Q890.2031,1004.4922 891.4375,1004.4922 Q892.1719,1004.4922 892.8125,1004.6641 Q893.4688,1004.8203 894.0156,1005.1797 Z " fill="#000000"/><text fill="#000000" font-family="sans-serif" font-size="14" lengthAdjust="spacing" textLength="143" x="915.75" y="1015.0332">SimpleBatteryManager</text><line style="stroke:#181818;stroke-width:0.5;" x1="830.5" x2="1111.5" y1="1027.1094" y2="1027.1094"/><rect fill="none" height="6" style="stroke:#C82930;stroke-width:1.0;" width="6" x="837.5" y="1042.4141"/><text fill="#000000" font-family="sans-serif" font-size="14" lengthAdjust="spacing" textLength="97" x="853.5" y="1049.6426">int batteryLevel</text><line style="stroke:#181818;stroke-width:0.5;" x1="830.5" x2="1111.5" y1="1060.7188" y2="1060.7188"/><ellipse cx="840.5" cy="1079.0234" fill="#84BE84" rx="3" ry="3" style="stroke:#038048;stroke-width:1.0;"/><text fill="#000000" font-family="sans-serif" font-size="14" lengthAdjust="spacing" textLength="249" x="853.5" y="1083.252">SimpleBatteryManager(int initialBattery)</text></g><!--class Direction--><g id="elem_Direction"><rect codeLine="99" fill="#F1F1F1" height="154.0469" id="Direction" rx="2.5" ry="2.5" style="stroke:#181818;stroke-width:0.5;" width="365" x="1254.5" y="966"/><ellipse cx="1400.75" cy="983.8047" fill="#ADD1B2" rx="11" ry="11" style="stroke:#181818;stroke-width:1.0;"/><path d="M1403.5156,979.6797 Q1403.6719,979.4609 1403.8594,979.3516 Q1404.0469,979.2422 1404.2656,979.2422 Q1404.6406,979.2422 1404.875,979.5078 Q1405.1094,979.7578 1405.1094,980.3672 L1405.1094,981.8203 Q1405.1094,982.4297 1404.875,982.6953 Q1404.6406,982.9609 1404.2656,982.9609 Q1403.9219,982.9609 1403.7188,982.7578 Q1403.5156,982.5703 1403.4063,982.0547 Q1403.3594,981.6953 1403.1719,981.5078 Q1402.8438,981.1328 1402.2344,980.9141 Q1401.625,980.6953 1401,980.6953 Q1400.2344,980.6953 1399.5938,981.0234 Q1398.9688,981.3516 1398.4688,982.1016 Q1397.9844,982.8516 1397.9844,983.8828 L1397.9844,984.9766 Q1397.9844,986.2109 1398.875,987.0391 Q1399.7656,987.8516 1401.3594,987.8516 Q1402.2969,987.8516 1402.9531,987.6016 Q1403.3438,987.4453 1403.7656,987.0078 Q1404.0313,986.7422 1404.1719,986.6641 Q1404.3281,986.5859 1404.5313,986.5859 Q1404.8594,986.5859 1405.1094,986.8516 Q1405.375,987.1016 1405.375,987.4453 Q1405.375,987.7891 1405.0313,988.1953 Q1404.5313,988.7734 1403.7344,989.1016 Q1402.6563,989.5547 1401.3594,989.5547 Q1399.8438,989.5547 1398.6406,988.9297 Q1397.6563,988.4297 1396.9688,987.3672 Q1396.2813,986.2891 1396.2813,985.0078 L1396.2813,983.8516 Q1396.2813,982.5234 1396.8906,981.3828 Q1397.5156,980.2266 1398.6094,979.6172 Q1399.7031,978.9922 1400.9375,978.9922 Q1401.6719,978.9922 1402.3125,979.1641 Q1402.9688,979.3203 1403.5156,979.6797 Z " fill="#000000"/><text fill="#000000" font-family="sans-serif" font-size="14" lengthAdjust="spacing" textLength="56" x="1425.25" y="989.5332">Direction</text><line style="stroke:#181818;stroke-width:0.5;" x1="1255.5" x2="1618.5" y1="1001.6094" y2="1001.6094"/><line style="stroke:#181818;stroke-width:0.5;" x1="1255.5" x2="1618.5" y1="1009.6094" y2="1009.6094"/><ellipse cx="1265.5" cy="1027.9141" fill="#84BE84" rx="3" ry="3" style="stroke:#038048;stroke-width:1.0;"/><text fill="#000000" font-family="sans-serif" font-size="14" lengthAdjust="spacing" textLength="161" x="1278.5" y="1032.1426">Direction(String direction)</text><ellipse cx="1265.5" cy="1053.5234" fill="#84BE84" rx="3" ry="3" style="stroke:#038048;stroke-width:1.0;"/><text fill="#000000" font-family="sans-serif" font-size="14" lengthAdjust="spacing" textLength="104" x="1278.5" y="1057.752">toString(): String</text><ellipse cx="1265.5" cy="1079.1328" fill="#84BE84" rx="3" ry="3" style="stroke:#038048;stroke-width:1.0;"/><text fill="#000000" font-family="sans-serif" font-size="14" lengthAdjust="spacing" textLength="127" x="1278.5" y="1083.3613">toFullString(): String</text><rect fill="#F24D5C" height="6" style="stroke:#C82930;stroke-width:1.0;" width="6" x="1262.5" y="1101.7422"/><text fill="#000000" font-family="sans-serif" font-size="14" lengthAdjust="spacing" textLength="331" x="1278.5" y="1108.9707">createDirectionState(String direction): DirectionState</text></g><!--class DirectionState--><g id="elem_DirectionState"><rect codeLine="106" fill="#F1F1F1" height="154.0469" id="DirectionState" rx="2.5" ry="2.5" style="stroke:#181818;stroke-width:0.5;" width="188" x="1414" y="1211"/><ellipse cx="1455.55" cy="1228.8047" fill="#B4A7E5" rx="11" ry="11" style="stroke:#181818;stroke-width:1.0;"/><path d="M1456.5031,1225.4453 L1456.5031,1232.1016 L1458.2219,1232.1016 Q1458.8313,1232.1016 1459.0969,1232.3359 Q1459.3625,1232.5703 1459.3625,1232.9609 Q1459.3625,1233.3359 1459.0969,1233.5703 Q1458.8313,1233.8047 1458.2219,1233.8047 L1453.0813,1233.8047 Q1452.4719,1233.8047 1452.2063,1233.5703 Q1451.9406,1233.3359 1451.9406,1232.9453 Q1451.9406,1232.5703 1452.2063,1232.3359 Q1452.4719,1232.1016 1453.0813,1232.1016 L1454.8,1232.1016 L1454.8,1225.4453 L1453.0813,1225.4453 Q1452.4719,1225.4453 1452.2063,1225.2109 Q1451.9406,1224.9766 1451.9406,1224.5859 Q1451.9406,1224.2109 1452.2063,1223.9766 Q1452.4719,1223.7422 1453.0813,1223.7422 L1458.2219,1223.7422 Q1458.8313,1223.7422 1459.0969,1223.9766 Q1459.3625,1224.2109 1459.3625,1224.5859 Q1459.3625,1224.9766 1459.0969,1225.2109 Q1458.8313,1225.4453 1458.2219,1225.4453 L1456.5031,1225.4453 Z " fill="#000000"/><text fill="#000000" font-family="sans-serif" font-size="14" font-style="italic" lengthAdjust="spacing" textLength="89" x="1479.45" y="1234.5332">DirectionState</text><line style="stroke:#181818;stroke-width:0.5;" x1="1415" x2="1601" y1="1246.6094" y2="1246.6094"/><line style="stroke:#181818;stroke-width:0.5;" x1="1415" x2="1601" y1="1254.6094" y2="1254.6094"/><ellipse cx="1425" cy="1272.9141" fill="#84BE84" rx="3" ry="3" style="stroke:#038048;stroke-width:1.0;"/><text fill="#000000" font-family="sans-serif" font-size="14" lengthAdjust="spacing" textLength="154" x="1438" y="1277.1426">getFullDirection(): String</text><ellipse cx="1425" cy="1298.5234" fill="#84BE84" rx="3" ry="3" style="stroke:#038048;stroke-width:1.0;"/><text fill="#000000" font-family="sans-serif" font-size="14" lengthAdjust="spacing" textLength="131" x="1438" y="1302.752">getDirection(): String</text><ellipse cx="1425" cy="1324.1328" fill="#84BE84" rx="3" ry="3" style="stroke:#038048;stroke-width:1.0;"/><text fill="#000000" font-family="sans-serif" font-size="14" lengthAdjust="spacing" textLength="108" x="1438" y="1328.3613">getRight(): String</text><ellipse cx="1425" cy="1349.7422" fill="#84BE84" rx="3" ry="3" style="stroke:#038048;stroke-width:1.0;"/><text fill="#000000" font-family="sans-serif" font-size="14" lengthAdjust="spacing" textLength="99" x="1438" y="1353.9707">getLeft(): String</text></g><!--class DirectionManager--><g id="elem_DirectionManager"><rect fill="#F1F1F1" height="51.6094" id="DirectionManager" rx="2.5" ry="2.5" style="stroke:#181818;stroke-width:0.5;" width="152" x="1308" y="759"/><ellipse cx="1323" cy="776.8047" fill="#ADD1B2" rx="11" ry="11" style="stroke:#181818;stroke-width:1.0;"/><path d="M1325.7656,772.6797 Q1325.9219,772.4609 1326.1094,772.3516 Q1326.2969,772.2422 1326.5156,772.2422 Q1326.8906,772.2422 1327.125,772.5078 Q1327.3594,772.7578 1327.3594,773.3672 L1327.3594,774.8203 Q1327.3594,775.4297 1327.125,775.6953 Q1326.8906,775.9609 1326.5156,775.9609 Q1326.1719,775.9609 1325.9688,775.7578 Q1325.7656,775.5703 1325.6563,775.0547 Q1325.6094,774.6953 1325.4219,774.5078 Q1325.0938,774.1328 1324.4844,773.9141 Q1323.875,773.6953 1323.25,773.6953 Q1322.4844,773.6953 1321.8438,774.0234 Q1321.2188,774.3516 1320.7188,775.1016 Q1320.2344,775.8516 1320.2344,776.8828 L1320.2344,777.9766 Q1320.2344,779.2109 1321.125,780.0391 Q1322.0156,780.8516 1323.6094,780.8516 Q1324.5469,780.8516 1325.2031,780.6016 Q1325.5938,780.4453 1326.0156,780.0078 Q1326.2813,779.7422 1326.4219,779.6641 Q1326.5781,779.5859 1326.7813,779.5859 Q1327.1094,779.5859 1327.3594,779.8516 Q1327.625,780.1016 1327.625,780.4453 Q1327.625,780.7891 1327.2813,781.1953 Q1326.7813,781.7734 1325.9844,782.1016 Q1324.9063,782.5547 1323.6094,782.5547 Q1322.0938,782.5547 1320.8906,781.9297 Q1319.9063,781.4297 1319.2188,780.3672 Q1318.5313,779.2891 1318.5313,778.0078 L1318.5313,776.8516 Q1318.5313,775.5234 1319.1406,774.3828 Q1319.7656,773.2266 1320.8594,772.6172 Q1321.9531,771.9922 1323.1875,771.9922 Q1323.9219,771.9922 1324.5625,772.1641 Q1325.2188,772.3203 1325.7656,772.6797 Z " fill="#000000"/><text fill="#000000" font-family="sans-serif" font-size="14" lengthAdjust="spacing" textLength="112" x="1341" y="782.5332">DirectionManager</text><line style="stroke:#181818;stroke-width:0.5;" x1="1309" x2="1459" y1="794.6094" y2="794.6094"/><line style="stroke:#181818;stroke-width:0.5;" x1="1309" x2="1459" y1="802.6094" y2="802.6094"/></g><!--class NorthDirectionState--><g id="elem_NorthDirectionState"><rect codeLine="114" fill="#F1F1F1" height="51.6094" id="NorthDirectionState" rx="2.5" ry="2.5" style="stroke:#181818;stroke-width:0.5;" width="163" x="1888.5" y="1428"/><ellipse cx="1903.5" cy="1445.8047" fill="#ADD1B2" rx="11" ry="11" style="stroke:#181818;stroke-width:1.0;"/><path d="M1906.2656,1441.6797 Q1906.4219,1441.4609 1906.6094,1441.3516 Q1906.7969,1441.2422 1907.0156,1441.2422 Q1907.3906,1441.2422 1907.625,1441.5078 Q1907.8594,1441.7578 1907.8594,1442.3672 L1907.8594,1443.8203 Q1907.8594,1444.4297 1907.625,1444.6953 Q1907.3906,1444.9609 1907.0156,1444.9609 Q1906.6719,1444.9609 1906.4688,1444.7578 Q1906.2656,1444.5703 1906.1563,1444.0547 Q1906.1094,1443.6953 1905.9219,1443.5078 Q1905.5938,1443.1328 1904.9844,1442.9141 Q1904.375,1442.6953 1903.75,1442.6953 Q1902.9844,1442.6953 1902.3438,1443.0234 Q1901.7188,1443.3516 1901.2188,1444.1016 Q1900.7344,1444.8516 1900.7344,1445.8828 L1900.7344,1446.9766 Q1900.7344,1448.2109 1901.625,1449.0391 Q1902.5156,1449.8516 1904.1094,1449.8516 Q1905.0469,1449.8516 1905.7031,1449.6016 Q1906.0938,1449.4453 1906.5156,1449.0078 Q1906.7813,1448.7422 1906.9219,1448.6641 Q1907.0781,1448.5859 1907.2813,1448.5859 Q1907.6094,1448.5859 1907.8594,1448.8516 Q1908.125,1449.1016 1908.125,1449.4453 Q1908.125,1449.7891 1907.7813,1450.1953 Q1907.2813,1450.7734 1906.4844,1451.1016 Q1905.4063,1451.5547 1904.1094,1451.5547 Q1902.5938,1451.5547 1901.3906,1450.9297 Q1900.4063,1450.4297 1899.7188,1449.3672 Q1899.0313,1448.2891 1899.0313,1447.0078 L1899.0313,1445.8516 Q1899.0313,1444.5234 1899.6406,1443.3828 Q1900.2656,1442.2266 1901.3594,1441.6172 Q1902.4531,1440.9922 1903.6875,1440.9922 Q1904.4219,1440.9922 1905.0625,1441.1641 Q1905.7188,1441.3203 1906.2656,1441.6797 Z " fill="#000000"/><text fill="#000000" font-family="sans-serif" font-size="14" lengthAdjust="spacing" textLength="123" x="1921.5" y="1451.5332">NorthDirectionState</text><line style="stroke:#181818;stroke-width:0.5;" x1="1889.5" x2="2050.5" y1="1463.6094" y2="1463.6094"/><line style="stroke:#181818;stroke-width:0.5;" x1="1889.5" x2="2050.5" y1="1471.6094" y2="1471.6094"/></g><!--class EastDirectionState--><g id="elem_EastDirectionState"><rect codeLine="116" fill="#F1F1F1" height="51.6094" id="EastDirectionState" rx="2.5" ry="2.5" style="stroke:#181818;stroke-width:0.5;" width="157" x="1661.5" y="1428"/><ellipse cx="1676.5" cy="1445.8047" fill="#ADD1B2" rx="11" ry="11" style="stroke:#181818;stroke-width:1.0;"/><path d="M1679.2656,1441.6797 Q1679.4219,1441.4609 1679.6094,1441.3516 Q1679.7969,1441.2422 1680.0156,1441.2422 Q1680.3906,1441.2422 1680.625,1441.5078 Q1680.8594,1441.7578 1680.8594,1442.3672 L1680.8594,1443.8203 Q1680.8594,1444.4297 1680.625,1444.6953 Q1680.3906,1444.9609 1680.0156,1444.9609 Q1679.6719,1444.9609 1679.4688,1444.7578 Q1679.2656,1444.5703 1679.1563,1444.0547 Q1679.1094,1443.6953 1678.9219,1443.5078 Q1678.5938,1443.1328 1677.9844,1442.9141 Q1677.375,1442.6953 1676.75,1442.6953 Q1675.9844,1442.6953 1675.3438,1443.0234 Q1674.7188,1443.3516 1674.2188,1444.1016 Q1673.7344,1444.8516 1673.7344,1445.8828 L1673.7344,1446.9766 Q1673.7344,1448.2109 1674.625,1449.0391 Q1675.5156,1449.8516 1677.1094,1449.8516 Q1678.0469,1449.8516 1678.7031,1449.6016 Q1679.0938,1449.4453 1679.5156,1449.0078 Q1679.7813,1448.7422 1679.9219,1448.6641 Q1680.0781,1448.5859 1680.2813,1448.5859 Q1680.6094,1448.5859 1680.8594,1448.8516 Q1681.125,1449.1016 1681.125,1449.4453 Q1681.125,1449.7891 1680.7813,1450.1953 Q1680.2813,1450.7734 1679.4844,1451.1016 Q1678.4063,1451.5547 1677.1094,1451.5547 Q1675.5938,1451.5547 1674.3906,1450.9297 Q1673.4063,1450.4297 1672.7188,1449.3672 Q1672.0313,1448.2891 1672.0313,1447.0078 L1672.0313,1445.8516 Q1672.0313,1444.5234 1672.6406,1443.3828 Q1673.2656,1442.2266 1674.3594,1441.6172 Q1675.4531,1440.9922 1676.6875,1440.9922 Q1677.4219,1440.9922 1678.0625,1441.1641 Q1678.7188,1441.3203 1679.2656,1441.6797 Z " fill="#000000"/><text fill="#000000" font-family="sans-serif" font-size="14" lengthAdjust="spacing" textLength="117" x="1694.5" y="1451.5332">EastDirectionState</text><line style="stroke:#181818;stroke-width:0.5;" x1="1662.5" x2="1817.5" y1="1463.6094" y2="1463.6094"/><line style="stroke:#181818;stroke-width:0.5;" x1="1662.5" x2="1817.5" y1="1471.6094" y2="1471.6094"/></g><!--class SouthDirectionState--><g id="elem_SouthDirectionState"><rect codeLine="118" fill="#F1F1F1" height="51.6094" id="SouthDirectionState" rx="2.5" ry="2.5" style="stroke:#181818;stroke-width:0.5;" width="166" x="1425" y="1428"/><ellipse cx="1440" cy="1445.8047" fill="#ADD1B2" rx="11" ry="11" style="stroke:#181818;stroke-width:1.0;"/><path d="M1442.7656,1441.6797 Q1442.9219,1441.4609 1443.1094,1441.3516 Q1443.2969,1441.2422 1443.5156,1441.2422 Q1443.8906,1441.2422 1444.125,1441.5078 Q1444.3594,1441.7578 1444.3594,1442.3672 L1444.3594,1443.8203 Q1444.3594,1444.4297 1444.125,1444.6953 Q1443.8906,1444.9609 1443.5156,1444.9609 Q1443.1719,1444.9609 1442.9688,1444.7578 Q1442.7656,1444.5703 1442.6563,1444.0547 Q1442.6094,1443.6953 1442.4219,1443.5078 Q1442.0938,1443.1328 1441.4844,1442.9141 Q1440.875,1442.6953 1440.25,1442.6953 Q1439.4844,1442.6953 1438.8438,1443.0234 Q1438.2188,1443.3516 1437.7188,1444.1016 Q1437.2344,1444.8516 1437.2344,1445.8828 L1437.2344,1446.9766 Q1437.2344,1448.2109 1438.125,1449.0391 Q1439.0156,1449.8516 1440.6094,1449.8516 Q1441.5469,1449.8516 1442.2031,1449.6016 Q1442.5938,1449.4453 1443.0156,1449.0078 Q1443.2813,1448.7422 1443.4219,1448.6641 Q1443.5781,1448.5859 1443.7813,1448.5859 Q1444.1094,1448.5859 1444.3594,1448.8516 Q1444.625,1449.1016 1444.625,1449.4453 Q1444.625,1449.7891 1444.2813,1450.1953 Q1443.7813,1450.7734 1442.9844,1451.1016 Q1441.9063,1451.5547 1440.6094,1451.5547 Q1439.0938,1451.5547 1437.8906,1450.9297 Q1436.9063,1450.4297 1436.2188,1449.3672 Q1435.5313,1448.2891 1435.5313,1447.0078 L1435.5313,1445.8516 Q1435.5313,1444.5234 1436.1406,1443.3828 Q1436.7656,1442.2266 1437.8594,1441.6172 Q1438.9531,1440.9922 1440.1875,1440.9922 Q1440.9219,1440.9922 1441.5625,1441.1641 Q1442.2188,1441.3203 1442.7656,1441.6797 Z " fill="#000000"/><text fill="#000000" font-family="sans-serif" font-size="14" lengthAdjust="spacing" textLength="126" x="1458" y="1451.5332">SouthDirectionState</text><line style="stroke:#181818;stroke-width:0.5;" x1="1426" x2="1590" y1="1463.6094" y2="1463.6094"/><line style="stroke:#181818;stroke-width:0.5;" x1="1426" x2="1590" y1="1471.6094" y2="1471.6094"/></g><!--class WestDirectionState--><g id="elem_WestDirectionState"><rect codeLine="120" fill="#F1F1F1" height="51.6094" id="WestDirectionState" rx="2.5" ry="2.5" style="stroke:#181818;stroke-width:0.5;" width="161" x="1193.5" y="1428"/><ellipse cx="1208.5" cy="1445.8047" fill="#ADD1B2" rx="11" ry="11" style="stroke:#181818;stroke-width:1.0;"/><path d="M1211.2656,1441.6797 Q1211.4219,1441.4609 1211.6094,1441.3516 Q1211.7969,1441.2422 1212.0156,1441.2422 Q1212.3906,1441.2422 1212.625,1441.5078 Q1212.8594,1441.7578 1212.8594,1442.3672 L1212.8594,1443.8203 Q1212.8594,1444.4297 1212.625,1444.6953 Q1212.3906,1444.9609 1212.0156,1444.9609 Q1211.6719,1444.9609 1211.4688,1444.7578 Q1211.2656,1444.5703 1211.1563,1444.0547 Q1211.1094,1443.6953 1210.9219,1443.5078 Q1210.5938,1443.1328 1209.9844,1442.9141 Q1209.375,1442.6953 1208.75,1442.6953 Q1207.9844,1442.6953 1207.3438,1443.0234 Q1206.7188,1443.3516 1206.2188,1444.1016 Q1205.7344,1444.8516 1205.7344,1445.8828 L1205.7344,1446.9766 Q1205.7344,1448.2109 1206.625,1449.0391 Q1207.5156,1449.8516 1209.1094,1449.8516 Q1210.0469,1449.8516 1210.7031,1449.6016 Q1211.0938,1449.4453 1211.5156,1449.0078 Q1211.7813,1448.7422 1211.9219,1448.6641 Q1212.0781,1448.5859 1212.2813,1448.5859 Q1212.6094,1448.5859 1212.8594,1448.8516 Q1213.125,1449.1016 1213.125,1449.4453 Q1213.125,1449.7891 1212.7813,1450.1953 Q1212.2813,1450.7734 1211.4844,1451.1016 Q1210.4063,1451.5547 1209.1094,1451.5547 Q1207.5938,1451.5547 1206.3906,1450.9297 Q1205.4063,1450.4297 1204.7188,1449.3672 Q1204.0313,1448.2891 1204.0313,1447.0078 L1204.0313,1445.8516 Q1204.0313,1444.5234 1204.6406,1443.3828 Q1205.2656,1442.2266 1206.3594,1441.6172 Q1207.4531,1440.9922 1208.6875,1440.9922 Q1209.4219,1440.9922 1210.0625,1441.1641 Q1210.7188,1441.3203 1211.2656,1441.6797 Z " fill="#000000"/><text fill="#000000" font-family="sans-serif" font-size="14" lengthAdjust="spacing" textLength="121" x="1226.5" y="1451.5332">WestDirectionState</text><line style="stroke:#181818;stroke-width:0.5;" x1="1194.5" x2="1353.5" y1="1463.6094" y2="1463.6094"/><line style="stroke:#181818;stroke-width:0.5;" x1="1194.5" x2="1353.5" y1="1471.6094" y2="1471.6094"/></g><!--class POIObserver--><g id="elem_POIObserver"><rect codeLine="134" fill="#F1F1F1" height="51.6094" id="POIObserver" rx="2.5" ry="2.5" style="stroke:#181818;stroke-width:0.5;" width="150" x="2817" y="759"/><ellipse cx="2844.6" cy="776.8047" fill="#ADD1B2" rx="11" ry="11" style="stroke:#181818;stroke-width:1.0;"/><path d="M2847.3656,772.6797 Q2847.5219,772.4609 2847.7094,772.3516 Q2847.8969,772.2422 2848.1156,772.2422 Q2848.4906,772.2422 2848.725,772.5078 Q2848.9594,772.7578 2848.9594,773.3672 L2848.9594,774.8203 Q2848.9594,775.4297 2848.725,775.6953 Q2848.4906,775.9609 2848.1156,775.9609 Q2847.7719,775.9609 2847.5688,775.7578 Q2847.3656,775.5703 2847.2563,775.0547 Q2847.2094,774.6953 2847.0219,774.5078 Q2846.6938,774.1328 2846.0844,773.9141 Q2845.475,773.6953 2844.85,773.6953 Q2844.0844,773.6953 2843.4438,774.0234 Q2842.8188,774.3516 2842.3188,775.1016 Q2841.8344,775.8516 2841.8344,776.8828 L2841.8344,777.9766 Q2841.8344,779.2109 2842.725,780.0391 Q2843.6156,780.8516 2845.2094,780.8516 Q2846.1469,780.8516 2846.8031,780.6016 Q2847.1938,780.4453 2847.6156,780.0078 Q2847.8813,779.7422 2848.0219,779.6641 Q2848.1781,779.5859 2848.3813,779.5859 Q2848.7094,779.5859 2848.9594,779.8516 Q2849.225,780.1016 2849.225,780.4453 Q2849.225,780.7891 2848.8813,781.1953 Q2848.3813,781.7734 2847.5844,782.1016 Q2846.5063,782.5547 2845.2094,782.5547 Q2843.6938,782.5547 2842.4906,781.9297 Q2841.5063,781.4297 2840.8188,780.3672 Q2840.1313,779.2891 2840.1313,778.0078 L2840.1313,776.8516 Q2840.1313,775.5234 2840.7406,774.3828 Q2841.3656,773.2266 2842.4594,772.6172 Q2843.5531,771.9922 2844.7875,771.9922 Q2845.5219,771.9922 2846.1625,772.1641 Q2846.8188,772.3203 2847.3656,772.6797 Z " fill="#000000"/><text fill="#000000" font-family="sans-serif" font-size="14" lengthAdjust="spacing" textLength="82" x="2865.4" y="782.5332">POIObserver</text><line style="stroke:#181818;stroke-width:0.5;" x1="2818" x2="2966" y1="794.6094" y2="794.6094"/><line style="stroke:#181818;stroke-width:0.5;" x1="2818" x2="2966" y1="802.6094" y2="802.6094"/></g><!--class BatteryObserver--><g id="elem_BatteryObserver"><rect codeLine="137" fill="#F1F1F1" height="51.6094" id="BatteryObserver" rx="2.5" ry="2.5" style="stroke:#181818;stroke-width:0.5;" width="150" x="2597" y="759"/><ellipse cx="2614.7" cy="776.8047" fill="#ADD1B2" rx="11" ry="11" style="stroke:#181818;stroke-width:1.0;"/><path d="M2617.4656,772.6797 Q2617.6219,772.4609 2617.8094,772.3516 Q2617.9969,772.2422 2618.2156,772.2422 Q2618.5906,772.2422 2618.825,772.5078 Q2619.0594,772.7578 2619.0594,773.3672 L2619.0594,774.8203 Q2619.0594,775.4297 2618.825,775.6953 Q2618.5906,775.9609 2618.2156,775.9609 Q2617.8719,775.9609 2617.6688,775.7578 Q2617.4656,775.5703 2617.3563,775.0547 Q2617.3094,774.6953 2617.1219,774.5078 Q2616.7938,774.1328 2616.1844,773.9141 Q2615.575,773.6953 2614.95,773.6953 Q2614.1844,773.6953 2613.5438,774.0234 Q2612.9188,774.3516 2612.4188,775.1016 Q2611.9344,775.8516 2611.9344,776.8828 L2611.9344,777.9766 Q2611.9344,779.2109 2612.825,780.0391 Q2613.7156,780.8516 2615.3094,780.8516 Q2616.2469,780.8516 2616.9031,780.6016 Q2617.2938,780.4453 2617.7156,780.0078 Q2617.9813,779.7422 2618.1219,779.6641 Q2618.2781,779.5859 2618.4813,779.5859 Q2618.8094,779.5859 2619.0594,779.8516 Q2619.325,780.1016 2619.325,780.4453 Q2619.325,780.7891 2618.9813,781.1953 Q2618.4813,781.7734 2617.6844,782.1016 Q2616.6063,782.5547 2615.3094,782.5547 Q2613.7938,782.5547 2612.5906,781.9297 Q2611.6063,781.4297 2610.9188,780.3672 Q2610.2313,779.2891 2610.2313,778.0078 L2610.2313,776.8516 Q2610.2313,775.5234 2610.8406,774.3828 Q2611.4656,773.2266 2612.5594,772.6172 Q2613.6531,771.9922 2614.8875,771.9922 Q2615.6219,771.9922 2616.2625,772.1641 Q2616.9188,772.3203 2617.4656,772.6797 Z " fill="#000000"/><text fill="#000000" font-family="sans-serif" font-size="14" lengthAdjust="spacing" textLength="104" x="2633.3" y="782.5332">BatteryObserver</text><line style="stroke:#181818;stroke-width:0.5;" x1="2598" x2="2746" y1="794.6094" y2="794.6094"/><line style="stroke:#181818;stroke-width:0.5;" x1="2598" x2="2746" y1="802.6094" y2="802.6094"/></g><!--class CoordinateObserver--><g id="elem_CoordinateObserver"><rect codeLine="140" fill="#F1F1F1" height="51.6094" id="CoordinateObserver" rx="2.5" ry="2.5" style="stroke:#181818;stroke-width:0.5;" width="169" x="2357.5" y="759"/><ellipse cx="2372.5" cy="776.8047" fill="#ADD1B2" rx="11" ry="11" style="stroke:#181818;stroke-width:1.0;"/><path d="M2375.2656,772.6797 Q2375.4219,772.4609 2375.6094,772.3516 Q2375.7969,772.2422 2376.0156,772.2422 Q2376.3906,772.2422 2376.625,772.5078 Q2376.8594,772.7578 2376.8594,773.3672 L2376.8594,774.8203 Q2376.8594,775.4297 2376.625,775.6953 Q2376.3906,775.9609 2376.0156,775.9609 Q2375.6719,775.9609 2375.4688,775.7578 Q2375.2656,775.5703 2375.1563,775.0547 Q2375.1094,774.6953 2374.9219,774.5078 Q2374.5938,774.1328 2373.9844,773.9141 Q2373.375,773.6953 2372.75,773.6953 Q2371.9844,773.6953 2371.3438,774.0234 Q2370.7188,774.3516 2370.2188,775.1016 Q2369.7344,775.8516 2369.7344,776.8828 L2369.7344,777.9766 Q2369.7344,779.2109 2370.625,780.0391 Q2371.5156,780.8516 2373.1094,780.8516 Q2374.0469,780.8516 2374.7031,780.6016 Q2375.0938,780.4453 2375.5156,780.0078 Q2375.7813,779.7422 2375.9219,779.6641 Q2376.0781,779.5859 2376.2813,779.5859 Q2376.6094,779.5859 2376.8594,779.8516 Q2377.125,780.1016 2377.125,780.4453 Q2377.125,780.7891 2376.7813,781.1953 Q2376.2813,781.7734 2375.4844,782.1016 Q2374.4063,782.5547 2373.1094,782.5547 Q2371.5938,782.5547 2370.3906,781.9297 Q2369.4063,781.4297 2368.7188,780.3672 Q2368.0313,779.2891 2368.0313,778.0078 L2368.0313,776.8516 Q2368.0313,775.5234 2368.6406,774.3828 Q2369.2656,773.2266 2370.3594,772.6172 Q2371.4531,771.9922 2372.6875,771.9922 Q2373.4219,771.9922 2374.0625,772.1641 Q2374.7188,772.3203 2375.2656,772.6797 Z " fill="#000000"/><text fill="#000000" font-family="sans-serif" font-size="14" lengthAdjust="spacing" textLength="129" x="2390.5" y="782.5332">CoordinateObserver</text><line style="stroke:#181818;stroke-width:0.5;" x1="2358.5" x2="2525.5" y1="794.6094" y2="794.6094"/><line style="stroke:#181818;stroke-width:0.5;" x1="2358.5" x2="2525.5" y1="802.6094" y2="802.6094"/></g><!--class DirectionObserver--><g id="elem_DirectionObserver"><rect codeLine="143" fill="#F1F1F1" height="51.6094" id="DirectionObserver" rx="2.5" ry="2.5" style="stroke:#181818;stroke-width:0.5;" width="155" x="2132.5" y="759"/><ellipse cx="2147.5" cy="776.8047" fill="#ADD1B2" rx="11" ry="11" style="stroke:#181818;stroke-width:1.0;"/><path d="M2150.2656,772.6797 Q2150.4219,772.4609 2150.6094,772.3516 Q2150.7969,772.2422 2151.0156,772.2422 Q2151.3906,772.2422 2151.625,772.5078 Q2151.8594,772.7578 2151.8594,773.3672 L2151.8594,774.8203 Q2151.8594,775.4297 2151.625,775.6953 Q2151.3906,775.9609 2151.0156,775.9609 Q2150.6719,775.9609 2150.4688,775.7578 Q2150.2656,775.5703 2150.1563,775.0547 Q2150.1094,774.6953 2149.9219,774.5078 Q2149.5938,774.1328 2148.9844,773.9141 Q2148.375,773.6953 2147.75,773.6953 Q2146.9844,773.6953 2146.3438,774.0234 Q2145.7188,774.3516 2145.2188,775.1016 Q2144.7344,775.8516 2144.7344,776.8828 L2144.7344,777.9766 Q2144.7344,779.2109 2145.625,780.0391 Q2146.5156,780.8516 2148.1094,780.8516 Q2149.0469,780.8516 2149.7031,780.6016 Q2150.0938,780.4453 2150.5156,780.0078 Q2150.7813,779.7422 2150.9219,779.6641 Q2151.0781,779.5859 2151.2813,779.5859 Q2151.6094,779.5859 2151.8594,779.8516 Q2152.125,780.1016 2152.125,780.4453 Q2152.125,780.7891 2151.7813,781.1953 Q2151.2813,781.7734 2150.4844,782.1016 Q2149.4063,782.5547 2148.1094,782.5547 Q2146.5938,782.5547 2145.3906,781.9297 Q2144.4063,781.4297 2143.7188,780.3672 Q2143.0313,779.2891 2143.0313,778.0078 L2143.0313,776.8516 Q2143.0313,775.5234 2143.6406,774.3828 Q2144.2656,773.2266 2145.3594,772.6172 Q2146.4531,771.9922 2147.6875,771.9922 Q2148.4219,771.9922 2149.0625,772.1641 Q2149.7188,772.3203 2150.2656,772.6797 Z " fill="#000000"/><text fill="#000000" font-family="sans-serif" font-size="14" lengthAdjust="spacing" textLength="115" x="2165.5" y="782.5332">DirectionObserver</text><line style="stroke:#181818;stroke-width:0.5;" x1="2133.5" x2="2286.5" y1="794.6094" y2="794.6094"/><line style="stroke:#181818;stroke-width:0.5;" x1="2133.5" x2="2286.5" y1="802.6094" y2="802.6094"/></g><!--reverse link CommandCenter to PreviousDecision--><g id="link_CommandCenter_PreviousDecision"><path codeLine="81" d="M602,887.24 C602,900.02 602,901.37 602,914.71 " fill="none" id="CommandCenter-backto-PreviousDecision" style="stroke:#181818;stroke-width:1.0;"/><polygon fill="#181818" points="602,875.24,598,881.24,602,887.24,606,881.24,602,875.24" style="stroke:#181818;stroke-width:1.0;"/><text fill="#000000" font-family="sans-serif" font-size="12" lengthAdjust="spacing" textLength="97" x="607" y="887.427">PreviousDecision</text><text fill="#000000" font-family="sans-serif" font-size="12" lengthAdjust="spacing" textLength="7" x="591.4039" y="899.1846">1</text><text fill="#000000" font-family="sans-serif" font-size="12" lengthAdjust="spacing" textLength="7" x="606.4102" y="900.5116">1</text></g><!--reverse link CommandCenter to FlightCommands--><g id="link_CommandCenter_FlightCommands"><path codeLine="82" d="M431.5,887.24 C431.5,961.64 431.5,1043 431.5,1043 C431.5,1043 407.19,1043 374.72,1043 " fill="none" id="CommandCenter-backto-FlightCommands" style="stroke:#181818;stroke-width:1.0;"/><polygon fill="#181818" points="431.5,875.24,427.5,881.24,431.5,887.24,435.5,881.24,431.5,875.24" style="stroke:#181818;stroke-width:1.0;"/><text fill="#000000" font-family="sans-serif" font-size="12" lengthAdjust="spacing" textLength="96" x="383.5" y="1004.967">FlightCommands</text><text fill="#000000" font-family="sans-serif" font-size="12" lengthAdjust="spacing" textLength="7" x="408.3828" y="899.1846">1</text><text fill="#000000" font-family="sans-serif" font-size="12" lengthAdjust="spacing" textLength="7" x="386.4784" y="1035.9271">1</text></g><!--reverse link BatteryManager to SimpleBatteryManager--><g id="link_BatteryManager_SimpleBatteryManager"><path codeLine="95" d="M976,841.63 C976,886.19 976,941.66 976,991.17 " fill="none" id="BatteryManager-backto-SimpleBatteryManager" style="stroke:#181818;stroke-width:1.0;stroke-dasharray:7.0,7.0;"/><polygon fill="none" points="976,823.63,970,841.63,982,841.63,976,823.63" style="stroke:#181818;stroke-width:1.0;"/></g><!--reverse link DirectionState to NorthDirectionState--><g id="link_DirectionState_NorthDirectionState"><path codeLine="123" d="M1620.05,1288 C1755.13,1288 1970,1288 1970,1288 C1970,1288 1970,1380.89 1970,1427.7 " fill="none" id="DirectionState-backto-NorthDirectionState" style="stroke:#181818;stroke-width:1.0;stroke-dasharray:7.0,7.0;"/><polygon fill="none" points="1602.05,1288,1620.05,1294,1620.05,1282,1602.05,1288" style="stroke:#181818;stroke-width:1.0;"/></g><!--reverse link DirectionState to EastDirectionState--><g id="link_DirectionState_EastDirectionState"><path codeLine="124" d="M1596.5,1383.17 C1596.5,1426.52 1596.5,1454 1596.5,1454 C1596.5,1454 1627.77,1454 1661.11,1454 " fill="none" id="DirectionState-backto-EastDirectionState" style="stroke:#181818;stroke-width:1.0;stroke-dasharray:7.0,7.0;"/><polygon fill="none" points="1596.5,1365.17,1590.5,1383.17,1602.5,1383.17,1596.5,1365.17" style="stroke:#181818;stroke-width:1.0;"/></g><!--reverse link DirectionState to SouthDirectionState--><g id="link_DirectionState_SouthDirectionState"><path codeLine="125" d="M1508,1383.17 C1508,1405.69 1508,1410.79 1508,1427.78 " fill="none" id="DirectionState-backto-SouthDirectionState" style="stroke:#181818;stroke-width:1.0;stroke-dasharray:7.0,7.0;"/><polygon fill="none" points="1508,1365.17,1502,1383.17,1514,1383.17,1508,1365.17" style="stroke:#181818;stroke-width:1.0;"/></g><!--reverse link DirectionState to WestDirectionState--><g id="link_DirectionState_WestDirectionState"><path codeLine="126" d="M1419.5,1383.17 C1419.5,1426.52 1419.5,1454 1419.5,1454 C1419.5,1454 1388.32,1454 1354.83,1454 " fill="none" id="DirectionState-backto-WestDirectionState" style="stroke:#181818;stroke-width:1.0;stroke-dasharray:7.0,7.0;"/><polygon fill="none" points="1419.5,1365.17,1413.5,1383.17,1425.5,1383.17,1419.5,1365.17" style="stroke:#181818;stroke-width:1.0;"/></g><!--reverse link DirectionManager to Direction--><g id="link_DirectionManager_Direction"><path codeLine="129" d="M1384,823.16 C1384,859.16 1384,913.47 1384,965.99 " fill="none" id="DirectionManager-backto-Direction" style="stroke:#181818;stroke-width:1.0;"/><polygon fill="#181818" points="1384,811.16,1380,817.16,1384,823.16,1388,817.16,1384,811.16" style="stroke:#181818;stroke-width:1.0;"/><text fill="#000000" font-family="sans-serif" font-size="12" lengthAdjust="spacing" textLength="7" x="1371.5234" y="835.079">1</text><text fill="#000000" font-family="sans-serif" font-size="12" lengthAdjust="spacing" textLength="7" x="1367.4227" y="951.2897">1</text></g><!--reverse link Direction to DirectionState--><g id="link_Direction_DirectionState"><path codeLine="130" d="M1508,1132.18 C1508,1161.08 1508,1181.89 1508,1210.78 " fill="none" id="Direction-backto-DirectionState" style="stroke:#181818;stroke-width:1.0;"/><polygon fill="#181818" points="1508,1120.18,1504,1126.18,1508,1132.18,1512,1126.18,1508,1120.18" style="stroke:#181818;stroke-width:1.0;"/><text fill="#000000" font-family="sans-serif" font-size="12" lengthAdjust="spacing" textLength="77" x="1513" y="1157.937">DirectionState</text><text fill="#000000" font-family="sans-serif" font-size="12" lengthAdjust="spacing" textLength="7" x="1502.6555" y="1144.5372">1</text><text fill="#000000" font-family="sans-serif" font-size="12" lengthAdjust="spacing" textLength="7" x="1496.332" y="1196.3375">1</text></g><!--reverse link StatusObserver to POIObserver--><g id="link_StatusObserver_POIObserver"><path codeLine="146" d="M2555.83,547.82 C2555.83,598.83 2555.83,664 2555.83,664 C2555.83,664 2892,664 2892,664 C2892,664 2892,723.16 2892,758.74 " fill="none" id="StatusObserver-backto-POIObserver" style="stroke:#181818;stroke-width:1.0;"/><polygon fill="none" points="2555.83,529.82,2549.83,547.82,2561.83,547.82,2555.83,529.82" style="stroke:#181818;stroke-width:1.0;"/></g><!--reverse link StatusObserver to BatteryObserver--><g id="link_StatusObserver_BatteryObserver"><path codeLine="147" d="M2541.17,547.74 C2541.17,627.57 2541.17,785 2541.17,785 C2541.17,785 2567.57,785 2596.65,785 " fill="none" id="StatusObserver-backto-BatteryObserver" style="stroke:#181818;stroke-width:1.0;"/><polygon fill="none" points="2541.17,529.74,2535.17,547.74,2547.17,547.74,2541.17,529.74" style="stroke:#181818;stroke-width:1.0;"/></g><!--reverse link StatusObserver to CoordinateObserver--><g id="link_StatusObserver_CoordinateObserver"><path codeLine="148" d="M2442,547.74 C2442,608.55 2442,706.82 2442,758.79 " fill="none" id="StatusObserver-backto-CoordinateObserver" style="stroke:#181818;stroke-width:1.0;"/><polygon fill="none" points="2442,529.74,2436,547.74,2448,547.74,2442,529.74" style="stroke:#181818;stroke-width:1.0;"/></g><!--reverse link StatusObserver to DirectionObserver--><g id="link_StatusObserver_DirectionObserver"><path codeLine="149" d="M2213.5,547.74 C2213.5,608.55 2213.5,706.82 2213.5,758.79 " fill="none" id="StatusObserver-backto-DirectionObserver" style="stroke:#181818;stroke-width:1.0;"/><polygon fill="none" points="2213.5,529.74,2207.5,547.74,2219.5,547.74,2213.5,529.74" style="stroke:#181818;stroke-width:1.0;"/></g><!--reverse link FlightManager to Builder--><g id="link_FlightManager_Builder"><path codeLine="164" d="M2232.5,322.1 C2232.5,348.79 2232.5,357 2232.5,357 C2232.5,357 2469.06,357 2640.93,357 " fill="none" id="FlightManager-backto-Builder" style="stroke:#181818;stroke-width:1.0;"/><polygon fill="#181818" points="2232.5,310.1,2228.5,316.1,2232.5,322.1,2236.5,316.1,2232.5,310.1" style="stroke:#181818;stroke-width:1.0;"/><text fill="#000000" font-family="sans-serif" font-size="12" lengthAdjust="spacing" textLength="7" x="2229.1781" y="335.052">1</text><text fill="#000000" font-family="sans-serif" font-size="12" lengthAdjust="spacing" textLength="7" x="2622.2278" y="344.3188">1</text></g><!--reverse link FlightManager to StatusObserver--><g id="link_FlightManager_StatusObserver"><path codeLine="165" d="M2186,322.36 C2186,373.6 2186,416.78 2186,452.49 " fill="none" id="FlightManager-backto-StatusObserver" style="stroke:#181818;stroke-width:1.0;"/><polygon fill="#181818" points="2186,310.36,2182,316.36,2186,322.36,2190,316.36,2186,310.36" style="stroke:#181818;stroke-width:1.0;"/><text fill="#000000" font-family="sans-serif" font-size="12" lengthAdjust="spacing" textLength="92" x="2089" y="373.887">StatusObservers</text><text fill="#000000" font-family="sans-serif" font-size="12" lengthAdjust="spacing" textLength="7" x="2179.5961" y="334.8914">1</text><text fill="#000000" font-family="sans-serif" font-size="12" lengthAdjust="spacing" textLength="5" x="2149.0297" y="437.9667">*</text></g><!--reverse link FlightManager to DroneStatus--><g id="link_FlightManager_DroneStatus"><path codeLine="166" d="M1906.69,182 C1679.96,182 1332,182 1332,182 C1332,182 1332,369.66 1332,452.49 " fill="none" id="FlightManager-backto-DroneStatus" style="stroke:#181818;stroke-width:1.0;"/><polygon fill="#181818" points="1918.69,182,1912.69,178,1906.69,182,1912.69,186,1918.69,182" style="stroke:#181818;stroke-width:1.0;"/><text fill="#000000" font-family="sans-serif" font-size="12" lengthAdjust="spacing" textLength="69" x="1416.1" y="174.457">DroneStatus</text><text fill="#000000" font-family="sans-serif" font-size="12" lengthAdjust="spacing" textLength="7" x="1899.7668" y="174.9636">1</text><text fill="#000000" font-family="sans-serif" font-size="12" lengthAdjust="spacing" textLength="7" x="1319.8047" y="437.9667">1</text></g><!--reverse link FlightManager to PreviousResult--><g id="link_FlightManager_PreviousResult"><path codeLine="167" d="M1994,322.36 C1994,339.6 1994,345.3 1994,362.54 " fill="none" id="FlightManager-backto-PreviousResult" style="stroke:#181818;stroke-width:1.0;"/><polygon fill="#181818" points="1994,310.36,1990,316.36,1994,322.36,1998,316.36,1994,310.36" style="stroke:#181818;stroke-width:1.0;"/><text fill="#000000" font-family="sans-serif" font-size="12" lengthAdjust="spacing" textLength="7" x="1976.4961" y="334.8914">1</text><text fill="#000000" font-family="sans-serif" font-size="12" lengthAdjust="spacing" textLength="7" x="1990.793" y="348.3323">1</text></g><!--reverse link DroneStatus to BatteryManager--><g id="link_DroneStatus_BatteryManager"><path codeLine="168" d="M1234.17,541.66 C1234.17,614.54 1234.17,753 1234.17,753 C1234.17,753 1171.63,753 1108.11,753 " fill="none" id="DroneStatus-backto-BatteryManager" style="stroke:#181818;stroke-width:1.0;"/><polygon fill="#181818" points="1234.17,529.66,1230.17,535.66,1234.17,541.66,1238.17,535.66,1234.17,529.66" style="stroke:#181818;stroke-width:1.0;"/><text fill="#000000" font-family="sans-serif" font-size="12" lengthAdjust="spacing" textLength="85" x="1239.17" y="696.817">BatteryManager</text><text fill="#000000" font-family="sans-serif" font-size="12" lengthAdjust="spacing" textLength="7" x="1206.383" y="554.1013">1</text><text fill="#000000" font-family="sans-serif" font-size="12" lengthAdjust="spacing" textLength="7" x="1120.1812" y="743.9386">1</text></g><!--reverse link DroneStatus to CommandCenter--><g id="link_DroneStatus_CommandCenter"><path codeLine="169" d="M1213.83,541.76 C1213.83,607.3 1213.83,721 1213.83,721 C1213.83,721 944.74,721 759.74,721 " fill="none" id="DroneStatus-backto-CommandCenter" style="stroke:#181818;stroke-width:1.0;"/><polygon fill="#181818" points="1213.83,529.76,1209.83,535.76,1213.83,541.76,1217.83,535.76,1213.83,529.76" style="stroke:#181818;stroke-width:1.0;"/><text fill="#000000" font-family="sans-serif" font-size="12" lengthAdjust="spacing" textLength="96" x="1087.41" y="713.457">CommandCenter</text><text fill="#000000" font-family="sans-serif" font-size="12" lengthAdjust="spacing" textLength="7" x="1182.8013" y="554.2173">1</text><text fill="#000000" font-family="sans-serif" font-size="12" lengthAdjust="spacing" textLength="7" x="771.2595" y="711.2811">1</text></g><!--reverse link DroneStatus to DirectionManager--><g id="link_DroneStatus_DirectionManager"><path codeLine="170" d="M1384,541.74 C1384,602.55 1384,706.82 1384,758.79 " fill="none" id="DroneStatus-backto-DirectionManager" style="stroke:#181818;stroke-width:1.0;"/><polygon fill="#181818" points="1384,529.74,1380,535.74,1384,541.74,1388,535.74,1384,529.74" style="stroke:#181818;stroke-width:1.0;"/><text fill="#000000" font-family="sans-serif" font-size="12" lengthAdjust="spacing" textLength="97" x="1282" y="636.717">DirectionManager</text><text fill="#000000" font-family="sans-serif" font-size="12" lengthAdjust="spacing" textLength="7" x="1380.0922" y="554.1941">1</text><text fill="#000000" font-family="sans-serif" font-size="12" lengthAdjust="spacing" textLength="7" x="1371.4531" y="744.5193">1</text></g><!--SRC=[jLVRRkCs47ttLn1-KZRHeYdI2unzIPmDsc8R1t6AVIYA1IsDRTOIAP1qicut_rvI8YNUf2uAzCKmvvmP3iyCBn87GXlCSOqgGa6U6a2CopsRYHwWh0G13VhX6yV8CJreuvLhR71P4hf3LvwjEE0TF1ZeqkMNiCN7IZx1PtbTaHsjWKfKg1_WSOIrF5M0E1GIqrq5CuTH4xgii10VIIdtwF8xTuv20tUCoZNv2z3bLGZTunhIi9bt0B_tH94Eygs3N7FENjAGK0i3faLEuvB8oe5-dCrC3cXUSaPXZlwUeIvjTAS4syjVCLKmR-q8vGySdWaxYaSGIbVKUCEESbtj62ToNrjN71XCfDNFbj0muaBdX199SALIpDQIwwAMH9U5C7g1YAhW1akrqDC7U8RgR86U6Iaxpnt8MoY8KCnC0Prt1wbrKlPIGRc3BbkH_R9UtQysVwh8gkgjAGnsHoYk7g5H7Hl4orMxhIMMHx7Q2E3Fm3D_Y9ZvCyHydVNYtcgrEmShxP8nhZeOIx2w5A75Zn7KmeJH-XHCc68O_KGxKsToLgss1SUT-Lo0z0DcDj85yg9Se2X291ixqjBMRgi7Jweb5Ml3M0MOTeaeullMNKixnEoYS53Ughvh8a4Csl_-XmylES0Xn5kDYDxaMrm02khIwNH-R4ebR8TbJZak0btLkE_Ke9JztYbONMDQYha9tjLdsLcNxN5Z43MnPyxEhBd61xXkUzmAXqt7c-4Ui3xW_3QSS8o8BrZefOrmtT8Cv9-wIRCe1vVUYk4V6sQHebzsxirdPr4jy9_MFE8Nyl9jTSeYuzvVapfR8WeKUpQ5YmBJEB2Gh0cidZIsiUmH5OdJzEL90AOK2UItfoFl9HMZqlHRT9oL43xmUh3pMKUf_j_QupdWxrn-geYhfc52xV0KmqZdxwBvvVnDdglVICn5P9bqzzjq4OoZ7Mvk7Bl1XyFbfWFyQr8jheI20nPWy9jJUvpYMXs6qbN9Qv0rgPiAHaBcuSrdfqfvjREPUzGWP-vymHpllhnzcvmz4gA_YVsphk-0GO7U55tY_PadMGV5lI7PtR6gHj1SIokXdq0VtF5JGNdv37VzGm5zpf2-liPK2iCgKlqxZJxgbaeY7s0hq-qU2_r9NxlGtorMyNlzYXv9_jLZliT2VXLnpOvV6V8ZJ8GqVmAyRR54qXFiEF49SYBv2NQy0BS8FMBtnt1kz91FJ37Qi8ac33QKVdfyie_5u0cXdXx1kyKxBynUdQ8ChyefLfzZcXIyeDvzoNCtjL5EaDyeBqvob1fbwh-9RuwaAl-FpnNtmLuE___rM-P5HVAp49a_LiU0oNhm29FAGaFAoKdHVT2cg4F2cVUwzOWRFT2dbFSbQFNsFm-7zXz291blva5P5y5OJCHsLhLm1nCk3s79tK8wMNkttW95js3QpNjTBFpXg5DukYmYo-nrzWy0]--></g></svg>