<?xml version="1.0" encoding="us-ascii" standalone="no"?><svg xmlns="http://www.w3.org/2000/svg" xmlns:xlink="http://www.w3.org/1999/xlink" contentStyleType="text/css" height="853px" preserveAspectRatio="none" style="width:6156px;height:853px;background:#FFFFFF;" version="1.1" viewBox="0 0 6156 853" width="6156px" zoomAndPan="magnify"><defs/><g><!--cluster flight_algorithm--><g id="cluster_flight_algorithm"><path d="M8.5,6 L136.5,6 A3.75,3.75 0 0 1 139,8.5 L146,40.125 L6146.5,40.125 A2.5,2.5 0 0 1 6149,42.625 L6149,844 A2.5,2.5 0 0 1 6146.5,846.5 L8.5,846.5 A2.5,2.5 0 0 1 6,844 L6,8.5 A2.5,2.5 0 0 1 8.5,6 " fill="none" style="stroke:#000000;stroke-width:1.5;"/><line style="stroke:#000000;stroke-width:1.5;" x1="6" x2="146" y1="40.125" y2="40.125"/><text fill="#000000" font-family="sans-serif" font-size="16" font-weight="bold" lengthAdjust="spacing" textLength="119" x="14" y="28.6094">flight_algorithm</text></g><!--cluster finding_island--><g id="cluster_finding_island"><path d="M200.5,442.5 L317.5,442.5 A3.75,3.75 0 0 1 320,445 L327,476.625 L2143.5,476.625 A2.5,2.5 0 0 1 2146,479.125 L2146,685 A2.5,2.5 0 0 1 2143.5,687.5 L200.5,687.5 A2.5,2.5 0 0 1 198,685 L198,445 A2.5,2.5 0 0 1 200.5,442.5 " fill="none" style="stroke:#000000;stroke-width:1.5;"/><line style="stroke:#000000;stroke-width:1.5;" x1="198" x2="327" y1="476.625" y2="476.625"/><text fill="#000000" font-family="sans-serif" font-size="16" font-weight="bold" lengthAdjust="spacing" textLength="108" x="206" y="465.1094">finding_island</text></g><!--cluster stages--><g id="cluster_stages"><path d="M1362.5,497.5 L1422.5,497.5 A3.75,3.75 0 0 1 1425,500 L1432,531.625 L2119.5,531.625 A2.5,2.5 0 0 1 2122,534.125 L2122,661 A2.5,2.5 0 0 1 2119.5,663.5 L1362.5,663.5 A2.5,2.5 0 0 1 1360,661 L1360,500 A2.5,2.5 0 0 1 1362.5,497.5 " fill="none" style="stroke:#000000;stroke-width:1.5;"/><line style="stroke:#000000;stroke-width:1.5;" x1="1360" x2="1432" y1="531.625" y2="531.625"/><text fill="#000000" font-family="sans-serif" font-size="16" font-weight="bold" lengthAdjust="spacing" textLength="51" x="1368" y="520.1094">stages</text></g><!--cluster transitions--><g id="cluster_transitions"><path d="M224.5,527 L314.5,527 A3.75,3.75 0 0 1 317,529.5 L324,561.125 L1319.5,561.125 A2.5,2.5 0 0 1 1322,563.625 L1322,631.5 A2.5,2.5 0 0 1 1319.5,634 L224.5,634 A2.5,2.5 0 0 1 222,631.5 L222,529.5 A2.5,2.5 0 0 1 224.5,527 " fill="none" style="stroke:#000000;stroke-width:1.5;"/><line style="stroke:#000000;stroke-width:1.5;" x1="222" x2="324" y1="561.125" y2="561.125"/><text fill="#000000" font-family="sans-serif" font-size="16" font-weight="bold" lengthAdjust="spacing" textLength="81" x="230" y="549.6094">transitions</text></g><!--cluster searching_island--><g id="cluster_searching_island"><path d="M2172.5,417 L2312.5,417 A3.75,3.75 0 0 1 2315,419.5 L2322,451.125 L4381.5,451.125 A2.5,2.5 0 0 1 4384,453.625 L4384,820 A2.5,2.5 0 0 1 4381.5,822.5 L2172.5,822.5 A2.5,2.5 0 0 1 2170,820 L2170,419.5 A2.5,2.5 0 0 1 2172.5,417 " fill="none" style="stroke:#000000;stroke-width:1.5;"/><line style="stroke:#000000;stroke-width:1.5;" x1="2170" x2="2322" y1="451.125" y2="451.125"/><text fill="#000000" font-family="sans-serif" font-size="16" font-weight="bold" lengthAdjust="spacing" textLength="131" x="2178" y="439.6094">searching_island</text></g><!--cluster transitions--><g id="cluster_transitions"><path d="M2196.5,472 L2286.5,472 A3.75,3.75 0 0 1 2289,474.5 L2296,506.125 L3917.5,506.125 A2.5,2.5 0 0 1 3920,508.625 L3920,796 A2.5,2.5 0 0 1 3917.5,798.5 L2196.5,798.5 A2.5,2.5 0 0 1 2194,796 L2194,474.5 A2.5,2.5 0 0 1 2196.5,472 " fill="none" style="stroke:#000000;stroke-width:1.5;"/><line style="stroke:#000000;stroke-width:1.5;" x1="2194" x2="2296" y1="506.125" y2="506.125"/><text fill="#000000" font-family="sans-serif" font-size="16" font-weight="bold" lengthAdjust="spacing" textLength="81" x="2202" y="494.6094">transitions</text></g><!--cluster stages--><g id="cluster_stages"><path d="M3960.5,527 L4020.5,527 A3.75,3.75 0 0 1 4023,529.5 L4030,561.125 L4357.5,561.125 A2.5,2.5 0 0 1 4360,563.625 L4360,631.5 A2.5,2.5 0 0 1 4357.5,634 L3960.5,634 A2.5,2.5 0 0 1 3958,631.5 L3958,529.5 A2.5,2.5 0 0 1 3960.5,527 " fill="none" style="stroke:#000000;stroke-width:1.5;"/><line style="stroke:#000000;stroke-width:1.5;" x1="3958" x2="4030" y1="561.125" y2="561.125"/><text fill="#000000" font-family="sans-serif" font-size="16" font-weight="bold" lengthAdjust="spacing" textLength="51" x="3966" y="549.6094">stages</text></g><!--cluster utility_stages--><g id="cluster_utility_stages"><path d="M4410.5,446.5 L4520.5,446.5 A3.75,3.75 0 0 1 4523,449 L4530,480.625 L6122.5,480.625 A2.5,2.5 0 0 1 6125,483.125 L6125,712 A2.5,2.5 0 0 1 6122.5,714.5 L4410.5,714.5 A2.5,2.5 0 0 1 4408,712 L4408,449 A2.5,2.5 0 0 1 4410.5,446.5 " fill="none" style="stroke:#000000;stroke-width:1.5;"/><line style="stroke:#000000;stroke-width:1.5;" x1="4408" x2="4530" y1="480.625" y2="480.625"/><text fill="#000000" font-family="sans-serif" font-size="16" font-weight="bold" lengthAdjust="spacing" textLength="101" x="4416" y="469.1094">utility_stages</text></g><!--class AlgorithmManager--><g id="elem_AlgorithmManager"><rect codeLine="22" fill="#F1F1F1" height="102.8281" id="AlgorithmManager" rx="2.5" ry="2.5" style="stroke:#181818;stroke-width:0.5;" width="483" x="564.5" y="53"/><ellipse cx="740.25" cy="70.8047" fill="#ADD1B2" rx="11" ry="11" style="stroke:#181818;stroke-width:1.0;"/><path d="M743.0156,66.6797 Q743.1719,66.4609 743.3594,66.3516 Q743.5469,66.2422 743.7656,66.2422 Q744.1406,66.2422 744.375,66.5078 Q744.6094,66.7578 744.6094,67.3672 L744.6094,68.8203 Q744.6094,69.4297 744.375,69.6953 Q744.1406,69.9609 743.7656,69.9609 Q743.4219,69.9609 743.2188,69.7578 Q743.0156,69.5703 742.9063,69.0547 Q742.8594,68.6953 742.6719,68.5078 Q742.3438,68.1328 741.7344,67.9141 Q741.125,67.6953 740.5,67.6953 Q739.7344,67.6953 739.0938,68.0234 Q738.4688,68.3516 737.9688,69.1016 Q737.4844,69.8516 737.4844,70.8828 L737.4844,71.9766 Q737.4844,73.2109 738.375,74.0391 Q739.2656,74.8516 740.8594,74.8516 Q741.7969,74.8516 742.4531,74.6016 Q742.8438,74.4453 743.2656,74.0078 Q743.5313,73.7422 743.6719,73.6641 Q743.8281,73.5859 744.0313,73.5859 Q744.3594,73.5859 744.6094,73.8516 Q744.875,74.1016 744.875,74.4453 Q744.875,74.7891 744.5313,75.1953 Q744.0313,75.7734 743.2344,76.1016 Q742.1563,76.5547 740.8594,76.5547 Q739.3438,76.5547 738.1406,75.9297 Q737.1563,75.4297 736.4688,74.3672 Q735.7813,73.2891 735.7813,72.0078 L735.7813,70.8516 Q735.7813,69.5234 736.3906,68.3828 Q737.0156,67.2266 738.1094,66.6172 Q739.2031,65.9922 740.4375,65.9922 Q741.1719,65.9922 741.8125,66.1641 Q742.4688,66.3203 743.0156,66.6797 Z " fill="#000000"/><text fill="#000000" font-family="sans-serif" font-size="14" lengthAdjust="spacing" textLength="115" x="764.75" y="76.5332">AlgorithmManager</text><line style="stroke:#181818;stroke-width:0.5;" x1="565.5" x2="1046.5" y1="88.6094" y2="88.6094"/><rect fill="none" height="6" style="stroke:#C82930;stroke-width:1.0;" width="6" x="572.5" y="103.9141"/><text fill="#000000" font-family="sans-serif" font-size="14" lengthAdjust="spacing" textLength="256" x="588.5" y="111.1426">IslandEdgeManager islandEdgeManager</text><line style="stroke:#181818;stroke-width:0.5;" x1="565.5" x2="1046.5" y1="122.2188" y2="122.2188"/><ellipse cx="575.5" cy="140.5234" fill="#84BE84" rx="3" ry="3" style="stroke:#038048;stroke-width:1.0;"/><text fill="#000000" font-family="sans-serif" font-size="14" lengthAdjust="spacing" textLength="449" x="588.5" y="144.752">makeStageDecision(DroneStatus, POIManager, PreviousResult): String</text></g><!--class TransitionInformation--><g id="elem_TransitionInformation"><rect codeLine="27" fill="#F1F1F1" height="205.2656" id="TransitionInformation" rx="2.5" ry="2.5" style="stroke:#181818;stroke-width:0.5;" width="210" x="22" y="196"/><ellipse cx="53.65" cy="213.8047" fill="#ADD1B2" rx="11" ry="11" style="stroke:#181818;stroke-width:1.0;"/><path d="M56.4156,209.6797 Q56.5719,209.4609 56.7594,209.3516 Q56.9469,209.2422 57.1656,209.2422 Q57.5406,209.2422 57.775,209.5078 Q58.0094,209.7578 58.0094,210.3672 L58.0094,211.8203 Q58.0094,212.4297 57.775,212.6953 Q57.5406,212.9609 57.1656,212.9609 Q56.8219,212.9609 56.6188,212.7578 Q56.4156,212.5703 56.3063,212.0547 Q56.2594,211.6953 56.0719,211.5078 Q55.7438,211.1328 55.1344,210.9141 Q54.525,210.6953 53.9,210.6953 Q53.1344,210.6953 52.4938,211.0234 Q51.8688,211.3516 51.3688,212.1016 Q50.8844,212.8516 50.8844,213.8828 L50.8844,214.9766 Q50.8844,216.2109 51.775,217.0391 Q52.6656,217.8516 54.2594,217.8516 Q55.1969,217.8516 55.8531,217.6016 Q56.2438,217.4453 56.6656,217.0078 Q56.9313,216.7422 57.0719,216.6641 Q57.2281,216.5859 57.4313,216.5859 Q57.7594,216.5859 58.0094,216.8516 Q58.275,217.1016 58.275,217.4453 Q58.275,217.7891 57.9313,218.1953 Q57.4313,218.7734 56.6344,219.1016 Q55.5563,219.5547 54.2594,219.5547 Q52.7438,219.5547 51.5406,218.9297 Q50.5563,218.4297 49.8688,217.3672 Q49.1813,216.2891 49.1813,215.0078 L49.1813,213.8516 Q49.1813,212.5234 49.7906,211.3828 Q50.4156,210.2266 51.5094,209.6172 Q52.6031,208.9922 53.8375,208.9922 Q54.5719,208.9922 55.2125,209.1641 Q55.8688,209.3203 56.4156,209.6797 Z " fill="#000000"/><text fill="#000000" font-family="sans-serif" font-size="14" lengthAdjust="spacing" textLength="133" x="75.35" y="219.5332">TransitionInformation</text><line style="stroke:#181818;stroke-width:0.5;" x1="23" x2="231" y1="231.6094" y2="231.6094"/><rect fill="none" height="6" style="stroke:#C82930;stroke-width:1.0;" width="6" x="30" y="246.9141"/><text fill="#000000" font-family="sans-serif" font-size="14" lengthAdjust="spacing" textLength="118" x="46" y="254.1426">String sweepString</text><rect fill="none" height="6" style="stroke:#C82930;stroke-width:1.0;" width="6" x="30" y="272.5234"/><text fill="#000000" font-family="sans-serif" font-size="14" lengthAdjust="spacing" textLength="156" x="46" y="279.752">Direction sweepDirection</text><rect fill="none" height="6" style="stroke:#C82930;stroke-width:1.0;" width="6" x="30" y="298.1328"/><text fill="#000000" font-family="sans-serif" font-size="14" lengthAdjust="spacing" textLength="175" x="46" y="305.3613">Direction finalEdgeDirection</text><rect fill="none" height="6" style="stroke:#C82930;stroke-width:1.0;" width="6" x="30" y="323.7422"/><text fill="#000000" font-family="sans-serif" font-size="14" lengthAdjust="spacing" textLength="137" x="46" y="330.9707">String finalEdgeString</text><line style="stroke:#181818;stroke-width:0.5;" x1="23" x2="231" y1="342.0469" y2="342.0469"/><ellipse cx="33" cy="360.3516" fill="#84BE84" rx="3" ry="3" style="stroke:#038048;stroke-width:1.0;"/><text fill="#000000" font-family="sans-serif" font-size="14" lengthAdjust="spacing" textLength="154" x="46" y="364.5801">getSweepString(): String</text><ellipse cx="33" cy="385.9609" fill="#84BE84" rx="3" ry="3" style="stroke:#038048;stroke-width:1.0;"/><text fill="#000000" font-family="sans-serif" font-size="14" lengthAdjust="spacing" textLength="176" x="46" y="390.1895">getFinalEdgeString(): String</text></g><!--class Transition--><g id="elem_Transition"><rect codeLine="36" fill="#F1F1F1" height="128.4375" id="Transition" rx="2.5" ry="2.5" style="stroke:#181818;stroke-width:0.5;" width="1007" x="302.5" y="234.5"/><ellipse cx="766.25" cy="252.3047" fill="#A9DCDF" rx="11" ry="11" style="stroke:#181818;stroke-width:1.0;"/><path d="M768.4375,254.0703 L764.2969,254.0703 L763.875,255.1016 L764.2969,255.1016 Q764.9063,255.1016 765.1719,255.3359 Q765.4375,255.5703 765.4375,255.9609 Q765.4375,256.3359 765.1719,256.5703 Q764.9063,256.8047 764.2969,256.8047 L762,256.8047 Q761.3906,256.8047 761.1406,256.5703 Q760.875,256.3359 760.875,255.9453 Q760.875,255.5703 761.1563,255.3359 Q761.4219,255.0859 762.0469,255.1016 L764.7188,248.4453 L763.6094,248.4453 Q763,248.4453 762.7344,248.2109 Q762.4688,247.9766 762.4688,247.5859 Q762.4688,247.2109 762.7344,246.9766 Q763,246.7422 763.6094,246.7422 L767.2813,246.7422 L770.6719,255.1016 Q771.2656,255.1016 771.4531,255.2422 Q771.8438,255.5078 771.8438,255.9609 Q771.8438,256.3359 771.5781,256.5703 Q771.3281,256.8047 770.7188,256.8047 L768.4219,256.8047 Q767.8125,256.8047 767.5469,256.5703 Q767.2813,256.3359 767.2813,255.9453 Q767.2813,255.5703 767.5469,255.3359 Q767.8125,255.1016 768.4219,255.1016 L768.8438,255.1016 L768.4375,254.0703 Z M767.7188,252.3672 L766.3594,248.9922 L764.9844,252.3672 L767.7188,252.3672 Z " fill="#000000"/><text fill="#000000" font-family="sans-serif" font-size="14" font-style="italic" lengthAdjust="spacing" textLength="63" x="790.75" y="258.0332">Transition</text><line style="stroke:#181818;stroke-width:0.5;" x1="303.5" x2="1308.5" y1="270.1094" y2="270.1094"/><line style="stroke:#181818;stroke-width:0.5;" x1="303.5" x2="1308.5" y1="278.1094" y2="278.1094"/><ellipse cx="313.5" cy="296.4141" fill="#84BE84" rx="3" ry="3" style="stroke:#038048;stroke-width:1.0;"/><text fill="#000000" font-family="sans-serif" font-size="14" lengthAdjust="spacing" textLength="973" x="326.5" y="300.6426">makeTransition(DirectionManager, BatteryManager, IslandEdgeManager, PreviousResult, AlgorithmManager, PreviousDecision, CoordinateManager): void</text><ellipse cx="313.5" cy="322.0234" fill="#84BE84" rx="3" ry="3" style="stroke:#038048;stroke-width:1.0;"/><text fill="#000000" font-family="sans-serif" font-size="14" font-style="italic" lengthAdjust="spacing" textLength="818" x="326.5" y="326.252">execute(DirectionManager, IslandEdgeManager, PreviousResult, AlgorithmManager, PreviousDecision, CoordinateManager): void</text><rect fill="#F24D5C" height="6" style="stroke:#C82930;stroke-width:1.0;" width="6" x="310.5" y="344.6328"/><text fill="#000000" font-family="sans-serif" font-size="14" lengthAdjust="spacing" textLength="295" x="326.5" y="351.8613">checkBatteryCritical(BatteryManager): boolean</text></g><!--class Stage--><g id="elem_Stage"><rect codeLine="42" fill="#F1F1F1" height="77.2188" id="Stage" rx="2.5" ry="2.5" style="stroke:#181818;stroke-width:0.5;" width="527" x="3895.5" y="260"/><ellipse cx="4132.25" cy="277.8047" fill="#B4A7E5" rx="11" ry="11" style="stroke:#181818;stroke-width:1.0;"/><path d="M4133.2031,274.4453 L4133.2031,281.1016 L4134.9219,281.1016 Q4135.5313,281.1016 4135.7969,281.3359 Q4136.0625,281.5703 4136.0625,281.9609 Q4136.0625,282.3359 4135.7969,282.5703 Q4135.5313,282.8047 4134.9219,282.8047 L4129.7813,282.8047 Q4129.1719,282.8047 4128.9063,282.5703 Q4128.6406,282.3359 4128.6406,281.9453 Q4128.6406,281.5703 4128.9063,281.3359 Q4129.1719,281.1016 4129.7813,281.1016 L4131.5,281.1016 L4131.5,274.4453 L4129.7813,274.4453 Q4129.1719,274.4453 4128.9063,274.2109 Q4128.6406,273.9766 4128.6406,273.5859 Q4128.6406,273.2109 4128.9063,272.9766 Q4129.1719,272.7422 4129.7813,272.7422 L4134.9219,272.7422 Q4135.5313,272.7422 4135.7969,272.9766 Q4136.0625,273.2109 4136.0625,273.5859 Q4136.0625,273.9766 4135.7969,274.2109 Q4135.5313,274.4453 4134.9219,274.4453 L4133.2031,274.4453 Z " fill="#000000"/><text fill="#000000" font-family="sans-serif" font-size="14" font-style="italic" lengthAdjust="spacing" textLength="37" x="4156.75" y="283.5332">Stage</text><line style="stroke:#181818;stroke-width:0.5;" x1="3896.5" x2="4421.5" y1="295.6094" y2="295.6094"/><line style="stroke:#181818;stroke-width:0.5;" x1="3896.5" x2="4421.5" y1="303.6094" y2="303.6094"/><ellipse cx="3906.5" cy="321.9141" fill="#84BE84" rx="3" ry="3" style="stroke:#038048;stroke-width:1.0;"/><text fill="#000000" font-family="sans-serif" font-size="14" lengthAdjust="spacing" textLength="493" x="3919.5" y="326.1426">makeDecision(DirectionManager, CommandCenter, AlgorithmManager): String</text></g><!--class FirstEcho--><g id="elem_FirstEcho"><rect codeLine="48" fill="#F1F1F1" height="43.6094" id="FirstEcho" rx="2.5" ry="2.5" style="stroke:#181818;stroke-width:0.5;" width="150" x="1596" y="574"/><ellipse cx="1633.5" cy="591.8047" fill="#ADD1B2" rx="11" ry="11" style="stroke:#181818;stroke-width:1.0;"/><path d="M1636.2656,587.6797 Q1636.4219,587.4609 1636.6094,587.3516 Q1636.7969,587.2422 1637.0156,587.2422 Q1637.3906,587.2422 1637.625,587.5078 Q1637.8594,587.7578 1637.8594,588.3672 L1637.8594,589.8203 Q1637.8594,590.4297 1637.625,590.6953 Q1637.3906,590.9609 1637.0156,590.9609 Q1636.6719,590.9609 1636.4688,590.7578 Q1636.2656,590.5703 1636.1563,590.0547 Q1636.1094,589.6953 1635.9219,589.5078 Q1635.5938,589.1328 1634.9844,588.9141 Q1634.375,588.6953 1633.75,588.6953 Q1632.9844,588.6953 1632.3438,589.0234 Q1631.7188,589.3516 1631.2188,590.1016 Q1630.7344,590.8516 1630.7344,591.8828 L1630.7344,592.9766 Q1630.7344,594.2109 1631.625,595.0391 Q1632.5156,595.8516 1634.1094,595.8516 Q1635.0469,595.8516 1635.7031,595.6016 Q1636.0938,595.4453 1636.5156,595.0078 Q1636.7813,594.7422 1636.9219,594.6641 Q1637.0781,594.5859 1637.2813,594.5859 Q1637.6094,594.5859 1637.8594,594.8516 Q1638.125,595.1016 1638.125,595.4453 Q1638.125,595.7891 1637.7813,596.1953 Q1637.2813,596.7734 1636.4844,597.1016 Q1635.4063,597.5547 1634.1094,597.5547 Q1632.5938,597.5547 1631.3906,596.9297 Q1630.4063,596.4297 1629.7188,595.3672 Q1629.0313,594.2891 1629.0313,593.0078 L1629.0313,591.8516 Q1629.0313,590.5234 1629.6406,589.3828 Q1630.2656,588.2266 1631.3594,587.6172 Q1632.4531,586.9922 1633.6875,586.9922 Q1634.4219,586.9922 1635.0625,587.1641 Q1635.7188,587.3203 1636.2656,587.6797 Z " fill="#000000"/><text fill="#000000" font-family="sans-serif" font-size="14" lengthAdjust="spacing" textLength="60" x="1656.5" y="597.5332">FirstEcho</text><line style="stroke:#181818;stroke-width:0.5;" x1="1597" x2="1745" y1="609.6094" y2="609.6094"/></g><!--class EchoSweep--><g id="elem_EchoSweep"><rect codeLine="51" fill="#F1F1F1" height="43.6094" id="EchoSweep" rx="2.5" ry="2.5" style="stroke:#181818;stroke-width:0.5;" width="150" x="1376" y="574"/><ellipse cx="1407.2" cy="591.8047" fill="#ADD1B2" rx="11" ry="11" style="stroke:#181818;stroke-width:1.0;"/><path d="M1409.9656,587.6797 Q1410.1219,587.4609 1410.3094,587.3516 Q1410.4969,587.2422 1410.7156,587.2422 Q1411.0906,587.2422 1411.325,587.5078 Q1411.5594,587.7578 1411.5594,588.3672 L1411.5594,589.8203 Q1411.5594,590.4297 1411.325,590.6953 Q1411.0906,590.9609 1410.7156,590.9609 Q1410.3719,590.9609 1410.1688,590.7578 Q1409.9656,590.5703 1409.8563,590.0547 Q1409.8094,589.6953 1409.6219,589.5078 Q1409.2938,589.1328 1408.6844,588.9141 Q1408.075,588.6953 1407.45,588.6953 Q1406.6844,588.6953 1406.0438,589.0234 Q1405.4188,589.3516 1404.9188,590.1016 Q1404.4344,590.8516 1404.4344,591.8828 L1404.4344,592.9766 Q1404.4344,594.2109 1405.325,595.0391 Q1406.2156,595.8516 1407.8094,595.8516 Q1408.7469,595.8516 1409.4031,595.6016 Q1409.7938,595.4453 1410.2156,595.0078 Q1410.4813,594.7422 1410.6219,594.6641 Q1410.7781,594.5859 1410.9813,594.5859 Q1411.3094,594.5859 1411.5594,594.8516 Q1411.825,595.1016 1411.825,595.4453 Q1411.825,595.7891 1411.4813,596.1953 Q1410.9813,596.7734 1410.1844,597.1016 Q1409.1063,597.5547 1407.8094,597.5547 Q1406.2938,597.5547 1405.0906,596.9297 Q1404.1063,596.4297 1403.4188,595.3672 Q1402.7313,594.2891 1402.7313,593.0078 L1402.7313,591.8516 Q1402.7313,590.5234 1403.3406,589.3828 Q1403.9656,588.2266 1405.0594,587.6172 Q1406.1531,586.9922 1407.3875,586.9922 Q1408.1219,586.9922 1408.7625,587.1641 Q1409.4188,587.3203 1409.9656,587.6797 Z " fill="#000000"/><text fill="#000000" font-family="sans-serif" font-size="14" lengthAdjust="spacing" textLength="74" x="1428.8" y="597.5332">EchoSweep</text><line style="stroke:#181818;stroke-width:0.5;" x1="1377" x2="1525" y1="609.6094" y2="609.6094"/></g><!--class DirectionalSweep--><g id="elem_DirectionalSweep"><rect codeLine="54" fill="#F1F1F1" height="102.8281" id="DirectionalSweep" rx="2.5" ry="2.5" style="stroke:#181818;stroke-width:0.5;" width="290" x="1816" y="544.5"/><ellipse cx="1898.25" cy="562.3047" fill="#ADD1B2" rx="11" ry="11" style="stroke:#181818;stroke-width:1.0;"/><path d="M1901.0156,558.1797 Q1901.1719,557.9609 1901.3594,557.8516 Q1901.5469,557.7422 1901.7656,557.7422 Q1902.1406,557.7422 1902.375,558.0078 Q1902.6094,558.2578 1902.6094,558.8672 L1902.6094,560.3203 Q1902.6094,560.9297 1902.375,561.1953 Q1902.1406,561.4609 1901.7656,561.4609 Q1901.4219,561.4609 1901.2188,561.2578 Q1901.0156,561.0703 1900.9063,560.5547 Q1900.8594,560.1953 1900.6719,560.0078 Q1900.3438,559.6328 1899.7344,559.4141 Q1899.125,559.1953 1898.5,559.1953 Q1897.7344,559.1953 1897.0938,559.5234 Q1896.4688,559.8516 1895.9688,560.6016 Q1895.4844,561.3516 1895.4844,562.3828 L1895.4844,563.4766 Q1895.4844,564.7109 1896.375,565.5391 Q1897.2656,566.3516 1898.8594,566.3516 Q1899.7969,566.3516 1900.4531,566.1016 Q1900.8438,565.9453 1901.2656,565.5078 Q1901.5313,565.2422 1901.6719,565.1641 Q1901.8281,565.0859 1902.0313,565.0859 Q1902.3594,565.0859 1902.6094,565.3516 Q1902.875,565.6016 1902.875,565.9453 Q1902.875,566.2891 1902.5313,566.6953 Q1902.0313,567.2734 1901.2344,567.6016 Q1900.1563,568.0547 1898.8594,568.0547 Q1897.3438,568.0547 1896.1406,567.4297 Q1895.1563,566.9297 1894.4688,565.8672 Q1893.7813,564.7891 1893.7813,563.5078 L1893.7813,562.3516 Q1893.7813,561.0234 1894.3906,559.8828 Q1895.0156,558.7266 1896.1094,558.1172 Q1897.2031,557.4922 1898.4375,557.4922 Q1899.1719,557.4922 1899.8125,557.6641 Q1900.4688,557.8203 1901.0156,558.1797 Z " fill="#000000"/><text fill="#000000" font-family="sans-serif" font-size="14" lengthAdjust="spacing" textLength="109" x="1922.75" y="568.0332">DirectionalSweep</text><line style="stroke:#181818;stroke-width:0.5;" x1="1817" x2="2105" y1="580.1094" y2="580.1094"/><rect fill="none" height="6" style="stroke:#C82930;stroke-width:1.0;" width="6" x="1824" y="595.4141"/><text fill="#000000" font-family="sans-serif" font-size="14" lengthAdjust="spacing" textLength="137" x="1840" y="602.6426">String sweepDirection</text><line style="stroke:#181818;stroke-width:0.5;" x1="1817" x2="2105" y1="613.7188" y2="613.7188"/><ellipse cx="1827" cy="632.0234" fill="#84BE84" rx="3" ry="3" style="stroke:#038048;stroke-width:1.0;"/><text fill="#000000" font-family="sans-serif" font-size="14" lengthAdjust="spacing" textLength="256" x="1840" y="636.252">DirectionalSweep(String sweepDirection)</text></g><!--class FirstEchoTrans--><g id="elem_FirstEchoTrans"><rect codeLine="65" fill="#F1F1F1" height="43.6094" id="FirstEchoTrans" rx="2.5" ry="2.5" style="stroke:#181818;stroke-width:0.5;" width="150" x="1156" y="574"/><ellipse cx="1176.85" cy="591.8047" fill="#ADD1B2" rx="11" ry="11" style="stroke:#181818;stroke-width:1.0;"/><path d="M1179.6156,587.6797 Q1179.7719,587.4609 1179.9594,587.3516 Q1180.1469,587.2422 1180.3656,587.2422 Q1180.7406,587.2422 1180.975,587.5078 Q1181.2094,587.7578 1181.2094,588.3672 L1181.2094,589.8203 Q1181.2094,590.4297 1180.975,590.6953 Q1180.7406,590.9609 1180.3656,590.9609 Q1180.0219,590.9609 1179.8188,590.7578 Q1179.6156,590.5703 1179.5063,590.0547 Q1179.4594,589.6953 1179.2719,589.5078 Q1178.9438,589.1328 1178.3344,588.9141 Q1177.725,588.6953 1177.1,588.6953 Q1176.3344,588.6953 1175.6938,589.0234 Q1175.0688,589.3516 1174.5688,590.1016 Q1174.0844,590.8516 1174.0844,591.8828 L1174.0844,592.9766 Q1174.0844,594.2109 1174.975,595.0391 Q1175.8656,595.8516 1177.4594,595.8516 Q1178.3969,595.8516 1179.0531,595.6016 Q1179.4438,595.4453 1179.8656,595.0078 Q1180.1313,594.7422 1180.2719,594.6641 Q1180.4281,594.5859 1180.6313,594.5859 Q1180.9594,594.5859 1181.2094,594.8516 Q1181.475,595.1016 1181.475,595.4453 Q1181.475,595.7891 1181.1313,596.1953 Q1180.6313,596.7734 1179.8344,597.1016 Q1178.7563,597.5547 1177.4594,597.5547 Q1175.9438,597.5547 1174.7406,596.9297 Q1173.7563,596.4297 1173.0688,595.3672 Q1172.3813,594.2891 1172.3813,593.0078 L1172.3813,591.8516 Q1172.3813,590.5234 1172.9906,589.3828 Q1173.6156,588.2266 1174.7094,587.6172 Q1175.8031,586.9922 1177.0375,586.9922 Q1177.7719,586.9922 1178.4125,587.1641 Q1179.0688,587.3203 1179.6156,587.6797 Z " fill="#000000"/><text fill="#000000" font-family="sans-serif" font-size="14" lengthAdjust="spacing" textLength="97" x="1196.15" y="597.5332">FirstEchoTrans</text><line style="stroke:#181818;stroke-width:0.5;" x1="1157" x2="1305" y1="609.6094" y2="609.6094"/></g><!--class EchoSweepTrans--><g id="elem_EchoSweepTrans"><rect codeLine="68" fill="#F1F1F1" height="43.6094" id="EchoSweepTrans" rx="2.5" ry="2.5" style="stroke:#181818;stroke-width:0.5;" width="151" x="934.5" y="574"/><ellipse cx="949.5" cy="591.8047" fill="#ADD1B2" rx="11" ry="11" style="stroke:#181818;stroke-width:1.0;"/><path d="M952.2656,587.6797 Q952.4219,587.4609 952.6094,587.3516 Q952.7969,587.2422 953.0156,587.2422 Q953.3906,587.2422 953.625,587.5078 Q953.8594,587.7578 953.8594,588.3672 L953.8594,589.8203 Q953.8594,590.4297 953.625,590.6953 Q953.3906,590.9609 953.0156,590.9609 Q952.6719,590.9609 952.4688,590.7578 Q952.2656,590.5703 952.1563,590.0547 Q952.1094,589.6953 951.9219,589.5078 Q951.5938,589.1328 950.9844,588.9141 Q950.375,588.6953 949.75,588.6953 Q948.9844,588.6953 948.3438,589.0234 Q947.7188,589.3516 947.2188,590.1016 Q946.7344,590.8516 946.7344,591.8828 L946.7344,592.9766 Q946.7344,594.2109 947.625,595.0391 Q948.5156,595.8516 950.1094,595.8516 Q951.0469,595.8516 951.7031,595.6016 Q952.0938,595.4453 952.5156,595.0078 Q952.7813,594.7422 952.9219,594.6641 Q953.0781,594.5859 953.2813,594.5859 Q953.6094,594.5859 953.8594,594.8516 Q954.125,595.1016 954.125,595.4453 Q954.125,595.7891 953.7813,596.1953 Q953.2813,596.7734 952.4844,597.1016 Q951.4063,597.5547 950.1094,597.5547 Q948.5938,597.5547 947.3906,596.9297 Q946.4063,596.4297 945.7188,595.3672 Q945.0313,594.2891 945.0313,593.0078 L945.0313,591.8516 Q945.0313,590.5234 945.6406,589.3828 Q946.2656,588.2266 947.3594,587.6172 Q948.4531,586.9922 949.6875,586.9922 Q950.4219,586.9922 951.0625,587.1641 Q951.7188,587.3203 952.2656,587.6797 Z " fill="#000000"/><text fill="#000000" font-family="sans-serif" font-size="14" lengthAdjust="spacing" textLength="111" x="967.5" y="597.5332">EchoSweepTrans</text><line style="stroke:#181818;stroke-width:0.5;" x1="935.5" x2="1084.5" y1="609.6094" y2="609.6094"/></g><!--class FindCornerTrans--><g id="elem_FindCornerTrans"><rect codeLine="71" fill="#F1F1F1" height="43.6094" id="FindCornerTrans" rx="2.5" ry="2.5" style="stroke:#181818;stroke-width:0.5;" width="150" x="714" y="574"/><ellipse cx="729.45" cy="591.8047" fill="#ADD1B2" rx="11" ry="11" style="stroke:#181818;stroke-width:1.0;"/><path d="M732.2156,587.6797 Q732.3719,587.4609 732.5594,587.3516 Q732.7469,587.2422 732.9656,587.2422 Q733.3406,587.2422 733.575,587.5078 Q733.8094,587.7578 733.8094,588.3672 L733.8094,589.8203 Q733.8094,590.4297 733.575,590.6953 Q733.3406,590.9609 732.9656,590.9609 Q732.6219,590.9609 732.4188,590.7578 Q732.2156,590.5703 732.1063,590.0547 Q732.0594,589.6953 731.8719,589.5078 Q731.5438,589.1328 730.9344,588.9141 Q730.325,588.6953 729.7,588.6953 Q728.9344,588.6953 728.2938,589.0234 Q727.6688,589.3516 727.1688,590.1016 Q726.6844,590.8516 726.6844,591.8828 L726.6844,592.9766 Q726.6844,594.2109 727.575,595.0391 Q728.4656,595.8516 730.0594,595.8516 Q730.9969,595.8516 731.6531,595.6016 Q732.0438,595.4453 732.4656,595.0078 Q732.7313,594.7422 732.8719,594.6641 Q733.0281,594.5859 733.2313,594.5859 Q733.5594,594.5859 733.8094,594.8516 Q734.075,595.1016 734.075,595.4453 Q734.075,595.7891 733.7313,596.1953 Q733.2313,596.7734 732.4344,597.1016 Q731.3563,597.5547 730.0594,597.5547 Q728.5438,597.5547 727.3406,596.9297 Q726.3563,596.4297 725.6688,595.3672 Q724.9813,594.2891 724.9813,593.0078 L724.9813,591.8516 Q724.9813,590.5234 725.5906,589.3828 Q726.2156,588.2266 727.3094,587.6172 Q728.4031,586.9922 729.6375,586.9922 Q730.3719,586.9922 731.0125,587.1641 Q731.6688,587.3203 732.2156,587.6797 Z " fill="#000000"/><text fill="#000000" font-family="sans-serif" font-size="14" lengthAdjust="spacing" textLength="109" x="747.55" y="597.5332">FindCornerTrans</text><line style="stroke:#181818;stroke-width:0.5;" x1="715" x2="863" y1="609.6094" y2="609.6094"/></g><!--class DirectionalSweepTrans--><g id="elem_DirectionalSweepTrans"><rect codeLine="74" fill="#F1F1F1" height="43.6094" id="DirectionalSweepTrans" rx="2.5" ry="2.5" style="stroke:#181818;stroke-width:0.5;" width="186" x="458" y="574"/><ellipse cx="473" cy="591.8047" fill="#ADD1B2" rx="11" ry="11" style="stroke:#181818;stroke-width:1.0;"/><path d="M475.7656,587.6797 Q475.9219,587.4609 476.1094,587.3516 Q476.2969,587.2422 476.5156,587.2422 Q476.8906,587.2422 477.125,587.5078 Q477.3594,587.7578 477.3594,588.3672 L477.3594,589.8203 Q477.3594,590.4297 477.125,590.6953 Q476.8906,590.9609 476.5156,590.9609 Q476.1719,590.9609 475.9688,590.7578 Q475.7656,590.5703 475.6563,590.0547 Q475.6094,589.6953 475.4219,589.5078 Q475.0938,589.1328 474.4844,588.9141 Q473.875,588.6953 473.25,588.6953 Q472.4844,588.6953 471.8438,589.0234 Q471.2188,589.3516 470.7188,590.1016 Q470.2344,590.8516 470.2344,591.8828 L470.2344,592.9766 Q470.2344,594.2109 471.125,595.0391 Q472.0156,595.8516 473.6094,595.8516 Q474.5469,595.8516 475.2031,595.6016 Q475.5938,595.4453 476.0156,595.0078 Q476.2813,594.7422 476.4219,594.6641 Q476.5781,594.5859 476.7813,594.5859 Q477.1094,594.5859 477.3594,594.8516 Q477.625,595.1016 477.625,595.4453 Q477.625,595.7891 477.2813,596.1953 Q476.7813,596.7734 475.9844,597.1016 Q474.9063,597.5547 473.6094,597.5547 Q472.0938,597.5547 470.8906,596.9297 Q469.9063,596.4297 469.2188,595.3672 Q468.5313,594.2891 468.5313,593.0078 L468.5313,591.8516 Q468.5313,590.5234 469.1406,589.3828 Q469.7656,588.2266 470.8594,587.6172 Q471.9531,586.9922 473.1875,586.9922 Q473.9219,586.9922 474.5625,587.1641 Q475.2188,587.3203 475.7656,587.6797 Z " fill="#000000"/><text fill="#000000" font-family="sans-serif" font-size="14" lengthAdjust="spacing" textLength="146" x="491" y="597.5332">DirectionalSweepTrans</text><line style="stroke:#181818;stroke-width:0.5;" x1="459" x2="643" y1="609.6094" y2="609.6094"/></g><!--class FindEdgeTrans--><g id="elem_FindEdgeTrans"><rect codeLine="77" fill="#F1F1F1" height="43.6094" id="FindEdgeTrans" rx="2.5" ry="2.5" style="stroke:#181818;stroke-width:0.5;" width="150" x="238" y="574"/><ellipse cx="258.4" cy="591.8047" fill="#ADD1B2" rx="11" ry="11" style="stroke:#181818;stroke-width:1.0;"/><path d="M261.1656,587.6797 Q261.3219,587.4609 261.5094,587.3516 Q261.6969,587.2422 261.9156,587.2422 Q262.2906,587.2422 262.525,587.5078 Q262.7594,587.7578 262.7594,588.3672 L262.7594,589.8203 Q262.7594,590.4297 262.525,590.6953 Q262.2906,590.9609 261.9156,590.9609 Q261.5719,590.9609 261.3688,590.7578 Q261.1656,590.5703 261.0563,590.0547 Q261.0094,589.6953 260.8219,589.5078 Q260.4938,589.1328 259.8844,588.9141 Q259.275,588.6953 258.65,588.6953 Q257.8844,588.6953 257.2438,589.0234 Q256.6188,589.3516 256.1188,590.1016 Q255.6344,590.8516 255.6344,591.8828 L255.6344,592.9766 Q255.6344,594.2109 256.525,595.0391 Q257.4156,595.8516 259.0094,595.8516 Q259.9469,595.8516 260.6031,595.6016 Q260.9938,595.4453 261.4156,595.0078 Q261.6813,594.7422 261.8219,594.6641 Q261.9781,594.5859 262.1813,594.5859 Q262.5094,594.5859 262.7594,594.8516 Q263.025,595.1016 263.025,595.4453 Q263.025,595.7891 262.6813,596.1953 Q262.1813,596.7734 261.3844,597.1016 Q260.3063,597.5547 259.0094,597.5547 Q257.4938,597.5547 256.2906,596.9297 Q255.3062,596.4297 254.6187,595.3672 Q253.9312,594.2891 253.9312,593.0078 L253.9312,591.8516 Q253.9312,590.5234 254.5406,589.3828 Q255.1656,588.2266 256.2594,587.6172 Q257.3531,586.9922 258.5875,586.9922 Q259.3219,586.9922 259.9625,587.1641 Q260.6188,587.3203 261.1656,587.6797 Z " fill="#000000"/><text fill="#000000" font-family="sans-serif" font-size="14" lengthAdjust="spacing" textLength="98" x="277.6" y="597.5332">FindEdgeTrans</text><line style="stroke:#181818;stroke-width:0.5;" x1="239" x2="387" y1="609.6094" y2="609.6094"/></g><!--class Search--><g id="elem_Search"><rect codeLine="90" fill="#F1F1F1" height="128.4375" id="Search" rx="2.5" ry="2.5" style="stroke:#181818;stroke-width:0.5;" width="580" x="3324" y="532"/><ellipse cx="3583.25" cy="549.8047" fill="#B4A7E5" rx="11" ry="11" style="stroke:#181818;stroke-width:1.0;"/><path d="M3584.2031,546.4453 L3584.2031,553.1016 L3585.9219,553.1016 Q3586.5313,553.1016 3586.7969,553.3359 Q3587.0625,553.5703 3587.0625,553.9609 Q3587.0625,554.3359 3586.7969,554.5703 Q3586.5313,554.8047 3585.9219,554.8047 L3580.7813,554.8047 Q3580.1719,554.8047 3579.9063,554.5703 Q3579.6406,554.3359 3579.6406,553.9453 Q3579.6406,553.5703 3579.9063,553.3359 Q3580.1719,553.1016 3580.7813,553.1016 L3582.5,553.1016 L3582.5,546.4453 L3580.7813,546.4453 Q3580.1719,546.4453 3579.9063,546.2109 Q3579.6406,545.9766 3579.6406,545.5859 Q3579.6406,545.2109 3579.9063,544.9766 Q3580.1719,544.7422 3580.7813,544.7422 L3585.9219,544.7422 Q3586.5313,544.7422 3586.7969,544.9766 Q3587.0625,545.2109 3587.0625,545.5859 Q3587.0625,545.9766 3586.7969,546.2109 Q3586.5313,546.4453 3585.9219,546.4453 L3584.2031,546.4453 Z " fill="#000000"/><text fill="#000000" font-family="sans-serif" font-size="14" font-style="italic" lengthAdjust="spacing" textLength="45" x="3607.75" y="555.5332">Search</text><line style="stroke:#181818;stroke-width:0.5;" x1="3325" x2="3903" y1="567.6094" y2="567.6094"/><line style="stroke:#181818;stroke-width:0.5;" x1="3325" x2="3903" y1="575.6094" y2="575.6094"/><ellipse cx="3335" cy="593.9141" fill="#84BE84" rx="3" ry="3" style="stroke:#038048;stroke-width:1.0;"/><text fill="#000000" font-family="sans-serif" font-size="14" lengthAdjust="spacing" text-decoration="underline" textLength="546" x="3348" y="598.1426">atForwardEdge(IslandEdgeManager, DirectionManager, CoordinateManager): boolean</text><ellipse cx="3335" cy="619.5234" fill="#84BE84" rx="3" ry="3" style="stroke:#038048;stroke-width:1.0;"/><text fill="#000000" font-family="sans-serif" font-size="14" lengthAdjust="spacing" text-decoration="underline" textLength="536" x="3348" y="623.752">shiftFromSideEdge(IslandEdgeManager, Direction, CoordinateManager, int): boolean</text><ellipse cx="3335" cy="645.1328" fill="#84BE84" rx="3" ry="3" style="stroke:#038048;stroke-width:1.0;"/><text fill="#000000" font-family="sans-serif" font-size="14" lengthAdjust="spacing" text-decoration="underline" textLength="230" x="3348" y="649.3613">overWater(PreviousResult): boolean</text></g><!--class FlyDistanceTrans--><g id="elem_FlyDistanceTrans"><rect codeLine="96" fill="#F1F1F1" height="128.4375" id="FlyDistanceTrans" rx="2.5" ry="2.5" style="stroke:#181818;stroke-width:0.5;" width="339" x="2210.5" y="532"/><ellipse cx="2316.25" cy="549.8047" fill="#ADD1B2" rx="11" ry="11" style="stroke:#181818;stroke-width:1.0;"/><path d="M2319.0156,545.6797 Q2319.1719,545.4609 2319.3594,545.3516 Q2319.5469,545.2422 2319.7656,545.2422 Q2320.1406,545.2422 2320.375,545.5078 Q2320.6094,545.7578 2320.6094,546.3672 L2320.6094,547.8203 Q2320.6094,548.4297 2320.375,548.6953 Q2320.1406,548.9609 2319.7656,548.9609 Q2319.4219,548.9609 2319.2188,548.7578 Q2319.0156,548.5703 2318.9063,548.0547 Q2318.8594,547.6953 2318.6719,547.5078 Q2318.3438,547.1328 2317.7344,546.9141 Q2317.125,546.6953 2316.5,546.6953 Q2315.7344,546.6953 2315.0938,547.0234 Q2314.4688,547.3516 2313.9688,548.1016 Q2313.4844,548.8516 2313.4844,549.8828 L2313.4844,550.9766 Q2313.4844,552.2109 2314.375,553.0391 Q2315.2656,553.8516 2316.8594,553.8516 Q2317.7969,553.8516 2318.4531,553.6016 Q2318.8438,553.4453 2319.2656,553.0078 Q2319.5313,552.7422 2319.6719,552.6641 Q2319.8281,552.5859 2320.0313,552.5859 Q2320.3594,552.5859 2320.6094,552.8516 Q2320.875,553.1016 2320.875,553.4453 Q2320.875,553.7891 2320.5313,554.1953 Q2320.0313,554.7734 2319.2344,555.1016 Q2318.1563,555.5547 2316.8594,555.5547 Q2315.3438,555.5547 2314.1406,554.9297 Q2313.1563,554.4297 2312.4688,553.3672 Q2311.7813,552.2891 2311.7813,551.0078 L2311.7813,549.8516 Q2311.7813,548.5234 2312.3906,547.3828 Q2313.0156,546.2266 2314.1094,545.6172 Q2315.2031,544.9922 2316.4375,544.9922 Q2317.1719,544.9922 2317.8125,545.1641 Q2318.4688,545.3203 2319.0156,545.6797 Z " fill="#000000"/><text fill="#000000" font-family="sans-serif" font-size="14" lengthAdjust="spacing" textLength="111" x="2340.75" y="555.5332">FlyDistanceTrans</text><line style="stroke:#181818;stroke-width:0.5;" x1="2211.5" x2="2548.5" y1="567.6094" y2="567.6094"/><rect fill="none" height="6" style="stroke:#C82930;stroke-width:1.0;" width="6" x="2218.5" y="582.9141"/><text fill="#000000" font-family="sans-serif" font-size="14" lengthAdjust="spacing" textLength="72" x="2234.5" y="590.1426">int distance</text><rect fill="none" height="6" style="stroke:#C82930;stroke-width:1.0;" width="6" x="2218.5" y="608.5234"/><text fill="#000000" font-family="sans-serif" font-size="14" lengthAdjust="spacing" textLength="184" x="2234.5" y="615.752">Transition previousTransition</text><line style="stroke:#181818;stroke-width:0.5;" x1="2211.5" x2="2548.5" y1="626.8281" y2="626.8281"/><ellipse cx="2221.5" cy="645.1328" fill="#84BE84" rx="3" ry="3" style="stroke:#038048;stroke-width:1.0;"/><text fill="#000000" font-family="sans-serif" font-size="14" lengthAdjust="spacing" textLength="305" x="2234.5" y="649.3613">FlyDistanceTrans(Transition previousTransition)</text></g><!--class InPositionTurnTrans--><g id="elem_InPositionTurnTrans"><rect codeLine="102" fill="#F1F1F1" height="154.0469" id="InPositionTurnTrans" rx="2.5" ry="2.5" style="stroke:#181818;stroke-width:0.5;" width="634" x="2620" y="519"/><ellipse cx="2864.75" cy="536.8047" fill="#ADD1B2" rx="11" ry="11" style="stroke:#181818;stroke-width:1.0;"/><path d="M2867.5156,532.6797 Q2867.6719,532.4609 2867.8594,532.3516 Q2868.0469,532.2422 2868.2656,532.2422 Q2868.6406,532.2422 2868.875,532.5078 Q2869.1094,532.7578 2869.1094,533.3672 L2869.1094,534.8203 Q2869.1094,535.4297 2868.875,535.6953 Q2868.6406,535.9609 2868.2656,535.9609 Q2867.9219,535.9609 2867.7188,535.7578 Q2867.5156,535.5703 2867.4063,535.0547 Q2867.3594,534.6953 2867.1719,534.5078 Q2866.8438,534.1328 2866.2344,533.9141 Q2865.625,533.6953 2865,533.6953 Q2864.2344,533.6953 2863.5938,534.0234 Q2862.9688,534.3516 2862.4688,535.1016 Q2861.9844,535.8516 2861.9844,536.8828 L2861.9844,537.9766 Q2861.9844,539.2109 2862.875,540.0391 Q2863.7656,540.8516 2865.3594,540.8516 Q2866.2969,540.8516 2866.9531,540.6016 Q2867.3438,540.4453 2867.7656,540.0078 Q2868.0313,539.7422 2868.1719,539.6641 Q2868.3281,539.5859 2868.5313,539.5859 Q2868.8594,539.5859 2869.1094,539.8516 Q2869.375,540.1016 2869.375,540.4453 Q2869.375,540.7891 2869.0313,541.1953 Q2868.5313,541.7734 2867.7344,542.1016 Q2866.6563,542.5547 2865.3594,542.5547 Q2863.8438,542.5547 2862.6406,541.9297 Q2861.6563,541.4297 2860.9688,540.3672 Q2860.2813,539.2891 2860.2813,538.0078 L2860.2813,536.8516 Q2860.2813,535.5234 2860.8906,534.3828 Q2861.5156,533.2266 2862.6094,532.6172 Q2863.7031,531.9922 2864.9375,531.9922 Q2865.6719,531.9922 2866.3125,532.1641 Q2866.9688,532.3203 2867.5156,532.6797 Z " fill="#000000"/><text fill="#000000" font-family="sans-serif" font-size="14" lengthAdjust="spacing" textLength="128" x="2889.25" y="542.5332">InPositionTurnTrans</text><line style="stroke:#181818;stroke-width:0.5;" x1="2621" x2="3253" y1="554.6094" y2="554.6094"/><rect fill="none" height="6" style="stroke:#C82930;stroke-width:1.0;" width="6" x="2628" y="569.9141"/><text fill="#000000" font-family="sans-serif" font-size="14" lengthAdjust="spacing" textLength="152" x="2644" y="577.1426">Coordinate initialCoords</text><rect fill="none" height="6" style="stroke:#C82930;stroke-width:1.0;" width="6" x="2628" y="595.5234"/><text fill="#000000" font-family="sans-serif" font-size="14" lengthAdjust="spacing" textLength="148" x="2644" y="602.752">Direction initialDirection</text><rect fill="none" height="6" style="stroke:#C82930;stroke-width:1.0;" width="6" x="2628" y="621.1328"/><text fill="#000000" font-family="sans-serif" font-size="14" lengthAdjust="spacing" textLength="122" x="2644" y="628.3613">String turnDirection</text><line style="stroke:#181818;stroke-width:0.5;" x1="2621" x2="3253" y1="639.4375" y2="639.4375"/><ellipse cx="2631" cy="657.7422" fill="#84BE84" rx="3" ry="3" style="stroke:#038048;stroke-width:1.0;"/><text fill="#000000" font-family="sans-serif" font-size="14" lengthAdjust="spacing" textLength="600" x="2644" y="661.9707">InPositionTurnTrans(String turnDirection, Direction initialDirection, Coordinate initialCoordinate)</text></g><!--class SearchInitialTrans--><g id="elem_SearchInitialTrans"><rect codeLine="109" fill="#F1F1F1" height="43.6094" id="SearchInitialTrans" rx="2.5" ry="2.5" style="stroke:#181818;stroke-width:0.5;" width="154" x="3093" y="738.5"/><ellipse cx="3108" cy="756.3047" fill="#ADD1B2" rx="11" ry="11" style="stroke:#181818;stroke-width:1.0;"/><path d="M3110.7656,752.1797 Q3110.9219,751.9609 3111.1094,751.8516 Q3111.2969,751.7422 3111.5156,751.7422 Q3111.8906,751.7422 3112.125,752.0078 Q3112.3594,752.2578 3112.3594,752.8672 L3112.3594,754.3203 Q3112.3594,754.9297 3112.125,755.1953 Q3111.8906,755.4609 3111.5156,755.4609 Q3111.1719,755.4609 3110.9688,755.2578 Q3110.7656,755.0703 3110.6563,754.5547 Q3110.6094,754.1953 3110.4219,754.0078 Q3110.0938,753.6328 3109.4844,753.4141 Q3108.875,753.1953 3108.25,753.1953 Q3107.4844,753.1953 3106.8438,753.5234 Q3106.2188,753.8516 3105.7188,754.6016 Q3105.2344,755.3516 3105.2344,756.3828 L3105.2344,757.4766 Q3105.2344,758.7109 3106.125,759.5391 Q3107.0156,760.3516 3108.6094,760.3516 Q3109.5469,760.3516 3110.2031,760.1016 Q3110.5938,759.9453 3111.0156,759.5078 Q3111.2813,759.2422 3111.4219,759.1641 Q3111.5781,759.0859 3111.7813,759.0859 Q3112.1094,759.0859 3112.3594,759.3516 Q3112.625,759.6016 3112.625,759.9453 Q3112.625,760.2891 3112.2813,760.6953 Q3111.7813,761.2734 3110.9844,761.6016 Q3109.9063,762.0547 3108.6094,762.0547 Q3107.0938,762.0547 3105.8906,761.4297 Q3104.9063,760.9297 3104.2188,759.8672 Q3103.5313,758.7891 3103.5313,757.5078 L3103.5313,756.3516 Q3103.5313,755.0234 3104.1406,753.8828 Q3104.7656,752.7266 3105.8594,752.1172 Q3106.9531,751.4922 3108.1875,751.4922 Q3108.9219,751.4922 3109.5625,751.6641 Q3110.2188,751.8203 3110.7656,752.1797 Z " fill="#000000"/><text fill="#000000" font-family="sans-serif" font-size="14" lengthAdjust="spacing" textLength="114" x="3126" y="762.0332">SearchInitialTrans</text><line style="stroke:#181818;stroke-width:0.5;" x1="3094" x2="3246" y1="774.1094" y2="774.1094"/></g><!--class SearchFinalTrans--><g id="elem_SearchFinalTrans"><rect codeLine="112" fill="#F1F1F1" height="43.6094" id="SearchFinalTrans" rx="2.5" ry="2.5" style="stroke:#181818;stroke-width:0.5;" width="153" x="3427.5" y="738.5"/><ellipse cx="3442.5" cy="756.3047" fill="#ADD1B2" rx="11" ry="11" style="stroke:#181818;stroke-width:1.0;"/><path d="M3445.2656,752.1797 Q3445.4219,751.9609 3445.6094,751.8516 Q3445.7969,751.7422 3446.0156,751.7422 Q3446.3906,751.7422 3446.625,752.0078 Q3446.8594,752.2578 3446.8594,752.8672 L3446.8594,754.3203 Q3446.8594,754.9297 3446.625,755.1953 Q3446.3906,755.4609 3446.0156,755.4609 Q3445.6719,755.4609 3445.4688,755.2578 Q3445.2656,755.0703 3445.1563,754.5547 Q3445.1094,754.1953 3444.9219,754.0078 Q3444.5938,753.6328 3443.9844,753.4141 Q3443.375,753.1953 3442.75,753.1953 Q3441.9844,753.1953 3441.3438,753.5234 Q3440.7188,753.8516 3440.2188,754.6016 Q3439.7344,755.3516 3439.7344,756.3828 L3439.7344,757.4766 Q3439.7344,758.7109 3440.625,759.5391 Q3441.5156,760.3516 3443.1094,760.3516 Q3444.0469,760.3516 3444.7031,760.1016 Q3445.0938,759.9453 3445.5156,759.5078 Q3445.7813,759.2422 3445.9219,759.1641 Q3446.0781,759.0859 3446.2813,759.0859 Q3446.6094,759.0859 3446.8594,759.3516 Q3447.125,759.6016 3447.125,759.9453 Q3447.125,760.2891 3446.7813,760.6953 Q3446.2813,761.2734 3445.4844,761.6016 Q3444.4063,762.0547 3443.1094,762.0547 Q3441.5938,762.0547 3440.3906,761.4297 Q3439.4063,760.9297 3438.7188,759.8672 Q3438.0313,758.7891 3438.0313,757.5078 L3438.0313,756.3516 Q3438.0313,755.0234 3438.6406,753.8828 Q3439.2656,752.7266 3440.3594,752.1172 Q3441.4531,751.4922 3442.6875,751.4922 Q3443.4219,751.4922 3444.0625,751.6641 Q3444.7188,751.8203 3445.2656,752.1797 Z " fill="#000000"/><text fill="#000000" font-family="sans-serif" font-size="14" lengthAdjust="spacing" textLength="113" x="3460.5" y="762.0332">SearchFinalTrans</text><line style="stroke:#181818;stroke-width:0.5;" x1="3428.5" x2="3579.5" y1="774.1094" y2="774.1094"/></g><!--class EdgeSearchTrans--><g id="elem_EdgeSearchTrans"><rect codeLine="115" fill="#F1F1F1" height="43.6094" id="EdgeSearchTrans" rx="2.5" ry="2.5" style="stroke:#181818;stroke-width:0.5;" width="155" x="2648.5" y="738.5"/><ellipse cx="2663.5" cy="756.3047" fill="#ADD1B2" rx="11" ry="11" style="stroke:#181818;stroke-width:1.0;"/><path d="M2666.2656,752.1797 Q2666.4219,751.9609 2666.6094,751.8516 Q2666.7969,751.7422 2667.0156,751.7422 Q2667.3906,751.7422 2667.625,752.0078 Q2667.8594,752.2578 2667.8594,752.8672 L2667.8594,754.3203 Q2667.8594,754.9297 2667.625,755.1953 Q2667.3906,755.4609 2667.0156,755.4609 Q2666.6719,755.4609 2666.4688,755.2578 Q2666.2656,755.0703 2666.1563,754.5547 Q2666.1094,754.1953 2665.9219,754.0078 Q2665.5938,753.6328 2664.9844,753.4141 Q2664.375,753.1953 2663.75,753.1953 Q2662.9844,753.1953 2662.3438,753.5234 Q2661.7188,753.8516 2661.2188,754.6016 Q2660.7344,755.3516 2660.7344,756.3828 L2660.7344,757.4766 Q2660.7344,758.7109 2661.625,759.5391 Q2662.5156,760.3516 2664.1094,760.3516 Q2665.0469,760.3516 2665.7031,760.1016 Q2666.0938,759.9453 2666.5156,759.5078 Q2666.7813,759.2422 2666.9219,759.1641 Q2667.0781,759.0859 2667.2813,759.0859 Q2667.6094,759.0859 2667.8594,759.3516 Q2668.125,759.6016 2668.125,759.9453 Q2668.125,760.2891 2667.7813,760.6953 Q2667.2813,761.2734 2666.4844,761.6016 Q2665.4063,762.0547 2664.1094,762.0547 Q2662.5938,762.0547 2661.3906,761.4297 Q2660.4063,760.9297 2659.7188,759.8672 Q2659.0313,758.7891 2659.0313,757.5078 L2659.0313,756.3516 Q2659.0313,755.0234 2659.6406,753.8828 Q2660.2656,752.7266 2661.3594,752.1172 Q2662.4531,751.4922 2663.6875,751.4922 Q2664.4219,751.4922 2665.0625,751.6641 Q2665.7188,751.8203 2666.2656,752.1797 Z " fill="#000000"/><text fill="#000000" font-family="sans-serif" font-size="14" lengthAdjust="spacing" textLength="115" x="2681.5" y="762.0332">EdgeSearchTrans</text><line style="stroke:#181818;stroke-width:0.5;" x1="2649.5" x2="2802.5" y1="774.1094" y2="774.1094"/></g><!--class Scan--><g id="elem_Scan"><rect codeLine="129" fill="#F1F1F1" height="43.6094" id="Scan" rx="2.5" ry="2.5" style="stroke:#181818;stroke-width:0.5;" width="150" x="4194" y="574"/><ellipse cx="4244.75" cy="591.8047" fill="#ADD1B2" rx="11" ry="11" style="stroke:#181818;stroke-width:1.0;"/><path d="M4247.5156,587.6797 Q4247.6719,587.4609 4247.8594,587.3516 Q4248.0469,587.2422 4248.2656,587.2422 Q4248.6406,587.2422 4248.875,587.5078 Q4249.1094,587.7578 4249.1094,588.3672 L4249.1094,589.8203 Q4249.1094,590.4297 4248.875,590.6953 Q4248.6406,590.9609 4248.2656,590.9609 Q4247.9219,590.9609 4247.7188,590.7578 Q4247.5156,590.5703 4247.4063,590.0547 Q4247.3594,589.6953 4247.1719,589.5078 Q4246.8438,589.1328 4246.2344,588.9141 Q4245.625,588.6953 4245,588.6953 Q4244.2344,588.6953 4243.5938,589.0234 Q4242.9688,589.3516 4242.4688,590.1016 Q4241.9844,590.8516 4241.9844,591.8828 L4241.9844,592.9766 Q4241.9844,594.2109 4242.875,595.0391 Q4243.7656,595.8516 4245.3594,595.8516 Q4246.2969,595.8516 4246.9531,595.6016 Q4247.3438,595.4453 4247.7656,595.0078 Q4248.0313,594.7422 4248.1719,594.6641 Q4248.3281,594.5859 4248.5313,594.5859 Q4248.8594,594.5859 4249.1094,594.8516 Q4249.375,595.1016 4249.375,595.4453 Q4249.375,595.7891 4249.0313,596.1953 Q4248.5313,596.7734 4247.7344,597.1016 Q4246.6563,597.5547 4245.3594,597.5547 Q4243.8438,597.5547 4242.6406,596.9297 Q4241.6563,596.4297 4240.9688,595.3672 Q4240.2813,594.2891 4240.2813,593.0078 L4240.2813,591.8516 Q4240.2813,590.5234 4240.8906,589.3828 Q4241.5156,588.2266 4242.6094,587.6172 Q4243.7031,586.9922 4244.9375,586.9922 Q4245.6719,586.9922 4246.3125,587.1641 Q4246.9688,587.3203 4247.5156,587.6797 Z " fill="#000000"/><text fill="#000000" font-family="sans-serif" font-size="14" lengthAdjust="spacing" textLength="32" x="4269.25" y="597.5332">Scan</text><line style="stroke:#181818;stroke-width:0.5;" x1="4195" x2="4343" y1="609.6094" y2="609.6094"/></g><!--class FlyDistance--><g id="elem_FlyDistance"><rect codeLine="132" fill="#F1F1F1" height="43.6094" id="FlyDistance" rx="2.5" ry="2.5" style="stroke:#181818;stroke-width:0.5;" width="150" x="3974" y="574"/><ellipse cx="4005.2" cy="591.8047" fill="#ADD1B2" rx="11" ry="11" style="stroke:#181818;stroke-width:1.0;"/><path d="M4007.9656,587.6797 Q4008.1219,587.4609 4008.3094,587.3516 Q4008.4969,587.2422 4008.7156,587.2422 Q4009.0906,587.2422 4009.325,587.5078 Q4009.5594,587.7578 4009.5594,588.3672 L4009.5594,589.8203 Q4009.5594,590.4297 4009.325,590.6953 Q4009.0906,590.9609 4008.7156,590.9609 Q4008.3719,590.9609 4008.1688,590.7578 Q4007.9656,590.5703 4007.8563,590.0547 Q4007.8094,589.6953 4007.6219,589.5078 Q4007.2938,589.1328 4006.6844,588.9141 Q4006.075,588.6953 4005.45,588.6953 Q4004.6844,588.6953 4004.0438,589.0234 Q4003.4188,589.3516 4002.9188,590.1016 Q4002.4344,590.8516 4002.4344,591.8828 L4002.4344,592.9766 Q4002.4344,594.2109 4003.325,595.0391 Q4004.2156,595.8516 4005.8094,595.8516 Q4006.7469,595.8516 4007.4031,595.6016 Q4007.7938,595.4453 4008.2156,595.0078 Q4008.4813,594.7422 4008.6219,594.6641 Q4008.7781,594.5859 4008.9813,594.5859 Q4009.3094,594.5859 4009.5594,594.8516 Q4009.825,595.1016 4009.825,595.4453 Q4009.825,595.7891 4009.4813,596.1953 Q4008.9813,596.7734 4008.1844,597.1016 Q4007.1063,597.5547 4005.8094,597.5547 Q4004.2938,597.5547 4003.0906,596.9297 Q4002.1063,596.4297 4001.4188,595.3672 Q4000.7313,594.2891 4000.7313,593.0078 L4000.7313,591.8516 Q4000.7313,590.5234 4001.3406,589.3828 Q4001.9656,588.2266 4003.0594,587.6172 Q4004.1531,586.9922 4005.3875,586.9922 Q4006.1219,586.9922 4006.7625,587.1641 Q4007.4188,587.3203 4007.9656,587.6797 Z " fill="#000000"/><text fill="#000000" font-family="sans-serif" font-size="14" lengthAdjust="spacing" textLength="74" x="4026.8" y="597.5332">FlyDistance</text><line style="stroke:#181818;stroke-width:0.5;" x1="3975" x2="4123" y1="609.6094" y2="609.6094"/></g><!--class UTurn--><g id="elem_UTurn"><rect codeLine="141" fill="#F1F1F1" height="205.2656" id="UTurn" rx="2.5" ry="2.5" style="stroke:#181818;stroke-width:0.5;" width="510" x="5599" y="493.5"/><ellipse cx="5826.25" cy="511.3047" fill="#ADD1B2" rx="11" ry="11" style="stroke:#181818;stroke-width:1.0;"/><path d="M5829.0156,507.1797 Q5829.1719,506.9609 5829.3594,506.8516 Q5829.5469,506.7422 5829.7656,506.7422 Q5830.1406,506.7422 5830.375,507.0078 Q5830.6094,507.2578 5830.6094,507.8672 L5830.6094,509.3203 Q5830.6094,509.9297 5830.375,510.1953 Q5830.1406,510.4609 5829.7656,510.4609 Q5829.4219,510.4609 5829.2188,510.2578 Q5829.0156,510.0703 5828.9063,509.5547 Q5828.8594,509.1953 5828.6719,509.0078 Q5828.3438,508.6328 5827.7344,508.4141 Q5827.125,508.1953 5826.5,508.1953 Q5825.7344,508.1953 5825.0938,508.5234 Q5824.4688,508.8516 5823.9688,509.6016 Q5823.4844,510.3516 5823.4844,511.3828 L5823.4844,512.4766 Q5823.4844,513.7109 5824.375,514.5391 Q5825.2656,515.3516 5826.8594,515.3516 Q5827.7969,515.3516 5828.4531,515.1016 Q5828.8438,514.9453 5829.2656,514.5078 Q5829.5313,514.2422 5829.6719,514.1641 Q5829.8281,514.0859 5830.0313,514.0859 Q5830.3594,514.0859 5830.6094,514.3516 Q5830.875,514.6016 5830.875,514.9453 Q5830.875,515.2891 5830.5313,515.6953 Q5830.0313,516.2734 5829.2344,516.6016 Q5828.1563,517.0547 5826.8594,517.0547 Q5825.3438,517.0547 5824.1406,516.4297 Q5823.1563,515.9297 5822.4688,514.8672 Q5821.7813,513.7891 5821.7813,512.5078 L5821.7813,511.3516 Q5821.7813,510.0234 5822.3906,508.8828 Q5823.0156,507.7266 5824.1094,507.1172 Q5825.2031,506.4922 5826.4375,506.4922 Q5827.1719,506.4922 5827.8125,506.6641 Q5828.4688,506.8203 5829.0156,507.1797 Z " fill="#000000"/><text fill="#000000" font-family="sans-serif" font-size="14" lengthAdjust="spacing" textLength="39" x="5850.75" y="517.0332">UTurn</text><line style="stroke:#181818;stroke-width:0.5;" x1="5600" x2="6108" y1="529.1094" y2="529.1094"/><rect fill="none" height="6" style="stroke:#C82930;stroke-width:1.0;" width="6" x="5607" y="544.4141"/><text fill="#000000" font-family="sans-serif" font-size="14" lengthAdjust="spacing" textLength="96" x="5623" y="551.6426">boolean turned</text><rect fill="none" height="6" style="stroke:#C82930;stroke-width:1.0;" width="6" x="5607" y="570.0234"/><text fill="#000000" font-family="sans-serif" font-size="14" lengthAdjust="spacing" textLength="122" x="5623" y="577.252">String turnDirection</text><rect fill="none" height="6" style="stroke:#C82930;stroke-width:1.0;" width="6" x="5607" y="595.6328"/><text fill="#000000" font-family="sans-serif" font-size="14" lengthAdjust="spacing" textLength="116" x="5623" y="602.8613">Stage returnStage</text><line style="stroke:#181818;stroke-width:0.5;" x1="5600" x2="6108" y1="613.9375" y2="613.9375"/><ellipse cx="5610" cy="632.2422" fill="#84BE84" rx="3" ry="3" style="stroke:#038048;stroke-width:1.0;"/><text fill="#000000" font-family="sans-serif" font-size="14" lengthAdjust="spacing" textLength="295" x="5623" y="636.4707">UTurn(String turnDirection, Stage returnStage)</text><rect fill="#F24D5C" height="6" style="stroke:#C82930;stroke-width:1.0;" width="6" x="5607" y="654.8516"/><text fill="#000000" font-family="sans-serif" font-size="14" lengthAdjust="spacing" textLength="476" x="5623" y="662.0801">uTurnRight(DirectionManager, CommandCenter, AlgorithmManager): String</text><rect fill="#F24D5C" height="6" style="stroke:#C82930;stroke-width:1.0;" width="6" x="5607" y="680.4609"/><text fill="#000000" font-family="sans-serif" font-size="14" lengthAdjust="spacing" textLength="467" x="5623" y="687.6895">uTurnLeft(DirectionManager, CommandCenter, AlgorithmManager): String</text></g><!--class InPositionTurn--><g id="elem_InPositionTurn"><rect codeLine="150" fill="#F1F1F1" height="205.2656" id="InPositionTurn" rx="2.5" ry="2.5" style="stroke:#181818;stroke-width:0.5;" width="533" x="4995.5" y="493.5"/><ellipse cx="5208.25" cy="511.3047" fill="#ADD1B2" rx="11" ry="11" style="stroke:#181818;stroke-width:1.0;"/><path d="M5211.0156,507.1797 Q5211.1719,506.9609 5211.3594,506.8516 Q5211.5469,506.7422 5211.7656,506.7422 Q5212.1406,506.7422 5212.375,507.0078 Q5212.6094,507.2578 5212.6094,507.8672 L5212.6094,509.3203 Q5212.6094,509.9297 5212.375,510.1953 Q5212.1406,510.4609 5211.7656,510.4609 Q5211.4219,510.4609 5211.2188,510.2578 Q5211.0156,510.0703 5210.9063,509.5547 Q5210.8594,509.1953 5210.6719,509.0078 Q5210.3438,508.6328 5209.7344,508.4141 Q5209.125,508.1953 5208.5,508.1953 Q5207.7344,508.1953 5207.0938,508.5234 Q5206.4688,508.8516 5205.9688,509.6016 Q5205.4844,510.3516 5205.4844,511.3828 L5205.4844,512.4766 Q5205.4844,513.7109 5206.375,514.5391 Q5207.2656,515.3516 5208.8594,515.3516 Q5209.7969,515.3516 5210.4531,515.1016 Q5210.8438,514.9453 5211.2656,514.5078 Q5211.5313,514.2422 5211.6719,514.1641 Q5211.8281,514.0859 5212.0313,514.0859 Q5212.3594,514.0859 5212.6094,514.3516 Q5212.875,514.6016 5212.875,514.9453 Q5212.875,515.2891 5212.5313,515.6953 Q5212.0313,516.2734 5211.2344,516.6016 Q5210.1563,517.0547 5208.8594,517.0547 Q5207.3438,517.0547 5206.1406,516.4297 Q5205.1563,515.9297 5204.4688,514.8672 Q5203.7813,513.7891 5203.7813,512.5078 L5203.7813,511.3516 Q5203.7813,510.0234 5204.3906,508.8828 Q5205.0156,507.7266 5206.1094,507.1172 Q5207.2031,506.4922 5208.4375,506.4922 Q5209.1719,506.4922 5209.8125,506.6641 Q5210.4688,506.8203 5211.0156,507.1797 Z " fill="#000000"/><text fill="#000000" font-family="sans-serif" font-size="14" lengthAdjust="spacing" textLength="91" x="5232.75" y="517.0332">InPositionTurn</text><line style="stroke:#181818;stroke-width:0.5;" x1="4996.5" x2="5527.5" y1="529.1094" y2="529.1094"/><rect fill="none" height="6" style="stroke:#C82930;stroke-width:1.0;" width="6" x="5003.5" y="544.4141"/><text fill="#000000" font-family="sans-serif" font-size="14" lengthAdjust="spacing" textLength="82" x="5019.5" y="551.6426">int turnCount</text><rect fill="none" height="6" style="stroke:#C82930;stroke-width:1.0;" width="6" x="5003.5" y="570.0234"/><text fill="#000000" font-family="sans-serif" font-size="14" lengthAdjust="spacing" textLength="122" x="5019.5" y="577.252">String turnDirection</text><rect fill="none" height="6" style="stroke:#C82930;stroke-width:1.0;" width="6" x="5003.5" y="595.6328"/><text fill="#000000" font-family="sans-serif" font-size="14" lengthAdjust="spacing" textLength="116" x="5019.5" y="602.8613">Stage returnStage</text><line style="stroke:#181818;stroke-width:0.5;" x1="4996.5" x2="5527.5" y1="613.9375" y2="613.9375"/><ellipse cx="5006.5" cy="632.2422" fill="#84BE84" rx="3" ry="3" style="stroke:#038048;stroke-width:1.0;"/><text fill="#000000" font-family="sans-serif" font-size="14" lengthAdjust="spacing" textLength="347" x="5019.5" y="636.4707">InPositionTurn(String turnDirection, Stage returnStage)</text><rect fill="#F24D5C" height="6" style="stroke:#C82930;stroke-width:1.0;" width="6" x="5003.5" y="654.8516"/><text fill="#000000" font-family="sans-serif" font-size="14" lengthAdjust="spacing" textLength="499" x="5019.5" y="662.0801">inPositionRight(DirectionManager, CommandCenter, AlgorithmManager): String</text><rect fill="#F24D5C" height="6" style="stroke:#C82930;stroke-width:1.0;" width="6" x="5003.5" y="680.4609"/><text fill="#000000" font-family="sans-serif" font-size="14" lengthAdjust="spacing" textLength="490" x="5019.5" y="687.6895">inPositionLeft(DirectionManager, CommandCenter, AlgorithmManager): String</text></g><!--class Turn--><g id="elem_Turn"><rect codeLine="159" fill="#F1F1F1" height="128.4375" id="Turn" rx="2.5" ry="2.5" style="stroke:#181818;stroke-width:0.5;" width="281" x="4644.5" y="532"/><ellipse cx="4761.75" cy="549.8047" fill="#ADD1B2" rx="11" ry="11" style="stroke:#181818;stroke-width:1.0;"/><path d="M4764.5156,545.6797 Q4764.6719,545.4609 4764.8594,545.3516 Q4765.0469,545.2422 4765.2656,545.2422 Q4765.6406,545.2422 4765.875,545.5078 Q4766.1094,545.7578 4766.1094,546.3672 L4766.1094,547.8203 Q4766.1094,548.4297 4765.875,548.6953 Q4765.6406,548.9609 4765.2656,548.9609 Q4764.9219,548.9609 4764.7188,548.7578 Q4764.5156,548.5703 4764.4063,548.0547 Q4764.3594,547.6953 4764.1719,547.5078 Q4763.8438,547.1328 4763.2344,546.9141 Q4762.625,546.6953 4762,546.6953 Q4761.2344,546.6953 4760.5938,547.0234 Q4759.9688,547.3516 4759.4688,548.1016 Q4758.9844,548.8516 4758.9844,549.8828 L4758.9844,550.9766 Q4758.9844,552.2109 4759.875,553.0391 Q4760.7656,553.8516 4762.3594,553.8516 Q4763.2969,553.8516 4763.9531,553.6016 Q4764.3438,553.4453 4764.7656,553.0078 Q4765.0313,552.7422 4765.1719,552.6641 Q4765.3281,552.5859 4765.5313,552.5859 Q4765.8594,552.5859 4766.1094,552.8516 Q4766.375,553.1016 4766.375,553.4453 Q4766.375,553.7891 4766.0313,554.1953 Q4765.5313,554.7734 4764.7344,555.1016 Q4763.6563,555.5547 4762.3594,555.5547 Q4760.8438,555.5547 4759.6406,554.9297 Q4758.6563,554.4297 4757.9688,553.3672 Q4757.2813,552.2891 4757.2813,551.0078 L4757.2813,549.8516 Q4757.2813,548.5234 4757.8906,547.3828 Q4758.5156,546.2266 4759.6094,545.6172 Q4760.7031,544.9922 4761.9375,544.9922 Q4762.6719,544.9922 4763.3125,545.1641 Q4763.9688,545.3203 4764.5156,545.6797 Z " fill="#000000"/><text fill="#000000" font-family="sans-serif" font-size="14" lengthAdjust="spacing" textLength="30" x="4786.25" y="555.5332">Turn</text><line style="stroke:#181818;stroke-width:0.5;" x1="4645.5" x2="4924.5" y1="567.6094" y2="567.6094"/><rect fill="none" height="6" style="stroke:#C82930;stroke-width:1.0;" width="6" x="4652.5" y="582.9141"/><text fill="#000000" font-family="sans-serif" font-size="14" lengthAdjust="spacing" textLength="95" x="4668.5" y="590.1426">String direction</text><rect fill="none" height="6" style="stroke:#C82930;stroke-width:1.0;" width="6" x="4652.5" y="608.5234"/><text fill="#000000" font-family="sans-serif" font-size="14" lengthAdjust="spacing" textLength="104" x="4668.5" y="615.752">Stage nextStage</text><line style="stroke:#181818;stroke-width:0.5;" x1="4645.5" x2="4924.5" y1="626.8281" y2="626.8281"/><ellipse cx="4655.5" cy="645.1328" fill="#84BE84" rx="3" ry="3" style="stroke:#038048;stroke-width:1.0;"/><text fill="#000000" font-family="sans-serif" font-size="14" lengthAdjust="spacing" textLength="247" x="4668.5" y="649.3613">Turn(String direction, Stage nextStage)</text></g><!--class Stop--><g id="elem_Stop"><rect codeLine="165" fill="#F1F1F1" height="43.6094" id="Stop" rx="2.5" ry="2.5" style="stroke:#181818;stroke-width:0.5;" width="150" x="4424" y="574"/><ellipse cx="4476.25" cy="591.8047" fill="#ADD1B2" rx="11" ry="11" style="stroke:#181818;stroke-width:1.0;"/><path d="M4479.0156,587.6797 Q4479.1719,587.4609 4479.3594,587.3516 Q4479.5469,587.2422 4479.7656,587.2422 Q4480.1406,587.2422 4480.375,587.5078 Q4480.6094,587.7578 4480.6094,588.3672 L4480.6094,589.8203 Q4480.6094,590.4297 4480.375,590.6953 Q4480.1406,590.9609 4479.7656,590.9609 Q4479.4219,590.9609 4479.2188,590.7578 Q4479.0156,590.5703 4478.9063,590.0547 Q4478.8594,589.6953 4478.6719,589.5078 Q4478.3438,589.1328 4477.7344,588.9141 Q4477.125,588.6953 4476.5,588.6953 Q4475.7344,588.6953 4475.0938,589.0234 Q4474.4688,589.3516 4473.9688,590.1016 Q4473.4844,590.8516 4473.4844,591.8828 L4473.4844,592.9766 Q4473.4844,594.2109 4474.375,595.0391 Q4475.2656,595.8516 4476.8594,595.8516 Q4477.7969,595.8516 4478.4531,595.6016 Q4478.8438,595.4453 4479.2656,595.0078 Q4479.5313,594.7422 4479.6719,594.6641 Q4479.8281,594.5859 4480.0313,594.5859 Q4480.3594,594.5859 4480.6094,594.8516 Q4480.875,595.1016 4480.875,595.4453 Q4480.875,595.7891 4480.5313,596.1953 Q4480.0313,596.7734 4479.2344,597.1016 Q4478.1563,597.5547 4476.8594,597.5547 Q4475.3438,597.5547 4474.1406,596.9297 Q4473.1563,596.4297 4472.4688,595.3672 Q4471.7813,594.2891 4471.7813,593.0078 L4471.7813,591.8516 Q4471.7813,590.5234 4472.3906,589.3828 Q4473.0156,588.2266 4474.1094,587.6172 Q4475.2031,586.9922 4476.4375,586.9922 Q4477.1719,586.9922 4477.8125,587.1641 Q4478.4688,587.3203 4479.0156,587.6797 Z " fill="#000000"/><text fill="#000000" font-family="sans-serif" font-size="14" lengthAdjust="spacing" textLength="29" x="4500.75" y="597.5332">Stop</text><line style="stroke:#181818;stroke-width:0.5;" x1="4425" x2="4573" y1="609.6094" y2="609.6094"/></g><!--reverse link Stage to FirstEcho--><g id="link_Stage_FirstEcho"><path codeLine="59" d="M3877.39,298.5 C3237.26,298.5 1671,298.5 1671,298.5 C1671,298.5 1671,504.45 1671,573.64 " fill="none" id="Stage-backto-FirstEcho" style="stroke:#181818;stroke-width:1.0;stroke-dasharray:7.0,7.0;"/><polygon fill="none" points="3895.39,298.5,3877.39,292.5,3877.39,304.5,3895.39,298.5" style="stroke:#181818;stroke-width:1.0;"/></g><!--reverse link Stage to EchoSweep--><g id="link_Stage_EchoSweep"><path codeLine="60" d="M3877.34,279.5 C3196.61,279.5 1451,279.5 1451,279.5 C1451,279.5 1451,502.22 1451,574 " fill="none" id="Stage-backto-EchoSweep" style="stroke:#181818;stroke-width:1.0;stroke-dasharray:7.0,7.0;"/><polygon fill="none" points="3895.34,279.5,3877.34,273.5,3877.34,285.5,3895.34,279.5" style="stroke:#181818;stroke-width:1.0;"/></g><!--reverse link Stage to DirectionalSweep--><g id="link_Stage_DirectionalSweep"><path codeLine="61" d="M3877.24,318.5 C3293.37,318.5 1961,318.5 1961,318.5 C1961,318.5 1961,464.2 1961,544.45 " fill="none" id="Stage-backto-DirectionalSweep" style="stroke:#181818;stroke-width:1.0;stroke-dasharray:7.0,7.0;"/><polygon fill="none" points="3895.24,318.5,3877.24,312.5,3877.24,324.5,3895.24,318.5" style="stroke:#181818;stroke-width:1.0;"/></g><!--reverse link Transition to FirstEchoTrans--><g id="link_Transition_FirstEchoTrans"><path codeLine="80" d="M1193.5,380.69 C1193.5,447.3 1193.5,529.81 1193.5,573.92 " fill="none" id="Transition-backto-FirstEchoTrans" style="stroke:#181818;stroke-width:1.0;"/><polygon fill="none" points="1193.5,362.69,1187.5,380.69,1199.5,380.69,1193.5,362.69" style="stroke:#181818;stroke-width:1.0;"/></g><!--reverse link Transition to EchoSweepTrans--><g id="link_Transition_EchoSweepTrans"><path codeLine="81" d="M1010,380.69 C1010,447.3 1010,529.81 1010,573.92 " fill="none" id="Transition-backto-EchoSweepTrans" style="stroke:#181818;stroke-width:1.0;"/><polygon fill="none" points="1010,362.69,1004,380.69,1016,380.69,1010,362.69" style="stroke:#181818;stroke-width:1.0;"/></g><!--reverse link Transition to FindCornerTrans--><g id="link_Transition_FindCornerTrans"><path codeLine="82" d="M789,380.69 C789,447.3 789,529.81 789,573.92 " fill="none" id="Transition-backto-FindCornerTrans" style="stroke:#181818;stroke-width:1.0;"/><polygon fill="none" points="789,362.69,783,380.69,795,380.69,789,362.69" style="stroke:#181818;stroke-width:1.0;"/></g><!--reverse link Transition to DirectionalSweepTrans--><g id="link_Transition_DirectionalSweepTrans"><path codeLine="83" d="M551,380.69 C551,447.3 551,529.81 551,573.92 " fill="none" id="Transition-backto-DirectionalSweepTrans" style="stroke:#181818;stroke-width:1.0;"/><polygon fill="none" points="551,362.69,545,380.69,557,380.69,551,362.69" style="stroke:#181818;stroke-width:1.0;"/></g><!--reverse link Transition to FindEdgeTrans--><g id="link_Transition_FindEdgeTrans"><path codeLine="84" d="M345.25,380.69 C345.25,447.3 345.25,529.81 345.25,573.92 " fill="none" id="Transition-backto-FindEdgeTrans" style="stroke:#181818;stroke-width:1.0;"/><polygon fill="none" points="345.25,362.69,339.25,380.69,351.25,380.69,345.25,362.69" style="stroke:#181818;stroke-width:1.0;"/></g><!--reverse link Transition to FlyDistanceTrans--><g id="link_Transition_FlyDistanceTrans"><path codeLine="118" d="M1231,380.5 C1231,451.6 1231,538.5 1231,538.5 C1231,538.5 1890.85,538.5 2210.46,538.5 " fill="none" id="Transition-backto-FlyDistanceTrans" style="stroke:#181818;stroke-width:1.0;"/><polygon fill="none" points="1231,362.5,1225,380.5,1237,380.5,1231,362.5" style="stroke:#181818;stroke-width:1.0;"/></g><!--reverse link Transition to InPositionTurnTrans--><g id="link_Transition_InPositionTurnTrans"><path codeLine="119" d="M1268.5,380.64 C1268.5,447.77 1268.5,525.5 1268.5,525.5 C1268.5,525.5 2135.73,525.5 2619.73,525.5 " fill="none" id="Transition-backto-InPositionTurnTrans" style="stroke:#181818;stroke-width:1.0;"/><polygon fill="none" points="1268.5,362.64,1262.5,380.64,1274.5,380.64,1268.5,362.64" style="stroke:#181818;stroke-width:1.0;"/></g><!--reverse link Transition to SearchInitialTrans--><g id="link_Transition_SearchInitialTrans"><path codeLine="120" d="M1132.5,380.57 C1132.5,490.77 1132.5,686.5 1132.5,686.5 C1132.5,686.5 3170,686.5 3170,686.5 C3170,686.5 3170,716.5 3170,738.3 " fill="none" id="Transition-backto-SearchInitialTrans" style="stroke:#181818;stroke-width:1.0;"/><polygon fill="none" points="1132.5,362.57,1126.5,380.57,1138.5,380.57,1132.5,362.57" style="stroke:#181818;stroke-width:1.0;"/></g><!--reverse link Transition to SearchFinalTrans--><g id="link_Transition_SearchFinalTrans"><path codeLine="121" d="M1327.59,350.5 C2053.3,350.5 3289,350.5 3289,350.5 C3289,350.5 3289,753.5 3289,753.5 C3289,753.5 3365.55,753.5 3427.29,753.5 " fill="none" id="Transition-backto-SearchFinalTrans" style="stroke:#181818;stroke-width:1.0;"/><polygon fill="none" points="1309.59,350.5,1327.59,356.5,1327.59,344.5,1309.59,350.5" style="stroke:#181818;stroke-width:1.0;"/></g><!--reverse link Transition to EdgeSearchTrans--><g id="link_Transition_EdgeSearchTrans"><path codeLine="122" d="M1109,380.74 C1109,507.68 1109,760.5 1109,760.5 C1109,760.5 2325.69,760.5 2648.28,760.5 " fill="none" id="Transition-backto-EdgeSearchTrans" style="stroke:#181818;stroke-width:1.0;"/><polygon fill="none" points="1109,362.74,1103,380.74,1115,380.74,1109,362.74" style="stroke:#181818;stroke-width:1.0;"/></g><!--reverse link Search to SearchInitialTrans--><g id="link_Search_SearchInitialTrans"><path codeLine="123" d="M3393,678.23 C3393,727.28 3393,768.5 3393,768.5 C3393,768.5 3311.51,768.5 3247.06,768.5 " fill="none" id="Search-backto-SearchInitialTrans" style="stroke:#181818;stroke-width:1.0;stroke-dasharray:7.0,7.0;"/><polygon fill="none" points="3393,660.23,3387,678.23,3399,678.23,3393,660.23" style="stroke:#181818;stroke-width:1.0;"/></g><!--reverse link Search to SearchFinalTrans--><g id="link_Search_SearchFinalTrans"><path codeLine="124" d="M3504,678.07 C3504,705.68 3504,718.16 3504,738.22 " fill="none" id="Search-backto-SearchFinalTrans" style="stroke:#181818;stroke-width:1.0;stroke-dasharray:7.0,7.0;"/><polygon fill="none" points="3504,660.07,3498,678.07,3510,678.07,3504,660.07" style="stroke:#181818;stroke-width:1.0;"/></g><!--reverse link Search to EdgeSearchTrans--><g id="link_Search_EdgeSearchTrans"><path codeLine="125" d="M3358.5,678.12 C3358.5,707.76 3358.5,718.5 3358.5,718.5 C3358.5,718.5 2726,718.5 2726,718.5 C2726,718.5 2726,728.04 2726,738.02 " fill="none" id="Search-backto-EdgeSearchTrans" style="stroke:#181818;stroke-width:1.0;stroke-dasharray:7.0,7.0;"/><polygon fill="none" points="3358.5,660.12,3352.5,678.12,3364.5,678.12,3358.5,660.12" style="stroke:#181818;stroke-width:1.0;"/></g><!--reverse link Stage to Scan--><g id="link_Stage_Scan"><path codeLine="135" d="M4269,355.09 C4269,418.13 4269,523.24 4269,573.66 " fill="none" id="Stage-backto-Scan" style="stroke:#181818;stroke-width:1.0;stroke-dasharray:7.0,7.0;"/><polygon fill="none" points="4269,337.09,4263,355.09,4275,355.09,4269,337.09" style="stroke:#181818;stroke-width:1.0;"/></g><!--reverse link Stage to FlyDistance--><g id="link_Stage_FlyDistance"><path codeLine="136" d="M4049,355.09 C4049,418.13 4049,523.24 4049,573.66 " fill="none" id="Stage-backto-FlyDistance" style="stroke:#181818;stroke-width:1.0;stroke-dasharray:7.0,7.0;"/><polygon fill="none" points="4049,337.09,4043,355.09,4055,355.09,4049,337.09" style="stroke:#181818;stroke-width:1.0;"/></g><!--reverse link Stage to UTurn--><g id="link_Stage_UTurn"><path codeLine="168" d="M4440.91,298.5 C4917.32,298.5 5854,298.5 5854,298.5 C5854,298.5 5854,407.21 5854,493.2 " fill="none" id="Stage-backto-UTurn" style="stroke:#181818;stroke-width:1.0;stroke-dasharray:7.0,7.0;"/><polygon fill="none" points="4422.91,298.5,4440.91,304.5,4440.91,292.5,4422.91,298.5" style="stroke:#181818;stroke-width:1.0;"/></g><!--reverse link Stage to InPositionTurn--><g id="link_Stage_InPositionTurn"><path codeLine="169" d="M4402.88,355.14 C4402.88,415.29 4402.88,506.5 4402.88,506.5 C4402.88,506.5 4743.21,506.5 4995.46,506.5 " fill="none" id="Stage-backto-InPositionTurn" style="stroke:#181818;stroke-width:1.0;stroke-dasharray:7.0,7.0;"/><polygon fill="none" points="4402.88,337.14,4396.88,355.14,4408.88,355.14,4402.88,337.14" style="stroke:#181818;stroke-width:1.0;"/></g><!--reverse link Stage to Turn--><g id="link_Stage_Turn"><path codeLine="170" d="M4383.25,355.23 C4383.25,426.56 4383.25,553.5 4383.25,553.5 C4383.25,553.5 4528.63,553.5 4644.49,553.5 " fill="none" id="Stage-backto-Turn" style="stroke:#181818;stroke-width:1.0;stroke-dasharray:7.0,7.0;"/><polygon fill="none" points="4383.25,337.23,4377.25,355.23,4389.25,355.23,4383.25,337.23" style="stroke:#181818;stroke-width:1.0;"/></g><!--reverse link Stage to Stop--><g id="link_Stage_Stop"><path codeLine="171" d="M4363.62,355.15 C4363.62,435.78 4363.62,596.5 4363.62,596.5 C4363.62,596.5 4392.63,596.5 4423.79,596.5 " fill="none" id="Stage-backto-Stop" style="stroke:#181818;stroke-width:1.0;stroke-dasharray:7.0,7.0;"/><polygon fill="none" points="4363.62,337.15,4357.62,355.15,4369.62,355.15,4363.62,337.15" style="stroke:#181818;stroke-width:1.0;"/></g><!--reverse link AlgorithmManager to Stage--><g id="link_AlgorithmManager_Stage"><path codeLine="174" d="M1059.81,104.5 C1829.32,104.5 4159,104.5 4159,104.5 C4159,104.5 4159,203.09 4159,259.71 " fill="none" id="AlgorithmManager-backto-Stage" style="stroke:#181818;stroke-width:1.0;"/><polygon fill="#181818" points="1047.81,104.5,1053.81,108.5,1059.81,104.5,1053.81,100.5,1047.81,104.5" style="stroke:#181818;stroke-width:1.0;"/><text fill="#000000" font-family="sans-serif" font-size="12" lengthAdjust="spacing" textLength="32" x="2644.01" y="96.957">Stage</text><text fill="#000000" font-family="sans-serif" font-size="12" lengthAdjust="spacing" textLength="7" x="1059.2114" y="97.6196">1</text><text fill="#000000" font-family="sans-serif" font-size="12" lengthAdjust="spacing" textLength="7" x="4146.8516" y="245.4568">1</text></g><!--reverse link AlgorithmManager to Transition--><g id="link_AlgorithmManager_Transition"><path codeLine="175" d="M806,168.23 C806,192.25 806,209.05 806,234.43 " fill="none" id="AlgorithmManager-backto-Transition" style="stroke:#181818;stroke-width:1.0;"/><polygon fill="#181818" points="806,156.23,802,162.23,806,168.23,810,162.23,806,156.23" style="stroke:#181818;stroke-width:1.0;"/><text fill="#000000" font-family="sans-serif" font-size="12" lengthAdjust="spacing" textLength="55" x="811" y="187.787">Transition</text><text fill="#000000" font-family="sans-serif" font-size="12" lengthAdjust="spacing" textLength="7" x="794.0859" y="180.4094">1</text><text fill="#000000" font-family="sans-serif" font-size="12" lengthAdjust="spacing" textLength="7" x="794.2266" y="220.0762">1</text></g><!--reverse link AlgorithmManager to TransitionInformation--><g id="link_AlgorithmManager_TransitionInformation"><path codeLine="176" d="M552.22,104.5 C357.14,104.5 127,104.5 127,104.5 C127,104.5 127,149.28 127,195.82 " fill="none" id="AlgorithmManager-backto-TransitionInformation" style="stroke:#181818;stroke-width:1.0;"/><polygon fill="#181818" points="564.22,104.5,558.22,100.5,552.22,104.5,558.22,108.5,564.22,104.5" style="stroke:#181818;stroke-width:1.0;"/><text fill="#000000" font-family="sans-serif" font-size="12" lengthAdjust="spacing" textLength="117" x="177.95" y="96.957">TransitionInformation</text><text fill="#000000" font-family="sans-serif" font-size="12" lengthAdjust="spacing" textLength="7" x="545.8195" y="97.6196">1</text><text fill="#000000" font-family="sans-serif" font-size="12" lengthAdjust="spacing" textLength="7" x="115.4727" y="181.2427">1</text></g><!--SRC=[lLTBRziu4BxhLn2-LDd4tSqY-q3GIzUfiGRsKTGjUWmOYRO8IwH1KadSrFzzXzI354afBhAxXo3Mp3UlRpX3wHNwdUO4aMgl3gWYgk2vH8eZVCzfZhAoLeg8f0WmIV8AVP84tH4DG2K-y5eX2K-KRMKYTvJjiS0LAYaZwh0dY0imT1ICvqIIFVhb1qSeCDjfuPKhtECy1w_eIWTTiKmG396p4alvFMKGVeCpo8G_8ac_48amoz66C-Mug2XRQFndcgi2NVxakZUEbe1VWpMwlF9LV-6AnDLxdEtmrb7-FAXFEPeV7SrR8VX3N2MX6i8rNt6zegfqLBycIPi3ccrAkYtKBIwtN51LL3FqbA2c0lIs4_w96O25KI4qNyaIo7gNRqcdeBx40Cyhl2Dh1Syt9AEISfRU2CwqIDNo0ht_UzN2uRSWzvJNyWEHTQdEhj5Q2UWU-3d2Nv_IHsYrf0fShTY6YmhhdrrUZGcI3uJiUtEGtr11CWCqglxHrsuemwKkmaEqVdkru_jyIzJQnalTn1ljScYLHah3Tr89dAcWnhOmmwELfdrwFNk_OJrFX_uvw91Fy4NGN8lecdM15fmBc26iEZUGl9xm9gkdBkyZ8eyagnM9PFP_P3BF2fBjMWuMu8fck4o7d03-ZlEIO6Pvjrl075ANRNjWWueMlAgWf0NHrc7saVxQOQDChwJRPbncRS1UBNKMiXDtHtv9XLJlieBtycFxVm3J27CIfs5zFRWSehtv6Ow0uSKtJQFuitZqXk4tNr-_jWM5ghw8KEL7JsoG8Okg7vHnAiqmdSZd2LYOyNp11IFY1B1Vo8d-zGXDGfsryURhVEuLEm8QLZdgQL3U22fQruJ7lg2-a_wuI895LamCJBJLpbGRU-U4dp_1YC5sE2AibbmyO66oI2DBAZRtuGgoAyKF80kwKKl1gpMy13qR9EBzGXSo6OBV4_4P34GQN9v3e_YPAWyt55onp3jMi0WWCifRfPKwJTot0Qt8vkSxJYVjpgPoNB7tl85zh0KBqhIS0LS0mwMHI8kmTtiB2DTQj_KKH8WilKWAQSp2QMOGo-tk85CZcMIWESAhnkQ4JT7WpJl7AJjElvOOYs_RB5w7Hs0HwaQGOPMJG5lUs5ORrjLT9iqwCBV9QCGG54Hp8R58iKifVhMlCyoUsVoMwZ6WSqTgVv7xrleONRMreYLLXzjXdaqEdtJx-kZpThUOuq_ovFafcZUv2AALvdUhE3UUHyOfCEhcP5vhgm_wi-LbRsVMsHzays9VJjTZoylofvUhBch1Q_ZOV0bzmmZVp2FjpVyjCgt7_uJH8OzjkNcSBaOUrO0ibwBSfwT7dyKZhnNltfGTdJDZvYJxmc5_V6rCfkFOwGo-lsUNC_GTx3VztrXTewx6IQpTZzTeS6MVQELyQr_7nSan-GS0]--></g></svg>