<?xml version="1.0" encoding="us-ascii" standalone="no"?><svg xmlns="http://www.w3.org/2000/svg" xmlns:xlink="http://www.w3.org/1999/xlink" contentStyleType="text/css" height="658px" preserveAspectRatio="none" style="width:3358px;height:658px;background:#FFFFFF;" version="1.1" viewBox="0 0 3358 658" width="3358px" zoomAndPan="magnify"><defs/><g><!--cluster drone--><g id="cluster_drone"><rect fill="none" height="645" rx="2.5" ry="2.5" style="stroke:#000000;stroke-width:1.5;" width="3345" x="7" y="7"/><text fill="#000000" font-family="sans-serif" font-size="18" font-weight="bold" lengthAdjust="spacing" textLength="51" x="1654" y="31.6855">drone</text></g><!--cluster external--><g id="cluster_external"><rect fill="#EEEEEE" height="103" rx="2.5" ry="2.5" style="stroke:#000000;stroke-width:1.5;" width="828" x="2500" y="429"/><text fill="#000000" font-family="sans-serif" font-size="18" font-weight="bold" lengthAdjust="spacing" textLength="72" x="2878" y="453.6855">external</text></g><!--cluster commands--><g id="cluster_commands"><rect fill="#D0FFD0" height="191" rx="2.5" ry="2.5" style="stroke:#000000;stroke-width:1.5;" width="405" x="295" y="206"/><text fill="#000000" font-family="sans-serif" font-size="18" font-weight="bold" lengthAdjust="spacing" textLength="97" x="449" y="230.6855">commands</text></g><!--cluster battery--><g id="cluster_battery"><rect fill="#D0D0FF" height="191" rx="2.5" ry="2.5" style="stroke:#000000;stroke-width:1.5;" width="232" x="39" y="206"/><text fill="#000000" font-family="sans-serif" font-size="18" font-weight="bold" lengthAdjust="spacing" textLength="62" x="124" y="230.6855">battery</text></g><!--cluster direction--><g id="cluster_direction"><rect fill="#FFD0D0" height="414" rx="2.5" ry="2.5" style="stroke:#000000;stroke-width:1.5;" width="888" x="740" y="206"/><text fill="#000000" font-family="sans-serif" font-size="18" font-weight="bold" lengthAdjust="spacing" textLength="77" x="1145.5" y="230.6855">direction</text></g><!--cluster drone_observers--><g id="cluster_drone_observers"><rect fill="#FFFFD0" height="191" rx="2.5" ry="2.5" style="stroke:#000000;stroke-width:1.5;" width="816" x="1652" y="206"/><text fill="#000000" font-family="sans-serif" font-size="18" font-weight="bold" lengthAdjust="spacing" textLength="150" x="1985" y="230.6855">drone_observers</text></g><!--class FlightManager--><g id="elem_FlightManager"><rect codeLine="27" fill="#F1F1F1" height="38.125" id="FlightManager" rx="2.5" ry="2.5" style="stroke:#181818;stroke-width:0.5;" width="140" x="2553" y="56"/><ellipse cx="2568" cy="75.0625" fill="#ADD1B2" rx="11" ry="11" style="stroke:#181818;stroke-width:1.0;"/><path d="M2570.7656,70.9375 Q2570.9219,70.7188 2571.1094,70.6094 Q2571.2969,70.5 2571.5156,70.5 Q2571.8906,70.5 2572.125,70.7656 Q2572.3594,71.0156 2572.3594,71.625 L2572.3594,73.0781 Q2572.3594,73.6875 2572.125,73.9531 Q2571.8906,74.2188 2571.5156,74.2188 Q2571.1719,74.2188 2570.9688,74.0156 Q2570.7656,73.8281 2570.6563,73.3125 Q2570.6094,72.9531 2570.4219,72.7656 Q2570.0938,72.3906 2569.4844,72.1719 Q2568.875,71.9531 2568.25,71.9531 Q2567.4844,71.9531 2566.8438,72.2813 Q2566.2188,72.6094 2565.7188,73.3594 Q2565.2344,74.1094 2565.2344,75.1406 L2565.2344,76.2344 Q2565.2344,77.4688 2566.125,78.2969 Q2567.0156,79.1094 2568.6094,79.1094 Q2569.5469,79.1094 2570.2031,78.8594 Q2570.5938,78.7031 2571.0156,78.2656 Q2571.2813,78 2571.4219,77.9219 Q2571.5781,77.8438 2571.7813,77.8438 Q2572.1094,77.8438 2572.3594,78.1094 Q2572.625,78.3594 2572.625,78.7031 Q2572.625,79.0469 2572.2813,79.4531 Q2571.7813,80.0313 2570.9844,80.3594 Q2569.9063,80.8125 2568.6094,80.8125 Q2567.0938,80.8125 2565.8906,80.1875 Q2564.9063,79.6875 2564.2188,78.625 Q2563.5313,77.5469 2563.5313,76.2656 L2563.5313,75.1094 Q2563.5313,73.7813 2564.1406,72.6406 Q2564.7656,71.4844 2565.8594,70.875 Q2566.9531,70.25 2568.1875,70.25 Q2568.9219,70.25 2569.5625,70.4219 Q2570.2188,70.5781 2570.7656,70.9375 Z " fill="#000000"/><text fill="#000000" font-family="sans-serif" font-size="16" lengthAdjust="spacing" textLength="100" x="2586" y="81.6094">FlightManager</text></g><!--class DroneStatus--><g id="elem_DroneStatus"><rect codeLine="28" fill="#F1F1F1" height="38.125" id="DroneStatus" rx="2.5" ry="2.5" style="stroke:#181818;stroke-width:0.5;" width="127" x="1119.5" y="144"/><ellipse cx="1134.5" cy="163.0625" fill="#ADD1B2" rx="11" ry="11" style="stroke:#181818;stroke-width:1.0;"/><path d="M1137.2656,158.9375 Q1137.4219,158.7188 1137.6094,158.6094 Q1137.7969,158.5 1138.0156,158.5 Q1138.3906,158.5 1138.625,158.7656 Q1138.8594,159.0156 1138.8594,159.625 L1138.8594,161.0781 Q1138.8594,161.6875 1138.625,161.9531 Q1138.3906,162.2188 1138.0156,162.2188 Q1137.6719,162.2188 1137.4688,162.0156 Q1137.2656,161.8281 1137.1563,161.3125 Q1137.1094,160.9531 1136.9219,160.7656 Q1136.5938,160.3906 1135.9844,160.1719 Q1135.375,159.9531 1134.75,159.9531 Q1133.9844,159.9531 1133.3438,160.2813 Q1132.7188,160.6094 1132.2188,161.3594 Q1131.7344,162.1094 1131.7344,163.1406 L1131.7344,164.2344 Q1131.7344,165.4688 1132.625,166.2969 Q1133.5156,167.1094 1135.1094,167.1094 Q1136.0469,167.1094 1136.7031,166.8594 Q1137.0938,166.7031 1137.5156,166.2656 Q1137.7813,166 1137.9219,165.9219 Q1138.0781,165.8438 1138.2813,165.8438 Q1138.6094,165.8438 1138.8594,166.1094 Q1139.125,166.3594 1139.125,166.7031 Q1139.125,167.0469 1138.7813,167.4531 Q1138.2813,168.0313 1137.4844,168.3594 Q1136.4063,168.8125 1135.1094,168.8125 Q1133.5938,168.8125 1132.3906,168.1875 Q1131.4063,167.6875 1130.7188,166.625 Q1130.0313,165.5469 1130.0313,164.2656 L1130.0313,163.1094 Q1130.0313,161.7813 1130.6406,160.6406 Q1131.2656,159.4844 1132.3594,158.875 Q1133.4531,158.25 1134.6875,158.25 Q1135.4219,158.25 1136.0625,158.4219 Q1136.7188,158.5781 1137.2656,158.9375 Z " fill="#000000"/><text fill="#000000" font-family="sans-serif" font-size="16" lengthAdjust="spacing" textLength="87" x="1152.5" y="169.6094">DroneStatus</text></g><!--class PreviousResult--><g id="elem_PreviousResult"><rect codeLine="31" fill="#F1F1F1" height="38.125" id="PreviousResult" rx="2.5" ry="2.5" style="stroke:#181818;stroke-width:0.5;" width="144" x="2743" y="56"/><ellipse cx="2758" cy="75.0625" fill="#ADD1B2" rx="11" ry="11" style="stroke:#181818;stroke-width:1.0;"/><path d="M2760.7656,70.9375 Q2760.9219,70.7188 2761.1094,70.6094 Q2761.2969,70.5 2761.5156,70.5 Q2761.8906,70.5 2762.125,70.7656 Q2762.3594,71.0156 2762.3594,71.625 L2762.3594,73.0781 Q2762.3594,73.6875 2762.125,73.9531 Q2761.8906,74.2188 2761.5156,74.2188 Q2761.1719,74.2188 2760.9688,74.0156 Q2760.7656,73.8281 2760.6563,73.3125 Q2760.6094,72.9531 2760.4219,72.7656 Q2760.0938,72.3906 2759.4844,72.1719 Q2758.875,71.9531 2758.25,71.9531 Q2757.4844,71.9531 2756.8438,72.2813 Q2756.2188,72.6094 2755.7188,73.3594 Q2755.2344,74.1094 2755.2344,75.1406 L2755.2344,76.2344 Q2755.2344,77.4688 2756.125,78.2969 Q2757.0156,79.1094 2758.6094,79.1094 Q2759.5469,79.1094 2760.2031,78.8594 Q2760.5938,78.7031 2761.0156,78.2656 Q2761.2813,78 2761.4219,77.9219 Q2761.5781,77.8438 2761.7813,77.8438 Q2762.1094,77.8438 2762.3594,78.1094 Q2762.625,78.3594 2762.625,78.7031 Q2762.625,79.0469 2762.2813,79.4531 Q2761.7813,80.0313 2760.9844,80.3594 Q2759.9063,80.8125 2758.6094,80.8125 Q2757.0938,80.8125 2755.8906,80.1875 Q2754.9063,79.6875 2754.2188,78.625 Q2753.5313,77.5469 2753.5313,76.2656 L2753.5313,75.1094 Q2753.5313,73.7813 2754.1406,72.6406 Q2754.7656,71.4844 2755.8594,70.875 Q2756.9531,70.25 2758.1875,70.25 Q2758.9219,70.25 2759.5625,70.4219 Q2760.2188,70.5781 2760.7656,70.9375 Z " fill="#000000"/><text fill="#000000" font-family="sans-serif" font-size="16" lengthAdjust="spacing" textLength="104" x="2776" y="81.6094">PreviousResult</text></g><!--class ExtAlgorithmManager--><g id="elem_ExtAlgorithmManager"><rect codeLine="37" fill="#F1F1F1" height="38.125" id="ExtAlgorithmManager" rx="2.5" ry="2.5" style="stroke:#181818;stroke-width:0.5;" width="168" x="3144" y="478"/><ellipse cx="3159" cy="497.0625" fill="#ADD1B2" rx="11" ry="11" style="stroke:#181818;stroke-width:1.0;"/><path d="M3161.7656,492.9375 Q3161.9219,492.7188 3162.1094,492.6094 Q3162.2969,492.5 3162.5156,492.5 Q3162.8906,492.5 3163.125,492.7656 Q3163.3594,493.0156 3163.3594,493.625 L3163.3594,495.0781 Q3163.3594,495.6875 3163.125,495.9531 Q3162.8906,496.2188 3162.5156,496.2188 Q3162.1719,496.2188 3161.9688,496.0156 Q3161.7656,495.8281 3161.6563,495.3125 Q3161.6094,494.9531 3161.4219,494.7656 Q3161.0938,494.3906 3160.4844,494.1719 Q3159.875,493.9531 3159.25,493.9531 Q3158.4844,493.9531 3157.8438,494.2813 Q3157.2188,494.6094 3156.7188,495.3594 Q3156.2344,496.1094 3156.2344,497.1406 L3156.2344,498.2344 Q3156.2344,499.4688 3157.125,500.2969 Q3158.0156,501.1094 3159.6094,501.1094 Q3160.5469,501.1094 3161.2031,500.8594 Q3161.5938,500.7031 3162.0156,500.2656 Q3162.2813,500 3162.4219,499.9219 Q3162.5781,499.8438 3162.7813,499.8438 Q3163.1094,499.8438 3163.3594,500.1094 Q3163.625,500.3594 3163.625,500.7031 Q3163.625,501.0469 3163.2813,501.4531 Q3162.7813,502.0313 3161.9844,502.3594 Q3160.9063,502.8125 3159.6094,502.8125 Q3158.0938,502.8125 3156.8906,502.1875 Q3155.9063,501.6875 3155.2188,500.625 Q3154.5313,499.5469 3154.5313,498.2656 L3154.5313,497.1094 Q3154.5313,495.7813 3155.1406,494.6406 Q3155.7656,493.4844 3156.8594,492.875 Q3157.9531,492.25 3159.1875,492.25 Q3159.9219,492.25 3160.5625,492.4219 Q3161.2188,492.5781 3161.7656,492.9375 Z " fill="#000000"/><text fill="#000000" font-family="sans-serif" font-size="16" lengthAdjust="spacing" textLength="128" x="3177" y="503.6094">AlgorithmManager</text></g><!--class ExtPOIManager--><g id="elem_ExtPOIManager"><rect codeLine="38" fill="#F1F1F1" height="38.125" id="ExtPOIManager" rx="2.5" ry="2.5" style="stroke:#181818;stroke-width:0.5;" width="128" x="2966" y="478"/><ellipse cx="2981" cy="497.0625" fill="#ADD1B2" rx="11" ry="11" style="stroke:#181818;stroke-width:1.0;"/><path d="M2983.7656,492.9375 Q2983.9219,492.7188 2984.1094,492.6094 Q2984.2969,492.5 2984.5156,492.5 Q2984.8906,492.5 2985.125,492.7656 Q2985.3594,493.0156 2985.3594,493.625 L2985.3594,495.0781 Q2985.3594,495.6875 2985.125,495.9531 Q2984.8906,496.2188 2984.5156,496.2188 Q2984.1719,496.2188 2983.9688,496.0156 Q2983.7656,495.8281 2983.6563,495.3125 Q2983.6094,494.9531 2983.4219,494.7656 Q2983.0938,494.3906 2982.4844,494.1719 Q2981.875,493.9531 2981.25,493.9531 Q2980.4844,493.9531 2979.8438,494.2813 Q2979.2188,494.6094 2978.7188,495.3594 Q2978.2344,496.1094 2978.2344,497.1406 L2978.2344,498.2344 Q2978.2344,499.4688 2979.125,500.2969 Q2980.0156,501.1094 2981.6094,501.1094 Q2982.5469,501.1094 2983.2031,500.8594 Q2983.5938,500.7031 2984.0156,500.2656 Q2984.2813,500 2984.4219,499.9219 Q2984.5781,499.8438 2984.7813,499.8438 Q2985.1094,499.8438 2985.3594,500.1094 Q2985.625,500.3594 2985.625,500.7031 Q2985.625,501.0469 2985.2813,501.4531 Q2984.7813,502.0313 2983.9844,502.3594 Q2982.9063,502.8125 2981.6094,502.8125 Q2980.0938,502.8125 2978.8906,502.1875 Q2977.9063,501.6875 2977.2188,500.625 Q2976.5313,499.5469 2976.5313,498.2656 L2976.5313,497.1094 Q2976.5313,495.7813 2977.1406,494.6406 Q2977.7656,493.4844 2978.8594,492.875 Q2979.9531,492.25 2981.1875,492.25 Q2981.9219,492.25 2982.5625,492.4219 Q2983.2188,492.5781 2983.7656,492.9375 Z " fill="#000000"/><text fill="#000000" font-family="sans-serif" font-size="16" lengthAdjust="spacing" textLength="88" x="2999" y="503.6094">POIManager</text></g><!--class ExtCoordinateManager--><g id="elem_ExtCoordinateManager"><rect codeLine="39" fill="#F1F1F1" height="38.125" id="ExtCoordinateManager" rx="2.5" ry="2.5" style="stroke:#181818;stroke-width:0.5;" width="180" x="2736" y="478"/><ellipse cx="2751" cy="497.0625" fill="#ADD1B2" rx="11" ry="11" style="stroke:#181818;stroke-width:1.0;"/><path d="M2753.7656,492.9375 Q2753.9219,492.7188 2754.1094,492.6094 Q2754.2969,492.5 2754.5156,492.5 Q2754.8906,492.5 2755.125,492.7656 Q2755.3594,493.0156 2755.3594,493.625 L2755.3594,495.0781 Q2755.3594,495.6875 2755.125,495.9531 Q2754.8906,496.2188 2754.5156,496.2188 Q2754.1719,496.2188 2753.9688,496.0156 Q2753.7656,495.8281 2753.6563,495.3125 Q2753.6094,494.9531 2753.4219,494.7656 Q2753.0938,494.3906 2752.4844,494.1719 Q2751.875,493.9531 2751.25,493.9531 Q2750.4844,493.9531 2749.8438,494.2813 Q2749.2188,494.6094 2748.7188,495.3594 Q2748.2344,496.1094 2748.2344,497.1406 L2748.2344,498.2344 Q2748.2344,499.4688 2749.125,500.2969 Q2750.0156,501.1094 2751.6094,501.1094 Q2752.5469,501.1094 2753.2031,500.8594 Q2753.5938,500.7031 2754.0156,500.2656 Q2754.2813,500 2754.4219,499.9219 Q2754.5781,499.8438 2754.7813,499.8438 Q2755.1094,499.8438 2755.3594,500.1094 Q2755.625,500.3594 2755.625,500.7031 Q2755.625,501.0469 2755.2813,501.4531 Q2754.7813,502.0313 2753.9844,502.3594 Q2752.9063,502.8125 2751.6094,502.8125 Q2750.0938,502.8125 2748.8906,502.1875 Q2747.9063,501.6875 2747.2188,500.625 Q2746.5313,499.5469 2746.5313,498.2656 L2746.5313,497.1094 Q2746.5313,495.7813 2747.1406,494.6406 Q2747.7656,493.4844 2748.8594,492.875 Q2749.9531,492.25 2751.1875,492.25 Q2751.9219,492.25 2752.5625,492.4219 Q2753.2188,492.5781 2753.7656,492.9375 Z " fill="#000000"/><text fill="#000000" font-family="sans-serif" font-size="16" lengthAdjust="spacing" textLength="140" x="2769" y="503.6094">CoordinateManager</text></g><!--class ExtCoordinateUtilities--><g id="elem_ExtCoordinateUtilities"><rect codeLine="40" fill="#F1F1F1" height="38.125" id="ExtCoordinateUtilities" rx="2.5" ry="2.5" style="stroke:#181818;stroke-width:0.5;" width="169" x="2516.5" y="478"/><ellipse cx="2531.5" cy="497.0625" fill="#ADD1B2" rx="11" ry="11" style="stroke:#181818;stroke-width:1.0;"/><path d="M2534.2656,492.9375 Q2534.4219,492.7188 2534.6094,492.6094 Q2534.7969,492.5 2535.0156,492.5 Q2535.3906,492.5 2535.625,492.7656 Q2535.8594,493.0156 2535.8594,493.625 L2535.8594,495.0781 Q2535.8594,495.6875 2535.625,495.9531 Q2535.3906,496.2188 2535.0156,496.2188 Q2534.6719,496.2188 2534.4688,496.0156 Q2534.2656,495.8281 2534.1563,495.3125 Q2534.1094,494.9531 2533.9219,494.7656 Q2533.5938,494.3906 2532.9844,494.1719 Q2532.375,493.9531 2531.75,493.9531 Q2530.9844,493.9531 2530.3438,494.2813 Q2529.7188,494.6094 2529.2188,495.3594 Q2528.7344,496.1094 2528.7344,497.1406 L2528.7344,498.2344 Q2528.7344,499.4688 2529.625,500.2969 Q2530.5156,501.1094 2532.1094,501.1094 Q2533.0469,501.1094 2533.7031,500.8594 Q2534.0938,500.7031 2534.5156,500.2656 Q2534.7813,500 2534.9219,499.9219 Q2535.0781,499.8438 2535.2813,499.8438 Q2535.6094,499.8438 2535.8594,500.1094 Q2536.125,500.3594 2536.125,500.7031 Q2536.125,501.0469 2535.7813,501.4531 Q2535.2813,502.0313 2534.4844,502.3594 Q2533.4063,502.8125 2532.1094,502.8125 Q2530.5938,502.8125 2529.3906,502.1875 Q2528.4063,501.6875 2527.7188,500.625 Q2527.0313,499.5469 2527.0313,498.2656 L2527.0313,497.1094 Q2527.0313,495.7813 2527.6406,494.6406 Q2528.2656,493.4844 2529.3594,492.875 Q2530.4531,492.25 2531.6875,492.25 Q2532.4219,492.25 2533.0625,492.4219 Q2533.7188,492.5781 2534.2656,492.9375 Z " fill="#000000"/><text fill="#000000" font-family="sans-serif" font-size="16" lengthAdjust="spacing" textLength="129" x="2549.5" y="503.6094">CoordinateUtilities</text></g><!--class CommandCenter--><g id="elem_CommandCenter"><rect codeLine="45" fill="#F1F1F1" height="38.125" id="CommandCenter" rx="2.5" ry="2.5" style="stroke:#181818;stroke-width:0.5;" width="160" x="522" y="255"/><ellipse cx="537" cy="274.0625" fill="#ADD1B2" rx="11" ry="11" style="stroke:#181818;stroke-width:1.0;"/><path d="M539.7656,269.9375 Q539.9219,269.7188 540.1094,269.6094 Q540.2969,269.5 540.5156,269.5 Q540.8906,269.5 541.125,269.7656 Q541.3594,270.0156 541.3594,270.625 L541.3594,272.0781 Q541.3594,272.6875 541.125,272.9531 Q540.8906,273.2188 540.5156,273.2188 Q540.1719,273.2188 539.9688,273.0156 Q539.7656,272.8281 539.6563,272.3125 Q539.6094,271.9531 539.4219,271.7656 Q539.0938,271.3906 538.4844,271.1719 Q537.875,270.9531 537.25,270.9531 Q536.4844,270.9531 535.8438,271.2813 Q535.2188,271.6094 534.7188,272.3594 Q534.2344,273.1094 534.2344,274.1406 L534.2344,275.2344 Q534.2344,276.4688 535.125,277.2969 Q536.0156,278.1094 537.6094,278.1094 Q538.5469,278.1094 539.2031,277.8594 Q539.5938,277.7031 540.0156,277.2656 Q540.2813,277 540.4219,276.9219 Q540.5781,276.8438 540.7813,276.8438 Q541.1094,276.8438 541.3594,277.1094 Q541.625,277.3594 541.625,277.7031 Q541.625,278.0469 541.2813,278.4531 Q540.7813,279.0313 539.9844,279.3594 Q538.9063,279.8125 537.6094,279.8125 Q536.0938,279.8125 534.8906,279.1875 Q533.9063,278.6875 533.2188,277.625 Q532.5313,276.5469 532.5313,275.2656 L532.5313,274.1094 Q532.5313,272.7813 533.1406,271.6406 Q533.7656,270.4844 534.8594,269.875 Q535.9531,269.25 537.1875,269.25 Q537.9219,269.25 538.5625,269.4219 Q539.2188,269.5781 539.7656,269.9375 Z " fill="#000000"/><text fill="#000000" font-family="sans-serif" font-size="16" lengthAdjust="spacing" textLength="120" x="555" y="280.6094">CommandCenter</text></g><!--class FlightCommands--><g id="elem_FlightCommands"><rect codeLine="46" fill="#F1F1F1" height="38.125" id="FlightCommands" rx="2.5" ry="2.5" style="stroke:#181818;stroke-width:0.5;" width="159" x="311.5" y="343"/><ellipse cx="326.5" cy="362.0625" fill="#ADD1B2" rx="11" ry="11" style="stroke:#181818;stroke-width:1.0;"/><path d="M329.2656,357.9375 Q329.4219,357.7188 329.6094,357.6094 Q329.7969,357.5 330.0156,357.5 Q330.3906,357.5 330.625,357.7656 Q330.8594,358.0156 330.8594,358.625 L330.8594,360.0781 Q330.8594,360.6875 330.625,360.9531 Q330.3906,361.2188 330.0156,361.2188 Q329.6719,361.2188 329.4688,361.0156 Q329.2656,360.8281 329.1563,360.3125 Q329.1094,359.9531 328.9219,359.7656 Q328.5938,359.3906 327.9844,359.1719 Q327.375,358.9531 326.75,358.9531 Q325.9844,358.9531 325.3438,359.2813 Q324.7188,359.6094 324.2188,360.3594 Q323.7344,361.1094 323.7344,362.1406 L323.7344,363.2344 Q323.7344,364.4688 324.625,365.2969 Q325.5156,366.1094 327.1094,366.1094 Q328.0469,366.1094 328.7031,365.8594 Q329.0938,365.7031 329.5156,365.2656 Q329.7813,365 329.9219,364.9219 Q330.0781,364.8438 330.2813,364.8438 Q330.6094,364.8438 330.8594,365.1094 Q331.125,365.3594 331.125,365.7031 Q331.125,366.0469 330.7813,366.4531 Q330.2813,367.0313 329.4844,367.3594 Q328.4063,367.8125 327.1094,367.8125 Q325.5938,367.8125 324.3906,367.1875 Q323.4063,366.6875 322.7188,365.625 Q322.0313,364.5469 322.0313,363.2656 L322.0313,362.1094 Q322.0313,360.7813 322.6406,359.6406 Q323.2656,358.4844 324.3594,357.875 Q325.4531,357.25 326.6875,357.25 Q327.4219,357.25 328.0625,357.4219 Q328.7188,357.5781 329.2656,357.9375 Z " fill="#000000"/><text fill="#000000" font-family="sans-serif" font-size="16" lengthAdjust="spacing" textLength="119" x="344.5" y="368.6094">FlightCommands</text></g><!--class PreviousDecision--><g id="elem_PreviousDecision"><rect codeLine="47" fill="#F1F1F1" height="38.125" id="PreviousDecision" rx="2.5" ry="2.5" style="stroke:#181818;stroke-width:0.5;" width="163" x="520.5" y="343"/><ellipse cx="535.5" cy="362.0625" fill="#ADD1B2" rx="11" ry="11" style="stroke:#181818;stroke-width:1.0;"/><path d="M538.2656,357.9375 Q538.4219,357.7188 538.6094,357.6094 Q538.7969,357.5 539.0156,357.5 Q539.3906,357.5 539.625,357.7656 Q539.8594,358.0156 539.8594,358.625 L539.8594,360.0781 Q539.8594,360.6875 539.625,360.9531 Q539.3906,361.2188 539.0156,361.2188 Q538.6719,361.2188 538.4688,361.0156 Q538.2656,360.8281 538.1563,360.3125 Q538.1094,359.9531 537.9219,359.7656 Q537.5938,359.3906 536.9844,359.1719 Q536.375,358.9531 535.75,358.9531 Q534.9844,358.9531 534.3438,359.2813 Q533.7188,359.6094 533.2188,360.3594 Q532.7344,361.1094 532.7344,362.1406 L532.7344,363.2344 Q532.7344,364.4688 533.625,365.2969 Q534.5156,366.1094 536.1094,366.1094 Q537.0469,366.1094 537.7031,365.8594 Q538.0938,365.7031 538.5156,365.2656 Q538.7813,365 538.9219,364.9219 Q539.0781,364.8438 539.2813,364.8438 Q539.6094,364.8438 539.8594,365.1094 Q540.125,365.3594 540.125,365.7031 Q540.125,366.0469 539.7813,366.4531 Q539.2813,367.0313 538.4844,367.3594 Q537.4063,367.8125 536.1094,367.8125 Q534.5938,367.8125 533.3906,367.1875 Q532.4063,366.6875 531.7188,365.625 Q531.0313,364.5469 531.0313,363.2656 L531.0313,362.1094 Q531.0313,360.7813 531.6406,359.6406 Q532.2656,358.4844 533.3594,357.875 Q534.4531,357.25 535.6875,357.25 Q536.4219,357.25 537.0625,357.4219 Q537.7188,357.5781 538.2656,357.9375 Z " fill="#000000"/><text fill="#000000" font-family="sans-serif" font-size="16" lengthAdjust="spacing" textLength="123" x="553.5" y="368.6094">PreviousDecision</text></g><!--class BatteryManager--><g id="elem_BatteryManager"><rect codeLine="53" fill="#F1F1F1" height="38.125" id="BatteryManager" rx="2.5" ry="2.5" style="stroke:#181818;stroke-width:0.5;" width="154" x="90" y="255"/><ellipse cx="105" cy="274.0625" fill="#B4A7E5" rx="11" ry="11" style="stroke:#181818;stroke-width:1.0;"/><path d="M105.9531,270.7031 L105.9531,277.3594 L107.6719,277.3594 Q108.2813,277.3594 108.5469,277.5938 Q108.8125,277.8281 108.8125,278.2188 Q108.8125,278.5938 108.5469,278.8281 Q108.2813,279.0625 107.6719,279.0625 L102.5313,279.0625 Q101.9219,279.0625 101.6563,278.8281 Q101.3906,278.5938 101.3906,278.2031 Q101.3906,277.8281 101.6563,277.5938 Q101.9219,277.3594 102.5313,277.3594 L104.25,277.3594 L104.25,270.7031 L102.5313,270.7031 Q101.9219,270.7031 101.6563,270.4688 Q101.3906,270.2344 101.3906,269.8438 Q101.3906,269.4688 101.6563,269.2344 Q101.9219,269 102.5313,269 L107.6719,269 Q108.2813,269 108.5469,269.2344 Q108.8125,269.4688 108.8125,269.8438 Q108.8125,270.2344 108.5469,270.4688 Q108.2813,270.7031 107.6719,270.7031 L105.9531,270.7031 Z " fill="#000000"/><text fill="#000000" font-family="sans-serif" font-size="16" font-style="italic" lengthAdjust="spacing" textLength="114" x="123" y="280.6094">BatteryManager</text></g><!--class SimpleBatteryManager--><g id="elem_SimpleBatteryManager"><rect codeLine="54" fill="#F1F1F1" height="38.125" id="SimpleBatteryManager" rx="2.5" ry="2.5" style="stroke:#181818;stroke-width:0.5;" width="200" x="55" y="343"/><ellipse cx="70" cy="362.0625" fill="#ADD1B2" rx="11" ry="11" style="stroke:#181818;stroke-width:1.0;"/><path d="M72.7656,357.9375 Q72.9219,357.7188 73.1094,357.6094 Q73.2969,357.5 73.5156,357.5 Q73.8906,357.5 74.125,357.7656 Q74.3594,358.0156 74.3594,358.625 L74.3594,360.0781 Q74.3594,360.6875 74.125,360.9531 Q73.8906,361.2188 73.5156,361.2188 Q73.1719,361.2188 72.9688,361.0156 Q72.7656,360.8281 72.6563,360.3125 Q72.6094,359.9531 72.4219,359.7656 Q72.0938,359.3906 71.4844,359.1719 Q70.875,358.9531 70.25,358.9531 Q69.4844,358.9531 68.8438,359.2813 Q68.2188,359.6094 67.7188,360.3594 Q67.2344,361.1094 67.2344,362.1406 L67.2344,363.2344 Q67.2344,364.4688 68.125,365.2969 Q69.0156,366.1094 70.6094,366.1094 Q71.5469,366.1094 72.2031,365.8594 Q72.5938,365.7031 73.0156,365.2656 Q73.2813,365 73.4219,364.9219 Q73.5781,364.8438 73.7813,364.8438 Q74.1094,364.8438 74.3594,365.1094 Q74.625,365.3594 74.625,365.7031 Q74.625,366.0469 74.2813,366.4531 Q73.7813,367.0313 72.9844,367.3594 Q71.9063,367.8125 70.6094,367.8125 Q69.0938,367.8125 67.8906,367.1875 Q66.9063,366.6875 66.2188,365.625 Q65.5313,364.5469 65.5313,363.2656 L65.5313,362.1094 Q65.5313,360.7813 66.1406,359.6406 Q66.7656,358.4844 67.8594,357.875 Q68.9531,357.25 70.1875,357.25 Q70.9219,357.25 71.5625,357.4219 Q72.2188,357.5781 72.7656,357.9375 Z " fill="#000000"/><text fill="#000000" font-family="sans-serif" font-size="16" lengthAdjust="spacing" textLength="160" x="88" y="368.6094">SimpleBatteryManager</text></g><!--class DirectionManager--><g id="elem_DirectionManager"><rect codeLine="61" fill="#F1F1F1" height="38.125" id="DirectionManager" rx="2.5" ry="2.5" style="stroke:#181818;stroke-width:0.5;" width="165" x="1100.5" y="255"/><ellipse cx="1115.5" cy="274.0625" fill="#ADD1B2" rx="11" ry="11" style="stroke:#181818;stroke-width:1.0;"/><path d="M1118.2656,269.9375 Q1118.4219,269.7188 1118.6094,269.6094 Q1118.7969,269.5 1119.0156,269.5 Q1119.3906,269.5 1119.625,269.7656 Q1119.8594,270.0156 1119.8594,270.625 L1119.8594,272.0781 Q1119.8594,272.6875 1119.625,272.9531 Q1119.3906,273.2188 1119.0156,273.2188 Q1118.6719,273.2188 1118.4688,273.0156 Q1118.2656,272.8281 1118.1563,272.3125 Q1118.1094,271.9531 1117.9219,271.7656 Q1117.5938,271.3906 1116.9844,271.1719 Q1116.375,270.9531 1115.75,270.9531 Q1114.9844,270.9531 1114.3438,271.2813 Q1113.7188,271.6094 1113.2188,272.3594 Q1112.7344,273.1094 1112.7344,274.1406 L1112.7344,275.2344 Q1112.7344,276.4688 1113.625,277.2969 Q1114.5156,278.1094 1116.1094,278.1094 Q1117.0469,278.1094 1117.7031,277.8594 Q1118.0938,277.7031 1118.5156,277.2656 Q1118.7813,277 1118.9219,276.9219 Q1119.0781,276.8438 1119.2813,276.8438 Q1119.6094,276.8438 1119.8594,277.1094 Q1120.125,277.3594 1120.125,277.7031 Q1120.125,278.0469 1119.7813,278.4531 Q1119.2813,279.0313 1118.4844,279.3594 Q1117.4063,279.8125 1116.1094,279.8125 Q1114.5938,279.8125 1113.3906,279.1875 Q1112.4063,278.6875 1111.7188,277.625 Q1111.0313,276.5469 1111.0313,275.2656 L1111.0313,274.1094 Q1111.0313,272.7813 1111.6406,271.6406 Q1112.2656,270.4844 1113.3594,269.875 Q1114.4531,269.25 1115.6875,269.25 Q1116.4219,269.25 1117.0625,269.4219 Q1117.7188,269.5781 1118.2656,269.9375 Z " fill="#000000"/><text fill="#000000" font-family="sans-serif" font-size="16" lengthAdjust="spacing" textLength="125" x="1133.5" y="280.6094">DirectionManager</text></g><!--class Direction--><g id="elem_Direction"><rect codeLine="62" fill="#F1F1F1" height="38.125" id="Direction" rx="2.5" ry="2.5" style="stroke:#181818;stroke-width:0.5;" width="120" x="1123" y="343"/><ellipse cx="1145.65" cy="362.0625" fill="#ADD1B2" rx="11" ry="11" style="stroke:#181818;stroke-width:1.0;"/><path d="M1148.4156,357.9375 Q1148.5719,357.7188 1148.7594,357.6094 Q1148.9469,357.5 1149.1656,357.5 Q1149.5406,357.5 1149.775,357.7656 Q1150.0094,358.0156 1150.0094,358.625 L1150.0094,360.0781 Q1150.0094,360.6875 1149.775,360.9531 Q1149.5406,361.2188 1149.1656,361.2188 Q1148.8219,361.2188 1148.6188,361.0156 Q1148.4156,360.8281 1148.3063,360.3125 Q1148.2594,359.9531 1148.0719,359.7656 Q1147.7438,359.3906 1147.1344,359.1719 Q1146.525,358.9531 1145.9,358.9531 Q1145.1344,358.9531 1144.4938,359.2813 Q1143.8688,359.6094 1143.3688,360.3594 Q1142.8844,361.1094 1142.8844,362.1406 L1142.8844,363.2344 Q1142.8844,364.4688 1143.775,365.2969 Q1144.6656,366.1094 1146.2594,366.1094 Q1147.1969,366.1094 1147.8531,365.8594 Q1148.2438,365.7031 1148.6656,365.2656 Q1148.9313,365 1149.0719,364.9219 Q1149.2281,364.8438 1149.4313,364.8438 Q1149.7594,364.8438 1150.0094,365.1094 Q1150.275,365.3594 1150.275,365.7031 Q1150.275,366.0469 1149.9313,366.4531 Q1149.4313,367.0313 1148.6344,367.3594 Q1147.5563,367.8125 1146.2594,367.8125 Q1144.7438,367.8125 1143.5406,367.1875 Q1142.5563,366.6875 1141.8688,365.625 Q1141.1813,364.5469 1141.1813,363.2656 L1141.1813,362.1094 Q1141.1813,360.7813 1141.7906,359.6406 Q1142.4156,358.4844 1143.5094,357.875 Q1144.6031,357.25 1145.8375,357.25 Q1146.5719,357.25 1147.2125,357.4219 Q1147.8688,357.5781 1148.4156,357.9375 Z " fill="#000000"/><text fill="#000000" font-family="sans-serif" font-size="16" lengthAdjust="spacing" textLength="63" x="1165.35" y="368.6094">Direction</text></g><!--class DirectionState--><g id="elem_DirectionState"><rect codeLine="63" fill="#F1F1F1" height="38.125" id="DirectionState" rx="2.5" ry="2.5" style="stroke:#181818;stroke-width:0.5;" width="141" x="1112.5" y="478"/><ellipse cx="1127.5" cy="497.0625" fill="#B4A7E5" rx="11" ry="11" style="stroke:#181818;stroke-width:1.0;"/><path d="M1128.4531,493.7031 L1128.4531,500.3594 L1130.1719,500.3594 Q1130.7813,500.3594 1131.0469,500.5938 Q1131.3125,500.8281 1131.3125,501.2188 Q1131.3125,501.5938 1131.0469,501.8281 Q1130.7813,502.0625 1130.1719,502.0625 L1125.0313,502.0625 Q1124.4219,502.0625 1124.1563,501.8281 Q1123.8906,501.5938 1123.8906,501.2031 Q1123.8906,500.8281 1124.1563,500.5938 Q1124.4219,500.3594 1125.0313,500.3594 L1126.75,500.3594 L1126.75,493.7031 L1125.0313,493.7031 Q1124.4219,493.7031 1124.1563,493.4688 Q1123.8906,493.2344 1123.8906,492.8438 Q1123.8906,492.4688 1124.1563,492.2344 Q1124.4219,492 1125.0313,492 L1130.1719,492 Q1130.7813,492 1131.0469,492.2344 Q1131.3125,492.4688 1131.3125,492.8438 Q1131.3125,493.2344 1131.0469,493.4688 Q1130.7813,493.7031 1130.1719,493.7031 L1128.4531,493.7031 Z " fill="#000000"/><text fill="#000000" font-family="sans-serif" font-size="16" font-style="italic" lengthAdjust="spacing" textLength="101" x="1145.5" y="503.6094">DirectionState</text></g><!--class NorthDirectionState--><g id="elem_NorthDirectionState"><rect codeLine="64" fill="#F1F1F1" height="38.125" id="NorthDirectionState" rx="2.5" ry="2.5" style="stroke:#181818;stroke-width:0.5;" width="177" x="756.5" y="566"/><ellipse cx="771.5" cy="585.0625" fill="#ADD1B2" rx="11" ry="11" style="stroke:#181818;stroke-width:1.0;"/><path d="M774.2656,580.9375 Q774.4219,580.7188 774.6094,580.6094 Q774.7969,580.5 775.0156,580.5 Q775.3906,580.5 775.625,580.7656 Q775.8594,581.0156 775.8594,581.625 L775.8594,583.0781 Q775.8594,583.6875 775.625,583.9531 Q775.3906,584.2188 775.0156,584.2188 Q774.6719,584.2188 774.4688,584.0156 Q774.2656,583.8281 774.1563,583.3125 Q774.1094,582.9531 773.9219,582.7656 Q773.5938,582.3906 772.9844,582.1719 Q772.375,581.9531 771.75,581.9531 Q770.9844,581.9531 770.3438,582.2813 Q769.7188,582.6094 769.2188,583.3594 Q768.7344,584.1094 768.7344,585.1406 L768.7344,586.2344 Q768.7344,587.4688 769.625,588.2969 Q770.5156,589.1094 772.1094,589.1094 Q773.0469,589.1094 773.7031,588.8594 Q774.0938,588.7031 774.5156,588.2656 Q774.7813,588 774.9219,587.9219 Q775.0781,587.8438 775.2813,587.8438 Q775.6094,587.8438 775.8594,588.1094 Q776.125,588.3594 776.125,588.7031 Q776.125,589.0469 775.7813,589.4531 Q775.2813,590.0313 774.4844,590.3594 Q773.4063,590.8125 772.1094,590.8125 Q770.5938,590.8125 769.3906,590.1875 Q768.4063,589.6875 767.7188,588.625 Q767.0313,587.5469 767.0313,586.2656 L767.0313,585.1094 Q767.0313,583.7813 767.6406,582.6406 Q768.2656,581.4844 769.3594,580.875 Q770.4531,580.25 771.6875,580.25 Q772.4219,580.25 773.0625,580.4219 Q773.7188,580.5781 774.2656,580.9375 Z " fill="#000000"/><text fill="#000000" font-family="sans-serif" font-size="16" lengthAdjust="spacing" textLength="137" x="789.5" y="591.6094">NorthDirectionState</text></g><!--class EastDirectionState--><g id="elem_EastDirectionState"><rect codeLine="65" fill="#F1F1F1" height="38.125" id="EastDirectionState" rx="2.5" ry="2.5" style="stroke:#181818;stroke-width:0.5;" width="172" x="984" y="566"/><ellipse cx="999" cy="585.0625" fill="#ADD1B2" rx="11" ry="11" style="stroke:#181818;stroke-width:1.0;"/><path d="M1001.7656,580.9375 Q1001.9219,580.7188 1002.1094,580.6094 Q1002.2969,580.5 1002.5156,580.5 Q1002.8906,580.5 1003.125,580.7656 Q1003.3594,581.0156 1003.3594,581.625 L1003.3594,583.0781 Q1003.3594,583.6875 1003.125,583.9531 Q1002.8906,584.2188 1002.5156,584.2188 Q1002.1719,584.2188 1001.9688,584.0156 Q1001.7656,583.8281 1001.6563,583.3125 Q1001.6094,582.9531 1001.4219,582.7656 Q1001.0938,582.3906 1000.4844,582.1719 Q999.875,581.9531 999.25,581.9531 Q998.4844,581.9531 997.8438,582.2813 Q997.2188,582.6094 996.7188,583.3594 Q996.2344,584.1094 996.2344,585.1406 L996.2344,586.2344 Q996.2344,587.4688 997.125,588.2969 Q998.0156,589.1094 999.6094,589.1094 Q1000.5469,589.1094 1001.2031,588.8594 Q1001.5938,588.7031 1002.0156,588.2656 Q1002.2813,588 1002.4219,587.9219 Q1002.5781,587.8438 1002.7813,587.8438 Q1003.1094,587.8438 1003.3594,588.1094 Q1003.625,588.3594 1003.625,588.7031 Q1003.625,589.0469 1003.2813,589.4531 Q1002.7813,590.0313 1001.9844,590.3594 Q1000.9063,590.8125 999.6094,590.8125 Q998.0938,590.8125 996.8906,590.1875 Q995.9063,589.6875 995.2188,588.625 Q994.5313,587.5469 994.5313,586.2656 L994.5313,585.1094 Q994.5313,583.7813 995.1406,582.6406 Q995.7656,581.4844 996.8594,580.875 Q997.9531,580.25 999.1875,580.25 Q999.9219,580.25 1000.5625,580.4219 Q1001.2188,580.5781 1001.7656,580.9375 Z " fill="#000000"/><text fill="#000000" font-family="sans-serif" font-size="16" lengthAdjust="spacing" textLength="132" x="1017" y="591.6094">EastDirectionState</text></g><!--class SouthDirectionState--><g id="elem_SouthDirectionState"><rect codeLine="66" fill="#F1F1F1" height="38.125" id="SouthDirectionState" rx="2.5" ry="2.5" style="stroke:#181818;stroke-width:0.5;" width="180" x="1206" y="566"/><ellipse cx="1221" cy="585.0625" fill="#ADD1B2" rx="11" ry="11" style="stroke:#181818;stroke-width:1.0;"/><path d="M1223.7656,580.9375 Q1223.9219,580.7188 1224.1094,580.6094 Q1224.2969,580.5 1224.5156,580.5 Q1224.8906,580.5 1225.125,580.7656 Q1225.3594,581.0156 1225.3594,581.625 L1225.3594,583.0781 Q1225.3594,583.6875 1225.125,583.9531 Q1224.8906,584.2188 1224.5156,584.2188 Q1224.1719,584.2188 1223.9688,584.0156 Q1223.7656,583.8281 1223.6563,583.3125 Q1223.6094,582.9531 1223.4219,582.7656 Q1223.0938,582.3906 1222.4844,582.1719 Q1221.875,581.9531 1221.25,581.9531 Q1220.4844,581.9531 1219.8438,582.2813 Q1219.2188,582.6094 1218.7188,583.3594 Q1218.2344,584.1094 1218.2344,585.1406 L1218.2344,586.2344 Q1218.2344,587.4688 1219.125,588.2969 Q1220.0156,589.1094 1221.6094,589.1094 Q1222.5469,589.1094 1223.2031,588.8594 Q1223.5938,588.7031 1224.0156,588.2656 Q1224.2813,588 1224.4219,587.9219 Q1224.5781,587.8438 1224.7813,587.8438 Q1225.1094,587.8438 1225.3594,588.1094 Q1225.625,588.3594 1225.625,588.7031 Q1225.625,589.0469 1225.2813,589.4531 Q1224.7813,590.0313 1223.9844,590.3594 Q1222.9063,590.8125 1221.6094,590.8125 Q1220.0938,590.8125 1218.8906,590.1875 Q1217.9063,589.6875 1217.2188,588.625 Q1216.5313,587.5469 1216.5313,586.2656 L1216.5313,585.1094 Q1216.5313,583.7813 1217.1406,582.6406 Q1217.7656,581.4844 1218.8594,580.875 Q1219.9531,580.25 1221.1875,580.25 Q1221.9219,580.25 1222.5625,580.4219 Q1223.2188,580.5781 1223.7656,580.9375 Z " fill="#000000"/><text fill="#000000" font-family="sans-serif" font-size="16" lengthAdjust="spacing" textLength="140" x="1239" y="591.6094">SouthDirectionState</text></g><!--class WestDirectionState--><g id="elem_WestDirectionState"><rect codeLine="67" fill="#F1F1F1" height="38.125" id="WestDirectionState" rx="2.5" ry="2.5" style="stroke:#181818;stroke-width:0.5;" width="176" x="1436" y="566"/><ellipse cx="1451" cy="585.0625" fill="#ADD1B2" rx="11" ry="11" style="stroke:#181818;stroke-width:1.0;"/><path d="M1453.7656,580.9375 Q1453.9219,580.7188 1454.1094,580.6094 Q1454.2969,580.5 1454.5156,580.5 Q1454.8906,580.5 1455.125,580.7656 Q1455.3594,581.0156 1455.3594,581.625 L1455.3594,583.0781 Q1455.3594,583.6875 1455.125,583.9531 Q1454.8906,584.2188 1454.5156,584.2188 Q1454.1719,584.2188 1453.9688,584.0156 Q1453.7656,583.8281 1453.6563,583.3125 Q1453.6094,582.9531 1453.4219,582.7656 Q1453.0938,582.3906 1452.4844,582.1719 Q1451.875,581.9531 1451.25,581.9531 Q1450.4844,581.9531 1449.8438,582.2813 Q1449.2188,582.6094 1448.7188,583.3594 Q1448.2344,584.1094 1448.2344,585.1406 L1448.2344,586.2344 Q1448.2344,587.4688 1449.125,588.2969 Q1450.0156,589.1094 1451.6094,589.1094 Q1452.5469,589.1094 1453.2031,588.8594 Q1453.5938,588.7031 1454.0156,588.2656 Q1454.2813,588 1454.4219,587.9219 Q1454.5781,587.8438 1454.7813,587.8438 Q1455.1094,587.8438 1455.3594,588.1094 Q1455.625,588.3594 1455.625,588.7031 Q1455.625,589.0469 1455.2813,589.4531 Q1454.7813,590.0313 1453.9844,590.3594 Q1452.9063,590.8125 1451.6094,590.8125 Q1450.0938,590.8125 1448.8906,590.1875 Q1447.9063,589.6875 1447.2188,588.625 Q1446.5313,587.5469 1446.5313,586.2656 L1446.5313,585.1094 Q1446.5313,583.7813 1447.1406,582.6406 Q1447.7656,581.4844 1448.8594,580.875 Q1449.9531,580.25 1451.1875,580.25 Q1451.9219,580.25 1452.5625,580.4219 Q1453.2188,580.5781 1453.7656,580.9375 Z " fill="#000000"/><text fill="#000000" font-family="sans-serif" font-size="16" lengthAdjust="spacing" textLength="136" x="1469" y="591.6094">WestDirectionState</text></g><!--class StatusObserver--><g id="elem_StatusObserver"><rect codeLine="77" fill="#F1F1F1" height="38.125" id="StatusObserver" rx="2.5" ry="2.5" style="stroke:#181818;stroke-width:0.5;" width="150" x="2108" y="255"/><ellipse cx="2123" cy="274.0625" fill="#B4A7E5" rx="11" ry="11" style="stroke:#181818;stroke-width:1.0;"/><path d="M2123.9531,270.7031 L2123.9531,277.3594 L2125.6719,277.3594 Q2126.2813,277.3594 2126.5469,277.5938 Q2126.8125,277.8281 2126.8125,278.2188 Q2126.8125,278.5938 2126.5469,278.8281 Q2126.2813,279.0625 2125.6719,279.0625 L2120.5313,279.0625 Q2119.9219,279.0625 2119.6563,278.8281 Q2119.3906,278.5938 2119.3906,278.2031 Q2119.3906,277.8281 2119.6563,277.5938 Q2119.9219,277.3594 2120.5313,277.3594 L2122.25,277.3594 L2122.25,270.7031 L2120.5313,270.7031 Q2119.9219,270.7031 2119.6563,270.4688 Q2119.3906,270.2344 2119.3906,269.8438 Q2119.3906,269.4688 2119.6563,269.2344 Q2119.9219,269 2120.5313,269 L2125.6719,269 Q2126.2813,269 2126.5469,269.2344 Q2126.8125,269.4688 2126.8125,269.8438 Q2126.8125,270.2344 2126.5469,270.4688 Q2126.2813,270.7031 2125.6719,270.7031 L2123.9531,270.7031 Z " fill="#000000"/><text fill="#000000" font-family="sans-serif" font-size="16" font-style="italic" lengthAdjust="spacing" textLength="110" x="2141" y="280.6094">StatusObserver</text></g><!--class POIObserver--><g id="elem_POIObserver"><rect codeLine="78" fill="#F1F1F1" height="38.125" id="POIObserver" rx="2.5" ry="2.5" style="stroke:#181818;stroke-width:0.5;" width="130" x="2118" y="343"/><ellipse cx="2133" cy="362.0625" fill="#ADD1B2" rx="11" ry="11" style="stroke:#181818;stroke-width:1.0;"/><path d="M2135.7656,357.9375 Q2135.9219,357.7188 2136.1094,357.6094 Q2136.2969,357.5 2136.5156,357.5 Q2136.8906,357.5 2137.125,357.7656 Q2137.3594,358.0156 2137.3594,358.625 L2137.3594,360.0781 Q2137.3594,360.6875 2137.125,360.9531 Q2136.8906,361.2188 2136.5156,361.2188 Q2136.1719,361.2188 2135.9688,361.0156 Q2135.7656,360.8281 2135.6563,360.3125 Q2135.6094,359.9531 2135.4219,359.7656 Q2135.0938,359.3906 2134.4844,359.1719 Q2133.875,358.9531 2133.25,358.9531 Q2132.4844,358.9531 2131.8438,359.2813 Q2131.2188,359.6094 2130.7188,360.3594 Q2130.2344,361.1094 2130.2344,362.1406 L2130.2344,363.2344 Q2130.2344,364.4688 2131.125,365.2969 Q2132.0156,366.1094 2133.6094,366.1094 Q2134.5469,366.1094 2135.2031,365.8594 Q2135.5938,365.7031 2136.0156,365.2656 Q2136.2813,365 2136.4219,364.9219 Q2136.5781,364.8438 2136.7813,364.8438 Q2137.1094,364.8438 2137.3594,365.1094 Q2137.625,365.3594 2137.625,365.7031 Q2137.625,366.0469 2137.2813,366.4531 Q2136.7813,367.0313 2135.9844,367.3594 Q2134.9063,367.8125 2133.6094,367.8125 Q2132.0938,367.8125 2130.8906,367.1875 Q2129.9063,366.6875 2129.2188,365.625 Q2128.5313,364.5469 2128.5313,363.2656 L2128.5313,362.1094 Q2128.5313,360.7813 2129.1406,359.6406 Q2129.7656,358.4844 2130.8594,357.875 Q2131.9531,357.25 2133.1875,357.25 Q2133.9219,357.25 2134.5625,357.4219 Q2135.2188,357.5781 2135.7656,357.9375 Z " fill="#000000"/><text fill="#000000" font-family="sans-serif" font-size="16" lengthAdjust="spacing" textLength="90" x="2151" y="368.6094">POIObserver</text></g><!--class BatteryObserver--><g id="elem_BatteryObserver"><rect codeLine="79" fill="#F1F1F1" height="38.125" id="BatteryObserver" rx="2.5" ry="2.5" style="stroke:#181818;stroke-width:0.5;" width="153" x="2298.5" y="343"/><ellipse cx="2313.5" cy="362.0625" fill="#ADD1B2" rx="11" ry="11" style="stroke:#181818;stroke-width:1.0;"/><path d="M2316.2656,357.9375 Q2316.4219,357.7188 2316.6094,357.6094 Q2316.7969,357.5 2317.0156,357.5 Q2317.3906,357.5 2317.625,357.7656 Q2317.8594,358.0156 2317.8594,358.625 L2317.8594,360.0781 Q2317.8594,360.6875 2317.625,360.9531 Q2317.3906,361.2188 2317.0156,361.2188 Q2316.6719,361.2188 2316.4688,361.0156 Q2316.2656,360.8281 2316.1563,360.3125 Q2316.1094,359.9531 2315.9219,359.7656 Q2315.5938,359.3906 2314.9844,359.1719 Q2314.375,358.9531 2313.75,358.9531 Q2312.9844,358.9531 2312.3438,359.2813 Q2311.7188,359.6094 2311.2188,360.3594 Q2310.7344,361.1094 2310.7344,362.1406 L2310.7344,363.2344 Q2310.7344,364.4688 2311.625,365.2969 Q2312.5156,366.1094 2314.1094,366.1094 Q2315.0469,366.1094 2315.7031,365.8594 Q2316.0938,365.7031 2316.5156,365.2656 Q2316.7813,365 2316.9219,364.9219 Q2317.0781,364.8438 2317.2813,364.8438 Q2317.6094,364.8438 2317.8594,365.1094 Q2318.125,365.3594 2318.125,365.7031 Q2318.125,366.0469 2317.7813,366.4531 Q2317.2813,367.0313 2316.4844,367.3594 Q2315.4063,367.8125 2314.1094,367.8125 Q2312.5938,367.8125 2311.3906,367.1875 Q2310.4063,366.6875 2309.7188,365.625 Q2309.0313,364.5469 2309.0313,363.2656 L2309.0313,362.1094 Q2309.0313,360.7813 2309.6406,359.6406 Q2310.2656,358.4844 2311.3594,357.875 Q2312.4531,357.25 2313.6875,357.25 Q2314.4219,357.25 2315.0625,357.4219 Q2315.7188,357.5781 2316.2656,357.9375 Z " fill="#000000"/><text fill="#000000" font-family="sans-serif" font-size="16" lengthAdjust="spacing" textLength="113" x="2331.5" y="368.6094">BatteryObserver</text></g><!--class CoordinateObserver--><g id="elem_CoordinateObserver"><rect codeLine="80" fill="#F1F1F1" height="38.125" id="CoordinateObserver" rx="2.5" ry="2.5" style="stroke:#181818;stroke-width:0.5;" width="182" x="1668" y="343"/><ellipse cx="1683" cy="362.0625" fill="#ADD1B2" rx="11" ry="11" style="stroke:#181818;stroke-width:1.0;"/><path d="M1685.7656,357.9375 Q1685.9219,357.7188 1686.1094,357.6094 Q1686.2969,357.5 1686.5156,357.5 Q1686.8906,357.5 1687.125,357.7656 Q1687.3594,358.0156 1687.3594,358.625 L1687.3594,360.0781 Q1687.3594,360.6875 1687.125,360.9531 Q1686.8906,361.2188 1686.5156,361.2188 Q1686.1719,361.2188 1685.9688,361.0156 Q1685.7656,360.8281 1685.6563,360.3125 Q1685.6094,359.9531 1685.4219,359.7656 Q1685.0938,359.3906 1684.4844,359.1719 Q1683.875,358.9531 1683.25,358.9531 Q1682.4844,358.9531 1681.8438,359.2813 Q1681.2188,359.6094 1680.7188,360.3594 Q1680.2344,361.1094 1680.2344,362.1406 L1680.2344,363.2344 Q1680.2344,364.4688 1681.125,365.2969 Q1682.0156,366.1094 1683.6094,366.1094 Q1684.5469,366.1094 1685.2031,365.8594 Q1685.5938,365.7031 1686.0156,365.2656 Q1686.2813,365 1686.4219,364.9219 Q1686.5781,364.8438 1686.7813,364.8438 Q1687.1094,364.8438 1687.3594,365.1094 Q1687.625,365.3594 1687.625,365.7031 Q1687.625,366.0469 1687.2813,366.4531 Q1686.7813,367.0313 1685.9844,367.3594 Q1684.9063,367.8125 1683.6094,367.8125 Q1682.0938,367.8125 1680.8906,367.1875 Q1679.9063,366.6875 1679.2188,365.625 Q1678.5313,364.5469 1678.5313,363.2656 L1678.5313,362.1094 Q1678.5313,360.7813 1679.1406,359.6406 Q1679.7656,358.4844 1680.8594,357.875 Q1681.9531,357.25 1683.1875,357.25 Q1683.9219,357.25 1684.5625,357.4219 Q1685.2188,357.5781 1685.7656,357.9375 Z " fill="#000000"/><text fill="#000000" font-family="sans-serif" font-size="16" lengthAdjust="spacing" textLength="142" x="1701" y="368.6094">CoordinateObserver</text></g><!--class DirectionObserver--><g id="elem_DirectionObserver"><rect codeLine="81" fill="#F1F1F1" height="38.125" id="DirectionObserver" rx="2.5" ry="2.5" style="stroke:#181818;stroke-width:0.5;" width="167" x="1900.5" y="343"/><ellipse cx="1915.5" cy="362.0625" fill="#ADD1B2" rx="11" ry="11" style="stroke:#181818;stroke-width:1.0;"/><path d="M1918.2656,357.9375 Q1918.4219,357.7188 1918.6094,357.6094 Q1918.7969,357.5 1919.0156,357.5 Q1919.3906,357.5 1919.625,357.7656 Q1919.8594,358.0156 1919.8594,358.625 L1919.8594,360.0781 Q1919.8594,360.6875 1919.625,360.9531 Q1919.3906,361.2188 1919.0156,361.2188 Q1918.6719,361.2188 1918.4688,361.0156 Q1918.2656,360.8281 1918.1563,360.3125 Q1918.1094,359.9531 1917.9219,359.7656 Q1917.5938,359.3906 1916.9844,359.1719 Q1916.375,358.9531 1915.75,358.9531 Q1914.9844,358.9531 1914.3438,359.2813 Q1913.7188,359.6094 1913.2188,360.3594 Q1912.7344,361.1094 1912.7344,362.1406 L1912.7344,363.2344 Q1912.7344,364.4688 1913.625,365.2969 Q1914.5156,366.1094 1916.1094,366.1094 Q1917.0469,366.1094 1917.7031,365.8594 Q1918.0938,365.7031 1918.5156,365.2656 Q1918.7813,365 1918.9219,364.9219 Q1919.0781,364.8438 1919.2813,364.8438 Q1919.6094,364.8438 1919.8594,365.1094 Q1920.125,365.3594 1920.125,365.7031 Q1920.125,366.0469 1919.7813,366.4531 Q1919.2813,367.0313 1918.4844,367.3594 Q1917.4063,367.8125 1916.1094,367.8125 Q1914.5938,367.8125 1913.3906,367.1875 Q1912.4063,366.6875 1911.7188,365.625 Q1911.0313,364.5469 1911.0313,363.2656 L1911.0313,362.1094 Q1911.0313,360.7813 1911.6406,359.6406 Q1912.2656,358.4844 1913.3594,357.875 Q1914.4531,357.25 1915.6875,357.25 Q1916.4219,357.25 1917.0625,357.4219 Q1917.7188,357.5781 1918.2656,357.9375 Z " fill="#000000"/><text fill="#000000" font-family="sans-serif" font-size="16" lengthAdjust="spacing" textLength="127" x="1933.5" y="368.6094">DirectionObserver</text></g><!--link FlightManager to PreviousResult--><!--reverse link FlightManager to PreviousResult--><g id="link_FlightManager_PreviousResult"><path codeLine="92" d="M2705.13,82 C2721.31,82 2726.54,82 2742.8,82 " fill="none" id="FlightManager-backto-PreviousResult" style="stroke:#181818;stroke-width:1.0;"/><polygon fill="#181818" points="2693.13,82,2699.13,86,2705.13,82,2699.13,78,2693.13,82" style="stroke:#181818;stroke-width:1.0;"/><text fill="#000000" font-family="sans-serif" font-size="14" lengthAdjust="spacing" textLength="8" x="2705.1872" y="74.991">1</text><text fill="#000000" font-family="sans-serif" font-size="14" lengthAdjust="spacing" textLength="8" x="2722.9053" y="75.0156">1</text></g><!--reverse link CommandCenter to PreviousDecision--><g id="link_CommandCenter_PreviousDecision"><path codeLine="48" d="M602,305.09 C602,319.86 602,328.19 602,342.94 " fill="none" id="CommandCenter-backto-PreviousDecision" style="stroke:#181818;stroke-width:1.0;"/><polygon fill="#181818" points="602,293.09,598,299.09,602,305.09,606,299.09,602,293.09" style="stroke:#181818;stroke-width:1.0;"/><text fill="#000000" font-family="sans-serif" font-size="14" lengthAdjust="spacing" textLength="8" x="587.95" y="319.7802">1</text><text fill="#000000" font-family="sans-serif" font-size="14" lengthAdjust="spacing" textLength="8" x="608.15" y="328.0565">1</text></g><!--reverse link CommandCenter to FlightCommands--><g id="link_CommandCenter_FlightCommands"><path codeLine="49" d="M509.93,274 C450.24,274 391,274 391,274 C391,274 391,317.02 391,342.91 " fill="none" id="CommandCenter-backto-FlightCommands" style="stroke:#181818;stroke-width:1.0;"/><polygon fill="#181818" points="521.93,274,515.93,270,509.93,274,515.93,278,521.93,274" style="stroke:#181818;stroke-width:1.0;"/><text fill="#000000" font-family="sans-serif" font-size="14" lengthAdjust="spacing" textLength="8" x="502.0863" y="266.4415">1</text><text fill="#000000" font-family="sans-serif" font-size="14" lengthAdjust="spacing" textLength="8" x="376.85" y="328.0185">1</text></g><!--reverse link BatteryManager to SimpleBatteryManager--><g id="link_BatteryManager_SimpleBatteryManager"><path codeLine="55" d="M167,311.09 C167,325.86 167,328.19 167,342.94 " fill="none" id="BatteryManager-backto-SimpleBatteryManager" style="stroke:#181818;stroke-width:1.0;stroke-dasharray:7.0,7.0;"/><polygon fill="none" points="167,293.09,161,311.09,173,311.09,167,293.09" style="stroke:#181818;stroke-width:1.0;"/></g><!--reverse link DirectionManager to Direction--><g id="link_DirectionManager_Direction"><path codeLine="68" d="M1183,305.09 C1183,319.86 1183,328.19 1183,342.94 " fill="none" id="DirectionManager-backto-Direction" style="stroke:#181818;stroke-width:1.0;"/><polygon fill="#181818" points="1183,293.09,1179,299.09,1183,305.09,1187,299.09,1183,293.09" style="stroke:#181818;stroke-width:1.0;"/><text fill="#000000" font-family="sans-serif" font-size="14" lengthAdjust="spacing" textLength="8" x="1168.95" y="319.7802">1</text><text fill="#000000" font-family="sans-serif" font-size="14" lengthAdjust="spacing" textLength="8" x="1189.15" y="328.0565">1</text></g><!--reverse link Direction to DirectionState--><g id="link_Direction_DirectionState"><path codeLine="69" d="M1183,393.06 C1183,418.64 1183,451.85 1183,477.6 " fill="none" id="Direction-backto-DirectionState" style="stroke:#181818;stroke-width:1.0;"/><polygon fill="#181818" points="1183,381.06,1179,387.06,1183,393.06,1187,387.06,1183,381.06" style="stroke:#181818;stroke-width:1.0;"/><text fill="#000000" font-family="sans-serif" font-size="14" lengthAdjust="spacing" textLength="8" x="1168.95" y="407.7425">1</text><text fill="#000000" font-family="sans-serif" font-size="14" lengthAdjust="spacing" textLength="8" x="1168.95" y="463.0209">1</text></g><!--reverse link DirectionState to NorthDirectionState--><g id="link_DirectionState_NorthDirectionState"><path codeLine="70" d="M1094.14,497 C995.03,497 845,497 845,497 C845,497 845,540.02 845,565.91 " fill="none" id="DirectionState-backto-NorthDirectionState" style="stroke:#181818;stroke-width:1.0;stroke-dasharray:7.0,7.0;"/><polygon fill="none" points="1112.14,497,1094.14,491,1094.14,503,1112.14,497" style="stroke:#181818;stroke-width:1.0;"/></g><!--reverse link DirectionState to EastDirectionState--><g id="link_DirectionState_EastDirectionState"><path codeLine="71" d="M1134.25,534.09 C1134.25,548.86 1134.25,551.19 1134.25,565.94 " fill="none" id="DirectionState-backto-EastDirectionState" style="stroke:#181818;stroke-width:1.0;stroke-dasharray:7.0,7.0;"/><polygon fill="none" points="1134.25,516.09,1128.25,534.09,1140.25,534.09,1134.25,516.09" style="stroke:#181818;stroke-width:1.0;"/></g><!--reverse link DirectionState to SouthDirectionState--><g id="link_DirectionState_SouthDirectionState"><path codeLine="72" d="M1229.75,534.09 C1229.75,548.86 1229.75,551.19 1229.75,565.94 " fill="none" id="DirectionState-backto-SouthDirectionState" style="stroke:#181818;stroke-width:1.0;stroke-dasharray:7.0,7.0;"/><polygon fill="none" points="1229.75,516.09,1223.75,534.09,1235.75,534.09,1229.75,516.09" style="stroke:#181818;stroke-width:1.0;"/></g><!--reverse link DirectionState to WestDirectionState--><g id="link_DirectionState_WestDirectionState"><path codeLine="73" d="M1271.66,504 C1371.54,504 1524,504 1524,504 C1524,504 1524,541.85 1524,565.8 " fill="none" id="DirectionState-backto-WestDirectionState" style="stroke:#181818;stroke-width:1.0;stroke-dasharray:7.0,7.0;"/><polygon fill="none" points="1253.66,504,1271.66,510,1271.66,498,1253.66,504" style="stroke:#181818;stroke-width:1.0;"/></g><!--reverse link StatusObserver to POIObserver--><g id="link_StatusObserver_POIObserver"><path codeLine="82" d="M2183,311.09 C2183,325.86 2183,328.19 2183,342.94 " fill="none" id="StatusObserver-backto-POIObserver" style="stroke:#181818;stroke-width:1.0;"/><polygon fill="none" points="2183,293.09,2177,311.09,2189,311.09,2183,293.09" style="stroke:#181818;stroke-width:1.0;"/></g><!--reverse link StatusObserver to BatteryObserver--><g id="link_StatusObserver_BatteryObserver"><path codeLine="83" d="M2253,311.09 C2253,336.98 2253,362 2253,362 C2253,362 2273.92,362 2298.43,362 " fill="none" id="StatusObserver-backto-BatteryObserver" style="stroke:#181818;stroke-width:1.0;"/><polygon fill="none" points="2253,293.09,2247,311.09,2259,311.09,2253,293.09" style="stroke:#181818;stroke-width:1.0;"/></g><!--reverse link StatusObserver to CoordinateObserver--><g id="link_StatusObserver_CoordinateObserver"><path codeLine="84" d="M2089.69,274 C1967.85,274 1759,274 1759,274 C1759,274 1759,317.02 1759,342.91 " fill="none" id="StatusObserver-backto-CoordinateObserver" style="stroke:#181818;stroke-width:1.0;"/><polygon fill="none" points="2107.69,274,2089.69,268,2089.69,280,2107.69,274" style="stroke:#181818;stroke-width:1.0;"/></g><!--reverse link StatusObserver to DirectionObserver--><g id="link_StatusObserver_DirectionObserver"><path codeLine="85" d="M2113,311.09 C2113,336.98 2113,362 2113,362 C2113,362 2092.32,362 2067.52,362 " fill="none" id="StatusObserver-backto-DirectionObserver" style="stroke:#181818;stroke-width:1.0;"/><polygon fill="none" points="2113,293.09,2107,311.09,2119,311.09,2113,293.09" style="stroke:#181818;stroke-width:1.0;"/></g><!--reverse link FlightManager to DroneStatus--><g id="link_FlightManager_DroneStatus"><path codeLine="90" d="M2540.57,75 C2251.46,75 1183,75 1183,75 C1183,75 1183,118.02 1183,143.91 " fill="none" id="FlightManager-backto-DroneStatus" style="stroke:#181818;stroke-width:1.0;"/><polygon fill="#181818" points="2552.57,75,2546.57,71,2540.57,75,2546.57,79,2552.57,75" style="stroke:#181818;stroke-width:1.0;"/><text fill="#000000" font-family="sans-serif" font-size="14" lengthAdjust="spacing" textLength="8" x="2533.0946" y="67.3649">1</text><text fill="#000000" font-family="sans-serif" font-size="14" lengthAdjust="spacing" textLength="8" x="1168.85" y="129.0185">1</text></g><!--reverse link FlightManager to StatusObserver--><g id="link_FlightManager_StatusObserver"><path codeLine="93" d="M2619.25,106.08 C2619.25,155.89 2619.25,274 2619.25,274 C2619.25,274 2383.35,274 2258.49,274 " fill="none" id="FlightManager-backto-StatusObserver" style="stroke:#181818;stroke-width:1.0;"/><polygon fill="none" points="2619.25,94.08,2615.25,100.08,2619.25,106.08,2623.25,100.08,2619.25,94.08" style="stroke:#181818;stroke-width:1.0;"/><text fill="#000000" font-family="sans-serif" font-size="14" lengthAdjust="spacing" textLength="8" x="2604.2391" y="120.7676">1</text><text fill="#000000" font-family="sans-serif" font-size="14" lengthAdjust="spacing" textLength="5" x="2270.0485" y="266.4032">*</text></g><!--reverse link FlightManager to ExtAlgorithmManager--><g id="link_FlightManager_ExtAlgorithmManager"><path codeLine="94" d="M2690.5,106.26 C2690.5,114.82 2690.5,111 2690.5,111 C2690.5,111 3228,111 3228,111 C3228,111 3228,399.97 3228,477.86 " fill="none" id="FlightManager-backto-ExtAlgorithmManager" style="stroke:#181818;stroke-width:1.0;"/><polygon fill="#181818" points="2690.5,94.26,2686.5,100.26,2690.5,106.26,2694.5,100.26,2690.5,94.26" style="stroke:#181818;stroke-width:1.0;"/><text fill="#000000" font-family="sans-serif" font-size="14" lengthAdjust="spacing" textLength="8" x="2693.0031" y="120.5937">1</text><text fill="#000000" font-family="sans-serif" font-size="14" lengthAdjust="spacing" textLength="8" x="3213.85" y="462.955">1</text></g><!--reverse link FlightManager to ExtPOIManager--><g id="link_FlightManager_ExtPOIManager"><path codeLine="95" d="M2688,106.13 C2688,121.32 2688,128 2688,128 C2688,128 3030,128 3030,128 C3030,128 3030,402.38 3030,477.94 " fill="none" id="FlightManager-backto-ExtPOIManager" style="stroke:#181818;stroke-width:1.0;"/><polygon fill="#181818" points="2688,94.13,2684,100.13,2688,106.13,2692,100.13,2688,94.13" style="stroke:#181818;stroke-width:1.0;"/><text fill="#000000" font-family="sans-serif" font-size="14" lengthAdjust="spacing" textLength="8" x="2705.0031" y="118.3404">1</text><text fill="#000000" font-family="sans-serif" font-size="14" lengthAdjust="spacing" textLength="8" x="3015.85" y="463.0565">1</text></g><!--reverse link DroneStatus to BatteryManager--><g id="link_DroneStatus_BatteryManager"><path codeLine="97" d="M1107.44,157 C885.02,157 167,157 167,157 C167,157 167,221.79 167,254.94 " fill="none" id="DroneStatus-backto-BatteryManager" style="stroke:#181818;stroke-width:1.0;"/><polygon fill="#181818" points="1119.44,157,1113.44,153,1107.44,157,1113.44,161,1119.44,157" style="stroke:#181818;stroke-width:1.0;"/><text fill="#000000" font-family="sans-serif" font-size="14" lengthAdjust="spacing" textLength="8" x="1099.6131" y="148.5363">1</text><text fill="#000000" font-family="sans-serif" font-size="14" lengthAdjust="spacing" textLength="8" x="152.85" y="240.0565">1</text></g><!--reverse link DroneStatus to ExtCoordinateManager--><g id="link_DroneStatus_ExtCoordinateManager"><path codeLine="98" d="M1258.92,163 C1551.81,163 2739.5,163 2739.5,163 C2739.5,163 2739.5,406.32 2739.5,477.6 " fill="none" id="DroneStatus-backto-ExtCoordinateManager" style="stroke:#181818;stroke-width:1.0;"/><polygon fill="#181818" points="1246.92,163,1252.92,167,1258.92,163,1252.92,159,1246.92,163" style="stroke:#181818;stroke-width:1.0;"/><text fill="#000000" font-family="sans-serif" font-size="14" lengthAdjust="spacing" textLength="8" x="1258.3368" y="155.2691">1</text><text fill="#000000" font-family="sans-serif" font-size="14" lengthAdjust="spacing" textLength="8" x="2715.9828" y="467.2749">1</text></g><!--reverse link DroneStatus to DirectionManager--><g id="link_DroneStatus_DirectionManager"><path codeLine="99" d="M1183,194.08 C1183,214.41 1183,234.42 1183,254.8 " fill="none" id="DroneStatus-backto-DirectionManager" style="stroke:#181818;stroke-width:1.0;"/><polygon fill="#181818" points="1183,182.08,1179,188.08,1183,194.08,1187,188.08,1183,182.08" style="stroke:#181818;stroke-width:1.0;"/><text fill="#000000" font-family="sans-serif" font-size="14" lengthAdjust="spacing" textLength="8" x="1168.95" y="208.7676">1</text><text fill="#000000" font-family="sans-serif" font-size="14" lengthAdjust="spacing" textLength="8" x="1168.85" y="239.8789">1</text></g><!--link CommandCenter to DroneStatus--><g id="link_CommandCenter_DroneStatus"><path codeLine="100" d="M602,254.92 C602,224.9 602,170 602,170 C602,170 956.68,170 1107.44,170 " fill="none" id="CommandCenter-to-DroneStatus" style="stroke:#181818;stroke-width:1.0;"/><polygon fill="#181818" points="1119.44,170,1113.44,166,1107.44,170,1113.44,174,1119.44,170" style="stroke:#181818;stroke-width:1.0;"/><text fill="#000000" font-family="sans-serif" font-size="14" lengthAdjust="spacing" textLength="8" x="587.85" y="240.0312">1</text><text fill="#000000" font-family="sans-serif" font-size="14" lengthAdjust="spacing" textLength="8" x="1099.6131" y="190.6925">1</text></g><!--link CoordinateObserver to ExtCoordinateUtilities--><g id="link_CoordinateObserver_ExtCoordinateUtilities"><path codeLine="102" d="M1759,381.03 C1759,416.92 1759,491 1759,491 C1759,491 2296.89,491 2510.41,491 " fill="none" id="CoordinateObserver-to-ExtCoordinateUtilities" style="stroke:#181818;stroke-width:1.0;stroke-dasharray:7.0,7.0;"/><polygon fill="#181818" points="2516.41,491,2507.41,487,2511.41,491,2507.41,495,2516.41,491" style="stroke:#181818;stroke-width:1.0;"/><text fill="#000000" font-family="sans-serif" font-size="14" lengthAdjust="spacing" textLength="8" x="1744.95" y="407.7048">1</text><text fill="#000000" font-family="sans-serif" font-size="14" lengthAdjust="spacing" textLength="8" x="2496.453" y="482.9642">1</text></g><!--SRC=[bLPBRnen4BxlhnXj3aYHGg5ggnogI1GIAOSyL5hbK5MLsHrO5w-DR9E6jlptZlV5UjSG5Q55pFVDU-pPZAS8c6_i3dBC5wXDbBL5DbEf9rfo52GnQoutJBCS19TeTni4fOdS0gHAqU06tezQGitakYVSi3JbSWNlF5coPYjyhA1ncv_Yacs5_O8lTYBuIkOeBIJqGDstCBSxWQ0niKok14RH06vbef4PX4GmOzvmfxXa2S92lO3Xlz40aoaibRGjUpcNKyT_ugdDOFos7L5Xw8RuSzA6yOSkTCzo3CDLb0VmqYkXRI7jyaoqLh_2aA5iKBcMX77BhJX0b4Pa4aObojaBN8v6a25VPJQoQWDMKKciLLHoxYh8bOoYAcA8Kwqanl0d0XZ079rrYt0ZdFeTayJHHHqVDJvpjJMVqL3NOAd9diqG31K5OgjMD6MeOrW8bQp9M54ntquZdJcVSylirf2iyFoe37UHTVsGX5i3wfTij7r6RM2Ifa0JdgAaCH7CsJ8PBx9VAarZaIkDL0534vGWgVWfNdmhbRzh9xsu2dffYaOpYreo4SFPTV4fwbS764_4Icbkixoo7WCpSEtct9UtTHuVRZliWwJDcogbwJ1Haphq7X3M-cgve4gZwUir46dkouphlbRvDGL8L9xJL92HizdevcOsgWYrmsc9JylZt4RAibUuyQ2wv3DCk75JMeAUBOZ7CPnVN1I__wqGSBulddvs2sP9SrSavz9haZjSCfzAIhlKTHfpdcy41Wc-43x-7GwFq_Uljw4vq1IgwqAl3xEQ40gq0NlPDOWxfEWftRiDSGA_PiQUWETgUrBz2O-eTpFn-jhDfFaVPWNj5iAo9STp3B6FPXmY7yy_n3vIZT3C5lVu3xKmg9_f1Q0O2EzW7hfRthmF5TK_WW-tGNarda7iS844uIR-3kf7GVbIb_hkGwnmC27cqT12v72WhLCuW3l6_VL2xnZfpoqjQ_UYeO6KBASz38BjgD6zBLDEOqhRh9f8Rn4EO9hHwmqMUxMxn3Bs_DeE2rsDpVhgKrKTo7dS7udZbiDxx2JVssJqRQNTAqdl8koJonLT6m_jlLCE0bTYdovmMNdeRh880bDLC8V3gtvCXvsw_mS0]--></g></svg>