<?xml version="1.0" encoding="us-ascii" standalone="no"?><svg xmlns="http://www.w3.org/2000/svg" xmlns:xlink="http://www.w3.org/1999/xlink" contentStyleType="text/css" height="771px" preserveAspectRatio="none" style="width:1897px;height:771px;background:#FFFFFF;" version="1.1" viewBox="0 0 1897 771" width="1897px" zoomAndPan="magnify"><defs/><g><!--cluster map--><g id="cluster_map"><path d="M8.5,6 L50.5,6 A3.75,3.75 0 0 1 53,8.5 L60,40.125 L1887.5,40.125 A2.5,2.5 0 0 1 1890,42.625 L1890,761.5 A2.5,2.5 0 0 1 1887.5,764 L8.5,764 A2.5,2.5 0 0 1 6,761.5 L6,8.5 A2.5,2.5 0 0 1 8.5,6 " fill="none" style="stroke:#000000;stroke-width:1.5;"/><line style="stroke:#000000;stroke-width:1.5;" x1="6" x2="60" y1="40.125" y2="40.125"/><text fill="#000000" font-family="sans-serif" font-size="16" font-weight="bold" lengthAdjust="spacing" textLength="33" x="14" y="28.6094">map</text></g><!--cluster coordinates--><g id="cluster_coordinates"><path d="M1084.5,329 L1184.5,329 A3.75,3.75 0 0 1 1187,331.5 L1194,363.125 L1863.5,363.125 A2.5,2.5 0 0 1 1866,365.625 L1866,737.5 A2.5,2.5 0 0 1 1863.5,740 L1084.5,740 A2.5,2.5 0 0 1 1082,737.5 L1082,331.5 A2.5,2.5 0 0 1 1084.5,329 " fill="none" style="stroke:#000000;stroke-width:1.5;"/><line style="stroke:#000000;stroke-width:1.5;" x1="1082" x2="1194" y1="363.125" y2="363.125"/><text fill="#000000" font-family="sans-serif" font-size="16" font-weight="bold" lengthAdjust="spacing" textLength="91" x="1090" y="351.6094">coordinates</text></g><!--cluster interest_points--><g id="cluster_interest_points"><path d="M32.5,61 L155.5,61 A3.75,3.75 0 0 1 158,63.5 L165,95.125 L1055.5,95.125 A2.5,2.5 0 0 1 1058,97.625 L1058,530.5 A2.5,2.5 0 0 1 1055.5,533 L32.5,533 A2.5,2.5 0 0 1 30,530.5 L30,63.5 A2.5,2.5 0 0 1 32.5,61 " fill="none" style="stroke:#000000;stroke-width:1.5;"/><line style="stroke:#000000;stroke-width:1.5;" x1="30" x2="165" y1="95.125" y2="95.125"/><text fill="#000000" font-family="sans-serif" font-size="16" font-weight="bold" lengthAdjust="spacing" textLength="114" x="38" y="83.6094">interest_points</text></g><!--class CoordinateManager--><g id="elem_CoordinateManager"><rect codeLine="23" fill="#F1F1F1" height="154.0469" id="CoordinateManager" rx="2.5" ry="2.5" style="stroke:#181818;stroke-width:0.5;" width="389" x="1243.5" y="376"/><ellipse cx="1366.75" cy="393.8047" fill="#ADD1B2" rx="11" ry="11" style="stroke:#181818;stroke-width:1.0;"/><path d="M1369.5156,389.6797 Q1369.6719,389.4609 1369.8594,389.3516 Q1370.0469,389.2422 1370.2656,389.2422 Q1370.6406,389.2422 1370.875,389.5078 Q1371.1094,389.7578 1371.1094,390.3672 L1371.1094,391.8203 Q1371.1094,392.4297 1370.875,392.6953 Q1370.6406,392.9609 1370.2656,392.9609 Q1369.9219,392.9609 1369.7188,392.7578 Q1369.5156,392.5703 1369.4063,392.0547 Q1369.3594,391.6953 1369.1719,391.5078 Q1368.8438,391.1328 1368.2344,390.9141 Q1367.625,390.6953 1367,390.6953 Q1366.2344,390.6953 1365.5938,391.0234 Q1364.9688,391.3516 1364.4688,392.1016 Q1363.9844,392.8516 1363.9844,393.8828 L1363.9844,394.9766 Q1363.9844,396.2109 1364.875,397.0391 Q1365.7656,397.8516 1367.3594,397.8516 Q1368.2969,397.8516 1368.9531,397.6016 Q1369.3438,397.4453 1369.7656,397.0078 Q1370.0313,396.7422 1370.1719,396.6641 Q1370.3281,396.5859 1370.5313,396.5859 Q1370.8594,396.5859 1371.1094,396.8516 Q1371.375,397.1016 1371.375,397.4453 Q1371.375,397.7891 1371.0313,398.1953 Q1370.5313,398.7734 1369.7344,399.1016 Q1368.6563,399.5547 1367.3594,399.5547 Q1365.8438,399.5547 1364.6406,398.9297 Q1363.6563,398.4297 1362.9688,397.3672 Q1362.2813,396.2891 1362.2813,395.0078 L1362.2813,393.8516 Q1362.2813,392.5234 1362.8906,391.3828 Q1363.5156,390.2266 1364.6094,389.6172 Q1365.7031,388.9922 1366.9375,388.9922 Q1367.6719,388.9922 1368.3125,389.1641 Q1368.9688,389.3203 1369.5156,389.6797 Z " fill="#000000"/><text fill="#000000" font-family="sans-serif" font-size="14" lengthAdjust="spacing" textLength="126" x="1391.25" y="399.5332">CoordinateManager</text><line style="stroke:#181818;stroke-width:0.5;" x1="1244.5" x2="1631.5" y1="411.6094" y2="411.6094"/><rect fill="none" height="6" style="stroke:#C82930;stroke-width:1.0;" width="6" x="1251.5" y="426.9141"/><text fill="#000000" font-family="sans-serif" font-size="14" lengthAdjust="spacing" textLength="165" x="1267.5" y="434.1426">Coordinate currentCoords</text><line style="stroke:#181818;stroke-width:0.5;" x1="1244.5" x2="1631.5" y1="445.2188" y2="445.2188"/><ellipse cx="1254.5" cy="463.5234" fill="#84BE84" rx="3" ry="3" style="stroke:#038048;stroke-width:1.0;"/><text fill="#000000" font-family="sans-serif" font-size="14" lengthAdjust="spacing" textLength="355" x="1267.5" y="467.752">adjustCoords(DirectionManager, CommandCenter): void</text><rect fill="#F24D5C" height="6" style="stroke:#C82930;stroke-width:1.0;" width="6" x="1251.5" y="486.1328"/><text fill="#000000" font-family="sans-serif" font-size="14" lengthAdjust="spacing" textLength="160" x="1267.5" y="493.3613">getCoordinateX(): Integer</text><rect fill="#F24D5C" height="6" style="stroke:#C82930;stroke-width:1.0;" width="6" x="1251.5" y="511.7422"/><text fill="#000000" font-family="sans-serif" font-size="14" lengthAdjust="spacing" textLength="161" x="1267.5" y="518.9707">getCoordinateY(): Integer</text></g><!--class Coordinate--><g id="elem_Coordinate"><rect codeLine="30" fill="#F1F1F1" height="102.8281" id="Coordinate" rx="2.5" ry="2.5" style="stroke:#181818;stroke-width:0.5;" width="150" x="1098" y="595.5"/><ellipse cx="1131" cy="613.3047" fill="#ADD1B2" rx="11" ry="11" style="stroke:#181818;stroke-width:1.0;"/><path d="M1133.7656,609.1797 Q1133.9219,608.9609 1134.1094,608.8516 Q1134.2969,608.7422 1134.5156,608.7422 Q1134.8906,608.7422 1135.125,609.0078 Q1135.3594,609.2578 1135.3594,609.8672 L1135.3594,611.3203 Q1135.3594,611.9297 1135.125,612.1953 Q1134.8906,612.4609 1134.5156,612.4609 Q1134.1719,612.4609 1133.9688,612.2578 Q1133.7656,612.0703 1133.6563,611.5547 Q1133.6094,611.1953 1133.4219,611.0078 Q1133.0938,610.6328 1132.4844,610.4141 Q1131.875,610.1953 1131.25,610.1953 Q1130.4844,610.1953 1129.8438,610.5234 Q1129.2188,610.8516 1128.7188,611.6016 Q1128.2344,612.3516 1128.2344,613.3828 L1128.2344,614.4766 Q1128.2344,615.7109 1129.125,616.5391 Q1130.0156,617.3516 1131.6094,617.3516 Q1132.5469,617.3516 1133.2031,617.1016 Q1133.5938,616.9453 1134.0156,616.5078 Q1134.2813,616.2422 1134.4219,616.1641 Q1134.5781,616.0859 1134.7813,616.0859 Q1135.1094,616.0859 1135.3594,616.3516 Q1135.625,616.6016 1135.625,616.9453 Q1135.625,617.2891 1135.2813,617.6953 Q1134.7813,618.2734 1133.9844,618.6016 Q1132.9063,619.0547 1131.6094,619.0547 Q1130.0938,619.0547 1128.8906,618.4297 Q1127.9063,617.9297 1127.2188,616.8672 Q1126.5313,615.7891 1126.5313,614.5078 L1126.5313,613.3516 Q1126.5313,612.0234 1127.1406,610.8828 Q1127.7656,609.7266 1128.8594,609.1172 Q1129.9531,608.4922 1131.1875,608.4922 Q1131.9219,608.4922 1132.5625,608.6641 Q1133.2188,608.8203 1133.7656,609.1797 Z " fill="#000000"/><text fill="#000000" font-family="sans-serif" font-size="14" lengthAdjust="spacing" textLength="70" x="1153" y="619.0332">Coordinate</text><line style="stroke:#181818;stroke-width:0.5;" x1="1099" x2="1247" y1="631.1094" y2="631.1094"/><rect fill="none" height="6" style="stroke:#C82930;stroke-width:1.0;" width="6" x="1106" y="646.4141"/><text fill="#000000" font-family="sans-serif" font-size="14" lengthAdjust="spacing" textLength="92" x="1122" y="653.6426">Integer[] coord</text><line style="stroke:#181818;stroke-width:0.5;" x1="1099" x2="1247" y1="664.7188" y2="664.7188"/><ellipse cx="1109" cy="683.0234" fill="#84BE84" rx="3" ry="3" style="stroke:#038048;stroke-width:1.0;"/><text fill="#000000" font-family="sans-serif" font-size="14" lengthAdjust="spacing" textLength="114" x="1122" y="687.252">printCord(): String</text></g><!--class CoordinateUtilities--><g id="elem_CoordinateUtilities"><rect codeLine="35" fill="#F1F1F1" height="154.0469" id="CoordinateUtilities" rx="2.5" ry="2.5" style="stroke:#181818;stroke-width:0.5;" width="531" x="1318.5" y="570"/><ellipse cx="1518.75" cy="587.8047" fill="#ADD1B2" rx="11" ry="11" style="stroke:#181818;stroke-width:1.0;"/><path d="M1521.5156,583.6797 Q1521.6719,583.4609 1521.8594,583.3516 Q1522.0469,583.2422 1522.2656,583.2422 Q1522.6406,583.2422 1522.875,583.5078 Q1523.1094,583.7578 1523.1094,584.3672 L1523.1094,585.8203 Q1523.1094,586.4297 1522.875,586.6953 Q1522.6406,586.9609 1522.2656,586.9609 Q1521.9219,586.9609 1521.7188,586.7578 Q1521.5156,586.5703 1521.4063,586.0547 Q1521.3594,585.6953 1521.1719,585.5078 Q1520.8438,585.1328 1520.2344,584.9141 Q1519.625,584.6953 1519,584.6953 Q1518.2344,584.6953 1517.5938,585.0234 Q1516.9688,585.3516 1516.4688,586.1016 Q1515.9844,586.8516 1515.9844,587.8828 L1515.9844,588.9766 Q1515.9844,590.2109 1516.875,591.0391 Q1517.7656,591.8516 1519.3594,591.8516 Q1520.2969,591.8516 1520.9531,591.6016 Q1521.3438,591.4453 1521.7656,591.0078 Q1522.0313,590.7422 1522.1719,590.6641 Q1522.3281,590.5859 1522.5313,590.5859 Q1522.8594,590.5859 1523.1094,590.8516 Q1523.375,591.1016 1523.375,591.4453 Q1523.375,591.7891 1523.0313,592.1953 Q1522.5313,592.7734 1521.7344,593.1016 Q1520.6563,593.5547 1519.3594,593.5547 Q1517.8438,593.5547 1516.6406,592.9297 Q1515.6563,592.4297 1514.9688,591.3672 Q1514.2813,590.2891 1514.2813,589.0078 L1514.2813,587.8516 Q1514.2813,586.5234 1514.8906,585.3828 Q1515.5156,584.2266 1516.6094,583.6172 Q1517.7031,582.9922 1518.9375,582.9922 Q1519.6719,582.9922 1520.3125,583.1641 Q1520.9688,583.3203 1521.5156,583.6797 Z " fill="#000000"/><text fill="#000000" font-family="sans-serif" font-size="14" lengthAdjust="spacing" textLength="114" x="1543.25" y="593.5332">CoordinateUtilities</text><line style="stroke:#181818;stroke-width:0.5;" x1="1319.5" x2="1848.5" y1="605.6094" y2="605.6094"/><line style="stroke:#181818;stroke-width:0.5;" x1="1319.5" x2="1848.5" y1="613.6094" y2="613.6094"/><ellipse cx="1329.5" cy="631.9141" fill="#84BE84" rx="3" ry="3" style="stroke:#038048;stroke-width:1.0;"/><text fill="#000000" font-family="sans-serif" font-size="14" lengthAdjust="spacing" text-decoration="underline" textLength="497" x="1342.5" y="636.1426">makeAdjustment(DirectionManager, CommandCenter, Coordinate): Coordinate</text><ellipse cx="1329.5" cy="657.5234" fill="#84BE84" rx="3" ry="3" style="stroke:#038048;stroke-width:1.0;"/><text fill="#000000" font-family="sans-serif" font-size="14" lengthAdjust="spacing" text-decoration="underline" textLength="386" x="1342.5" y="661.752">getShiftedCoordinates(Coordinate, Direction, int): Coordinate</text><rect fill="#F24D5C" height="6" style="stroke:#C82930;stroke-width:1.0;" width="6" x="1326.5" y="680.1328"/><text fill="#000000" font-family="sans-serif" font-size="14" lengthAdjust="spacing" text-decoration="underline" textLength="331" x="1342.5" y="687.3613">flyAdjust(DirectionManager, Coordinate): Coordinate</text><rect fill="#F24D5C" height="6" style="stroke:#C82930;stroke-width:1.0;" width="6" x="1326.5" y="705.7422"/><text fill="#000000" font-family="sans-serif" font-size="14" lengthAdjust="spacing" text-decoration="underline" textLength="483" x="1342.5" y="712.9707">headingAdjust(DirectionManager, CommandCenter, Coordinate): Coordinate</text></g><!--class POIManager--><g id="elem_POIManager"><rect codeLine="47" fill="#F1F1F1" height="179.6563" id="POIManager" rx="2.5" ry="2.5" style="stroke:#181818;stroke-width:0.5;" width="389" x="46.5" y="120.5"/><ellipse cx="193.25" cy="138.3047" fill="#ADD1B2" rx="11" ry="11" style="stroke:#181818;stroke-width:1.0;"/><path d="M196.0156,134.1797 Q196.1719,133.9609 196.3594,133.8516 Q196.5469,133.7422 196.7656,133.7422 Q197.1406,133.7422 197.375,134.0078 Q197.6094,134.2578 197.6094,134.8672 L197.6094,136.3203 Q197.6094,136.9297 197.375,137.1953 Q197.1406,137.4609 196.7656,137.4609 Q196.4219,137.4609 196.2188,137.2578 Q196.0156,137.0703 195.9063,136.5547 Q195.8594,136.1953 195.6719,136.0078 Q195.3438,135.6328 194.7344,135.4141 Q194.125,135.1953 193.5,135.1953 Q192.7344,135.1953 192.0938,135.5234 Q191.4688,135.8516 190.9688,136.6016 Q190.4844,137.3516 190.4844,138.3828 L190.4844,139.4766 Q190.4844,140.7109 191.375,141.5391 Q192.2656,142.3516 193.8594,142.3516 Q194.7969,142.3516 195.4531,142.1016 Q195.8438,141.9453 196.2656,141.5078 Q196.5313,141.2422 196.6719,141.1641 Q196.8281,141.0859 197.0313,141.0859 Q197.3594,141.0859 197.6094,141.3516 Q197.875,141.6016 197.875,141.9453 Q197.875,142.2891 197.5313,142.6953 Q197.0313,143.2734 196.2344,143.6016 Q195.1563,144.0547 193.8594,144.0547 Q192.3438,144.0547 191.1406,143.4297 Q190.1563,142.9297 189.4688,141.8672 Q188.7813,140.7891 188.7813,139.5078 L188.7813,138.3516 Q188.7813,137.0234 189.3906,135.8828 Q190.0156,134.7266 191.1094,134.1172 Q192.2031,133.4922 193.4375,133.4922 Q194.1719,133.4922 194.8125,133.6641 Q195.4688,133.8203 196.0156,134.1797 Z " fill="#000000"/><text fill="#000000" font-family="sans-serif" font-size="14" lengthAdjust="spacing" textLength="79" x="217.75" y="144.0332">POIManager</text><line style="stroke:#181818;stroke-width:0.5;" x1="47.5" x2="434.5" y1="156.1094" y2="156.1094"/><rect fill="none" height="6" style="stroke:#C82930;stroke-width:1.0;" width="6" x="54.5" y="171.4141"/><text fill="#000000" font-family="sans-serif" font-size="14" lengthAdjust="spacing" textLength="156" x="70.5" y="178.6426">ArrayList&lt;Creek&gt; creeks</text><rect fill="none" height="6" style="stroke:#C82930;stroke-width:1.0;" width="6" x="54.5" y="197.0234"/><text fill="#000000" font-family="sans-serif" font-size="14" lengthAdjust="spacing" textLength="50" x="70.5" y="204.252">Site site</text><line style="stroke:#181818;stroke-width:0.5;" x1="47.5" x2="434.5" y1="215.3281" y2="215.3281"/><ellipse cx="57.5" cy="233.6328" fill="#84BE84" rx="3" ry="3" style="stroke:#038048;stroke-width:1.0;"/><text fill="#000000" font-family="sans-serif" font-size="14" lengthAdjust="spacing" textLength="355" x="70.5" y="237.8613">adjustCoords(DirectionManager, CommandCenter): void</text><rect fill="#F24D5C" height="6" style="stroke:#C82930;stroke-width:1.0;" width="6" x="54.5" y="256.2422"/><text fill="#000000" font-family="sans-serif" font-size="14" lengthAdjust="spacing" textLength="160" x="70.5" y="263.4707">getCoordinateX(): Integer</text><rect fill="#F24D5C" height="6" style="stroke:#C82930;stroke-width:1.0;" width="6" x="54.5" y="281.8516"/><text fill="#000000" font-family="sans-serif" font-size="14" lengthAdjust="spacing" textLength="161" x="70.5" y="289.0801">getCoordinateY(): Integer</text></g><!--class IslandEdgeManager--><g id="elem_IslandEdgeManager"><rect codeLine="55" fill="#F1F1F1" height="205.2656" id="IslandEdgeManager" rx="2.5" ry="2.5" style="stroke:#181818;stroke-width:0.5;" width="536" x="506" y="108"/><ellipse cx="702.75" cy="125.8047" fill="#ADD1B2" rx="11" ry="11" style="stroke:#181818;stroke-width:1.0;"/><path d="M705.5156,121.6797 Q705.6719,121.4609 705.8594,121.3516 Q706.0469,121.2422 706.2656,121.2422 Q706.6406,121.2422 706.875,121.5078 Q707.1094,121.7578 707.1094,122.3672 L707.1094,123.8203 Q707.1094,124.4297 706.875,124.6953 Q706.6406,124.9609 706.2656,124.9609 Q705.9219,124.9609 705.7188,124.7578 Q705.5156,124.5703 705.4063,124.0547 Q705.3594,123.6953 705.1719,123.5078 Q704.8438,123.1328 704.2344,122.9141 Q703.625,122.6953 703,122.6953 Q702.2344,122.6953 701.5938,123.0234 Q700.9688,123.3516 700.4688,124.1016 Q699.9844,124.8516 699.9844,125.8828 L699.9844,126.9766 Q699.9844,128.2109 700.875,129.0391 Q701.7656,129.8516 703.3594,129.8516 Q704.2969,129.8516 704.9531,129.6016 Q705.3438,129.4453 705.7656,129.0078 Q706.0313,128.7422 706.1719,128.6641 Q706.3281,128.5859 706.5313,128.5859 Q706.8594,128.5859 707.1094,128.8516 Q707.375,129.1016 707.375,129.4453 Q707.375,129.7891 707.0313,130.1953 Q706.5313,130.7734 705.7344,131.1016 Q704.6563,131.5547 703.3594,131.5547 Q701.8438,131.5547 700.6406,130.9297 Q699.6563,130.4297 698.9688,129.3672 Q698.2813,128.2891 698.2813,127.0078 L698.2813,125.8516 Q698.2813,124.5234 698.8906,123.3828 Q699.5156,122.2266 700.6094,121.6172 Q701.7031,120.9922 702.9375,120.9922 Q703.6719,120.9922 704.3125,121.1641 Q704.9688,121.3203 705.5156,121.6797 Z " fill="#000000"/><text fill="#000000" font-family="sans-serif" font-size="14" lengthAdjust="spacing" textLength="126" x="727.25" y="131.5332">IslandEdgeManager</text><line style="stroke:#181818;stroke-width:0.5;" x1="507" x2="1041" y1="143.6094" y2="143.6094"/><rect fill="none" height="6" style="stroke:#C82930;stroke-width:1.0;" width="6" x="514" y="158.9141"/><text fill="#000000" font-family="sans-serif" font-size="14" lengthAdjust="spacing" textLength="201" x="530" y="166.1426">Map&lt;String, Coordinate&gt; edges</text><line style="stroke:#181818;stroke-width:0.5;" x1="507" x2="1041" y1="177.2188" y2="177.2188"/><ellipse cx="517" cy="195.5234" fill="#84BE84" rx="3" ry="3" style="stroke:#038048;stroke-width:1.0;"/><text fill="#000000" font-family="sans-serif" font-size="14" lengthAdjust="spacing" textLength="177" x="530" y="199.752">numberOfEdgesFound(): int</text><ellipse cx="517" cy="221.1328" fill="#84BE84" rx="3" ry="3" style="stroke:#038048;stroke-width:1.0;"/><text fill="#000000" font-family="sans-serif" font-size="14" lengthAdjust="spacing" textLength="427" x="530" y="225.3613">addEdge(DirectionManager direction, Coordinate coordinates): void</text><ellipse cx="517" cy="246.7422" fill="#84BE84" rx="3" ry="3" style="stroke:#038048;stroke-width:1.0;"/><text fill="#000000" font-family="sans-serif" font-size="14" lengthAdjust="spacing" textLength="114" x="530" y="250.9707">labelEdges(): void</text><ellipse cx="517" cy="272.3516" fill="#84BE84" rx="3" ry="3" style="stroke:#038048;stroke-width:1.0;"/><text fill="#000000" font-family="sans-serif" font-size="14" lengthAdjust="spacing" textLength="233" x="530" y="276.5801">hasEdge(String edgeLabel): boolean</text><ellipse cx="517" cy="297.9609" fill="#84BE84" rx="3" ry="3" style="stroke:#038048;stroke-width:1.0;"/><text fill="#000000" font-family="sans-serif" font-size="14" lengthAdjust="spacing" textLength="502" x="530" y="302.1895">atEdge(String directionChar, Coordinate currCoord, String edgeLabel): boolean</text></g><!--class Creek--><g id="elem_Creek"><rect codeLine="64" fill="#F1F1F1" height="128.4375" id="Creek" rx="2.5" ry="2.5" style="stroke:#181818;stroke-width:0.5;" width="358" x="139" y="389"/><ellipse cx="290.75" cy="406.8047" fill="#ADD1B2" rx="11" ry="11" style="stroke:#181818;stroke-width:1.0;"/><path d="M293.5156,402.6797 Q293.6719,402.4609 293.8594,402.3516 Q294.0469,402.2422 294.2656,402.2422 Q294.6406,402.2422 294.875,402.5078 Q295.1094,402.7578 295.1094,403.3672 L295.1094,404.8203 Q295.1094,405.4297 294.875,405.6953 Q294.6406,405.9609 294.2656,405.9609 Q293.9219,405.9609 293.7188,405.7578 Q293.5156,405.5703 293.4063,405.0547 Q293.3594,404.6953 293.1719,404.5078 Q292.8438,404.1328 292.2344,403.9141 Q291.625,403.6953 291,403.6953 Q290.2344,403.6953 289.5938,404.0234 Q288.9688,404.3516 288.4688,405.1016 Q287.9844,405.8516 287.9844,406.8828 L287.9844,407.9766 Q287.9844,409.2109 288.875,410.0391 Q289.7656,410.8516 291.3594,410.8516 Q292.2969,410.8516 292.9531,410.6016 Q293.3438,410.4453 293.7656,410.0078 Q294.0313,409.7422 294.1719,409.6641 Q294.3281,409.5859 294.5313,409.5859 Q294.8594,409.5859 295.1094,409.8516 Q295.375,410.1016 295.375,410.4453 Q295.375,410.7891 295.0313,411.1953 Q294.5313,411.7734 293.7344,412.1016 Q292.6563,412.5547 291.3594,412.5547 Q289.8438,412.5547 288.6406,411.9297 Q287.6563,411.4297 286.9688,410.3672 Q286.2813,409.2891 286.2813,408.0078 L286.2813,406.8516 Q286.2813,405.5234 286.8906,404.3828 Q287.5156,403.2266 288.6094,402.6172 Q289.7031,401.9922 290.9375,401.9922 Q291.6719,401.9922 292.3125,402.1641 Q292.9688,402.3203 293.5156,402.6797 Z " fill="#000000"/><text fill="#000000" font-family="sans-serif" font-size="14" lengthAdjust="spacing" textLength="38" x="315.25" y="412.5332">Creek</text><line style="stroke:#181818;stroke-width:0.5;" x1="140" x2="496" y1="424.6094" y2="424.6094"/><rect fill="none" height="6" style="stroke:#C82930;stroke-width:1.0;" width="6" x="147" y="439.9141"/><text fill="#000000" font-family="sans-serif" font-size="14" lengthAdjust="spacing" textLength="179" x="163" y="447.1426">Coordinate creekCoordinate</text><rect fill="none" height="6" style="stroke:#C82930;stroke-width:1.0;" width="6" x="147" y="465.5234"/><text fill="#000000" font-family="sans-serif" font-size="14" lengthAdjust="spacing" textLength="89" x="163" y="472.752">String creekID</text><line style="stroke:#181818;stroke-width:0.5;" x1="140" x2="496" y1="483.8281" y2="483.8281"/><ellipse cx="150" cy="502.1328" fill="#84BE84" rx="3" ry="3" style="stroke:#038048;stroke-width:1.0;"/><text fill="#000000" font-family="sans-serif" font-size="14" lengthAdjust="spacing" textLength="324" x="163" y="506.3613">Creek(Coordinate creekCoordinate, String creekID)</text></g><!--class Site--><g id="elem_Site"><rect codeLine="70" fill="#F1F1F1" height="128.4375" id="Site" rx="2.5" ry="2.5" style="stroke:#181818;stroke-width:0.5;" width="318" x="605" y="389"/><ellipse cx="743.75" cy="406.8047" fill="#ADD1B2" rx="11" ry="11" style="stroke:#181818;stroke-width:1.0;"/><path d="M746.5156,402.6797 Q746.6719,402.4609 746.8594,402.3516 Q747.0469,402.2422 747.2656,402.2422 Q747.6406,402.2422 747.875,402.5078 Q748.1094,402.7578 748.1094,403.3672 L748.1094,404.8203 Q748.1094,405.4297 747.875,405.6953 Q747.6406,405.9609 747.2656,405.9609 Q746.9219,405.9609 746.7188,405.7578 Q746.5156,405.5703 746.4063,405.0547 Q746.3594,404.6953 746.1719,404.5078 Q745.8438,404.1328 745.2344,403.9141 Q744.625,403.6953 744,403.6953 Q743.2344,403.6953 742.5938,404.0234 Q741.9688,404.3516 741.4688,405.1016 Q740.9844,405.8516 740.9844,406.8828 L740.9844,407.9766 Q740.9844,409.2109 741.875,410.0391 Q742.7656,410.8516 744.3594,410.8516 Q745.2969,410.8516 745.9531,410.6016 Q746.3438,410.4453 746.7656,410.0078 Q747.0313,409.7422 747.1719,409.6641 Q747.3281,409.5859 747.5313,409.5859 Q747.8594,409.5859 748.1094,409.8516 Q748.375,410.1016 748.375,410.4453 Q748.375,410.7891 748.0313,411.1953 Q747.5313,411.7734 746.7344,412.1016 Q745.6563,412.5547 744.3594,412.5547 Q742.8438,412.5547 741.6406,411.9297 Q740.6563,411.4297 739.9688,410.3672 Q739.2813,409.2891 739.2813,408.0078 L739.2813,406.8516 Q739.2813,405.5234 739.8906,404.3828 Q740.5156,403.2266 741.6094,402.6172 Q742.7031,401.9922 743.9375,401.9922 Q744.6719,401.9922 745.3125,402.1641 Q745.9688,402.3203 746.5156,402.6797 Z " fill="#000000"/><text fill="#000000" font-family="sans-serif" font-size="14" lengthAdjust="spacing" textLength="24" x="768.25" y="412.5332">Site</text><line style="stroke:#181818;stroke-width:0.5;" x1="606" x2="922" y1="424.6094" y2="424.6094"/><rect fill="none" height="6" style="stroke:#C82930;stroke-width:1.0;" width="6" x="613" y="439.9141"/><text fill="#000000" font-family="sans-serif" font-size="14" lengthAdjust="spacing" textLength="166" x="629" y="447.1426">Coordinate siteCoordinate</text><rect fill="none" height="6" style="stroke:#C82930;stroke-width:1.0;" width="6" x="613" y="465.5234"/><text fill="#000000" font-family="sans-serif" font-size="14" lengthAdjust="spacing" textLength="76" x="629" y="472.752">String siteID</text><line style="stroke:#181818;stroke-width:0.5;" x1="606" x2="922" y1="483.8281" y2="483.8281"/><ellipse cx="616" cy="502.1328" fill="#84BE84" rx="3" ry="3" style="stroke:#038048;stroke-width:1.0;"/><text fill="#000000" font-family="sans-serif" font-size="14" lengthAdjust="spacing" textLength="284" x="629" y="506.3613">Site(Coordinate siteCoordinate, String siteID)</text></g><!--link CoordinateManager to Coordinate--><g id="link_CoordinateManager_Coordinate"><path codeLine="42" d="M1243.3,524 C1214.89,524 1195,524 1195,524 C1195,524 1195,555.58 1195,589.19 " fill="none" id="CoordinateManager-to-Coordinate" style="stroke:#181818;stroke-width:1.0;"/><polygon fill="#181818" points="1195,595.19,1199,586.19,1195,590.19,1191,586.19,1195,595.19" style="stroke:#181818;stroke-width:1.0;"/><text fill="#000000" font-family="sans-serif" font-size="12" lengthAdjust="spacing" textLength="47" x="1143" y="527.907">contains</text><text fill="#000000" font-family="sans-serif" font-size="12" lengthAdjust="spacing" textLength="7" x="1224.4016" y="519.7822">1</text><text fill="#000000" font-family="sans-serif" font-size="12" lengthAdjust="spacing" textLength="7" x="1185.7672" y="580.9473">1</text></g><!--link CoordinateManager to CoordinateUtilities--><g id="link_CoordinateManager_CoordinateUtilities"><path codeLine="43" d="M1475.5,530.23 C1475.5,543.23 1475.5,550.72 1475.5,563.72 " fill="none" id="CoordinateManager-to-CoordinateUtilities" style="stroke:#181818;stroke-width:1.0;stroke-dasharray:7.0,7.0;"/><polygon fill="#181818" points="1475.5,569.72,1479.5,560.72,1475.5,564.72,1471.5,560.72,1475.5,569.72" style="stroke:#181818;stroke-width:1.0;"/><text fill="#000000" font-family="sans-serif" font-size="12" lengthAdjust="spacing" textLength="28" x="1442.5" y="542.427">uses</text></g><!--link POIManager to Site--><g id="link_POIManager_Site"><path codeLine="76" d="M435.76,211 C473.45,211 501.5,211 501.5,211 C501.5,211 501.5,453 501.5,453 C501.5,453 543.75,453 598.87,453 " fill="none" id="POIManager-to-Site" style="stroke:#181818;stroke-width:1.0;"/><polygon fill="#181818" points="604.87,453,595.87,449,599.87,453,595.87,457,604.87,453" style="stroke:#181818;stroke-width:1.0;"/><text fill="#000000" font-family="sans-serif" font-size="12" lengthAdjust="spacing" textLength="47" x="449.5" y="343.277">contains</text><text fill="#000000" font-family="sans-serif" font-size="12" lengthAdjust="spacing" textLength="7" x="447.6608" y="204.0359">1</text><text fill="#000000" font-family="sans-serif" font-size="12" lengthAdjust="spacing" textLength="20" x="573.025" y="445.9281">0..1</text></g><!--link POIManager to Creek--><g id="link_POIManager_Creek"><path codeLine="77" d="M287.25,300.8 C287.25,330.02 287.25,355.81 287.25,382.75 " fill="none" id="POIManager-to-Creek" style="stroke:#181818;stroke-width:1.0;"/><polygon fill="#181818" points="287.25,388.75,291.25,379.75,287.25,383.75,283.25,379.75,287.25,388.75" style="stroke:#181818;stroke-width:1.0;"/><text fill="#000000" font-family="sans-serif" font-size="12" lengthAdjust="spacing" textLength="47" x="292.25" y="337.227">contains</text><text fill="#000000" font-family="sans-serif" font-size="12" lengthAdjust="spacing" textLength="7" x="279.0957" y="324.749">1</text><text fill="#000000" font-family="sans-serif" font-size="12" lengthAdjust="spacing" textLength="18" x="260.7383" y="374.3776">0..*</text></g><!--link POIManager to CoordinateUtilities--><g id="link_POIManager_CoordinateUtilities"><path codeLine="78" d="M92.75,300.67 C92.75,410.91 92.75,583 92.75,583 C92.75,583 883.52,583 1312.25,583 " fill="none" id="POIManager-to-CoordinateUtilities" style="stroke:#181818;stroke-width:1.0;stroke-dasharray:7.0,7.0;"/><polygon fill="#181818" points="1318.25,583,1309.25,579,1313.25,583,1309.25,587,1318.25,583" style="stroke:#181818;stroke-width:1.0;"/><text fill="#000000" font-family="sans-serif" font-size="12" lengthAdjust="spacing" textLength="28" x="531.34" y="575.457">uses</text></g><!--link IslandEdgeManager to Coordinate--><g id="link_IslandEdgeManager_Coordinate"><path codeLine="81" d="M982.5,313.12 C982.5,437.31 982.5,630 982.5,630 C982.5,630 1038.67,630 1091.98,630 " fill="none" id="IslandEdgeManager-to-Coordinate" style="stroke:#181818;stroke-width:1.0;stroke-dasharray:7.0,7.0;"/><polygon fill="#181818" points="1097.98,630,1088.98,626,1092.98,630,1088.98,634,1097.98,630" style="stroke:#181818;stroke-width:1.0;"/><text fill="#000000" font-family="sans-serif" font-size="12" lengthAdjust="spacing" textLength="28" x="949.5" y="521.757">uses</text></g><!--link Creek to Coordinate--><g id="link_Creek_Coordinate"><path codeLine="82" d="M318,517.18 C318,579.58 318,665 318,665 C318,665 883.24,665 1091.87,665 " fill="none" id="Creek-to-Coordinate" style="stroke:#181818;stroke-width:1.0;"/><polygon fill="#181818" points="1097.87,665,1088.87,661,1092.87,665,1088.87,669,1097.87,665" style="stroke:#181818;stroke-width:1.0;"/><text fill="#000000" font-family="sans-serif" font-size="12" lengthAdjust="spacing" textLength="47" x="582.03" y="657.457">contains</text><text fill="#000000" font-family="sans-serif" font-size="12" lengthAdjust="spacing" textLength="7" x="306.1797" y="541.8957">1</text><text fill="#000000" font-family="sans-serif" font-size="12" lengthAdjust="spacing" textLength="7" x="1078.9943" y="659.0892">1</text></g><!--link Site to Coordinate--><g id="link_Site_Coordinate"><path codeLine="83" d="M923.17,453 C1028.19,453 1146.5,453 1146.5,453 C1146.5,453 1146.5,531.8 1146.5,589.27 " fill="none" id="Site-to-Coordinate" style="stroke:#181818;stroke-width:1.0;"/><polygon fill="#181818" points="1146.5,595.27,1150.5,586.27,1146.5,590.27,1142.5,586.27,1146.5,595.27" style="stroke:#181818;stroke-width:1.0;"/><text fill="#000000" font-family="sans-serif" font-size="12" lengthAdjust="spacing" textLength="47" x="1053.97" y="445.457">contains</text><text fill="#000000" font-family="sans-serif" font-size="12" lengthAdjust="spacing" textLength="7" x="935.2431" y="445.8917">1</text><text fill="#000000" font-family="sans-serif" font-size="12" lengthAdjust="spacing" textLength="7" x="1131.3563" y="581.0371">1</text></g><!--SRC=[pLJlRzCm4FsUl-BKB-jOMpOqVcYQAaqTY4gC8LKJ88IGcrmRqyIER0Seq_vtpauQkqswxYDVsjZltRjtPv-Fu3rF430lp1foDAbCD1W9x9Va2SHPQGogA6rnekW8xZJ272q1ChQMfG5DAowMEj8hBWgcM0uP5sZM1O9K51W0GYQeiO3Nfy6cOc9bDy_3pO8b2Qd2kKqw5R52HfdZZ6dzd0jAls0nEP5_GFE_g86911PIc40Yvs9Y-PzvOb8uUndAEw5tn9zHD9oTxq8VMOxTSC7Y5Li6uAkj-ao0l0YGAwNaxsv8KpKeRR-wSSDD5a1legZs0BsS5JsuZm2QdLXAHOrZ1dM5G5KGJ1hWXWcYgXe567e8ub8f5CRjw1e_OSdFKjTx_MkkC3PSYbfcGCfvJksVe3sMumkmjsWZlKJZrR_q2PqIYy8w2Lzt2G_kjxCARxyE-FOTNF4RruNYjX2LMD6PeTNoaEQTuHatdAxJHlpaNXjcUFm0ELlXbMj4JeKUQiCWKANqVj7IfGRCKhumc7YIxlll0JIf1a0LTQaD6xL5jgvCTXfyp97NI97PqNj4vyc51hrktx_UMG-6mx7xz-W5dQ8mZ0kz9smq6dSTsGMK6csCpHbEX7ijK9iVXQJFdQduT3jjZGEDAbj_uDfSJXJYQWon_TjCmt36wV9fxe_oFngFgSuerTjasHxo6rPSLbCG7jaOaCZDf8iodwEwNLW5UXvBuOQ7skPhTUgjCY7nbpHyJloLtgxy96Dpp5oQ_WwICkrIL6QTlm-MJBIvb1aoqPWn8R5nC4cPsdP1ZvfR3k20QFjji4VV_L9Qf3r5TGA7JgytJfrCVtzqOwoEE-vsuwvUbnbx7VTwiQ2tOZNwUqCR8rLGoqSmBytudev6z6brTsPt3_bPhshhVlOJHxnzsxS36tvrYazuRro33_8Uedy0]--></g></svg>