<?xml version="1.0" encoding="us-ascii" standalone="no"?><svg xmlns="http://www.w3.org/2000/svg" xmlns:xlink="http://www.w3.org/1999/xlink" contentStyleType="text/css" height="348px" preserveAspectRatio="none" style="width:1435px;height:348px;background:#FFFFFF;" version="1.1" viewBox="0 0 1435 348" width="1435px" zoomAndPan="magnify"><defs/><g><!--cluster map--><g id="cluster_map"><path d="M8.5,6 L55.5,6 A3.75,3.75 0 0 1 58,8.5 L65,42.6406 L1425.5,42.6406 A2.5,2.5 0 0 1 1428,45.1406 L1428,338.5 A2.5,2.5 0 0 1 1425.5,341 L8.5,341 A2.5,2.5 0 0 1 6,338.5 L6,8.5 A2.5,2.5 0 0 1 8.5,6 " fill="none" style="stroke:#000000;stroke-width:1.5;"/><line style="stroke:#000000;stroke-width:1.5;" x1="6" x2="65" y1="42.6406" y2="42.6406"/><text fill="#000000" font-family="sans-serif" font-size="18" font-weight="bold" lengthAdjust="spacing" textLength="38" x="14" y="30.6855">map</text></g><!--cluster coordinates--><g id="cluster_coordinates"><path d="M982.5,71 L1094.5,71 A3.75,3.75 0 0 1 1097,73.5 L1104,107.6406 L1393.5,107.6406 A2.5,2.5 0 0 1 1396,110.1406 L1396,306.5 A2.5,2.5 0 0 1 1393.5,309 L982.5,309 A2.5,2.5 0 0 1 980,306.5 L980,73.5 A2.5,2.5 0 0 1 982.5,71 " fill="#D0D0FF" style="stroke:#000000;stroke-width:1.5;"/><line style="stroke:#000000;stroke-width:1.5;" x1="980" x2="1104" y1="107.6406" y2="107.6406"/><text fill="#000000" font-family="sans-serif" font-size="18" font-weight="bold" lengthAdjust="spacing" textLength="103" x="988" y="95.6855">coordinates</text></g><!--cluster interest_points--><g id="cluster_interest_points"><path d="M40.5,71 L180.5,71 A3.75,3.75 0 0 1 183,73.5 L190,107.6406 L651.5,107.6406 A2.5,2.5 0 0 1 654,110.1406 L654,306.5 A2.5,2.5 0 0 1 651.5,309 L40.5,309 A2.5,2.5 0 0 1 38,306.5 L38,73.5 A2.5,2.5 0 0 1 40.5,71 " fill="#D0FFD0" style="stroke:#000000;stroke-width:1.5;"/><line style="stroke:#000000;stroke-width:1.5;" x1="38" x2="190" y1="107.6406" y2="107.6406"/><text fill="#000000" font-family="sans-serif" font-size="18" font-weight="bold" lengthAdjust="spacing" textLength="131" x="46" y="95.6855">interest_points</text></g><!--cluster external--><g id="cluster_external"><path d="M696.5,190 L777.5,190 A3.75,3.75 0 0 1 780,192.5 L787,226.6406 L937.5,226.6406 A2.5,2.5 0 0 1 940,229.1406 L940,306.5 A2.5,2.5 0 0 1 937.5,309 L696.5,309 A2.5,2.5 0 0 1 694,306.5 L694,192.5 A2.5,2.5 0 0 1 696.5,190 " fill="#EEEEEE" style="stroke:#000000;stroke-width:1.5;"/><line style="stroke:#000000;stroke-width:1.5;" x1="694" x2="787" y1="226.6406" y2="226.6406"/><text fill="#000000" font-family="sans-serif" font-size="18" font-weight="bold" lengthAdjust="spacing" textLength="72" x="702" y="214.6855">external</text></g><!--class CoordinateManager--><g id="elem_CoordinateManager"><rect codeLine="31" fill="#F1F1F1" height="38.125" id="CoordinateManager" rx="2.5" ry="2.5" style="stroke:#181818;stroke-width:0.5;" width="180" x="1125" y="128"/><ellipse cx="1140" cy="147.0625" fill="#ADD1B2" rx="11" ry="11" style="stroke:#181818;stroke-width:1.0;"/><path d="M1142.7656,142.9375 Q1142.9219,142.7188 1143.1094,142.6094 Q1143.2969,142.5 1143.5156,142.5 Q1143.8906,142.5 1144.125,142.7656 Q1144.3594,143.0156 1144.3594,143.625 L1144.3594,145.0781 Q1144.3594,145.6875 1144.125,145.9531 Q1143.8906,146.2188 1143.5156,146.2188 Q1143.1719,146.2188 1142.9688,146.0156 Q1142.7656,145.8281 1142.6563,145.3125 Q1142.6094,144.9531 1142.4219,144.7656 Q1142.0938,144.3906 1141.4844,144.1719 Q1140.875,143.9531 1140.25,143.9531 Q1139.4844,143.9531 1138.8438,144.2813 Q1138.2188,144.6094 1137.7188,145.3594 Q1137.2344,146.1094 1137.2344,147.1406 L1137.2344,148.2344 Q1137.2344,149.4688 1138.125,150.2969 Q1139.0156,151.1094 1140.6094,151.1094 Q1141.5469,151.1094 1142.2031,150.8594 Q1142.5938,150.7031 1143.0156,150.2656 Q1143.2813,150 1143.4219,149.9219 Q1143.5781,149.8438 1143.7813,149.8438 Q1144.1094,149.8438 1144.3594,150.1094 Q1144.625,150.3594 1144.625,150.7031 Q1144.625,151.0469 1144.2813,151.4531 Q1143.7813,152.0313 1142.9844,152.3594 Q1141.9063,152.8125 1140.6094,152.8125 Q1139.0938,152.8125 1137.8906,152.1875 Q1136.9063,151.6875 1136.2188,150.625 Q1135.5313,149.5469 1135.5313,148.2656 L1135.5313,147.1094 Q1135.5313,145.7813 1136.1406,144.6406 Q1136.7656,143.4844 1137.8594,142.875 Q1138.9531,142.25 1140.1875,142.25 Q1140.9219,142.25 1141.5625,142.4219 Q1142.2188,142.5781 1142.7656,142.9375 Z " fill="#000000"/><text fill="#000000" font-family="sans-serif" font-size="16" lengthAdjust="spacing" textLength="140" x="1158" y="153.6094">CoordinateManager</text></g><!--class Coordinate--><g id="elem_Coordinate"><rect codeLine="32" fill="#F1F1F1" height="38.125" id="Coordinate" rx="2.5" ry="2.5" style="stroke:#181818;stroke-width:0.5;" width="120" x="1252" y="247"/><ellipse cx="1267.9" cy="266.0625" fill="#ADD1B2" rx="11" ry="11" style="stroke:#181818;stroke-width:1.0;"/><path d="M1270.6656,261.9375 Q1270.8219,261.7188 1271.0094,261.6094 Q1271.1969,261.5 1271.4156,261.5 Q1271.7906,261.5 1272.025,261.7656 Q1272.2594,262.0156 1272.2594,262.625 L1272.2594,264.0781 Q1272.2594,264.6875 1272.025,264.9531 Q1271.7906,265.2188 1271.4156,265.2188 Q1271.0719,265.2188 1270.8688,265.0156 Q1270.6656,264.8281 1270.5563,264.3125 Q1270.5094,263.9531 1270.3219,263.7656 Q1269.9938,263.3906 1269.3844,263.1719 Q1268.775,262.9531 1268.15,262.9531 Q1267.3844,262.9531 1266.7438,263.2813 Q1266.1188,263.6094 1265.6188,264.3594 Q1265.1344,265.1094 1265.1344,266.1406 L1265.1344,267.2344 Q1265.1344,268.4688 1266.025,269.2969 Q1266.9156,270.1094 1268.5094,270.1094 Q1269.4469,270.1094 1270.1031,269.8594 Q1270.4938,269.7031 1270.9156,269.2656 Q1271.1813,269 1271.3219,268.9219 Q1271.4781,268.8438 1271.6813,268.8438 Q1272.0094,268.8438 1272.2594,269.1094 Q1272.525,269.3594 1272.525,269.7031 Q1272.525,270.0469 1272.1813,270.4531 Q1271.6813,271.0313 1270.8844,271.3594 Q1269.8063,271.8125 1268.5094,271.8125 Q1266.9938,271.8125 1265.7906,271.1875 Q1264.8063,270.6875 1264.1188,269.625 Q1263.4313,268.5469 1263.4313,267.2656 L1263.4313,266.1094 Q1263.4313,264.7813 1264.0406,263.6406 Q1264.6656,262.4844 1265.7594,261.875 Q1266.8531,261.25 1268.0875,261.25 Q1268.8219,261.25 1269.4625,261.4219 Q1270.1188,261.5781 1270.6656,261.9375 Z " fill="#000000"/><text fill="#000000" font-family="sans-serif" font-size="16" lengthAdjust="spacing" textLength="78" x="1286.1" y="272.6094">Coordinate</text></g><!--class CoordinateUtilities--><g id="elem_CoordinateUtilities"><rect codeLine="33" fill="#F1F1F1" height="38.125" id="CoordinateUtilities" rx="2.5" ry="2.5" style="stroke:#181818;stroke-width:0.5;" width="169" x="1012.5" y="247"/><ellipse cx="1027.5" cy="266.0625" fill="#ADD1B2" rx="11" ry="11" style="stroke:#181818;stroke-width:1.0;"/><path d="M1030.2656,261.9375 Q1030.4219,261.7188 1030.6094,261.6094 Q1030.7969,261.5 1031.0156,261.5 Q1031.3906,261.5 1031.625,261.7656 Q1031.8594,262.0156 1031.8594,262.625 L1031.8594,264.0781 Q1031.8594,264.6875 1031.625,264.9531 Q1031.3906,265.2188 1031.0156,265.2188 Q1030.6719,265.2188 1030.4688,265.0156 Q1030.2656,264.8281 1030.1563,264.3125 Q1030.1094,263.9531 1029.9219,263.7656 Q1029.5938,263.3906 1028.9844,263.1719 Q1028.375,262.9531 1027.75,262.9531 Q1026.9844,262.9531 1026.3438,263.2813 Q1025.7188,263.6094 1025.2188,264.3594 Q1024.7344,265.1094 1024.7344,266.1406 L1024.7344,267.2344 Q1024.7344,268.4688 1025.625,269.2969 Q1026.5156,270.1094 1028.1094,270.1094 Q1029.0469,270.1094 1029.7031,269.8594 Q1030.0938,269.7031 1030.5156,269.2656 Q1030.7813,269 1030.9219,268.9219 Q1031.0781,268.8438 1031.2813,268.8438 Q1031.6094,268.8438 1031.8594,269.1094 Q1032.125,269.3594 1032.125,269.7031 Q1032.125,270.0469 1031.7813,270.4531 Q1031.2813,271.0313 1030.4844,271.3594 Q1029.4063,271.8125 1028.1094,271.8125 Q1026.5938,271.8125 1025.3906,271.1875 Q1024.4063,270.6875 1023.7188,269.625 Q1023.0313,268.5469 1023.0313,267.2656 L1023.0313,266.1094 Q1023.0313,264.7813 1023.6406,263.6406 Q1024.2656,262.4844 1025.3594,261.875 Q1026.4531,261.25 1027.6875,261.25 Q1028.4219,261.25 1029.0625,261.4219 Q1029.7188,261.5781 1030.2656,261.9375 Z " fill="#000000"/><text fill="#000000" font-family="sans-serif" font-size="16" lengthAdjust="spacing" textLength="129" x="1045.5" y="272.6094">CoordinateUtilities</text></g><!--class POIManager--><g id="elem_POIManager"><rect codeLine="40" fill="#F1F1F1" height="38.125" id="POIManager" rx="2.5" ry="2.5" style="stroke:#181818;stroke-width:0.5;" width="128" x="363" y="128"/><ellipse cx="378" cy="147.0625" fill="#ADD1B2" rx="11" ry="11" style="stroke:#181818;stroke-width:1.0;"/><path d="M380.7656,142.9375 Q380.9219,142.7188 381.1094,142.6094 Q381.2969,142.5 381.5156,142.5 Q381.8906,142.5 382.125,142.7656 Q382.3594,143.0156 382.3594,143.625 L382.3594,145.0781 Q382.3594,145.6875 382.125,145.9531 Q381.8906,146.2188 381.5156,146.2188 Q381.1719,146.2188 380.9688,146.0156 Q380.7656,145.8281 380.6563,145.3125 Q380.6094,144.9531 380.4219,144.7656 Q380.0938,144.3906 379.4844,144.1719 Q378.875,143.9531 378.25,143.9531 Q377.4844,143.9531 376.8438,144.2813 Q376.2188,144.6094 375.7188,145.3594 Q375.2344,146.1094 375.2344,147.1406 L375.2344,148.2344 Q375.2344,149.4688 376.125,150.2969 Q377.0156,151.1094 378.6094,151.1094 Q379.5469,151.1094 380.2031,150.8594 Q380.5938,150.7031 381.0156,150.2656 Q381.2813,150 381.4219,149.9219 Q381.5781,149.8438 381.7813,149.8438 Q382.1094,149.8438 382.3594,150.1094 Q382.625,150.3594 382.625,150.7031 Q382.625,151.0469 382.2813,151.4531 Q381.7813,152.0313 380.9844,152.3594 Q379.9063,152.8125 378.6094,152.8125 Q377.0938,152.8125 375.8906,152.1875 Q374.9063,151.6875 374.2188,150.625 Q373.5313,149.5469 373.5313,148.2656 L373.5313,147.1094 Q373.5313,145.7813 374.1406,144.6406 Q374.7656,143.4844 375.8594,142.875 Q376.9531,142.25 378.1875,142.25 Q378.9219,142.25 379.5625,142.4219 Q380.2188,142.5781 380.7656,142.9375 Z " fill="#000000"/><text fill="#000000" font-family="sans-serif" font-size="16" lengthAdjust="spacing" textLength="88" x="396" y="153.6094">POIManager</text></g><!--class IslandEdgeManager--><g id="elem_IslandEdgeManager"><rect codeLine="41" fill="#F1F1F1" height="38.125" id="IslandEdgeManager" rx="2.5" ry="2.5" style="stroke:#181818;stroke-width:0.5;" width="180" x="252" y="247"/><ellipse cx="267" cy="266.0625" fill="#ADD1B2" rx="11" ry="11" style="stroke:#181818;stroke-width:1.0;"/><path d="M269.7656,261.9375 Q269.9219,261.7188 270.1094,261.6094 Q270.2969,261.5 270.5156,261.5 Q270.8906,261.5 271.125,261.7656 Q271.3594,262.0156 271.3594,262.625 L271.3594,264.0781 Q271.3594,264.6875 271.125,264.9531 Q270.8906,265.2188 270.5156,265.2188 Q270.1719,265.2188 269.9688,265.0156 Q269.7656,264.8281 269.6563,264.3125 Q269.6094,263.9531 269.4219,263.7656 Q269.0938,263.3906 268.4844,263.1719 Q267.875,262.9531 267.25,262.9531 Q266.4844,262.9531 265.8438,263.2813 Q265.2188,263.6094 264.7188,264.3594 Q264.2344,265.1094 264.2344,266.1406 L264.2344,267.2344 Q264.2344,268.4688 265.125,269.2969 Q266.0156,270.1094 267.6094,270.1094 Q268.5469,270.1094 269.2031,269.8594 Q269.5938,269.7031 270.0156,269.2656 Q270.2813,269 270.4219,268.9219 Q270.5781,268.8438 270.7813,268.8438 Q271.1094,268.8438 271.3594,269.1094 Q271.625,269.3594 271.625,269.7031 Q271.625,270.0469 271.2813,270.4531 Q270.7813,271.0313 269.9844,271.3594 Q268.9063,271.8125 267.6094,271.8125 Q266.0938,271.8125 264.8906,271.1875 Q263.9063,270.6875 263.2188,269.625 Q262.5313,268.5469 262.5313,267.2656 L262.5313,266.1094 Q262.5313,264.7813 263.1406,263.6406 Q263.7656,262.4844 264.8594,261.875 Q265.9531,261.25 267.1875,261.25 Q267.9219,261.25 268.5625,261.4219 Q269.2188,261.5781 269.7656,261.9375 Z " fill="#000000"/><text fill="#000000" font-family="sans-serif" font-size="16" lengthAdjust="spacing" textLength="140" x="285" y="272.6094">IslandEdgeManager</text></g><!--class Creek--><g id="elem_Creek"><rect codeLine="42" fill="#F1F1F1" height="38.125" id="Creek" rx="2.5" ry="2.5" style="stroke:#181818;stroke-width:0.5;" width="120" x="502" y="247"/><ellipse cx="533.65" cy="266.0625" fill="#ADD1B2" rx="11" ry="11" style="stroke:#181818;stroke-width:1.0;"/><path d="M536.4156,261.9375 Q536.5719,261.7188 536.7594,261.6094 Q536.9469,261.5 537.1656,261.5 Q537.5406,261.5 537.775,261.7656 Q538.0094,262.0156 538.0094,262.625 L538.0094,264.0781 Q538.0094,264.6875 537.775,264.9531 Q537.5406,265.2188 537.1656,265.2188 Q536.8219,265.2188 536.6188,265.0156 Q536.4156,264.8281 536.3063,264.3125 Q536.2594,263.9531 536.0719,263.7656 Q535.7438,263.3906 535.1344,263.1719 Q534.525,262.9531 533.9,262.9531 Q533.1344,262.9531 532.4938,263.2813 Q531.8688,263.6094 531.3688,264.3594 Q530.8844,265.1094 530.8844,266.1406 L530.8844,267.2344 Q530.8844,268.4688 531.775,269.2969 Q532.6656,270.1094 534.2594,270.1094 Q535.1969,270.1094 535.8531,269.8594 Q536.2438,269.7031 536.6656,269.2656 Q536.9313,269 537.0719,268.9219 Q537.2281,268.8438 537.4313,268.8438 Q537.7594,268.8438 538.0094,269.1094 Q538.275,269.3594 538.275,269.7031 Q538.275,270.0469 537.9313,270.4531 Q537.4313,271.0313 536.6344,271.3594 Q535.5563,271.8125 534.2594,271.8125 Q532.7438,271.8125 531.5406,271.1875 Q530.5563,270.6875 529.8688,269.625 Q529.1813,268.5469 529.1813,267.2656 L529.1813,266.1094 Q529.1813,264.7813 529.7906,263.6406 Q530.4156,262.4844 531.5094,261.875 Q532.6031,261.25 533.8375,261.25 Q534.5719,261.25 535.2125,261.4219 Q535.8688,261.5781 536.4156,261.9375 Z " fill="#000000"/><text fill="#000000" font-family="sans-serif" font-size="16" lengthAdjust="spacing" textLength="43" x="555.35" y="272.6094">Creek</text></g><!--class Site--><g id="elem_Site"><rect codeLine="43" fill="#F1F1F1" height="38.125" id="Site" rx="2.5" ry="2.5" style="stroke:#181818;stroke-width:0.5;" width="120" x="62" y="247"/><ellipse cx="100.4" cy="266.0625" fill="#ADD1B2" rx="11" ry="11" style="stroke:#181818;stroke-width:1.0;"/><path d="M103.1656,261.9375 Q103.3219,261.7188 103.5094,261.6094 Q103.6969,261.5 103.9156,261.5 Q104.2906,261.5 104.525,261.7656 Q104.7594,262.0156 104.7594,262.625 L104.7594,264.0781 Q104.7594,264.6875 104.525,264.9531 Q104.2906,265.2188 103.9156,265.2188 Q103.5719,265.2188 103.3688,265.0156 Q103.1656,264.8281 103.0563,264.3125 Q103.0094,263.9531 102.8219,263.7656 Q102.4938,263.3906 101.8844,263.1719 Q101.275,262.9531 100.65,262.9531 Q99.8844,262.9531 99.2438,263.2813 Q98.6188,263.6094 98.1188,264.3594 Q97.6344,265.1094 97.6344,266.1406 L97.6344,267.2344 Q97.6344,268.4688 98.525,269.2969 Q99.4156,270.1094 101.0094,270.1094 Q101.9469,270.1094 102.6031,269.8594 Q102.9938,269.7031 103.4156,269.2656 Q103.6813,269 103.8219,268.9219 Q103.9781,268.8438 104.1813,268.8438 Q104.5094,268.8438 104.7594,269.1094 Q105.025,269.3594 105.025,269.7031 Q105.025,270.0469 104.6813,270.4531 Q104.1813,271.0313 103.3844,271.3594 Q102.3063,271.8125 101.0094,271.8125 Q99.4938,271.8125 98.2906,271.1875 Q97.3063,270.6875 96.6188,269.625 Q95.9313,268.5469 95.9313,267.2656 L95.9313,266.1094 Q95.9313,264.7813 96.5406,263.6406 Q97.1656,262.4844 98.2594,261.875 Q99.3531,261.25 100.5875,261.25 Q101.3219,261.25 101.9625,261.4219 Q102.6188,261.5781 103.1656,261.9375 Z " fill="#000000"/><text fill="#000000" font-family="sans-serif" font-size="16" lengthAdjust="spacing" textLength="28" x="123.6" y="272.6094">Site</text></g><!--class ExtStageManager--><g id="elem_ExtStageManager"><rect codeLine="52" fill="#F1F1F1" height="38.125" id="ExtStageManager" rx="2.5" ry="2.5" style="stroke:#181818;stroke-width:0.5;" width="144" x="772" y="247"/><ellipse cx="787" cy="266.0625" fill="#ADD1B2" rx="11" ry="11" style="stroke:#181818;stroke-width:1.0;"/><path d="M789.7656,261.9375 Q789.9219,261.7188 790.1094,261.6094 Q790.2969,261.5 790.5156,261.5 Q790.8906,261.5 791.125,261.7656 Q791.3594,262.0156 791.3594,262.625 L791.3594,264.0781 Q791.3594,264.6875 791.125,264.9531 Q790.8906,265.2188 790.5156,265.2188 Q790.1719,265.2188 789.9688,265.0156 Q789.7656,264.8281 789.6563,264.3125 Q789.6094,263.9531 789.4219,263.7656 Q789.0938,263.3906 788.4844,263.1719 Q787.875,262.9531 787.25,262.9531 Q786.4844,262.9531 785.8438,263.2813 Q785.2188,263.6094 784.7188,264.3594 Q784.2344,265.1094 784.2344,266.1406 L784.2344,267.2344 Q784.2344,268.4688 785.125,269.2969 Q786.0156,270.1094 787.6094,270.1094 Q788.5469,270.1094 789.2031,269.8594 Q789.5938,269.7031 790.0156,269.2656 Q790.2813,269 790.4219,268.9219 Q790.5781,268.8438 790.7813,268.8438 Q791.1094,268.8438 791.3594,269.1094 Q791.625,269.3594 791.625,269.7031 Q791.625,270.0469 791.2813,270.4531 Q790.7813,271.0313 789.9844,271.3594 Q788.9063,271.8125 787.6094,271.8125 Q786.0938,271.8125 784.8906,271.1875 Q783.9063,270.6875 783.2188,269.625 Q782.5313,268.5469 782.5313,267.2656 L782.5313,266.1094 Q782.5313,264.7813 783.1406,263.6406 Q783.7656,262.4844 784.8594,261.875 Q785.9531,261.25 787.1875,261.25 Q787.9219,261.25 788.5625,261.4219 Q789.2188,261.5781 789.7656,261.9375 Z " fill="#000000"/><text fill="#000000" font-family="sans-serif" font-size="16" lengthAdjust="spacing" textLength="104" x="805" y="272.6094">StageManager</text></g><!--link CoordinateManager to Coordinate--><g id="link_CoordinateManager_Coordinate"><path codeLine="35" d="M1278.5,178.12 C1278.5,200.33 1278.5,218.74 1278.5,240.93 " fill="none" id="CoordinateManager-Coordinate" style="stroke:#666666;stroke-width:1.0;"/><polygon fill="#666666" points="1278.5,166.12,1274.5,172.12,1278.5,178.12,1282.5,172.12,1278.5,166.12" style="stroke:#666666;stroke-width:1.0;"/><polygon fill="#666666" points="1278.5,246.93,1282.5,237.93,1278.5,241.93,1274.5,237.93,1278.5,246.93" style="stroke:#666666;stroke-width:1.0;"/><text fill="#000000" font-family="sans-serif" font-size="14" lengthAdjust="spacing" textLength="8" x="1280.7219" y="192.8179">1</text><text fill="#000000" font-family="sans-serif" font-size="14" lengthAdjust="spacing" textLength="8" x="1255.3469" y="232.0439">1</text></g><!--link CoordinateManager to CoordinateUtilities--><g id="link_CoordinateManager_CoordinateUtilities"><path codeLine="36" d="M1153.25,166.12 C1153.25,188.33 1153.25,218.74 1153.25,240.93 " fill="none" id="CoordinateManager-to-CoordinateUtilities" style="stroke:#666666;stroke-width:1.0;stroke-dasharray:7.0,7.0;"/><polygon fill="#666666" points="1153.25,246.93,1157.25,237.93,1153.25,241.93,1149.25,237.93,1153.25,246.93" style="stroke:#666666;stroke-width:1.0;"/><text fill="#000000" font-family="sans-serif" font-size="14" lengthAdjust="spacing" textLength="8" x="1123.3766" y="192.8179">1</text><text fill="#000000" font-family="sans-serif" font-size="14" lengthAdjust="spacing" textLength="8" x="1154.2172" y="232.0439">1</text></g><!--link POIManager to IslandEdgeManager--><g id="link_POIManager_IslandEdgeManager"><path codeLine="45" d="M397.5,178.12 C397.5,200.33 397.5,218.74 397.5,240.93 " fill="none" id="POIManager-IslandEdgeManager" style="stroke:#666666;stroke-width:1.0;"/><polygon fill="#666666" points="397.5,166.12,393.5,172.12,397.5,178.12,401.5,172.12,397.5,166.12" style="stroke:#666666;stroke-width:1.0;"/><polygon fill="#666666" points="397.5,246.93,401.5,237.93,397.5,241.93,393.5,237.93,397.5,246.93" style="stroke:#666666;stroke-width:1.0;"/><text fill="#000000" font-family="sans-serif" font-size="14" lengthAdjust="spacing" textLength="8" x="375.8906" y="192.8179">1</text><text fill="#000000" font-family="sans-serif" font-size="14" lengthAdjust="spacing" textLength="8" x="398.2656" y="232.0439">1</text></g><!--link POIManager to Site--><g id="link_POIManager_Site"><path codeLine="46" d="M350.69,147 C261.21,147 122,147 122,147 C122,147 122,207.24 122,240.88 " fill="none" id="POIManager-Site" style="stroke:#666666;stroke-width:1.0;"/><polygon fill="#666666" points="362.69,147,356.69,143,350.69,147,356.69,151,362.69,147" style="stroke:#666666;stroke-width:1.0;"/><polygon fill="#666666" points="122,246.88,126,237.88,122,241.88,118,237.88,122,246.88" style="stroke:#666666;stroke-width:1.0;"/><text fill="#000000" font-family="sans-serif" font-size="14" lengthAdjust="spacing" textLength="8" x="342.7811" y="139.1925">1</text><text fill="#000000" font-family="sans-serif" font-size="14" lengthAdjust="spacing" textLength="24" x="89.7" y="231.9804">0..1</text></g><!--link POIManager to Creek--><g id="link_POIManager_Creek"><path codeLine="47" d="M461.5,178.12 C461.5,211.76 461.5,266 461.5,266 C461.5,266 474.39,266 495.8,266 " fill="none" id="POIManager-Creek" style="stroke:#666666;stroke-width:1.0;"/><polygon fill="#666666" points="461.5,166.12,457.5,172.12,461.5,178.12,465.5,172.12,461.5,166.12" style="stroke:#666666;stroke-width:1.0;"/><polygon fill="#666666" points="501.8,266,492.8,262,496.8,266,492.8,270,501.8,266" style="stroke:#666666;stroke-width:1.0;"/><text fill="#000000" font-family="sans-serif" font-size="14" lengthAdjust="spacing" textLength="8" x="456.2906" y="192.8179">1</text><text fill="#000000" font-family="sans-serif" font-size="14" lengthAdjust="spacing" textLength="21" x="469.0966" y="258.2691">0..*</text></g><!--link POIManager to CoordinateUtilities--><g id="link_POIManager_CoordinateUtilities"><path codeLine="48" d="M491.18,157 C653.71,157 1068.75,157 1068.75,157 C1068.75,157 1068.75,209.47 1068.75,240.76 " fill="none" id="POIManager-to-CoordinateUtilities" style="stroke:#666666;stroke-width:1.0;stroke-dasharray:7.0,7.0;"/><polygon fill="#666666" points="1068.75,246.76,1072.75,237.76,1068.75,241.76,1064.75,237.76,1068.75,246.76" style="stroke:#666666;stroke-width:1.0;"/><text fill="#000000" font-family="sans-serif" font-size="14" lengthAdjust="spacing" textLength="8" x="503.0747" y="150.2863">1</text><text fill="#000000" font-family="sans-serif" font-size="14" lengthAdjust="spacing" textLength="8" x="1047.0078" y="231.8282">1</text></g><!--link coordinates to interest_points--><!--link interest_points to external--><!--link ExtStageManager to CoordinateUtilities--><g id="link_ExtStageManager_CoordinateUtilities"><path codeLine="59" d="M916.16,266 C946.1,266 975.06,266 1006.21,266 " fill="none" id="ExtStageManager-to-CoordinateUtilities" style="stroke:#666666;stroke-width:1.0;stroke-dasharray:7.0,7.0;"/><polygon fill="#666666" points="1012.21,266,1003.21,262,1007.21,266,1003.21,270,1012.21,266" style="stroke:#666666;stroke-width:1.0;"/><text fill="#000000" font-family="sans-serif" font-size="14" lengthAdjust="spacing" textLength="8" x="928.0508" y="258.3266">1</text><text fill="#000000" font-family="sans-serif" font-size="14" lengthAdjust="spacing" textLength="8" x="992.5258" y="258.5181">1</text></g><!--SRC=[bLHDZzCm4BtdLuooXqehRMdHxi89gUg7w05OgQpsW11ousbhrR4ZUygseFtlZDtGk6a0aOCLptipRzx4SG_UAuc0PKK7M2dKqWDPA1mAGYWq2eCEbdQFFjiqp1BB9RfMY3PMdeMEzRAi1uyUGOk3tH5u959c7MKSobs1OB-ZqwAgE0p2EVliCxzLfX9EbA2LGJfKp78ia036IlHOmPj14dJ2R4FmBWrMejYADJu8AOF4y2x19Ax4JjDdtDD8gxKfqH0KlA0BZS_Bod5x89LO1xhdMh5D8sj3Ppf7WTkCR1NyBIsHPGtbi21bJS8T1PzZgws3g_luH3aJ9k_3v8NthrHeOoLuHFm5mAiVwAFooffKjrHc7FXFIj86XgzJxx7GZFaBpeRXVHlwA4hiXkkfDU3Ri-5JWjosZNL3djsW3H-p6oT5ke7OHbRt07afgXn-PW2dI66jusdpCVKvN4q6ay5i5XbmD0RZ4-63C9pYEh7Eu2CfhKZncGzeN2wgGJxCuVf6scTpyovkMaMxC_hzDZaLUycYtCbaF03ewLjb-VLeT3QR3CwCFdoQNpgSUyqdPIhNNUuTuZRPBrJTSboQSfSMkwl-CMFGx_F-LFvllEiyQQj5_B-PyP-CpWZDmvh6vsnO-OB4gViSX8Vfdj9OKx478od1snA1BpM9XkyhBS9_x3UgYXUOgg-7-YfWaUPKmisNOzhNscRhOpAx5Rd8-6tbs4-hqN-EvYNx1G00]--></g></svg>