<?xml version="1.0" encoding="us-ascii" standalone="no"?><svg xmlns="http://www.w3.org/2000/svg" xmlns:xlink="http://www.w3.org/1999/xlink" contentStyleType="text/css" height="677px" preserveAspectRatio="none" style="width:5509px;height:677px;background:#FFFFFF;" version="1.1" viewBox="0 0 5509 677" width="5509px" zoomAndPan="magnify"><defs/><g><!--cluster flight_algorithm--><g id="cluster_flight_algorithm"><path d="M8.5,6.4551 L146.5,6.4551 A3.75,3.75 0 0 1 149,8.9551 L156,35.0957 L5499.5,35.0957 A2.5,2.5 0 0 1 5502,37.5957 L5502,667.9551 A2.5,2.5 0 0 1 5499.5,670.4551 L8.5,670.4551 A2.5,2.5 0 0 1 6,667.9551 L6,8.9551 A2.5,2.5 0 0 1 8.5,6.4551 " fill="none" style="stroke:#000000;stroke-width:1.5;"/><line style="stroke:#000000;stroke-width:1.5;" x1="6" x2="156" y1="35.0957" y2="35.0957"/><text fill="#000000" font-family="sans-serif" font-size="18" font-weight="bold" lengthAdjust="spacing" textLength="137" x="10" y="27.1406">flight_algorithm</text></g><!--cluster external--><g id="cluster_external"><path d="M4946.5,557.4551 L5019.5,557.4551 A3.75,3.75 0 0 1 5022,559.9551 L5029,586.0957 L5377.5,586.0957 A2.5,2.5 0 0 1 5380,588.5957 L5380,643.9551 A2.5,2.5 0 0 1 5377.5,646.4551 L4946.5,646.4551 A2.5,2.5 0 0 1 4944,643.9551 L4944,559.9551 A2.5,2.5 0 0 1 4946.5,557.4551 " fill="#EEEEEE" style="stroke:#000000;stroke-width:1.5;"/><line style="stroke:#000000;stroke-width:1.5;" x1="4944" x2="5029" y1="586.0957" y2="586.0957"/><text fill="#000000" font-family="sans-serif" font-size="18" font-weight="bold" lengthAdjust="spacing" textLength="72" x="4948" y="578.1406">external</text></g><!--cluster FI--><g id="cluster_FI"><path d="M1441.5,203.4551 L1564.5,203.4551 A3.75,3.75 0 0 1 1567,205.9551 L1574,232.0957 L3485.5,232.0957 A2.5,2.5 0 0 1 3488,234.5957 L3488,410.9551 A2.5,2.5 0 0 1 3485.5,413.4551 L1441.5,413.4551 A2.5,2.5 0 0 1 1439,410.9551 L1439,205.9551 A2.5,2.5 0 0 1 1441.5,203.4551 " fill="#FFD0D0" style="stroke:#000000;stroke-width:1.5;"/><line style="stroke:#000000;stroke-width:1.5;" x1="1439" x2="1574" y1="232.0957" y2="232.0957"/><text fill="#000000" font-family="sans-serif" font-size="18" font-weight="bold" lengthAdjust="spacing" textLength="122" x="1443" y="224.1406">finding_island</text></g><!--cluster FIS--><g id="cluster_FIS"><path d="M2782.5,268.4551 L2841.5,268.4551 A3.75,3.75 0 0 1 2844,270.9551 L2851,297.0957 L3445.5,297.0957 A2.5,2.5 0 0 1 3448,299.5957 L3448,370.9551 A2.5,2.5 0 0 1 3445.5,373.4551 L2782.5,373.4551 A2.5,2.5 0 0 1 2780,370.9551 L2780,270.9551 A2.5,2.5 0 0 1 2782.5,268.4551 " fill="#FFFFD0" style="stroke:#000000;stroke-width:1.5;"/><line style="stroke:#000000;stroke-width:1.5;" x1="2780" x2="2851" y1="297.0957" y2="297.0957"/><text fill="#000000" font-family="sans-serif" font-size="18" font-weight="bold" lengthAdjust="spacing" textLength="58" x="2784" y="289.1406">stages</text></g><!--cluster FIT--><g id="cluster_FIT"><path d="M1522.5,268.4551 L1615.5,268.4551 A3.75,3.75 0 0 1 1618,270.9551 L1625,297.0957 L2729.5,297.0957 A2.5,2.5 0 0 1 2732,299.5957 L2732,370.9551 A2.5,2.5 0 0 1 2729.5,373.4551 L1522.5,373.4551 A2.5,2.5 0 0 1 1520,370.9551 L1520,270.9551 A2.5,2.5 0 0 1 1522.5,268.4551 " fill="#FFFFD0" style="stroke:#000000;stroke-width:1.5;"/><line style="stroke:#000000;stroke-width:1.5;" x1="1520" x2="1625" y1="297.0957" y2="297.0957"/><text fill="#000000" font-family="sans-serif" font-size="18" font-weight="bold" lengthAdjust="spacing" textLength="92" x="1524" y="289.1406">transitions</text></g><!--cluster SI--><g id="cluster_SI"><path d="M262.5,219.4551 L411.5,219.4551 A3.75,3.75 0 0 1 414,221.9551 L421,248.0957 L1396.5,248.0957 A2.5,2.5 0 0 1 1399,250.5957 L1399,514.9551 A2.5,2.5 0 0 1 1396.5,517.4551 L262.5,517.4551 A2.5,2.5 0 0 1 260,514.9551 L260,221.9551 A2.5,2.5 0 0 1 262.5,219.4551 " fill="#D0FFD0" style="stroke:#000000;stroke-width:1.5;"/><line style="stroke:#000000;stroke-width:1.5;" x1="260" x2="421" y1="248.0957" y2="248.0957"/><text fill="#000000" font-family="sans-serif" font-size="18" font-weight="bold" lengthAdjust="spacing" textLength="148" x="264" y="240.1406">searching_island</text></g><!--cluster SIT--><g id="cluster_SIT"><path d="M330.5,276.4551 L423.5,276.4551 A3.75,3.75 0 0 1 426,278.9551 L433,305.0957 L988.5,305.0957 A2.5,2.5 0 0 1 991,307.5957 L991,482.9551 A2.5,2.5 0 0 1 988.5,485.4551 L330.5,485.4551 A2.5,2.5 0 0 1 328,482.9551 L328,278.9551 A2.5,2.5 0 0 1 330.5,276.4551 " fill="#FFFFD0" style="stroke:#000000;stroke-width:1.5;"/><line style="stroke:#000000;stroke-width:1.5;" x1="328" x2="433" y1="305.0957" y2="305.0957"/><text fill="#000000" font-family="sans-serif" font-size="18" font-weight="bold" lengthAdjust="spacing" textLength="92" x="332" y="297.1406">transitions</text></g><!--cluster SIS--><g id="cluster_SIS"><path d="M1017.5,276.4551 L1076.5,276.4551 A3.75,3.75 0 0 1 1079,278.9551 L1086,305.0957 L1364.5,305.0957 A2.5,2.5 0 0 1 1367,307.5957 L1367,362.9551 A2.5,2.5 0 0 1 1364.5,365.4551 L1017.5,365.4551 A2.5,2.5 0 0 1 1015,362.9551 L1015,278.9551 A2.5,2.5 0 0 1 1017.5,276.4551 " fill="#FFFFD0" style="stroke:#000000;stroke-width:1.5;"/><line style="stroke:#000000;stroke-width:1.5;" x1="1015" x2="1086" y1="305.0957" y2="305.0957"/><text fill="#000000" font-family="sans-serif" font-size="18" font-weight="bold" lengthAdjust="spacing" textLength="58" x="1019" y="297.1406">stages</text></g><!--cluster US--><g id="cluster_US"><path d="M3530.5,268.4551 L3648.5,268.4551 A3.75,3.75 0 0 1 3651,270.9551 L3658,297.0957 L4367.5,297.0957 A2.5,2.5 0 0 1 4370,299.5957 L4370,370.9551 A2.5,2.5 0 0 1 4367.5,373.4551 L3530.5,373.4551 A2.5,2.5 0 0 1 3528,370.9551 L3528,270.9551 A2.5,2.5 0 0 1 3530.5,268.4551 " fill="#D0D0FF" style="stroke:#000000;stroke-width:1.5;"/><line style="stroke:#000000;stroke-width:1.5;" x1="3528" x2="3658" y1="297.0957" y2="297.0957"/><text fill="#000000" font-family="sans-serif" font-size="18" font-weight="bold" lengthAdjust="spacing" textLength="117" x="3532" y="289.1406">utility_stages</text></g><!--class AlgorithmManager--><g id="elem_AlgorithmManager"><rect codeLine="24" fill="#F1F1F1" height="32" id="AlgorithmManager" rx="2.5" ry="2.5" style="stroke:#181818;stroke-width:0.5;" width="160" x="3271" y="47.4551"/><ellipse cx="3286" cy="63.4551" fill="#ADD1B2" rx="11" ry="11" style="stroke:#181818;stroke-width:1.0;"/><path d="M3288.7656,59.3301 Q3288.9219,59.1113 3289.1094,59.002 Q3289.2969,58.8926 3289.5156,58.8926 Q3289.8906,58.8926 3290.125,59.1582 Q3290.3594,59.4082 3290.3594,60.0176 L3290.3594,61.4707 Q3290.3594,62.0801 3290.125,62.3457 Q3289.8906,62.6113 3289.5156,62.6113 Q3289.1719,62.6113 3288.9688,62.4082 Q3288.7656,62.2207 3288.6563,61.7051 Q3288.6094,61.3457 3288.4219,61.1582 Q3288.0938,60.7832 3287.4844,60.5645 Q3286.875,60.3457 3286.25,60.3457 Q3285.4844,60.3457 3284.8438,60.6738 Q3284.2188,61.002 3283.7188,61.752 Q3283.2344,62.502 3283.2344,63.5332 L3283.2344,64.627 Q3283.2344,65.8613 3284.125,66.6895 Q3285.0156,67.502 3286.6094,67.502 Q3287.5469,67.502 3288.2031,67.252 Q3288.5938,67.0957 3289.0156,66.6582 Q3289.2813,66.3926 3289.4219,66.3145 Q3289.5781,66.2363 3289.7813,66.2363 Q3290.1094,66.2363 3290.3594,66.502 Q3290.625,66.752 3290.625,67.0957 Q3290.625,67.4395 3290.2813,67.8457 Q3289.7813,68.4238 3288.9844,68.752 Q3287.9063,69.2051 3286.6094,69.2051 Q3285.0938,69.2051 3283.8906,68.5801 Q3282.9063,68.0801 3282.2188,67.0176 Q3281.5313,65.9395 3281.5313,64.6582 L3281.5313,63.502 Q3281.5313,62.1738 3282.1406,61.0332 Q3282.7656,59.877 3283.8594,59.2676 Q3284.9531,58.6426 3286.1875,58.6426 Q3286.9219,58.6426 3287.5625,58.8145 Q3288.2188,58.9707 3288.7656,59.3301 Z " fill="#000000"/><text fill="#000000" font-family="sans-serif" font-size="16" lengthAdjust="spacing" textLength="128" x="3300" y="70.002">AlgorithmManager</text></g><!--class TransitionInformation--><g id="elem_TransitionInformation"><rect codeLine="25" fill="#F1F1F1" height="32" id="TransitionInformation" rx="2.5" ry="2.5" style="stroke:#181818;stroke-width:0.5;" width="176" x="3377" y="139.4551"/><ellipse cx="3392" cy="155.4551" fill="#ADD1B2" rx="11" ry="11" style="stroke:#181818;stroke-width:1.0;"/><path d="M3394.7656,151.3301 Q3394.9219,151.1113 3395.1094,151.002 Q3395.2969,150.8926 3395.5156,150.8926 Q3395.8906,150.8926 3396.125,151.1582 Q3396.3594,151.4082 3396.3594,152.0176 L3396.3594,153.4707 Q3396.3594,154.0801 3396.125,154.3457 Q3395.8906,154.6113 3395.5156,154.6113 Q3395.1719,154.6113 3394.9688,154.4082 Q3394.7656,154.2207 3394.6563,153.7051 Q3394.6094,153.3457 3394.4219,153.1582 Q3394.0938,152.7832 3393.4844,152.5645 Q3392.875,152.3457 3392.25,152.3457 Q3391.4844,152.3457 3390.8438,152.6738 Q3390.2188,153.002 3389.7188,153.752 Q3389.2344,154.502 3389.2344,155.5332 L3389.2344,156.627 Q3389.2344,157.8613 3390.125,158.6895 Q3391.0156,159.502 3392.6094,159.502 Q3393.5469,159.502 3394.2031,159.252 Q3394.5938,159.0957 3395.0156,158.6582 Q3395.2813,158.3926 3395.4219,158.3145 Q3395.5781,158.2363 3395.7813,158.2363 Q3396.1094,158.2363 3396.3594,158.502 Q3396.625,158.752 3396.625,159.0957 Q3396.625,159.4395 3396.2813,159.8457 Q3395.7813,160.4238 3394.9844,160.752 Q3393.9063,161.2051 3392.6094,161.2051 Q3391.0938,161.2051 3389.8906,160.5801 Q3388.9063,160.0801 3388.2188,159.0176 Q3387.5313,157.9395 3387.5313,156.6582 L3387.5313,155.502 Q3387.5313,154.1738 3388.1406,153.0332 Q3388.7656,151.877 3389.8594,151.2676 Q3390.9531,150.6426 3392.1875,150.6426 Q3392.9219,150.6426 3393.5625,150.8145 Q3394.2188,150.9707 3394.7656,151.3301 Z " fill="#000000"/><text fill="#000000" font-family="sans-serif" font-size="16" lengthAdjust="spacing" textLength="144" x="3406" y="162.002">TransitionInformation</text></g><!--class Transition--><g id="elem_Transition"><rect codeLine="26" fill="#F1F1F1" height="32" id="Transition" rx="2.5" ry="2.5" style="stroke:#181818;stroke-width:0.5;" width="120" x="1543" y="139.4551"/><ellipse cx="1565.65" cy="155.4551" fill="#A9DCDF" rx="11" ry="11" style="stroke:#181818;stroke-width:1.0;"/><path d="M1567.8375,157.2207 L1563.6969,157.2207 L1563.275,158.252 L1563.6969,158.252 Q1564.3063,158.252 1564.5719,158.4863 Q1564.8375,158.7207 1564.8375,159.1113 Q1564.8375,159.4863 1564.5719,159.7207 Q1564.3063,159.9551 1563.6969,159.9551 L1561.4,159.9551 Q1560.7906,159.9551 1560.5406,159.7207 Q1560.275,159.4863 1560.275,159.0957 Q1560.275,158.7207 1560.5563,158.4863 Q1560.8219,158.2363 1561.4469,158.252 L1564.1188,151.5957 L1563.0094,151.5957 Q1562.4,151.5957 1562.1344,151.3613 Q1561.8688,151.127 1561.8688,150.7363 Q1561.8688,150.3613 1562.1344,150.127 Q1562.4,149.8926 1563.0094,149.8926 L1566.6813,149.8926 L1570.0719,158.252 Q1570.6656,158.252 1570.8531,158.3926 Q1571.2438,158.6582 1571.2438,159.1113 Q1571.2438,159.4863 1570.9781,159.7207 Q1570.7281,159.9551 1570.1188,159.9551 L1567.8219,159.9551 Q1567.2125,159.9551 1566.9469,159.7207 Q1566.6813,159.4863 1566.6813,159.0957 Q1566.6813,158.7207 1566.9469,158.4863 Q1567.2125,158.252 1567.8219,158.252 L1568.2438,158.252 L1567.8375,157.2207 Z M1567.1188,155.5176 L1565.7594,152.1426 L1564.3844,155.5176 L1567.1188,155.5176 Z " fill="#000000"/><text fill="#000000" font-family="sans-serif" font-size="16" font-style="italic" lengthAdjust="spacing" textLength="71" x="1581.35" y="162.002">Transition</text></g><!--class Stage--><g id="elem_Stage"><rect codeLine="27" fill="#F1F1F1" height="32" id="Stage" rx="2.5" ry="2.5" style="stroke:#181818;stroke-width:0.5;" width="120" x="3177" y="139.4551"/><ellipse cx="3212.7" cy="155.4551" fill="#B4A7E5" rx="11" ry="11" style="stroke:#181818;stroke-width:1.0;"/><path d="M3213.6531,152.0957 L3213.6531,158.752 L3215.3719,158.752 Q3215.9813,158.752 3216.2469,158.9863 Q3216.5125,159.2207 3216.5125,159.6113 Q3216.5125,159.9863 3216.2469,160.2207 Q3215.9813,160.4551 3215.3719,160.4551 L3210.2313,160.4551 Q3209.6219,160.4551 3209.3563,160.2207 Q3209.0906,159.9863 3209.0906,159.5957 Q3209.0906,159.2207 3209.3563,158.9863 Q3209.6219,158.752 3210.2313,158.752 L3211.95,158.752 L3211.95,152.0957 L3210.2313,152.0957 Q3209.6219,152.0957 3209.3563,151.8613 Q3209.0906,151.627 3209.0906,151.2363 Q3209.0906,150.8613 3209.3563,150.627 Q3209.6219,150.3926 3210.2313,150.3926 L3215.3719,150.3926 Q3215.9813,150.3926 3216.2469,150.627 Q3216.5125,150.8613 3216.5125,151.2363 Q3216.5125,151.627 3216.2469,151.8613 Q3215.9813,152.0957 3215.3719,152.0957 L3213.6531,152.0957 Z " fill="#000000"/><text fill="#000000" font-family="sans-serif" font-size="16" font-style="italic" lengthAdjust="spacing" textLength="42" x="3231.3" y="162.002">Stage</text></g><g id="elem_N1"><path d="M4792.5,439.4551 L4792.5,467.0645 L5085.5,467.0645 L5085.5,449.4551 L5075.5,439.4551 L4792.5,439.4551 " fill="#FEFFDD" style="stroke:#181818;stroke-width:0.5;"/><path d="M5075.5,439.4551 L5075.5,449.4551 L5085.5,449.4551 L5075.5,439.4551 " fill="#FEFFDD" style="stroke:#181818;stroke-width:1.0;"/><text fill="#000000" font-family="sans-serif" font-size="14" lengthAdjust="spacing" textLength="272" x="4798.5" y="458.9883">Finding Island stages use CommandCenter</text></g><g id="elem_N2"><path d="M5166,439.4551 L5166,467.0645 L5404,467.0645 L5404,449.4551 L5394,439.4551 L5166,439.4551 " fill="#FEFFDD" style="stroke:#181818;stroke-width:0.5;"/><path d="M5394,439.4551 L5394,449.4551 L5404,449.4551 L5394,439.4551 " fill="#FEFFDD" style="stroke:#181818;stroke-width:1.0;"/><text fill="#000000" font-family="sans-serif" font-size="14" lengthAdjust="spacing" textLength="217" x="5172" y="458.9883">Utility stages use CommandCenter</text></g><g id="elem_N3"><path d="M4402,439.4551 L4402,467.0645 L4712,467.0645 L4712,449.4551 L4702,439.4551 L4402,439.4551 " fill="#FEFFDD" style="stroke:#181818;stroke-width:0.5;"/><path d="M4702,439.4551 L4702,449.4551 L4712,449.4551 L4702,439.4551 " fill="#FEFFDD" style="stroke:#181818;stroke-width:1.0;"/><text fill="#000000" font-family="sans-serif" font-size="14" lengthAdjust="spacing" textLength="289" x="4408" y="458.9883">Searching Island stages use CommandCenter</text></g><!--class ExtCommandCenter--><g id="elem_ExtCommandCenter"><rect codeLine="21" fill="#F1F1F1" height="32" id="ExtCommandCenter" rx="2.5" ry="2.5" style="stroke:#181818;stroke-width:0.5;" width="152" x="4960" y="598.4551"/><ellipse cx="4975" cy="614.4551" fill="#ADD1B2" rx="11" ry="11" style="stroke:#181818;stroke-width:1.0;"/><path d="M4977.7656,610.3301 Q4977.9219,610.1113 4978.1094,610.002 Q4978.2969,609.8926 4978.5156,609.8926 Q4978.8906,609.8926 4979.125,610.1582 Q4979.3594,610.4082 4979.3594,611.0176 L4979.3594,612.4707 Q4979.3594,613.0801 4979.125,613.3457 Q4978.8906,613.6113 4978.5156,613.6113 Q4978.1719,613.6113 4977.9688,613.4082 Q4977.7656,613.2207 4977.6563,612.7051 Q4977.6094,612.3457 4977.4219,612.1582 Q4977.0938,611.7832 4976.4844,611.5645 Q4975.875,611.3457 4975.25,611.3457 Q4974.4844,611.3457 4973.8438,611.6738 Q4973.2188,612.002 4972.7188,612.752 Q4972.2344,613.502 4972.2344,614.5332 L4972.2344,615.627 Q4972.2344,616.8613 4973.125,617.6895 Q4974.0156,618.502 4975.6094,618.502 Q4976.5469,618.502 4977.2031,618.252 Q4977.5938,618.0957 4978.0156,617.6582 Q4978.2813,617.3926 4978.4219,617.3145 Q4978.5781,617.2363 4978.7813,617.2363 Q4979.1094,617.2363 4979.3594,617.502 Q4979.625,617.752 4979.625,618.0957 Q4979.625,618.4395 4979.2813,618.8457 Q4978.7813,619.4238 4977.9844,619.752 Q4976.9063,620.2051 4975.6094,620.2051 Q4974.0938,620.2051 4972.8906,619.5801 Q4971.9063,619.0801 4971.2188,618.0176 Q4970.5313,616.9395 4970.5313,615.6582 L4970.5313,614.502 Q4970.5313,613.1738 4971.1406,612.0332 Q4971.7656,610.877 4972.8594,610.2676 Q4973.9531,609.6426 4975.1875,609.6426 Q4975.9219,609.6426 4976.5625,609.8145 Q4977.2188,609.9707 4977.7656,610.3301 Z " fill="#000000"/><text fill="#000000" font-family="sans-serif" font-size="16" lengthAdjust="spacing" textLength="120" x="4989" y="621.002">CommandCenter</text></g><!--class ExtIslandEdgeManager--><g id="elem_ExtIslandEdgeManager"><rect codeLine="22" fill="#F1F1F1" height="32" id="ExtIslandEdgeManager" rx="2.5" ry="2.5" style="stroke:#181818;stroke-width:0.5;" width="172" x="5192" y="598.4551"/><ellipse cx="5207" cy="614.4551" fill="#ADD1B2" rx="11" ry="11" style="stroke:#181818;stroke-width:1.0;"/><path d="M5209.7656,610.3301 Q5209.9219,610.1113 5210.1094,610.002 Q5210.2969,609.8926 5210.5156,609.8926 Q5210.8906,609.8926 5211.125,610.1582 Q5211.3594,610.4082 5211.3594,611.0176 L5211.3594,612.4707 Q5211.3594,613.0801 5211.125,613.3457 Q5210.8906,613.6113 5210.5156,613.6113 Q5210.1719,613.6113 5209.9688,613.4082 Q5209.7656,613.2207 5209.6563,612.7051 Q5209.6094,612.3457 5209.4219,612.1582 Q5209.0938,611.7832 5208.4844,611.5645 Q5207.875,611.3457 5207.25,611.3457 Q5206.4844,611.3457 5205.8438,611.6738 Q5205.2188,612.002 5204.7188,612.752 Q5204.2344,613.502 5204.2344,614.5332 L5204.2344,615.627 Q5204.2344,616.8613 5205.125,617.6895 Q5206.0156,618.502 5207.6094,618.502 Q5208.5469,618.502 5209.2031,618.252 Q5209.5938,618.0957 5210.0156,617.6582 Q5210.2813,617.3926 5210.4219,617.3145 Q5210.5781,617.2363 5210.7813,617.2363 Q5211.1094,617.2363 5211.3594,617.502 Q5211.625,617.752 5211.625,618.0957 Q5211.625,618.4395 5211.2813,618.8457 Q5210.7813,619.4238 5209.9844,619.752 Q5208.9063,620.2051 5207.6094,620.2051 Q5206.0938,620.2051 5204.8906,619.5801 Q5203.9063,619.0801 5203.2188,618.0176 Q5202.5313,616.9395 5202.5313,615.6582 L5202.5313,614.502 Q5202.5313,613.1738 5203.1406,612.0332 Q5203.7656,610.877 5204.8594,610.2676 Q5205.9531,609.6426 5207.1875,609.6426 Q5207.9219,609.6426 5208.5625,609.8145 Q5209.2188,609.9707 5209.7656,610.3301 Z " fill="#000000"/><text fill="#000000" font-family="sans-serif" font-size="16" lengthAdjust="spacing" textLength="140" x="5221" y="621.002">IslandEdgeManager</text></g><!--class FirstEcho--><g id="elem_FirstEcho"><rect codeLine="35" fill="#F1F1F1" height="32" id="FirstEcho" rx="2.5" ry="2.5" style="stroke:#181818;stroke-width:0.5;" width="120" x="3068" y="317.4551"/><ellipse cx="3092.45" cy="333.4551" fill="#ADD1B2" rx="11" ry="11" style="stroke:#181818;stroke-width:1.0;"/><path d="M3095.2156,329.3301 Q3095.3719,329.1113 3095.5594,329.002 Q3095.7469,328.8926 3095.9656,328.8926 Q3096.3406,328.8926 3096.575,329.1582 Q3096.8094,329.4082 3096.8094,330.0176 L3096.8094,331.4707 Q3096.8094,332.0801 3096.575,332.3457 Q3096.3406,332.6113 3095.9656,332.6113 Q3095.6219,332.6113 3095.4188,332.4082 Q3095.2156,332.2207 3095.1063,331.7051 Q3095.0594,331.3457 3094.8719,331.1582 Q3094.5438,330.7832 3093.9344,330.5645 Q3093.325,330.3457 3092.7,330.3457 Q3091.9344,330.3457 3091.2938,330.6738 Q3090.6688,331.002 3090.1688,331.752 Q3089.6844,332.502 3089.6844,333.5332 L3089.6844,334.627 Q3089.6844,335.8613 3090.575,336.6895 Q3091.4656,337.502 3093.0594,337.502 Q3093.9969,337.502 3094.6531,337.252 Q3095.0438,337.0957 3095.4656,336.6582 Q3095.7313,336.3926 3095.8719,336.3145 Q3096.0281,336.2363 3096.2313,336.2363 Q3096.5594,336.2363 3096.8094,336.502 Q3097.075,336.752 3097.075,337.0957 Q3097.075,337.4395 3096.7313,337.8457 Q3096.2313,338.4238 3095.4344,338.752 Q3094.3563,339.2051 3093.0594,339.2051 Q3091.5438,339.2051 3090.3406,338.5801 Q3089.3563,338.0801 3088.6688,337.0176 Q3087.9813,335.9395 3087.9813,334.6582 L3087.9813,333.502 Q3087.9813,332.1738 3088.5906,331.0332 Q3089.2156,329.877 3090.3094,329.2676 Q3091.4031,328.6426 3092.6375,328.6426 Q3093.3719,328.6426 3094.0125,328.8145 Q3094.6688,328.9707 3095.2156,329.3301 Z " fill="#000000"/><text fill="#000000" font-family="sans-serif" font-size="16" lengthAdjust="spacing" textLength="67" x="3108.55" y="340.002">FirstEcho</text></g><!--class EchoSweep--><g id="elem_EchoSweep"><rect codeLine="36" fill="#F1F1F1" height="32" id="EchoSweep" rx="2.5" ry="2.5" style="stroke:#181818;stroke-width:0.5;" width="120" x="2868" y="317.4551"/><ellipse cx="2884.35" cy="333.4551" fill="#ADD1B2" rx="11" ry="11" style="stroke:#181818;stroke-width:1.0;"/><path d="M2887.1156,329.3301 Q2887.2719,329.1113 2887.4594,329.002 Q2887.6469,328.8926 2887.8656,328.8926 Q2888.2406,328.8926 2888.475,329.1582 Q2888.7094,329.4082 2888.7094,330.0176 L2888.7094,331.4707 Q2888.7094,332.0801 2888.475,332.3457 Q2888.2406,332.6113 2887.8656,332.6113 Q2887.5219,332.6113 2887.3188,332.4082 Q2887.1156,332.2207 2887.0063,331.7051 Q2886.9594,331.3457 2886.7719,331.1582 Q2886.4438,330.7832 2885.8344,330.5645 Q2885.225,330.3457 2884.6,330.3457 Q2883.8344,330.3457 2883.1938,330.6738 Q2882.5688,331.002 2882.0688,331.752 Q2881.5844,332.502 2881.5844,333.5332 L2881.5844,334.627 Q2881.5844,335.8613 2882.475,336.6895 Q2883.3656,337.502 2884.9594,337.502 Q2885.8969,337.502 2886.5531,337.252 Q2886.9438,337.0957 2887.3656,336.6582 Q2887.6313,336.3926 2887.7719,336.3145 Q2887.9281,336.2363 2888.1313,336.2363 Q2888.4594,336.2363 2888.7094,336.502 Q2888.975,336.752 2888.975,337.0957 Q2888.975,337.4395 2888.6313,337.8457 Q2888.1313,338.4238 2887.3344,338.752 Q2886.2563,339.2051 2884.9594,339.2051 Q2883.4438,339.2051 2882.2406,338.5801 Q2881.2563,338.0801 2880.5688,337.0176 Q2879.8813,335.9395 2879.8813,334.6582 L2879.8813,333.502 Q2879.8813,332.1738 2880.4906,331.0332 Q2881.1156,329.877 2882.2094,329.2676 Q2883.3031,328.6426 2884.5375,328.6426 Q2885.2719,328.6426 2885.9125,328.8145 Q2886.5688,328.9707 2887.1156,329.3301 Z " fill="#000000"/><text fill="#000000" font-family="sans-serif" font-size="16" lengthAdjust="spacing" textLength="85" x="2898.65" y="340.002">EchoSweep</text></g><!--class DirectionalSweep--><g id="elem_DirectionalSweep"><rect codeLine="37" fill="#F1F1F1" height="32" id="DirectionalSweep" rx="2.5" ry="2.5" style="stroke:#181818;stroke-width:0.5;" width="156" x="3268" y="317.4551"/><ellipse cx="3283" cy="333.4551" fill="#ADD1B2" rx="11" ry="11" style="stroke:#181818;stroke-width:1.0;"/><path d="M3285.7656,329.3301 Q3285.9219,329.1113 3286.1094,329.002 Q3286.2969,328.8926 3286.5156,328.8926 Q3286.8906,328.8926 3287.125,329.1582 Q3287.3594,329.4082 3287.3594,330.0176 L3287.3594,331.4707 Q3287.3594,332.0801 3287.125,332.3457 Q3286.8906,332.6113 3286.5156,332.6113 Q3286.1719,332.6113 3285.9688,332.4082 Q3285.7656,332.2207 3285.6563,331.7051 Q3285.6094,331.3457 3285.4219,331.1582 Q3285.0938,330.7832 3284.4844,330.5645 Q3283.875,330.3457 3283.25,330.3457 Q3282.4844,330.3457 3281.8438,330.6738 Q3281.2188,331.002 3280.7188,331.752 Q3280.2344,332.502 3280.2344,333.5332 L3280.2344,334.627 Q3280.2344,335.8613 3281.125,336.6895 Q3282.0156,337.502 3283.6094,337.502 Q3284.5469,337.502 3285.2031,337.252 Q3285.5938,337.0957 3286.0156,336.6582 Q3286.2813,336.3926 3286.4219,336.3145 Q3286.5781,336.2363 3286.7813,336.2363 Q3287.1094,336.2363 3287.3594,336.502 Q3287.625,336.752 3287.625,337.0957 Q3287.625,337.4395 3287.2813,337.8457 Q3286.7813,338.4238 3285.9844,338.752 Q3284.9063,339.2051 3283.6094,339.2051 Q3282.0938,339.2051 3280.8906,338.5801 Q3279.9063,338.0801 3279.2188,337.0176 Q3278.5313,335.9395 3278.5313,334.6582 L3278.5313,333.502 Q3278.5313,332.1738 3279.1406,331.0332 Q3279.7656,329.877 3280.8594,329.2676 Q3281.9531,328.6426 3283.1875,328.6426 Q3283.9219,328.6426 3284.5625,328.8145 Q3285.2188,328.9707 3285.7656,329.3301 Z " fill="#000000"/><text fill="#000000" font-family="sans-serif" font-size="16" lengthAdjust="spacing" textLength="124" x="3297" y="340.002">DirectionalSweep</text></g><!--class FirstEchoTrans--><g id="elem_FirstEchoTrans"><rect codeLine="40" fill="#F1F1F1" height="32" id="FirstEchoTrans" rx="2.5" ry="2.5" style="stroke:#181818;stroke-width:0.5;" width="138" x="2570" y="317.4551"/><ellipse cx="2585" cy="333.4551" fill="#ADD1B2" rx="11" ry="11" style="stroke:#181818;stroke-width:1.0;"/><path d="M2587.7656,329.3301 Q2587.9219,329.1113 2588.1094,329.002 Q2588.2969,328.8926 2588.5156,328.8926 Q2588.8906,328.8926 2589.125,329.1582 Q2589.3594,329.4082 2589.3594,330.0176 L2589.3594,331.4707 Q2589.3594,332.0801 2589.125,332.3457 Q2588.8906,332.6113 2588.5156,332.6113 Q2588.1719,332.6113 2587.9688,332.4082 Q2587.7656,332.2207 2587.6563,331.7051 Q2587.6094,331.3457 2587.4219,331.1582 Q2587.0938,330.7832 2586.4844,330.5645 Q2585.875,330.3457 2585.25,330.3457 Q2584.4844,330.3457 2583.8438,330.6738 Q2583.2188,331.002 2582.7188,331.752 Q2582.2344,332.502 2582.2344,333.5332 L2582.2344,334.627 Q2582.2344,335.8613 2583.125,336.6895 Q2584.0156,337.502 2585.6094,337.502 Q2586.5469,337.502 2587.2031,337.252 Q2587.5938,337.0957 2588.0156,336.6582 Q2588.2813,336.3926 2588.4219,336.3145 Q2588.5781,336.2363 2588.7813,336.2363 Q2589.1094,336.2363 2589.3594,336.502 Q2589.625,336.752 2589.625,337.0957 Q2589.625,337.4395 2589.2813,337.8457 Q2588.7813,338.4238 2587.9844,338.752 Q2586.9063,339.2051 2585.6094,339.2051 Q2584.0938,339.2051 2582.8906,338.5801 Q2581.9063,338.0801 2581.2188,337.0176 Q2580.5313,335.9395 2580.5313,334.6582 L2580.5313,333.502 Q2580.5313,332.1738 2581.1406,331.0332 Q2581.7656,329.877 2582.8594,329.2676 Q2583.9531,328.6426 2585.1875,328.6426 Q2585.9219,328.6426 2586.5625,328.8145 Q2587.2188,328.9707 2587.7656,329.3301 Z " fill="#000000"/><text fill="#000000" font-family="sans-serif" font-size="16" lengthAdjust="spacing" textLength="106" x="2599" y="340.002">FirstEchoTrans</text></g><!--class EchoSweepTrans--><g id="elem_EchoSweepTrans"><rect codeLine="41" fill="#F1F1F1" height="32" id="EchoSweepTrans" rx="2.5" ry="2.5" style="stroke:#181818;stroke-width:0.5;" width="156" x="2334" y="317.4551"/><ellipse cx="2349" cy="333.4551" fill="#ADD1B2" rx="11" ry="11" style="stroke:#181818;stroke-width:1.0;"/><path d="M2351.7656,329.3301 Q2351.9219,329.1113 2352.1094,329.002 Q2352.2969,328.8926 2352.5156,328.8926 Q2352.8906,328.8926 2353.125,329.1582 Q2353.3594,329.4082 2353.3594,330.0176 L2353.3594,331.4707 Q2353.3594,332.0801 2353.125,332.3457 Q2352.8906,332.6113 2352.5156,332.6113 Q2352.1719,332.6113 2351.9688,332.4082 Q2351.7656,332.2207 2351.6563,331.7051 Q2351.6094,331.3457 2351.4219,331.1582 Q2351.0938,330.7832 2350.4844,330.5645 Q2349.875,330.3457 2349.25,330.3457 Q2348.4844,330.3457 2347.8438,330.6738 Q2347.2188,331.002 2346.7188,331.752 Q2346.2344,332.502 2346.2344,333.5332 L2346.2344,334.627 Q2346.2344,335.8613 2347.125,336.6895 Q2348.0156,337.502 2349.6094,337.502 Q2350.5469,337.502 2351.2031,337.252 Q2351.5938,337.0957 2352.0156,336.6582 Q2352.2813,336.3926 2352.4219,336.3145 Q2352.5781,336.2363 2352.7813,336.2363 Q2353.1094,336.2363 2353.3594,336.502 Q2353.625,336.752 2353.625,337.0957 Q2353.625,337.4395 2353.2813,337.8457 Q2352.7813,338.4238 2351.9844,338.752 Q2350.9063,339.2051 2349.6094,339.2051 Q2348.0938,339.2051 2346.8906,338.5801 Q2345.9063,338.0801 2345.2188,337.0176 Q2344.5313,335.9395 2344.5313,334.6582 L2344.5313,333.502 Q2344.5313,332.1738 2345.1406,331.0332 Q2345.7656,329.877 2346.8594,329.2676 Q2347.9531,328.6426 2349.1875,328.6426 Q2349.9219,328.6426 2350.5625,328.8145 Q2351.2188,328.9707 2351.7656,329.3301 Z " fill="#000000"/><text fill="#000000" font-family="sans-serif" font-size="16" lengthAdjust="spacing" textLength="124" x="2363" y="340.002">EchoSweepTrans</text></g><!--class FindCornerTrans--><g id="elem_FindCornerTrans"><rect codeLine="42" fill="#F1F1F1" height="32" id="FindCornerTrans" rx="2.5" ry="2.5" style="stroke:#181818;stroke-width:0.5;" width="150" x="2104" y="317.4551"/><ellipse cx="2119" cy="333.4551" fill="#ADD1B2" rx="11" ry="11" style="stroke:#181818;stroke-width:1.0;"/><path d="M2121.7656,329.3301 Q2121.9219,329.1113 2122.1094,329.002 Q2122.2969,328.8926 2122.5156,328.8926 Q2122.8906,328.8926 2123.125,329.1582 Q2123.3594,329.4082 2123.3594,330.0176 L2123.3594,331.4707 Q2123.3594,332.0801 2123.125,332.3457 Q2122.8906,332.6113 2122.5156,332.6113 Q2122.1719,332.6113 2121.9688,332.4082 Q2121.7656,332.2207 2121.6563,331.7051 Q2121.6094,331.3457 2121.4219,331.1582 Q2121.0938,330.7832 2120.4844,330.5645 Q2119.875,330.3457 2119.25,330.3457 Q2118.4844,330.3457 2117.8438,330.6738 Q2117.2188,331.002 2116.7188,331.752 Q2116.2344,332.502 2116.2344,333.5332 L2116.2344,334.627 Q2116.2344,335.8613 2117.125,336.6895 Q2118.0156,337.502 2119.6094,337.502 Q2120.5469,337.502 2121.2031,337.252 Q2121.5938,337.0957 2122.0156,336.6582 Q2122.2813,336.3926 2122.4219,336.3145 Q2122.5781,336.2363 2122.7813,336.2363 Q2123.1094,336.2363 2123.3594,336.502 Q2123.625,336.752 2123.625,337.0957 Q2123.625,337.4395 2123.2813,337.8457 Q2122.7813,338.4238 2121.9844,338.752 Q2120.9063,339.2051 2119.6094,339.2051 Q2118.0938,339.2051 2116.8906,338.5801 Q2115.9063,338.0801 2115.2188,337.0176 Q2114.5313,335.9395 2114.5313,334.6582 L2114.5313,333.502 Q2114.5313,332.1738 2115.1406,331.0332 Q2115.7656,329.877 2116.8594,329.2676 Q2117.9531,328.6426 2119.1875,328.6426 Q2119.9219,328.6426 2120.5625,328.8145 Q2121.2188,328.9707 2121.7656,329.3301 Z " fill="#000000"/><text fill="#000000" font-family="sans-serif" font-size="16" lengthAdjust="spacing" textLength="118" x="2133" y="340.002">FindCornerTrans</text></g><!--class DirectionalSweepTrans--><g id="elem_DirectionalSweepTrans"><rect codeLine="43" fill="#F1F1F1" height="32" id="DirectionalSweepTrans" rx="2.5" ry="2.5" style="stroke:#181818;stroke-width:0.5;" width="195" x="1828.5" y="317.4551"/><ellipse cx="1843.5" cy="333.4551" fill="#ADD1B2" rx="11" ry="11" style="stroke:#181818;stroke-width:1.0;"/><path d="M1846.2656,329.3301 Q1846.4219,329.1113 1846.6094,329.002 Q1846.7969,328.8926 1847.0156,328.8926 Q1847.3906,328.8926 1847.625,329.1582 Q1847.8594,329.4082 1847.8594,330.0176 L1847.8594,331.4707 Q1847.8594,332.0801 1847.625,332.3457 Q1847.3906,332.6113 1847.0156,332.6113 Q1846.6719,332.6113 1846.4688,332.4082 Q1846.2656,332.2207 1846.1563,331.7051 Q1846.1094,331.3457 1845.9219,331.1582 Q1845.5938,330.7832 1844.9844,330.5645 Q1844.375,330.3457 1843.75,330.3457 Q1842.9844,330.3457 1842.3438,330.6738 Q1841.7188,331.002 1841.2188,331.752 Q1840.7344,332.502 1840.7344,333.5332 L1840.7344,334.627 Q1840.7344,335.8613 1841.625,336.6895 Q1842.5156,337.502 1844.1094,337.502 Q1845.0469,337.502 1845.7031,337.252 Q1846.0938,337.0957 1846.5156,336.6582 Q1846.7813,336.3926 1846.9219,336.3145 Q1847.0781,336.2363 1847.2813,336.2363 Q1847.6094,336.2363 1847.8594,336.502 Q1848.125,336.752 1848.125,337.0957 Q1848.125,337.4395 1847.7813,337.8457 Q1847.2813,338.4238 1846.4844,338.752 Q1845.4063,339.2051 1844.1094,339.2051 Q1842.5938,339.2051 1841.3906,338.5801 Q1840.4063,338.0801 1839.7188,337.0176 Q1839.0313,335.9395 1839.0313,334.6582 L1839.0313,333.502 Q1839.0313,332.1738 1839.6406,331.0332 Q1840.2656,329.877 1841.3594,329.2676 Q1842.4531,328.6426 1843.6875,328.6426 Q1844.4219,328.6426 1845.0625,328.8145 Q1845.7188,328.9707 1846.2656,329.3301 Z " fill="#000000"/><text fill="#000000" font-family="sans-serif" font-size="16" lengthAdjust="spacing" textLength="163" x="1857.5" y="340.002">DirectionalSweepTrans</text></g><!--class FindEdgeTrans--><g id="elem_FindEdgeTrans"><rect codeLine="44" fill="#F1F1F1" height="32" id="FindEdgeTrans" rx="2.5" ry="2.5" style="stroke:#181818;stroke-width:0.5;" width="140" x="1608" y="317.4551"/><ellipse cx="1623" cy="333.4551" fill="#ADD1B2" rx="11" ry="11" style="stroke:#181818;stroke-width:1.0;"/><path d="M1625.7656,329.3301 Q1625.9219,329.1113 1626.1094,329.002 Q1626.2969,328.8926 1626.5156,328.8926 Q1626.8906,328.8926 1627.125,329.1582 Q1627.3594,329.4082 1627.3594,330.0176 L1627.3594,331.4707 Q1627.3594,332.0801 1627.125,332.3457 Q1626.8906,332.6113 1626.5156,332.6113 Q1626.1719,332.6113 1625.9688,332.4082 Q1625.7656,332.2207 1625.6563,331.7051 Q1625.6094,331.3457 1625.4219,331.1582 Q1625.0938,330.7832 1624.4844,330.5645 Q1623.875,330.3457 1623.25,330.3457 Q1622.4844,330.3457 1621.8438,330.6738 Q1621.2188,331.002 1620.7188,331.752 Q1620.2344,332.502 1620.2344,333.5332 L1620.2344,334.627 Q1620.2344,335.8613 1621.125,336.6895 Q1622.0156,337.502 1623.6094,337.502 Q1624.5469,337.502 1625.2031,337.252 Q1625.5938,337.0957 1626.0156,336.6582 Q1626.2813,336.3926 1626.4219,336.3145 Q1626.5781,336.2363 1626.7813,336.2363 Q1627.1094,336.2363 1627.3594,336.502 Q1627.625,336.752 1627.625,337.0957 Q1627.625,337.4395 1627.2813,337.8457 Q1626.7813,338.4238 1625.9844,338.752 Q1624.9063,339.2051 1623.6094,339.2051 Q1622.0938,339.2051 1620.8906,338.5801 Q1619.9063,338.0801 1619.2188,337.0176 Q1618.5313,335.9395 1618.5313,334.6582 L1618.5313,333.502 Q1618.5313,332.1738 1619.1406,331.0332 Q1619.7656,329.877 1620.8594,329.2676 Q1621.9531,328.6426 1623.1875,328.6426 Q1623.9219,328.6426 1624.5625,328.8145 Q1625.2188,328.9707 1625.7656,329.3301 Z " fill="#000000"/><text fill="#000000" font-family="sans-serif" font-size="16" lengthAdjust="spacing" textLength="108" x="1637" y="340.002">FindEdgeTrans</text></g><!--class FlyDistanceTrans--><g id="elem_FlyDistanceTrans"><rect codeLine="49" fill="#F1F1F1" height="32" id="FlyDistanceTrans" rx="2.5" ry="2.5" style="stroke:#181818;stroke-width:0.5;" width="153" x="348.5" y="317.4551"/><ellipse cx="363.5" cy="333.4551" fill="#ADD1B2" rx="11" ry="11" style="stroke:#181818;stroke-width:1.0;"/><path d="M366.2656,329.3301 Q366.4219,329.1113 366.6094,329.002 Q366.7969,328.8926 367.0156,328.8926 Q367.3906,328.8926 367.625,329.1582 Q367.8594,329.4082 367.8594,330.0176 L367.8594,331.4707 Q367.8594,332.0801 367.625,332.3457 Q367.3906,332.6113 367.0156,332.6113 Q366.6719,332.6113 366.4688,332.4082 Q366.2656,332.2207 366.1563,331.7051 Q366.1094,331.3457 365.9219,331.1582 Q365.5938,330.7832 364.9844,330.5645 Q364.375,330.3457 363.75,330.3457 Q362.9844,330.3457 362.3438,330.6738 Q361.7188,331.002 361.2188,331.752 Q360.7344,332.502 360.7344,333.5332 L360.7344,334.627 Q360.7344,335.8613 361.625,336.6895 Q362.5156,337.502 364.1094,337.502 Q365.0469,337.502 365.7031,337.252 Q366.0938,337.0957 366.5156,336.6582 Q366.7813,336.3926 366.9219,336.3145 Q367.0781,336.2363 367.2813,336.2363 Q367.6094,336.2363 367.8594,336.502 Q368.125,336.752 368.125,337.0957 Q368.125,337.4395 367.7813,337.8457 Q367.2813,338.4238 366.4844,338.752 Q365.4063,339.2051 364.1094,339.2051 Q362.5938,339.2051 361.3906,338.5801 Q360.4063,338.0801 359.7188,337.0176 Q359.0313,335.9395 359.0313,334.6582 L359.0313,333.502 Q359.0313,332.1738 359.6406,331.0332 Q360.2656,329.877 361.3594,329.2676 Q362.4531,328.6426 363.6875,328.6426 Q364.4219,328.6426 365.0625,328.8145 Q365.7188,328.9707 366.2656,329.3301 Z " fill="#000000"/><text fill="#000000" font-family="sans-serif" font-size="16" lengthAdjust="spacing" textLength="121" x="377.5" y="340.002">FlyDistanceTrans</text></g><!--class InPositionTurnTrans--><g id="elem_InPositionTurnTrans"><rect codeLine="50" fill="#F1F1F1" height="32" id="InPositionTurnTrans" rx="2.5" ry="2.5" style="stroke:#181818;stroke-width:0.5;" width="169" x="581.5" y="317.4551"/><ellipse cx="596.5" cy="333.4551" fill="#ADD1B2" rx="11" ry="11" style="stroke:#181818;stroke-width:1.0;"/><path d="M599.2656,329.3301 Q599.4219,329.1113 599.6094,329.002 Q599.7969,328.8926 600.0156,328.8926 Q600.3906,328.8926 600.625,329.1582 Q600.8594,329.4082 600.8594,330.0176 L600.8594,331.4707 Q600.8594,332.0801 600.625,332.3457 Q600.3906,332.6113 600.0156,332.6113 Q599.6719,332.6113 599.4688,332.4082 Q599.2656,332.2207 599.1563,331.7051 Q599.1094,331.3457 598.9219,331.1582 Q598.5938,330.7832 597.9844,330.5645 Q597.375,330.3457 596.75,330.3457 Q595.9844,330.3457 595.3438,330.6738 Q594.7188,331.002 594.2188,331.752 Q593.7344,332.502 593.7344,333.5332 L593.7344,334.627 Q593.7344,335.8613 594.625,336.6895 Q595.5156,337.502 597.1094,337.502 Q598.0469,337.502 598.7031,337.252 Q599.0938,337.0957 599.5156,336.6582 Q599.7813,336.3926 599.9219,336.3145 Q600.0781,336.2363 600.2813,336.2363 Q600.6094,336.2363 600.8594,336.502 Q601.125,336.752 601.125,337.0957 Q601.125,337.4395 600.7813,337.8457 Q600.2813,338.4238 599.4844,338.752 Q598.4063,339.2051 597.1094,339.2051 Q595.5938,339.2051 594.3906,338.5801 Q593.4063,338.0801 592.7188,337.0176 Q592.0313,335.9395 592.0313,334.6582 L592.0313,333.502 Q592.0313,332.1738 592.6406,331.0332 Q593.2656,329.877 594.3594,329.2676 Q595.4531,328.6426 596.6875,328.6426 Q597.4219,328.6426 598.0625,328.8145 Q598.7188,328.9707 599.2656,329.3301 Z " fill="#000000"/><text fill="#000000" font-family="sans-serif" font-size="16" lengthAdjust="spacing" textLength="137" x="610.5" y="340.002">InPositionTurnTrans</text></g><!--class SearchInitialTrans--><g id="elem_SearchInitialTrans"><rect codeLine="51" fill="#F1F1F1" height="32" id="SearchInitialTrans" rx="2.5" ry="2.5" style="stroke:#181818;stroke-width:0.5;" width="156" x="819" y="437.4551"/><ellipse cx="834" cy="453.4551" fill="#ADD1B2" rx="11" ry="11" style="stroke:#181818;stroke-width:1.0;"/><path d="M836.7656,449.3301 Q836.9219,449.1113 837.1094,449.002 Q837.2969,448.8926 837.5156,448.8926 Q837.8906,448.8926 838.125,449.1582 Q838.3594,449.4082 838.3594,450.0176 L838.3594,451.4707 Q838.3594,452.0801 838.125,452.3457 Q837.8906,452.6113 837.5156,452.6113 Q837.1719,452.6113 836.9688,452.4082 Q836.7656,452.2207 836.6563,451.7051 Q836.6094,451.3457 836.4219,451.1582 Q836.0938,450.7832 835.4844,450.5645 Q834.875,450.3457 834.25,450.3457 Q833.4844,450.3457 832.8438,450.6738 Q832.2188,451.002 831.7188,451.752 Q831.2344,452.502 831.2344,453.5332 L831.2344,454.627 Q831.2344,455.8613 832.125,456.6895 Q833.0156,457.502 834.6094,457.502 Q835.5469,457.502 836.2031,457.252 Q836.5938,457.0957 837.0156,456.6582 Q837.2813,456.3926 837.4219,456.3145 Q837.5781,456.2363 837.7813,456.2363 Q838.1094,456.2363 838.3594,456.502 Q838.625,456.752 838.625,457.0957 Q838.625,457.4395 838.2813,457.8457 Q837.7813,458.4238 836.9844,458.752 Q835.9063,459.2051 834.6094,459.2051 Q833.0938,459.2051 831.8906,458.5801 Q830.9063,458.0801 830.2188,457.0176 Q829.5313,455.9395 829.5313,454.6582 L829.5313,453.502 Q829.5313,452.1738 830.1406,451.0332 Q830.7656,449.877 831.8594,449.2676 Q832.9531,448.6426 834.1875,448.6426 Q834.9219,448.6426 835.5625,448.8145 Q836.2188,448.9707 836.7656,449.3301 Z " fill="#000000"/><text fill="#000000" font-family="sans-serif" font-size="16" lengthAdjust="spacing" textLength="124" x="848" y="460.002">SearchInitialTrans</text></g><!--class SearchFinalTrans--><g id="elem_SearchFinalTrans"><rect codeLine="52" fill="#F1F1F1" height="32" id="SearchFinalTrans" rx="2.5" ry="2.5" style="stroke:#181818;stroke-width:0.5;" width="155" x="344.5" y="437.4551"/><ellipse cx="359.5" cy="453.4551" fill="#ADD1B2" rx="11" ry="11" style="stroke:#181818;stroke-width:1.0;"/><path d="M362.2656,449.3301 Q362.4219,449.1113 362.6094,449.002 Q362.7969,448.8926 363.0156,448.8926 Q363.3906,448.8926 363.625,449.1582 Q363.8594,449.4082 363.8594,450.0176 L363.8594,451.4707 Q363.8594,452.0801 363.625,452.3457 Q363.3906,452.6113 363.0156,452.6113 Q362.6719,452.6113 362.4688,452.4082 Q362.2656,452.2207 362.1563,451.7051 Q362.1094,451.3457 361.9219,451.1582 Q361.5938,450.7832 360.9844,450.5645 Q360.375,450.3457 359.75,450.3457 Q358.9844,450.3457 358.3438,450.6738 Q357.7188,451.002 357.2188,451.752 Q356.7344,452.502 356.7344,453.5332 L356.7344,454.627 Q356.7344,455.8613 357.625,456.6895 Q358.5156,457.502 360.1094,457.502 Q361.0469,457.502 361.7031,457.252 Q362.0938,457.0957 362.5156,456.6582 Q362.7813,456.3926 362.9219,456.3145 Q363.0781,456.2363 363.2813,456.2363 Q363.6094,456.2363 363.8594,456.502 Q364.125,456.752 364.125,457.0957 Q364.125,457.4395 363.7813,457.8457 Q363.2813,458.4238 362.4844,458.752 Q361.4063,459.2051 360.1094,459.2051 Q358.5938,459.2051 357.3906,458.5801 Q356.4063,458.0801 355.7188,457.0176 Q355.0313,455.9395 355.0313,454.6582 L355.0313,453.502 Q355.0313,452.1738 355.6406,451.0332 Q356.2656,449.877 357.3594,449.2676 Q358.4531,448.6426 359.6875,448.6426 Q360.4219,448.6426 361.0625,448.8145 Q361.7188,448.9707 362.2656,449.3301 Z " fill="#000000"/><text fill="#000000" font-family="sans-serif" font-size="16" lengthAdjust="spacing" textLength="123" x="373.5" y="460.002">SearchFinalTrans</text></g><!--class EdgeSearchTrans--><g id="elem_EdgeSearchTrans"><rect codeLine="53" fill="#F1F1F1" height="32" id="EdgeSearchTrans" rx="2.5" ry="2.5" style="stroke:#181818;stroke-width:0.5;" width="159" x="579.5" y="437.4551"/><ellipse cx="594.5" cy="453.4551" fill="#ADD1B2" rx="11" ry="11" style="stroke:#181818;stroke-width:1.0;"/><path d="M597.2656,449.3301 Q597.4219,449.1113 597.6094,449.002 Q597.7969,448.8926 598.0156,448.8926 Q598.3906,448.8926 598.625,449.1582 Q598.8594,449.4082 598.8594,450.0176 L598.8594,451.4707 Q598.8594,452.0801 598.625,452.3457 Q598.3906,452.6113 598.0156,452.6113 Q597.6719,452.6113 597.4688,452.4082 Q597.2656,452.2207 597.1563,451.7051 Q597.1094,451.3457 596.9219,451.1582 Q596.5938,450.7832 595.9844,450.5645 Q595.375,450.3457 594.75,450.3457 Q593.9844,450.3457 593.3438,450.6738 Q592.7188,451.002 592.2188,451.752 Q591.7344,452.502 591.7344,453.5332 L591.7344,454.627 Q591.7344,455.8613 592.625,456.6895 Q593.5156,457.502 595.1094,457.502 Q596.0469,457.502 596.7031,457.252 Q597.0938,457.0957 597.5156,456.6582 Q597.7813,456.3926 597.9219,456.3145 Q598.0781,456.2363 598.2813,456.2363 Q598.6094,456.2363 598.8594,456.502 Q599.125,456.752 599.125,457.0957 Q599.125,457.4395 598.7813,457.8457 Q598.2813,458.4238 597.4844,458.752 Q596.4063,459.2051 595.1094,459.2051 Q593.5938,459.2051 592.3906,458.5801 Q591.4063,458.0801 590.7188,457.0176 Q590.0313,455.9395 590.0313,454.6582 L590.0313,453.502 Q590.0313,452.1738 590.6406,451.0332 Q591.2656,449.877 592.3594,449.2676 Q593.4531,448.6426 594.6875,448.6426 Q595.4219,448.6426 596.0625,448.8145 Q596.7188,448.9707 597.2656,449.3301 Z " fill="#000000"/><text fill="#000000" font-family="sans-serif" font-size="16" lengthAdjust="spacing" textLength="127" x="608.5" y="460.002">EdgeSearchTrans</text></g><!--class Search--><g id="elem_Search"><rect codeLine="54" fill="#F1F1F1" height="32" id="Search" rx="2.5" ry="2.5" style="stroke:#181818;stroke-width:0.5;" width="120" x="831" y="317.4551"/><ellipse cx="862.65" cy="333.4551" fill="#B4A7E5" rx="11" ry="11" style="stroke:#181818;stroke-width:1.0;"/><path d="M863.6031,330.0957 L863.6031,336.752 L865.3219,336.752 Q865.9313,336.752 866.1969,336.9863 Q866.4625,337.2207 866.4625,337.6113 Q866.4625,337.9863 866.1969,338.2207 Q865.9313,338.4551 865.3219,338.4551 L860.1813,338.4551 Q859.5719,338.4551 859.3063,338.2207 Q859.0406,337.9863 859.0406,337.5957 Q859.0406,337.2207 859.3063,336.9863 Q859.5719,336.752 860.1813,336.752 L861.9,336.752 L861.9,330.0957 L860.1813,330.0957 Q859.5719,330.0957 859.3063,329.8613 Q859.0406,329.627 859.0406,329.2363 Q859.0406,328.8613 859.3063,328.627 Q859.5719,328.3926 860.1813,328.3926 L865.3219,328.3926 Q865.9313,328.3926 866.1969,328.627 Q866.4625,328.8613 866.4625,329.2363 Q866.4625,329.627 866.1969,329.8613 Q865.9313,330.0957 865.3219,330.0957 L863.6031,330.0957 Z " fill="#000000"/><text fill="#000000" font-family="sans-serif" font-size="16" font-style="italic" lengthAdjust="spacing" textLength="51" x="880.35" y="340.002">Search</text></g><!--class Scan--><g id="elem_Scan"><rect codeLine="57" fill="#F1F1F1" height="32" id="Scan" rx="2.5" ry="2.5" style="stroke:#181818;stroke-width:0.5;" width="120" x="1231" y="317.4551"/><ellipse cx="1269.4" cy="333.4551" fill="#ADD1B2" rx="11" ry="11" style="stroke:#181818;stroke-width:1.0;"/><path d="M1272.1656,329.3301 Q1272.3219,329.1113 1272.5094,329.002 Q1272.6969,328.8926 1272.9156,328.8926 Q1273.2906,328.8926 1273.525,329.1582 Q1273.7594,329.4082 1273.7594,330.0176 L1273.7594,331.4707 Q1273.7594,332.0801 1273.525,332.3457 Q1273.2906,332.6113 1272.9156,332.6113 Q1272.5719,332.6113 1272.3688,332.4082 Q1272.1656,332.2207 1272.0563,331.7051 Q1272.0094,331.3457 1271.8219,331.1582 Q1271.4938,330.7832 1270.8844,330.5645 Q1270.275,330.3457 1269.65,330.3457 Q1268.8844,330.3457 1268.2438,330.6738 Q1267.6188,331.002 1267.1188,331.752 Q1266.6344,332.502 1266.6344,333.5332 L1266.6344,334.627 Q1266.6344,335.8613 1267.525,336.6895 Q1268.4156,337.502 1270.0094,337.502 Q1270.9469,337.502 1271.6031,337.252 Q1271.9938,337.0957 1272.4156,336.6582 Q1272.6813,336.3926 1272.8219,336.3145 Q1272.9781,336.2363 1273.1813,336.2363 Q1273.5094,336.2363 1273.7594,336.502 Q1274.025,336.752 1274.025,337.0957 Q1274.025,337.4395 1273.6813,337.8457 Q1273.1813,338.4238 1272.3844,338.752 Q1271.3063,339.2051 1270.0094,339.2051 Q1268.4938,339.2051 1267.2906,338.5801 Q1266.3063,338.0801 1265.6188,337.0176 Q1264.9313,335.9395 1264.9313,334.6582 L1264.9313,333.502 Q1264.9313,332.1738 1265.5406,331.0332 Q1266.1656,329.877 1267.2594,329.2676 Q1268.3531,328.6426 1269.5875,328.6426 Q1270.3219,328.6426 1270.9625,328.8145 Q1271.6188,328.9707 1272.1656,329.3301 Z " fill="#000000"/><text fill="#000000" font-family="sans-serif" font-size="16" lengthAdjust="spacing" textLength="36" x="1288.6" y="340.002">Scan</text></g><!--class FlyDistance--><g id="elem_FlyDistance"><rect codeLine="58" fill="#F1F1F1" height="32" id="FlyDistance" rx="2.5" ry="2.5" style="stroke:#181818;stroke-width:0.5;" width="120" x="1031" y="317.4551"/><ellipse cx="1048.7" cy="333.4551" fill="#ADD1B2" rx="11" ry="11" style="stroke:#181818;stroke-width:1.0;"/><path d="M1051.4656,329.3301 Q1051.6219,329.1113 1051.8094,329.002 Q1051.9969,328.8926 1052.2156,328.8926 Q1052.5906,328.8926 1052.825,329.1582 Q1053.0594,329.4082 1053.0594,330.0176 L1053.0594,331.4707 Q1053.0594,332.0801 1052.825,332.3457 Q1052.5906,332.6113 1052.2156,332.6113 Q1051.8719,332.6113 1051.6688,332.4082 Q1051.4656,332.2207 1051.3563,331.7051 Q1051.3094,331.3457 1051.1219,331.1582 Q1050.7938,330.7832 1050.1844,330.5645 Q1049.575,330.3457 1048.95,330.3457 Q1048.1844,330.3457 1047.5438,330.6738 Q1046.9188,331.002 1046.4188,331.752 Q1045.9344,332.502 1045.9344,333.5332 L1045.9344,334.627 Q1045.9344,335.8613 1046.825,336.6895 Q1047.7156,337.502 1049.3094,337.502 Q1050.2469,337.502 1050.9031,337.252 Q1051.2938,337.0957 1051.7156,336.6582 Q1051.9813,336.3926 1052.1219,336.3145 Q1052.2781,336.2363 1052.4813,336.2363 Q1052.8094,336.2363 1053.0594,336.502 Q1053.325,336.752 1053.325,337.0957 Q1053.325,337.4395 1052.9813,337.8457 Q1052.4813,338.4238 1051.6844,338.752 Q1050.6063,339.2051 1049.3094,339.2051 Q1047.7938,339.2051 1046.5906,338.5801 Q1045.6063,338.0801 1044.9188,337.0176 Q1044.2313,335.9395 1044.2313,334.6582 L1044.2313,333.502 Q1044.2313,332.1738 1044.8406,331.0332 Q1045.4656,329.877 1046.5594,329.2676 Q1047.6531,328.6426 1048.8875,328.6426 Q1049.6219,328.6426 1050.2625,328.8145 Q1050.9188,328.9707 1051.4656,329.3301 Z " fill="#000000"/><text fill="#000000" font-family="sans-serif" font-size="16" lengthAdjust="spacing" textLength="82" x="1063.3" y="340.002">FlyDistance</text></g><!--class UTurn--><g id="elem_UTurn"><rect codeLine="65" fill="#F1F1F1" height="32" id="UTurn" rx="2.5" ry="2.5" style="stroke:#181818;stroke-width:0.5;" width="120" x="4226" y="317.4551"/><ellipse cx="4262.15" cy="333.4551" fill="#ADD1B2" rx="11" ry="11" style="stroke:#181818;stroke-width:1.0;"/><path d="M4264.9156,329.3301 Q4265.0719,329.1113 4265.2594,329.002 Q4265.4469,328.8926 4265.6656,328.8926 Q4266.0406,328.8926 4266.275,329.1582 Q4266.5094,329.4082 4266.5094,330.0176 L4266.5094,331.4707 Q4266.5094,332.0801 4266.275,332.3457 Q4266.0406,332.6113 4265.6656,332.6113 Q4265.3219,332.6113 4265.1188,332.4082 Q4264.9156,332.2207 4264.8063,331.7051 Q4264.7594,331.3457 4264.5719,331.1582 Q4264.2438,330.7832 4263.6344,330.5645 Q4263.025,330.3457 4262.4,330.3457 Q4261.6344,330.3457 4260.9938,330.6738 Q4260.3688,331.002 4259.8688,331.752 Q4259.3844,332.502 4259.3844,333.5332 L4259.3844,334.627 Q4259.3844,335.8613 4260.275,336.6895 Q4261.1656,337.502 4262.7594,337.502 Q4263.6969,337.502 4264.3531,337.252 Q4264.7438,337.0957 4265.1656,336.6582 Q4265.4313,336.3926 4265.5719,336.3145 Q4265.7281,336.2363 4265.9313,336.2363 Q4266.2594,336.2363 4266.5094,336.502 Q4266.775,336.752 4266.775,337.0957 Q4266.775,337.4395 4266.4313,337.8457 Q4265.9313,338.4238 4265.1344,338.752 Q4264.0563,339.2051 4262.7594,339.2051 Q4261.2438,339.2051 4260.0406,338.5801 Q4259.0563,338.0801 4258.3688,337.0176 Q4257.6813,335.9395 4257.6813,334.6582 L4257.6813,333.502 Q4257.6813,332.1738 4258.2906,331.0332 Q4258.9156,329.877 4260.0094,329.2676 Q4261.1031,328.6426 4262.3375,328.6426 Q4263.0719,328.6426 4263.7125,328.8145 Q4264.3688,328.9707 4264.9156,329.3301 Z " fill="#000000"/><text fill="#000000" font-family="sans-serif" font-size="16" lengthAdjust="spacing" textLength="41" x="4280.85" y="340.002">UTurn</text></g><!--class InPositionTurn--><g id="elem_InPositionTurn"><rect codeLine="66" fill="#F1F1F1" height="32" id="InPositionTurn" rx="2.5" ry="2.5" style="stroke:#181818;stroke-width:0.5;" width="130" x="4016" y="317.4551"/><ellipse cx="4031" cy="333.4551" fill="#ADD1B2" rx="11" ry="11" style="stroke:#181818;stroke-width:1.0;"/><path d="M4033.7656,329.3301 Q4033.9219,329.1113 4034.1094,329.002 Q4034.2969,328.8926 4034.5156,328.8926 Q4034.8906,328.8926 4035.125,329.1582 Q4035.3594,329.4082 4035.3594,330.0176 L4035.3594,331.4707 Q4035.3594,332.0801 4035.125,332.3457 Q4034.8906,332.6113 4034.5156,332.6113 Q4034.1719,332.6113 4033.9688,332.4082 Q4033.7656,332.2207 4033.6563,331.7051 Q4033.6094,331.3457 4033.4219,331.1582 Q4033.0938,330.7832 4032.4844,330.5645 Q4031.875,330.3457 4031.25,330.3457 Q4030.4844,330.3457 4029.8438,330.6738 Q4029.2188,331.002 4028.7188,331.752 Q4028.2344,332.502 4028.2344,333.5332 L4028.2344,334.627 Q4028.2344,335.8613 4029.125,336.6895 Q4030.0156,337.502 4031.6094,337.502 Q4032.5469,337.502 4033.2031,337.252 Q4033.5938,337.0957 4034.0156,336.6582 Q4034.2813,336.3926 4034.4219,336.3145 Q4034.5781,336.2363 4034.7813,336.2363 Q4035.1094,336.2363 4035.3594,336.502 Q4035.625,336.752 4035.625,337.0957 Q4035.625,337.4395 4035.2813,337.8457 Q4034.7813,338.4238 4033.9844,338.752 Q4032.9063,339.2051 4031.6094,339.2051 Q4030.0938,339.2051 4028.8906,338.5801 Q4027.9063,338.0801 4027.2188,337.0176 Q4026.5313,335.9395 4026.5313,334.6582 L4026.5313,333.502 Q4026.5313,332.1738 4027.1406,331.0332 Q4027.7656,329.877 4028.8594,329.2676 Q4029.9531,328.6426 4031.1875,328.6426 Q4031.9219,328.6426 4032.5625,328.8145 Q4033.2188,328.9707 4033.7656,329.3301 Z " fill="#000000"/><text fill="#000000" font-family="sans-serif" font-size="16" lengthAdjust="spacing" textLength="98" x="4045" y="340.002">InPositionTurn</text></g><!--class Turn--><g id="elem_Turn"><rect codeLine="67" fill="#F1F1F1" height="32" id="Turn" rx="2.5" ry="2.5" style="stroke:#181818;stroke-width:0.5;" width="120" x="3816" y="317.4551"/><ellipse cx="3857.1" cy="333.4551" fill="#ADD1B2" rx="11" ry="11" style="stroke:#181818;stroke-width:1.0;"/><path d="M3859.8656,329.3301 Q3860.0219,329.1113 3860.2094,329.002 Q3860.3969,328.8926 3860.6156,328.8926 Q3860.9906,328.8926 3861.225,329.1582 Q3861.4594,329.4082 3861.4594,330.0176 L3861.4594,331.4707 Q3861.4594,332.0801 3861.225,332.3457 Q3860.9906,332.6113 3860.6156,332.6113 Q3860.2719,332.6113 3860.0688,332.4082 Q3859.8656,332.2207 3859.7563,331.7051 Q3859.7094,331.3457 3859.5219,331.1582 Q3859.1938,330.7832 3858.5844,330.5645 Q3857.975,330.3457 3857.35,330.3457 Q3856.5844,330.3457 3855.9438,330.6738 Q3855.3188,331.002 3854.8188,331.752 Q3854.3344,332.502 3854.3344,333.5332 L3854.3344,334.627 Q3854.3344,335.8613 3855.225,336.6895 Q3856.1156,337.502 3857.7094,337.502 Q3858.6469,337.502 3859.3031,337.252 Q3859.6938,337.0957 3860.1156,336.6582 Q3860.3813,336.3926 3860.5219,336.3145 Q3860.6781,336.2363 3860.8813,336.2363 Q3861.2094,336.2363 3861.4594,336.502 Q3861.725,336.752 3861.725,337.0957 Q3861.725,337.4395 3861.3813,337.8457 Q3860.8813,338.4238 3860.0844,338.752 Q3859.0063,339.2051 3857.7094,339.2051 Q3856.1938,339.2051 3854.9906,338.5801 Q3854.0063,338.0801 3853.3188,337.0176 Q3852.6313,335.9395 3852.6313,334.6582 L3852.6313,333.502 Q3852.6313,332.1738 3853.2406,331.0332 Q3853.8656,329.877 3854.9594,329.2676 Q3856.0531,328.6426 3857.2875,328.6426 Q3858.0219,328.6426 3858.6625,328.8145 Q3859.3188,328.9707 3859.8656,329.3301 Z " fill="#000000"/><text fill="#000000" font-family="sans-serif" font-size="16" lengthAdjust="spacing" textLength="30" x="3876.9" y="340.002">Turn</text></g><!--class Stop--><g id="elem_Stop"><rect codeLine="68" fill="#F1F1F1" height="32" id="Stop" rx="2.5" ry="2.5" style="stroke:#181818;stroke-width:0.5;" width="120" x="3616" y="317.4551"/><ellipse cx="3655.75" cy="333.4551" fill="#ADD1B2" rx="11" ry="11" style="stroke:#181818;stroke-width:1.0;"/><path d="M3658.5156,329.3301 Q3658.6719,329.1113 3658.8594,329.002 Q3659.0469,328.8926 3659.2656,328.8926 Q3659.6406,328.8926 3659.875,329.1582 Q3660.1094,329.4082 3660.1094,330.0176 L3660.1094,331.4707 Q3660.1094,332.0801 3659.875,332.3457 Q3659.6406,332.6113 3659.2656,332.6113 Q3658.9219,332.6113 3658.7188,332.4082 Q3658.5156,332.2207 3658.4063,331.7051 Q3658.3594,331.3457 3658.1719,331.1582 Q3657.8438,330.7832 3657.2344,330.5645 Q3656.625,330.3457 3656,330.3457 Q3655.2344,330.3457 3654.5938,330.6738 Q3653.9688,331.002 3653.4688,331.752 Q3652.9844,332.502 3652.9844,333.5332 L3652.9844,334.627 Q3652.9844,335.8613 3653.875,336.6895 Q3654.7656,337.502 3656.3594,337.502 Q3657.2969,337.502 3657.9531,337.252 Q3658.3438,337.0957 3658.7656,336.6582 Q3659.0313,336.3926 3659.1719,336.3145 Q3659.3281,336.2363 3659.5313,336.2363 Q3659.8594,336.2363 3660.1094,336.502 Q3660.375,336.752 3660.375,337.0957 Q3660.375,337.4395 3660.0313,337.8457 Q3659.5313,338.4238 3658.7344,338.752 Q3657.6563,339.2051 3656.3594,339.2051 Q3654.8438,339.2051 3653.6406,338.5801 Q3652.6563,338.0801 3651.9688,337.0176 Q3651.2813,335.9395 3651.2813,334.6582 L3651.2813,333.502 Q3651.2813,332.1738 3651.8906,331.0332 Q3652.5156,329.877 3653.6094,329.2676 Q3654.7031,328.6426 3655.9375,328.6426 Q3656.6719,328.6426 3657.3125,328.8145 Q3657.9688,328.9707 3658.5156,329.3301 Z " fill="#000000"/><text fill="#000000" font-family="sans-serif" font-size="16" lengthAdjust="spacing" textLength="33" x="3675.25" y="340.002">Stop</text></g><!--reverse link AlgorithmManager to Transition--><g id="link_AlgorithmManager_Transition"><path codeLine="28" d="M3258.77,63.4551 C2915.9,63.4551 1603,63.4551 1603,63.4551 C1603,63.4551 1603,113.0751 1603,139.4251 " fill="none" id="AlgorithmManager-backto-Transition" style="stroke:#181818;stroke-width:1.0;"/><polygon fill="#181818" points="3270.77,63.4551,3264.77,59.4551,3258.77,63.4551,3264.77,67.4551,3270.77,63.4551" style="stroke:#181818;stroke-width:1.0;"/><text fill="#000000" font-family="sans-serif" font-size="14" lengthAdjust="spacing" textLength="8" x="3255.005" y="60.2328">1</text><text fill="#000000" font-family="sans-serif" font-size="14" lengthAdjust="spacing" textLength="8" x="1593.575" y="128.328">1</text></g><!--reverse link AlgorithmManager to TransitionInformation--><g id="link_AlgorithmManager_TransitionInformation"><path codeLine="29" d="M3404,91.4851 C3404,108.2651 3404,122.4751 3404,139.3051 " fill="none" id="AlgorithmManager-backto-TransitionInformation" style="stroke:#181818;stroke-width:1.0;"/><polygon fill="#181818" points="3404,79.4851,3400,85.4851,3404,91.4851,3408,85.4851,3404,79.4851" style="stroke:#181818;stroke-width:1.0;"/><text fill="#000000" font-family="sans-serif" font-size="14" lengthAdjust="spacing" textLength="8" x="3411.6188" y="101.9343">1</text><text fill="#000000" font-family="sans-serif" font-size="14" lengthAdjust="spacing" textLength="8" x="3373.6563" y="128.4696">1</text></g><!--reverse link AlgorithmManager to Stage--><g id="link_AlgorithmManager_Stage"><path codeLine="30" d="M3284,91.4851 C3284,108.2651 3284,122.4751 3284,139.3051 " fill="none" id="AlgorithmManager-backto-Stage" style="stroke:#181818;stroke-width:1.0;"/><polygon fill="#181818" points="3284,79.4851,3280,85.4851,3284,91.4851,3288,85.4851,3284,79.4851" style="stroke:#181818;stroke-width:1.0;"/><text fill="#000000" font-family="sans-serif" font-size="14" lengthAdjust="spacing" textLength="8" x="3255.1438" y="101.3135">1</text><text fill="#000000" font-family="sans-serif" font-size="14" lengthAdjust="spacing" textLength="8" x="3290.7813" y="128.4696">1</text></g><!--reverse link AlgorithmManager to ExtIslandEdgeManager--><g id="link_AlgorithmManager_ExtIslandEdgeManager"><path codeLine="31" d="M3443.01,63.4551 C3790.45,63.4551 5139,63.4551 5139,63.4551 C5139,63.4551 5139,614.4551 5139,614.4551 C5139,614.4551 5163.51,614.4551 5191.95,614.4551 " fill="none" id="AlgorithmManager-backto-ExtIslandEdgeManager" style="stroke:#181818;stroke-width:1.0;"/><polygon fill="#181818" points="3431.01,63.4551,3437.01,67.4551,3443.01,63.4551,3437.01,59.4551,3431.01,63.4551" style="stroke:#181818;stroke-width:1.0;"/><text fill="#000000" font-family="sans-serif" font-size="14" lengthAdjust="spacing" textLength="8" x="3439.0172" y="60.2072">1</text><text fill="#000000" font-family="sans-serif" font-size="14" lengthAdjust="spacing" textLength="8" x="5175.9299" y="611.2584">1</text></g><!--reverse link Search to SearchInitialTrans--><g id="link_Search_SearchInitialTrans"><path codeLine="60" d="M911,367.6351 C911,390.5451 911,414.1751 911,437.1451 " fill="none" id="Search-backto-SearchInitialTrans" style="stroke:#181818;stroke-width:1.0;"/><polygon fill="none" points="911,349.6351,905,367.6351,917,367.6351,911,349.6351" style="stroke:#181818;stroke-width:1.0;"/></g><!--reverse link Search to SearchFinalTrans--><g id="link_Search_SearchFinalTrans"><path codeLine="61" d="M871,367.5751 C871,394.6751 871,428.4551 871,428.4551 C871,428.4551 424,428.4551 424,428.4551 C424,428.4551 424,432.4251 424,437.1951 " fill="none" id="Search-backto-SearchFinalTrans" style="stroke:#181818;stroke-width:1.0;"/><polygon fill="none" points="871,349.5751,865,367.5751,877,367.5751,871,349.5751" style="stroke:#181818;stroke-width:1.0;"/></g><!--reverse link Search to EdgeSearchTrans--><g id="link_Search_EdgeSearchTrans"><path codeLine="62" d="M812.94,333.4551 C794.12,333.4551 796.17,333.4551 796.17,333.4551 C796.17,333.4551 796.17,459.4551 796.17,459.4551 C796.17,459.4551 768.97,459.4551 738.79,459.4551 " fill="none" id="Search-backto-EdgeSearchTrans" style="stroke:#181818;stroke-width:1.0;"/><polygon fill="none" points="830.94,333.4551,812.94,327.4551,812.94,339.4551,830.94,333.4551" style="stroke:#181818;stroke-width:1.0;"/></g><!--link FI to SI--><!--link SI to US--><!--link Stage to FIS--><!--link Transition to FIT--><!--reverse link Stage to FirstEcho--><g id="link_Stage_FirstEcho"><path codeLine="75" d="M3185.25,189.5651 C3185.25,223.3651 3185.25,283.3651 3185.25,317.2551 " fill="none" id="Stage-backto-FirstEcho" style="stroke:#181818;stroke-width:1.0;"/><polygon fill="none" points="3185.25,171.5651,3179.25,189.5651,3191.25,189.5651,3185.25,171.5651" style="stroke:#181818;stroke-width:1.0;"/></g><!--reverse link Stage to EchoSweep--><g id="link_Stage_EchoSweep"><path codeLine="76" d="M3158.69,167.4551 C3068.76,167.4551 2928,167.4551 2928,167.4551 C2928,167.4551 2928,275.4651 2928,317.2351 " fill="none" id="Stage-backto-EchoSweep" style="stroke:#181818;stroke-width:1.0;"/><polygon fill="none" points="3176.69,167.4551,3158.69,161.4551,3158.69,173.4551,3176.69,167.4551" style="stroke:#181818;stroke-width:1.0;"/></g><!--reverse link Stage to DirectionalSweep--><g id="link_Stage_DirectionalSweep"><path codeLine="77" d="M3272.83,189.5651 C3272.83,223.3651 3272.83,283.3651 3272.83,317.2551 " fill="none" id="Stage-backto-DirectionalSweep" style="stroke:#181818;stroke-width:1.0;"/><polygon fill="none" points="3272.83,171.5651,3266.83,189.5651,3278.83,189.5651,3272.83,171.5651" style="stroke:#181818;stroke-width:1.0;"/></g><!--reverse link Stage to Scan--><g id="link_Stage_Scan"><path codeLine="78" d="M3182.5,189.6451 C3182.5,205.2351 3182.5,208.4551 3182.5,208.4551 C3182.5,208.4551 1291,208.4551 1291,208.4551 C1291,208.4551 1291,283.6051 1291,317.3651 " fill="none" id="Stage-backto-Scan" style="stroke:#181818;stroke-width:1.0;"/><polygon fill="none" points="3182.5,171.6451,3176.5,189.6451,3188.5,189.6451,3182.5,171.6451" style="stroke:#181818;stroke-width:1.0;"/></g><!--reverse link Stage to FlyDistance--><g id="link_Stage_FlyDistance"><path codeLine="79" d="M3179.75,189.7251 C3179.75,198.8651 3179.75,190.4551 3179.75,190.4551 C3179.75,190.4551 1091,190.4551 1091,190.4551 C1091,190.4551 1091,279.9351 1091,317.3251 " fill="none" id="Stage-backto-FlyDistance" style="stroke:#181818;stroke-width:1.0;"/><polygon fill="none" points="3179.75,171.7251,3173.75,189.7251,3185.75,189.7251,3179.75,171.7251" style="stroke:#181818;stroke-width:1.0;"/></g><!--reverse link Stage to UTurn--><g id="link_Stage_UTurn"><path codeLine="80" d="M3292.17,189.5651 C3292.17,210.5151 3292.17,226.4551 3292.17,226.4551 C3292.17,226.4551 4286,226.4551 4286,226.4551 C4286,226.4551 4286,287.2751 4286,317.2051 " fill="none" id="Stage-backto-UTurn" style="stroke:#181818;stroke-width:1.0;"/><polygon fill="none" points="3292.17,171.5651,3286.17,189.5651,3298.17,189.5651,3292.17,171.5651" style="stroke:#181818;stroke-width:1.0;"/></g><!--reverse link Stage to InPositionTurn--><g id="link_Stage_InPositionTurn"><path codeLine="81" d="M3287.33,189.7751 C3287.33,215.4751 3287.33,244.4551 3287.33,244.4551 C3287.33,244.4551 4081,244.4551 4081,244.4551 C4081,244.4551 4081,291.4351 4081,317.1351 " fill="none" id="Stage-backto-InPositionTurn" style="stroke:#181818;stroke-width:1.0;"/><polygon fill="none" points="3287.33,171.7751,3281.33,189.7751,3293.33,189.7751,3287.33,171.7751" style="stroke:#181818;stroke-width:1.0;"/></g><!--reverse link Stage to Turn--><g id="link_Stage_Turn"><path codeLine="82" d="M3282.5,189.8551 C3282.5,220.0751 3282.5,263.4551 3282.5,263.4551 C3282.5,263.4551 3876,263.4551 3876,263.4551 C3876,263.4551 3876,296.5451 3876,317.2151 " fill="none" id="Stage-backto-Turn" style="stroke:#181818;stroke-width:1.0;"/><polygon fill="none" points="3282.5,171.8551,3276.5,189.8551,3288.5,189.8551,3282.5,171.8551" style="stroke:#181818;stroke-width:1.0;"/></g><!--reverse link Stage to Stop--><g id="link_Stage_Stop"><path codeLine="83" d="M3277.67,189.6651 C3277.67,223.6951 3277.67,281.4551 3277.67,281.4551 C3277.67,281.4551 3676,281.4551 3676,281.4551 C3676,281.4551 3676,302.0251 3676,317.2851 " fill="none" id="Stage-backto-Stop" style="stroke:#181818;stroke-width:1.0;"/><polygon fill="none" points="3277.67,171.6651,3271.67,189.6651,3283.67,189.6651,3277.67,171.6651" style="stroke:#181818;stroke-width:1.0;"/></g><!--reverse link Transition to FirstEchoTrans--><g id="link_Transition_FirstEchoTrans"><path codeLine="84" d="M1681.18,144.4551 C1902.29,144.4551 2639,144.4551 2639,144.4551 C2639,144.4551 2639,271.6351 2639,317.3451 " fill="none" id="Transition-backto-FirstEchoTrans" style="stroke:#181818;stroke-width:1.0;"/><polygon fill="none" points="1663.18,144.4551,1681.18,150.4551,1681.18,138.4551,1663.18,144.4551" style="stroke:#181818;stroke-width:1.0;"/></g><!--reverse link Transition to EchoSweepTrans--><g id="link_Transition_EchoSweepTrans"><path codeLine="85" d="M1681.15,149.4551 C1868.63,149.4551 2412,149.4551 2412,149.4551 C2412,149.4551 2412,272.6851 2412,317.4451 " fill="none" id="Transition-backto-EchoSweepTrans" style="stroke:#181818;stroke-width:1.0;"/><polygon fill="none" points="1663.15,149.4551,1681.15,155.4551,1681.15,143.4551,1663.15,149.4551" style="stroke:#181818;stroke-width:1.0;"/></g><!--reverse link Transition to FindCornerTrans--><g id="link_Transition_FindCornerTrans"><path codeLine="86" d="M1681.01,153.4551 C1828.54,153.4551 2179,153.4551 2179,153.4551 C2179,153.4551 2179,272.8551 2179,317.1651 " fill="none" id="Transition-backto-FindCornerTrans" style="stroke:#181818;stroke-width:1.0;"/><polygon fill="none" points="1663.01,153.4551,1681.01,159.4551,1681.01,147.4551,1663.01,153.4551" style="stroke:#181818;stroke-width:1.0;"/></g><!--reverse link Transition to DirectionalSweepTrans--><g id="link_Transition_DirectionalSweepTrans"><path codeLine="87" d="M1681.37,162.4551 C1774.86,162.4551 1926,162.4551 1926,162.4551 C1926,162.4551 1926,274.7951 1926,317.3651 " fill="none" id="Transition-backto-DirectionalSweepTrans" style="stroke:#181818;stroke-width:1.0;"/><polygon fill="none" points="1663.37,162.4551,1681.37,168.4551,1681.37,156.4551,1663.37,162.4551" style="stroke:#181818;stroke-width:1.0;"/></g><!--reverse link Transition to FindEdgeTrans--><g id="link_Transition_FindEdgeTrans"><path codeLine="88" d="M1635.5,189.5651 C1635.5,223.3651 1635.5,283.3651 1635.5,317.2551 " fill="none" id="Transition-backto-FindEdgeTrans" style="stroke:#181818;stroke-width:1.0;"/><polygon fill="none" points="1635.5,171.5651,1629.5,189.5651,1641.5,189.5651,1635.5,171.5651" style="stroke:#181818;stroke-width:1.0;"/></g><!--reverse link Transition to FlyDistanceTrans--><g id="link_Transition_FlyDistanceTrans"><path codeLine="89" d="M1524.96,144.4551 C1284.91,144.4551 425,144.4551 425,144.4551 C425,144.4551 425,271.6351 425,317.3451 " fill="none" id="Transition-backto-FlyDistanceTrans" style="stroke:#181818;stroke-width:1.0;"/><polygon fill="none" points="1542.96,144.4551,1524.96,138.4551,1524.96,150.4551,1542.96,144.4551" style="stroke:#181818;stroke-width:1.0;"/></g><!--reverse link Transition to InPositionTurnTrans--><g id="link_Transition_InPositionTurnTrans"><path codeLine="90" d="M1524.96,153.4551 C1318.16,153.4551 666,153.4551 666,153.4551 C666,153.4551 666,272.8551 666,317.1651 " fill="none" id="Transition-backto-InPositionTurnTrans" style="stroke:#181818;stroke-width:1.0;"/><polygon fill="none" points="1542.96,153.4551,1524.96,147.4551,1524.96,159.4551,1542.96,153.4551" style="stroke:#181818;stroke-width:1.0;"/></g><!--reverse link Transition to SearchInitialTrans--><g id="link_Transition_SearchInitialTrans"><path codeLine="91" d="M1524.79,162.4551 C1365.47,162.4551 963,162.4551 963,162.4551 C963,162.4551 963,376.3951 963,437.3951 " fill="none" id="Transition-backto-SearchInitialTrans" style="stroke:#181818;stroke-width:1.0;"/><polygon fill="none" points="1542.79,162.4551,1524.79,156.4551,1524.79,168.4551,1542.79,162.4551" style="stroke:#181818;stroke-width:1.0;"/></g><!--reverse link Transition to SearchFinalTrans--><g id="link_Transition_SearchFinalTrans"><path codeLine="92" d="M1524.83,149.4551 C1300.07,149.4551 540.5,149.4551 540.5,149.4551 C540.5,149.4551 540.5,453.4551 540.5,453.4551 C540.5,453.4551 522.05,453.4551 499.72,453.4551 " fill="none" id="Transition-backto-SearchFinalTrans" style="stroke:#181818;stroke-width:1.0;"/><polygon fill="none" points="1542.83,149.4551,1524.83,143.4551,1524.83,155.4551,1542.83,149.4551" style="stroke:#181818;stroke-width:1.0;"/></g><!--reverse link Transition to EdgeSearchTrans--><g id="link_Transition_EdgeSearchTrans"><path codeLine="93" d="M1525,158.4551 C1334.42,158.4551 773.33,158.4551 773.33,158.4551 C773.33,158.4551 773.33,448.4551 773.33,448.4551 C773.33,448.4551 758.08,448.4551 738.72,448.4551 " fill="none" id="Transition-backto-EdgeSearchTrans" style="stroke:#181818;stroke-width:1.0;"/><polygon fill="none" points="1543,158.4551,1525,152.4551,1525,164.4551,1543,158.4551" style="stroke:#181818;stroke-width:1.0;"/></g><!--link N1 to ExtCommandCenter--><g id="link_N1_ExtCommandCenter"><path codeLine="97" d="M5022.75,467.4651 C5022.75,497.1451 5022.75,566.2551 5022.75,597.9851 " fill="none" id="N1-ExtCommandCenter" style="stroke:#181818;stroke-width:1.0;stroke-dasharray:7.0,7.0;"/></g><!--link N2 to ExtCommandCenter--><g id="link_N2_ExtCommandCenter"><path codeLine="98" d="M5165.99,453.4551 C5129.49,453.4551 5098.75,453.4551 5098.75,453.4551 C5098.75,453.4551 5098.75,557.7051 5098.75,598.4251 " fill="none" id="N2-ExtCommandCenter" style="stroke:#181818;stroke-width:1.0;stroke-dasharray:7.0,7.0;"/></g><!--link N3 to ExtCommandCenter--><g id="link_N3_ExtCommandCenter"><path codeLine="99" d="M4557,467.4651 C4557,506.6351 4557,614.4551 4557,614.4551 C4557,614.4551 4824.69,614.4551 4959.84,614.4551 " fill="none" id="N3-ExtCommandCenter" style="stroke:#181818;stroke-width:1.0;stroke-dasharray:7.0,7.0;"/></g><!--link FirstEcho to N1--><g id="link_FirstEcho_N1"><path codeLine="100" d="M3128,349.5251 C3128,368.7751 3128,398.4551 3128,398.4551 C3128,398.4551 4939,398.4551 4939,398.4551 C4939,398.4551 4939,416.9951 4939,433.2951 " fill="none" id="FirstEcho-to-N1" style="stroke:#181818;stroke-width:1.0;stroke-dasharray:7.0,7.0;"/><polygon fill="#181818" points="4939,439.2951,4943,430.2951,4939,434.2951,4935,430.2951,4939,439.2951" style="stroke:#181818;stroke-width:1.0;"/></g><!--link EchoSweep to N1--><g id="link_EchoSweep_N1"><path codeLine="101" d="M2928,349.7251 C2928,371.7851 2928,408.4551 2928,408.4551 C2928,408.4551 4865.75,408.4551 4865.75,408.4551 C4865.75,408.4551 4865.75,420.0351 4865.75,433.2151 " fill="none" id="EchoSweep-to-N1" style="stroke:#181818;stroke-width:1.0;stroke-dasharray:7.0,7.0;"/><polygon fill="#181818" points="4865.75,439.2151,4869.75,430.2151,4865.75,434.2151,4861.75,430.2151,4865.75,439.2151" style="stroke:#181818;stroke-width:1.0;"/></g><!--link DirectionalSweep to N1--><g id="link_DirectionalSweep_N1"><path codeLine="102" d="M3346,349.6551 C3346,366.1951 3346,389.4551 3346,389.4551 C3346,389.4551 5012.25,389.4551 5012.25,389.4551 C5012.25,389.4551 5012.25,414.3951 5012.25,433.2551 " fill="none" id="DirectionalSweep-to-N1" style="stroke:#181818;stroke-width:1.0;stroke-dasharray:7.0,7.0;"/><polygon fill="#181818" points="5012.25,439.2551,5016.25,430.2551,5012.25,434.2551,5008.25,430.2551,5012.25,439.2551" style="stroke:#181818;stroke-width:1.0;"/></g><!--link UTurn to N2--><g id="link_UTurn_N2"><path codeLine="103" d="M4346.23,333.4551 C4572.16,333.4551 5356.4,333.4551 5356.4,333.4551 C5356.4,333.4551 5356.4,401.4351 5356.4,433.2151 " fill="none" id="UTurn-to-N2" style="stroke:#181818;stroke-width:1.0;stroke-dasharray:7.0,7.0;"/><polygon fill="#181818" points="5356.4,439.2151,5360.4,430.2151,5356.4,434.2151,5352.4,430.2151,5356.4,439.2151" style="stroke:#181818;stroke-width:1.0;"/></g><!--link InPositionTurn to N2--><g id="link_InPositionTurn_N2"><path codeLine="104" d="M4081,349.4751 C4081,354.8251 4081,359.4551 4081,359.4551 C4081,359.4551 5308.8,359.4551 5308.8,359.4551 C5308.8,359.4551 5308.8,406.8851 5308.8,433.1751 " fill="none" id="InPositionTurn-to-N2" style="stroke:#181818;stroke-width:1.0;stroke-dasharray:7.0,7.0;"/><polygon fill="#181818" points="5308.8,439.1751,5312.8,430.1751,5308.8,434.1751,5304.8,430.1751,5308.8,439.1751" style="stroke:#181818;stroke-width:1.0;"/></g><!--link Turn to N2--><g id="link_Turn_N2"><path codeLine="105" d="M3876,349.7651 C3876,359.2951 3876,369.4551 3876,369.4551 C3876,369.4551 5261.2,369.4551 5261.2,369.4551 C5261.2,369.4551 5261.2,409.2351 5261.2,433.2051 " fill="none" id="Turn-to-N2" style="stroke:#181818;stroke-width:1.0;stroke-dasharray:7.0,7.0;"/><polygon fill="#181818" points="5261.2,439.2051,5265.2,430.2051,5261.2,434.2051,5257.2,430.2051,5261.2,439.2051" style="stroke:#181818;stroke-width:1.0;"/></g><!--link Stop to N2--><g id="link_Stop_N2"><path codeLine="106" d="M3676,349.5451 C3676,362.8051 3676,379.4551 3676,379.4551 C3676,379.4551 5213.6,379.4551 5213.6,379.4551 C5213.6,379.4551 5213.6,411.6851 5213.6,433.1851 " fill="none" id="Stop-to-N2" style="stroke:#181818;stroke-width:1.0;stroke-dasharray:7.0,7.0;"/><polygon fill="#181818" points="5213.6,439.1851,5217.6,430.1851,5213.6,434.1851,5209.6,430.1851,5213.6,439.1851" style="stroke:#181818;stroke-width:1.0;"/></g><!--link FlyDistance to N3--><g id="link_FlyDistance_N3"><path codeLine="107" d="M1091,349.5451 C1091,383.3051 1091,458.4551 1091,458.4551 C1091,458.4551 3722.39,458.4551 4395.91,458.4551 " fill="none" id="FlyDistance-to-N3" style="stroke:#181818;stroke-width:1.0;stroke-dasharray:7.0,7.0;"/><polygon fill="#181818" points="4401.91,458.4551,4392.91,454.4551,4396.91,458.4551,4392.91,462.4551,4401.91,458.4551" style="stroke:#181818;stroke-width:1.0;"/></g><!--link Scan to N3--><g id="link_Scan_N3"><path codeLine="108" d="M1291,349.5851 C1291,381.4551 1291,449.4551 1291,449.4551 C1291,449.4551 3747.31,449.4551 4395.94,449.4551 " fill="none" id="Scan-to-N3" style="stroke:#181818;stroke-width:1.0;stroke-dasharray:7.0,7.0;"/><polygon fill="#181818" points="4401.94,449.4551,4392.94,445.4551,4396.94,449.4551,4392.94,453.4551,4401.94,449.4551" style="stroke:#181818;stroke-width:1.0;"/></g><!--SRC=[ZLRVQzim47xFNt6u3uD1iYGTeq-5aX-GXuM14_OmHb5j9HQr9ICfjDcM_tqdExObMMvRAAs_xzFvxZlVsHbBAT2Yr6SeQF54fHfbDgGpaJhGWT4S4VNCU4aaAI1ddEfpIK5855i45obLj8IxgGLAmfyD-6qw6ds23Kya9Of2aXEblZ2kgJoGXCAJU0N5_b05XATm45nRCGh65qR_awKwWzdSZby5MgC-njCm- -PJMrBGC5sIv9aSBVBEgKLRp5UBUP1Il8GfXTLGORm9yvhflAEmZD4r1uWEEJjc-f7aHo6Ppee8_eu0Mfg-OcXEyWXkLjLFHKDT8aGBKHJesu8QFoCW2bQlsW5jzKRbYA_I8_rEE8PlJ_G8F7KPDUSUcjmwiYPss6F5D1Dymmz25iJyYonvKbgIH5i2HBkUnnh38E87XcWMmUVnkFhhdFsWqatZpKCVoc706YsEE2wehNlHzPBnbF7Z8wlELEQkDt2pNY-do-bLRCcLIK5TPR7H6MMhQrnUCwdqAi69St43nI-KbXw-P98cnWAIs_J5lxrkRMjosBsVG-NrK28XSesUB8JaL8POFzUX2CP_cwkBkRZsAqfaadaDYB41owbJrA03yLiEvESbmuxnX8QItF0VeWwrEqaUKiHLTXkE8f8F2x3QC6qig2KkQurLnGwrsthQuZUUjZWXVBXqBtY_9XYVol6_UpSNlxAWoAileF7QVT8iP_hyQ1MsZqspJRlRkkeIzgOhe-66ELGFYBKesmpCBqxr-1U-AbFAVqkplyUOw0Q9E43iOqEO93ik5IySAHnxvBhz5H3ipEsQwMjDkIwlTl9ymfyhdpTTzZ6hpJvLsUU3heC-6yACZxsxEfkbOPtbx-wNeCJRCa5DSDSCHcitJbZXROEWAB0JWhhXAGh8-bFaUXMU8aTZFd4WMjSlAwXVS51F4Ppm4wt_KR6TjSVszTIzev-t-hXPoX-xqIqUtCvWCWbzo6pdGyJj0D5DpcHoNvVHpKmBzQQbPUe7lxgSzn_v5dUlgiUylRB7gW9lc_cxNbt-0m00]--></g></svg>